<svg width="9" height="6" viewBox="0 0 9 6" fill="none" xmlns="http://www.w3.org/2000/svg">
<path d="M8.88 0.146213C8.84666 0.100743 8.80307 0.0637674 8.75277 0.0382802C8.70248 0.0127931 8.64688 -0.000488281 8.5905 -0.000488281C8.53411 -0.000488281 8.47852 0.0127931 8.42822 0.0382802C8.37793 0.0637674 8.33434 0.100743 8.301 0.146213L4.5 4.79321L0.699999 0.146213C0.666655 0.100743 0.623069 0.0637674 0.572773 0.0382802C0.522477 0.0127931 0.466884 -0.000488281 0.410499 -0.000488281C0.354114 -0.000488281 0.298521 0.0127931 0.248225 0.0382802C0.197929 0.0637674 0.154343 0.100743 0.120999 0.146213C0.0433909 0.247717 0.00134277 0.371939 0.00134277 0.499713C0.00134277 0.627486 0.0433909 0.751709 0.120999 0.853213L4.212 5.85321C4.24534 5.89868 4.28893 5.93566 4.33922 5.96115C4.38952 5.98663 4.44511 5.99991 4.5015 5.99991C4.55788 5.99991 4.61348 5.98663 4.66377 5.96115C4.71407 5.93566 4.75765 5.89868 4.791 5.85321L8.882 0.853213C8.95948 0.751558 9.00128 0.62719 9.00092 0.499374C9.00055 0.371558 8.95805 0.247428 8.88 0.146213Z" fill="#001027"/>
<path d="M4.211 5.85419L0.121002 0.854191C0.0429138 0.752894 0.000549316 0.628592 0.000549316 0.50069C0.000549316 0.372789 0.0429138 0.248487 0.121002 0.14719C0.154346 0.101721 0.197934 0.0647442 0.24823 0.039257C0.298526 0.0137699 0.354107 0.000488281 0.410492 0.000488281C0.466877 0.000488281 0.522488 0.0137699 0.572784 0.039257C0.623081 0.0647442 0.666668 0.101721 0.700012 0.14719L4.5 4.79419L8.29999 0.14819C8.33346 0.102905 8.37709 0.0661041 8.42737 0.0407448C8.47765 0.0153855 8.5332 0.00217438 8.58951 0.00217438C8.64582 0.00217438 8.70134 0.0153855 8.75162 0.0407448C8.8019 0.0661041 8.84553 0.102905 8.879 0.14819C8.95645 0.249762 8.99841 0.373959 8.99841 0.50169C8.99841 0.629421 8.95645 0.753618 8.879 0.85519L4.78799 5.85519C4.75452 5.90047 4.71089 5.93728 4.66061 5.96264C4.61033 5.98799 4.55482 6.00121 4.4985 6.00121C4.44219 6.00121 4.38667 5.98799 4.3364 5.96264C4.28612 5.93728 4.24249 5.90047 4.20901 5.85519L4.211 5.85419Z" fill="#373144"/>
</svg>
