<svg width="9" height="6" viewBox="0 0 9 6" fill="none" xmlns="http://www.w3.org/2000/svg">
<path d="M8.88 0.146213C8.84666 0.100743 8.80307 0.0637674 8.75277 0.0382802C8.70248 0.0127931 8.64688 -0.000488281 8.5905 -0.000488281C8.53411 -0.000488281 8.47852 0.0127931 8.42822 0.0382802C8.37793 0.0637674 8.33434 0.100743 8.301 0.146213L4.5 4.79321L0.699999 0.146213C0.666655 0.100743 0.623069 0.0637674 0.572773 0.0382802C0.522477 0.0127931 0.466884 -0.000488281 0.410499 -0.000488281C0.354114 -0.000488281 0.298521 0.0127931 0.248225 0.0382802C0.197929 0.0637674 0.154343 0.100743 0.120999 0.146213C0.0433909 0.247717 0.00134277 0.371939 0.00134277 0.499713C0.00134277 0.627486 0.0433909 0.751709 0.120999 0.853213L4.212 5.85321C4.24534 5.89868 4.28893 5.93566 4.33922 5.96115C4.38952 5.98663 4.44511 5.99991 4.5015 5.99991C4.55788 5.99991 4.61348 5.98663 4.66377 5.96115C4.71407 5.93566 4.75765 5.89868 4.791 5.85321L8.882 0.853213C8.95948 0.751558 9.00128 0.62719 9.00092 0.499374C9.00055 0.371558 8.95805 0.247428 8.88 0.146213Z" fill="#001027"/>
<path d="M4.211 5.85419L0.119995 0.854191C0.042387 0.752687 0.000366211 0.628464 0.000366211 0.50069C0.000366211 0.372917 0.042387 0.248694 0.119995 0.14719C0.153339 0.101721 0.196957 0.0647442 0.247253 0.039257C0.29755 0.0137699 0.3531 0.000488281 0.409485 0.000488281C0.46587 0.000488281 0.521481 0.0137699 0.571777 0.039257C0.622074 0.0647442 0.665631 0.101721 0.698975 0.14719L4.49902 4.79419L8.29901 0.14819C8.33236 0.10272 8.37591 0.0657436 8.42621 0.0402565C8.4765 0.0147694 8.53212 0.00148773 8.5885 0.00148773C8.64489 0.00148773 8.7005 0.0147694 8.75079 0.0402565C8.80109 0.0657436 8.84465 0.10272 8.87799 0.14819C8.95544 0.249762 8.99738 0.373959 8.99738 0.50169C8.99738 0.629421 8.95544 0.753618 8.87799 0.85519L4.78699 5.85519C4.75362 5.90047 4.71011 5.93727 4.65991 5.96264C4.60971 5.988 4.55423 6.00121 4.49799 6.00121C4.44174 6.00121 4.38632 5.988 4.33612 5.96264C4.28592 5.93727 4.24235 5.90047 4.20898 5.85519L4.211 5.85419Z" fill="#373144"/>
</svg>
