<svg width="1600" height="706" viewBox="0 0 1600 706" fill="none" xmlns="http://www.w3.org/2000/svg">
<path d="M1600 0H0V706H1600V0Z" fill="#357ECC"/>
<mask id="mask0_1_2306" style="mask-type:luminance" maskUnits="userSpaceOnUse" x="0" y="0" width="1600" height="706">
<path d="M1600 0H0V706H1600V0Z" fill="white"/>
</mask>
<g mask="url(#mask0_1_2306)">
<path opacity="0.302" d="M800.81 1260.71C1167.47 1260.71 1464.71 963.472 1464.71 596.81C1464.71 230.148 1167.47 -67.0901 800.81 -67.0901C434.148 -67.0901 136.91 230.148 136.91 596.81C136.91 963.472 434.148 1260.71 800.81 1260.71Z" fill="#2B74C1"/>
<g opacity="0.302">
<path d="M800 1610.74C1360.43 1610.74 1814.75 1156.42 1814.75 595.99C1814.75 35.559 1360.43 -418.76 800 -418.76C239.569 -418.76 -214.75 35.559 -214.75 595.99C-214.75 1156.42 239.569 1610.74 800 1610.74Z" stroke="#2B74C1" stroke-width="0.5"/>
</g>
<path opacity="0.302" d="M800 1426.89C1258.89 1426.89 1630.9 1054.88 1630.9 595.99C1630.9 137.097 1258.89 -234.91 800 -234.91C341.107 -234.91 -30.9 137.097 -30.9 595.99C-30.9 1054.88 341.107 1426.89 800 1426.89Z" fill="#2B74C1"/>
</g>
</svg>
