<svg width="117" height="54" viewBox="0 0 117 54" fill="none" xmlns="http://www.w3.org/2000/svg">
<g opacity="0.09">
<mask id="mask0_1_1955" style="mask-type:luminance" maskUnits="userSpaceOnUse" x="0" y="0" width="117" height="54">
<path d="M116.832 0.437988H0.187012V53.81H116.832V0.437988Z" fill="white"/>
</mask>
<g mask="url(#mask0_1_1955)">
<path d="M79 47.1649C79.9 44.654 81.1792 42.2957 82.793 40.1719C84.3458 37.8668 86.0583 35.6734 87.918 33.6079C89.5652 31.8998 91.313 30.2916 93.152 28.7919C94.979 27.2569 96.836 25.7539 98.584 24.1269C100.325 22.5498 101.886 20.7836 103.236 18.8609C103.4 18.6202 103.559 18.3766 103.714 18.1299C103.856 17.9049 103.501 17.6969 103.36 17.9219C102.076 19.9041 100.554 21.7211 98.827 23.3319C97.106 24.9839 95.26 26.4969 93.427 28.0249C91.577 29.5252 89.805 31.1193 88.118 32.8009C86.2368 34.8071 84.5124 36.9547 82.96 39.2249C81.3293 41.3454 79.9735 43.6639 78.925 46.1249C78.8083 46.4302 78.7003 46.7389 78.601 47.0509C78.521 47.3049 78.917 47.4139 79.001 47.1609" fill="#004383"/>
<path d="M103.173 18.859C102.886 16.8417 103.181 14.7845 104.023 12.929C104.785 11.055 105.843 9.31796 106.736 7.50396C107.844 5.25078 108.698 2.88118 109.282 0.438965C109.007 3.1723 108.607 5.89096 108.082 8.59496C107.39 12.166 105.754 16.312 103.171 18.859" fill="#004383"/>
<path d="M98.338 24.325C99.9687 22.841 101.975 21.8315 104.138 21.406C106.264 20.8892 108.349 20.214 110.375 19.386C112.749 18.4217 114.935 17.046 116.831 15.322C115.203 18.5658 112.481 21.1296 109.146 22.56C105.61 24.0449 101.801 24.7699 97.967 24.688" fill="#004383"/>
<path d="M95.707 26.412C95.83 24.812 95.001 23.326 94.507 21.803C94.0586 20.4165 93.8831 18.9563 93.99 17.503C94.1411 16.072 94.4294 14.6588 94.851 13.283C95.7904 9.82768 96.729 6.37202 97.667 2.91602C97.29 6.81602 97.601 10.746 97.579 14.664C97.557 18.582 97.579 22.764 95.926 26.313" fill="#004383"/>
<path d="M91.168 30.2779C92.797 29.0619 95.158 28.9339 97.184 28.8429C99.21 28.7519 101.244 28.9499 103.267 28.8049C106.867 28.5479 110.292 27.2219 113.656 25.9099C111.756 28.0219 109.756 30.2039 107.116 31.2429C106.19 31.5909 105.228 31.8318 104.247 31.9609C101.426 32.3749 98.5514 32.2391 95.782 31.5609C94.2291 31.0934 92.6347 30.7766 91.021 30.6149" fill="#004383"/>
<path d="M88.481 32.8159C86.8522 30.7415 85.9902 28.1679 86.041 25.5309C86.0702 24.4668 86.1705 23.4057 86.341 22.3549C86.9737 17.8176 87.607 13.2803 88.241 8.74292C89.441 13.5729 90.646 18.5669 89.841 23.4779C89.341 26.5429 88.45 29.6979 88.71 32.7929" fill="#004383"/>
<path d="M85.132 36.726C85.8925 36.1781 86.7577 35.7929 87.6738 35.5943C88.5898 35.3958 89.5369 35.3882 90.456 35.572C92.2868 35.9507 94.1383 36.2212 96.001 36.382C99.393 36.405 102.653 34.608 106.03 34.927C104.526 36.3231 102.732 37.3693 100.776 37.9906C98.8207 38.6119 96.7519 38.7931 94.718 38.521C91.606 38.081 88.262 36.45 85.131 36.721" fill="#004383"/>
<path d="M83.306 39.374C82.7135 38.3845 82.0602 37.4327 81.35 36.524C79.8 34.124 79.583 31.095 79.78 28.241C79.977 25.387 80.541 22.541 80.369 19.687C81.531 22.6659 82.2715 25.7924 82.569 28.976C82.7889 30.3364 82.9255 31.709 82.978 33.086C83.017 35.286 83.691 37.21 83.302 39.375" fill="#004383"/>
<path d="M82.054 41.967C83.038 40.884 84.762 41.15 86.189 41.449C90.2244 42.2964 94.3376 42.7184 98.461 42.708C93.561 45.533 86.461 45.523 82.054 41.967Z" fill="#004383"/>
<path d="M80.737 42.672C79.2296 41.5577 77.9593 40.1545 77 38.544C76.2993 36.9493 75.9328 35.2279 75.923 33.486C75.8167 31.9006 75.8104 30.3102 75.904 28.724C77.827 32.892 79.958 37.916 80.791 42.435" fill="#004383"/>
<path d="M38.478 53.418C36.2637 51.9391 34.29 50.1287 32.626 48.05C30.7674 45.9835 29.0562 43.7891 27.505 41.483C26.2462 39.4664 25.1085 37.3767 24.098 35.225C23.051 33.075 22.04 30.904 20.884 28.809C19.7763 26.7339 18.4411 24.7886 16.903 23.009C16.7097 22.7917 16.5123 22.578 16.311 22.368C16.127 22.176 15.842 22.474 16.025 22.668C17.6361 24.3957 19.0288 26.3147 20.172 28.382C21.358 30.457 22.381 32.619 23.421 34.77C24.4299 36.9332 25.5484 39.0436 26.772 41.093C28.2614 43.4058 29.9256 45.6012 31.75 47.66C33.4091 49.7548 35.3274 51.6304 37.459 53.242C37.7257 53.4293 37.9983 53.6083 38.277 53.779C38.503 53.918 38.704 53.557 38.478 53.418Z" fill="#004383"/>
<path d="M16.887 23.072C14.8686 22.8725 12.9506 22.0951 11.363 20.833C9.734 19.643 8.309 18.197 6.768 16.893C4.85809 15.2757 2.7727 13.878 0.550995 12.726C3.12699 13.6446 5.65766 14.6806 8.143 15.834C11.427 17.359 15.043 19.943 16.887 23.072Z" fill="#004383"/>
<path d="M21.017 29.1C19.9703 27.1487 19.4726 24.9499 19.577 22.738C19.5831 20.5381 19.4263 18.3408 19.108 16.164C18.742 13.6186 17.9328 11.157 16.717 8.89099C19.4701 11.2639 21.2986 14.5314 21.881 18.119C22.4752 21.9291 22.2709 25.8211 21.281 29.548" fill="#004383"/>
<path d="M22.407 32.162C20.895 31.662 19.259 32.119 17.671 32.239C16.227 32.348 14.7757 32.1731 13.399 31.724C12.0523 31.2355 10.7559 30.618 9.528 29.88L0.186005 24.666C3.863 25.96 7.732 26.59 11.51 27.542C15.288 28.494 19.336 29.463 22.366 31.925" fill="#004383"/>
<path d="M25.062 37.5149C24.275 35.6349 24.713 33.2969 25.106 31.2959C25.499 29.2949 26.173 27.3539 26.514 25.3429C27.12 21.7659 26.654 18.1029 26.186 14.5039C27.774 16.8649 29.405 19.3369 29.786 22.1619C29.9019 23.1496 29.9059 24.1473 29.798 25.1359C29.5288 27.9893 28.7162 30.7649 27.404 33.3129C26.5835 34.7202 25.899 36.2026 25.36 37.7399" fill="#004383"/>
<path d="M26.875 40.744C24.4905 41.8428 21.797 42.0741 19.26 41.398C18.2377 41.1165 17.2355 40.7667 16.26 40.351L3.56601 35.264C8.51501 35.24 13.624 35.248 18.174 37.204C21.013 38.425 23.85 40.04 26.901 40.523" fill="#004383"/>
<path d="M29.855 44.9449C29.5068 44.0696 29.3406 43.1325 29.3667 42.1908C29.3929 41.2491 29.6107 40.3226 30.007 39.4679C30.8076 37.7681 31.5088 36.0231 32.107 34.2419C32.934 30.9339 31.974 27.3209 33.084 24.0969C34.0748 25.9038 34.6582 27.9056 34.7933 29.9618C34.9284 32.0181 34.6119 34.079 33.866 35.9999C32.702 38.9359 30.333 41.8169 29.855 44.9409" fill="#004383"/>
<path d="M31.979 47.3579C30.882 47.7023 29.8076 48.1147 28.762 48.5929C26.077 49.5379 23.1 49.0299 20.39 48.1589C17.68 47.2879 15.069 46.0589 12.27 45.5509C15.4211 45.1219 18.617 45.1401 21.763 45.6049C23.129 45.7126 24.4869 45.905 25.829 46.1809C27.963 46.6659 29.98 46.4639 31.979 47.3579Z" fill="#004383"/>
<path d="M34.185 49.1999C33.373 47.9819 34.039 46.3599 34.668 45.0359C36.4466 41.2915 37.8314 37.3725 38.8 33.3419C40.363 38.8039 38.667 45.7339 34.186 49.1969" fill="#004383"/>
<path d="M34.552 50.6519C33.1214 51.8563 31.4647 52.7627 29.679 53.3179C27.9737 53.6237 26.2237 53.573 24.539 53.1689C22.9836 52.896 21.4472 52.5242 19.939 52.0559C24.421 51.1669 29.779 50.2779 34.339 50.5389" fill="#004383"/>
</g>
</g>
</svg>
