<svg width="457" height="267" viewBox="0 0 457 267" fill="none" xmlns="http://www.w3.org/2000/svg">
<mask id="mask0_1_2362" style="mask-type:luminance" maskUnits="userSpaceOnUse" x="-14" y="-12" width="484" height="299">
<path d="M470 -12H-14V287H470V-12Z" fill="white"/>
</mask>
<g mask="url(#mask0_1_2362)">
<path d="M99.708 30.808C101.527 30.808 103.001 29.3283 103.001 27.503C103.001 25.6777 101.527 24.198 99.708 24.198C97.8893 24.198 96.415 25.6777 96.415 27.503C96.415 29.3283 97.8893 30.808 99.708 30.808Z" stroke="#0F214E" stroke-width="0.614" stroke-miterlimit="10"/>
<path d="M102.155 29.708L104.249 31.81" stroke="#0F214E" stroke-width="0.614" stroke-miterlimit="10"/>
<path d="M225.983 187.637C235.088 179.97 243.577 169.948 244.099 158.029C244.299 153.472 242.552 148.052 238.158 146.887C234.173 145.829 230.212 148.917 228.035 152.431C225.858 155.945 224.661 160.074 221.997 163.231C221.664 163.706 221.24 164.11 220.748 164.418C220.257 164.726 219.709 164.932 219.136 165.025C217.22 165.131 215.836 162.95 215.976 161.025C216.116 159.1 217.286 157.439 218.346 155.831C223.667 147.74 227.169 138.59 228.609 129.014C229.083 125.847 229.309 122.504 228.109 119.538C226.909 116.572 223.896 114.129 220.735 114.555C216.728 115.097 214.635 119.476 212.951 123.164C211.267 126.852 208.223 130.982 204.239 130.29C205.668 126.423 207.119 122.39 206.702 118.282C206.285 114.174 203.386 110.014 199.296 109.611C195.713 109.257 192.371 111.897 190.748 115.124C189.125 118.351 188.855 122.069 188.614 125.675C187.422 143.521 186.229 161.367 185.036 179.213C184.597 185.787 184.169 192.494 185.788 198.879C187.999 207.598 195.358 214.606 202.898 207.622C210.416 200.657 218.133 194.246 225.986 187.633" fill="#E5E9FE"/>
<path d="M26.474 156.2C19.513 153.111 12.219 149.76 7.76 143.568C3.301 137.376 3.06 127.429 9.297 123.047C14.373 119.481 21.209 120.873 27.397 121.08C33.585 121.287 41.285 118.659 41.86 112.467C42.224 108.549 39.468 105.144 37.46 101.767C32.734 93.8139 32.67 81.7989 40.505 76.9089C48.405 71.9739 58.96 77.2909 64.944 84.4499C70.928 91.6089 74.758 100.662 82 106.536C85.029 108.993 89.2 110.836 92.757 109.236C99.804 106.067 96.739 94.3959 102.073 88.7919C106.988 83.6279 116.473 87.1039 119.706 93.4629C122.939 99.8219 121.868 107.435 120.712 114.482C119.158 123.961 117.604 133.439 116.05 142.917C112.557 164.226 103.389 183.417 78.306 179.498C71.496 178.433 66.528 174.983 60.591 171.756C49.646 165.805 37.856 161.25 26.476 156.202" fill="white"/>
<path d="M211.769 135.067H149.2C148.435 135.066 147.678 134.913 146.972 134.619C146.266 134.325 145.624 133.895 145.085 133.353C144.545 132.811 144.117 132.168 143.826 131.461C143.535 130.754 143.385 129.996 143.387 129.231V92.0089C143.386 91.2441 143.535 90.4865 143.826 89.7794C144.117 89.0722 144.545 88.4294 145.085 87.8875C145.625 87.3457 146.266 86.9155 146.972 86.6215C147.678 86.3275 148.435 86.1754 149.2 86.174H211.772C212.537 86.1754 213.294 86.3275 214 86.6215C214.706 86.9155 215.347 87.3457 215.887 87.8875C216.427 88.4294 216.855 89.0722 217.146 89.7794C217.437 90.4865 217.586 91.2441 217.585 92.0089V129.231C217.587 129.996 217.437 130.754 217.146 131.461C216.855 132.168 216.427 132.811 215.887 133.353C215.348 133.895 214.706 134.325 214 134.619C213.294 134.913 212.537 135.066 211.772 135.067" fill="#7B8CEB"/>
<g opacity="0.25">
<mask id="mask1_1_2362" style="mask-type:luminance" maskUnits="userSpaceOnUse" x="143" y="86" width="75" height="50">
<path d="M217.582 86.174H143.384V135.067H217.582V86.174Z" fill="white"/>
</mask>
<g mask="url(#mask1_1_2362)">
<path d="M150.421 135.067C149.495 135.065 148.578 134.881 147.723 134.525C146.869 134.168 146.092 133.647 145.439 132.991C144.786 132.335 144.268 131.556 143.915 130.7C143.563 129.843 143.383 128.926 143.385 128V93.2379C143.383 92.312 143.564 91.3948 143.916 90.5387C144.269 89.6826 144.787 88.9043 145.44 88.2484C146.094 87.5924 146.87 87.0716 147.725 86.7157C148.58 86.3597 149.496 86.1757 150.422 86.174H210.546C212.416 86.1777 214.208 86.924 215.527 88.2487C216.847 89.5734 217.586 91.3681 217.583 93.2379L150.421 135.067Z" fill="white"/>
</g>
</g>
<path d="M217.582 98.76H143.384V110.621H217.582V98.76Z" fill="white"/>
<path d="M166.807 129H149.6C149.417 129 149.237 128.964 149.068 128.893C148.899 128.823 148.746 128.721 148.617 128.591C148.488 128.462 148.386 128.308 148.317 128.139C148.247 127.971 148.212 127.79 148.212 127.607V126.787C148.212 126.604 148.247 126.424 148.317 126.255C148.386 126.086 148.488 125.932 148.617 125.803C148.746 125.674 148.899 125.571 149.068 125.501C149.237 125.431 149.417 125.394 149.6 125.394H166.812C166.995 125.394 167.175 125.431 167.344 125.501C167.513 125.571 167.666 125.674 167.795 125.803C167.924 125.932 168.026 126.086 168.095 126.255C168.165 126.424 168.2 126.604 168.2 126.787V127.607C168.2 127.79 168.165 127.971 168.095 128.141C168.025 128.31 167.922 128.463 167.793 128.593C167.663 128.722 167.51 128.825 167.341 128.895C167.171 128.965 166.99 129 166.807 129Z" fill="#2B2549"/>
<path d="M211.371 129H172.339C172.156 129 171.976 128.964 171.807 128.893C171.638 128.823 171.485 128.721 171.356 128.591C171.227 128.462 171.125 128.308 171.056 128.139C170.986 127.971 170.951 127.79 170.951 127.607V126.787C170.951 126.604 170.986 126.424 171.056 126.255C171.125 126.086 171.227 125.932 171.356 125.803C171.485 125.674 171.638 125.571 171.807 125.501C171.976 125.431 172.156 125.394 172.339 125.394H211.371C211.554 125.394 211.734 125.431 211.903 125.501C212.072 125.571 212.225 125.674 212.354 125.803C212.483 125.932 212.585 126.086 212.654 126.255C212.724 126.424 212.759 126.604 212.759 126.787V127.607C212.759 127.79 212.724 127.971 212.654 128.139C212.585 128.308 212.483 128.462 212.354 128.591C212.225 128.721 212.072 128.823 211.903 128.893C211.734 128.964 211.554 129 211.371 129Z" fill="#2B2549"/>
<path d="M151.055 115.357H149.056V117.363H151.055V115.357Z" fill="#A2C2ED"/>
<path d="M154.984 115.357H152.985V117.363H154.984V115.357Z" fill="#A2C2ED"/>
<path d="M158.912 115.357H156.913V117.363H158.912V115.357Z" fill="#A2C2ED"/>
<path d="M162.841 115.357H160.842V117.363H162.841V115.357Z" fill="#A2C2ED"/>
<path d="M166.769 115.357H164.77V117.363H166.769V115.357Z" fill="#A2C2ED"/>
<path d="M170.697 115.357H168.698V117.363H170.697V115.357Z" fill="#A2C2ED"/>
<path d="M174.625 115.357H172.626V117.363H174.625V115.357Z" fill="#A2C2ED"/>
<path d="M205.6 217.01H148.484L156.414 148.339H197.671L205.6 217.01Z" fill="#FBC253"/>
<g opacity="0.25">
<mask id="mask2_1_2362" style="mask-type:luminance" maskUnits="userSpaceOnUse" x="148" y="148" width="50" height="70">
<path d="M197.671 148.339H148.484V217.01H197.671V148.339Z" fill="white"/>
</mask>
<g mask="url(#mask2_1_2362)">
<path d="M148.484 217.01L156.414 148.339H197.671L148.484 217.01Z" fill="white"/>
</g>
</g>
<path d="M165.584 160.823C165.585 160.492 165.684 160.17 165.869 159.895C166.053 159.621 166.315 159.407 166.621 159.282C166.927 159.156 167.263 159.124 167.587 159.189C167.911 159.254 168.209 159.414 168.442 159.648C168.675 159.882 168.834 160.18 168.898 160.505C168.962 160.829 168.929 161.165 168.802 161.471C168.675 161.776 168.461 162.037 168.186 162.22C167.911 162.404 167.588 162.502 167.257 162.502C167.037 162.502 166.819 162.458 166.616 162.373C166.413 162.289 166.228 162.165 166.073 162.009C165.917 161.853 165.794 161.668 165.71 161.465C165.627 161.261 165.584 161.043 165.584 160.823Z" fill="#2B2549"/>
<path d="M185.155 160.823C185.156 160.492 185.255 160.17 185.44 159.895C185.624 159.621 185.886 159.407 186.192 159.282C186.498 159.156 186.834 159.124 187.158 159.189C187.482 159.254 187.78 159.414 188.013 159.648C188.246 159.882 188.405 160.18 188.469 160.505C188.533 160.829 188.5 161.165 188.373 161.471C188.246 161.776 188.032 162.037 187.757 162.22C187.482 162.404 187.159 162.502 186.828 162.502C186.608 162.502 186.39 162.458 186.187 162.373C185.984 162.289 185.799 162.165 185.644 162.009C185.488 161.853 185.365 161.668 185.281 161.465C185.198 161.261 185.155 161.043 185.155 160.823Z" fill="#2B2549"/>
<path d="M167.257 160.823V172.851C167.257 175.446 168.288 177.935 170.123 179.77C171.958 181.606 174.447 182.637 177.042 182.637C179.638 182.637 182.127 181.606 183.962 179.77C185.797 177.935 186.828 175.446 186.828 172.851V160.823" stroke="#2B2549" stroke-width="0.614" stroke-miterlimit="10"/>
<path d="M212.483 217.01H176.217L181.252 173.41H207.452L212.483 217.01Z" fill="#FA6A5C"/>
<g opacity="0.25">
<mask id="mask3_1_2362" style="mask-type:luminance" maskUnits="userSpaceOnUse" x="176" y="173" width="32" height="45">
<path d="M207.447 173.409H176.217V217.01H207.447V173.409Z" fill="white"/>
</mask>
<g mask="url(#mask3_1_2362)">
<path d="M176.217 217.01L181.252 173.41H207.452L176.217 217.01Z" fill="white"/>
</g>
</g>
<path d="M187.074 181.335C187.075 181.125 187.138 180.92 187.255 180.745C187.372 180.571 187.539 180.435 187.733 180.356C187.928 180.276 188.141 180.255 188.347 180.297C188.553 180.339 188.742 180.44 188.89 180.589C189.039 180.738 189.139 180.928 189.18 181.134C189.221 181.34 189.199 181.553 189.118 181.747C189.038 181.941 188.901 182.107 188.726 182.224C188.552 182.34 188.346 182.402 188.136 182.402C187.996 182.402 187.858 182.374 187.729 182.32C187.599 182.267 187.482 182.188 187.384 182.089C187.285 181.99 187.207 181.872 187.154 181.743C187.101 181.613 187.073 181.475 187.074 181.335Z" fill="#2B2549"/>
<path d="M199.5 181.335C199.501 181.125 199.564 180.92 199.681 180.746C199.799 180.572 199.965 180.437 200.159 180.357C200.353 180.278 200.567 180.257 200.772 180.299C200.978 180.341 201.167 180.442 201.315 180.591C201.463 180.739 201.563 180.929 201.604 181.135C201.645 181.34 201.623 181.554 201.543 181.748C201.462 181.941 201.326 182.107 201.151 182.223C200.977 182.34 200.772 182.402 200.562 182.402C200.422 182.402 200.284 182.374 200.155 182.32C200.025 182.267 199.908 182.188 199.81 182.089C199.711 181.99 199.633 181.872 199.58 181.743C199.527 181.613 199.499 181.475 199.5 181.335Z" fill="#2B2549"/>
<path d="M188.137 181.335V188.972C188.127 189.794 188.28 190.611 188.587 191.374C188.895 192.137 189.351 192.831 189.928 193.416C190.506 194.001 191.195 194.466 191.954 194.783C192.713 195.1 193.527 195.264 194.349 195.264C195.172 195.264 195.986 195.1 196.745 194.783C197.504 194.466 198.193 194.001 198.771 193.416C199.348 192.831 199.804 192.137 200.112 191.374C200.419 190.611 200.572 189.794 200.562 188.972V181.335" stroke="#2B2549" stroke-width="0.614" stroke-miterlimit="10"/>
<path d="M144.7 216.48H84.34C81.3782 216.474 78.5401 215.292 76.4498 213.194C74.3596 211.095 73.1884 208.253 73.194 205.291V80.093C73.1907 78.6261 73.4765 77.1729 74.0349 75.8164C74.5934 74.4599 75.4136 73.2267 76.4488 72.1873C77.4839 71.1479 78.7137 70.3226 80.0679 69.7586C81.422 69.1945 82.8741 68.9028 84.341 68.9H144.7C146.167 68.9028 147.618 69.1944 148.972 69.7582C150.326 70.322 151.555 71.147 152.59 72.186C153.625 73.225 154.446 74.4577 155.004 75.8137C155.563 77.1697 155.849 78.6225 155.846 80.089V205.289C155.849 206.756 155.563 208.209 155.005 209.565C154.446 210.921 153.626 212.154 152.591 213.193C151.556 214.232 150.326 215.057 148.972 215.621C147.618 216.185 146.167 216.477 144.7 216.48Z" fill="#2B2549"/>
<path d="M145.157 197.162H83.883C83.3282 197.161 82.779 197.051 82.2668 196.837C81.7546 196.624 81.2894 196.312 80.8978 195.919C80.5062 195.526 80.1959 195.059 79.9845 194.546C79.7732 194.033 79.6649 193.484 79.666 192.929V89.154C79.6649 88.5991 79.7732 88.0494 79.9846 87.5363C80.1961 87.0233 80.5065 86.5569 80.8982 86.1638C81.2899 85.7707 81.7551 85.4586 82.2675 85.2454C82.7798 85.0322 83.3291 84.9219 83.884 84.921H145.158C146.279 84.9231 147.353 85.3703 148.144 86.1641C148.935 86.9579 149.378 88.0334 149.376 89.154V192.929C149.378 194.05 148.935 195.125 148.144 195.919C147.353 196.713 146.279 197.16 145.158 197.162" fill="white"/>
<path d="M110.6 205.919C110.603 205.144 110.835 204.387 111.268 203.745C111.701 203.102 112.314 202.602 113.031 202.307C113.748 202.013 114.535 201.937 115.295 202.09C116.055 202.243 116.752 202.618 117.299 203.167C117.846 203.716 118.218 204.414 118.368 205.174C118.518 205.935 118.439 206.722 118.142 207.438C117.845 208.153 117.342 208.765 116.698 209.195C116.053 209.625 115.296 209.855 114.521 209.855C113.479 209.853 112.481 209.437 111.745 208.699C111.01 207.961 110.598 206.961 110.6 205.919Z" fill="white"/>
<path d="M127.621 77.889H101.421C101.26 77.8887 101.1 77.8567 100.951 77.7947C100.803 77.7327 100.667 77.642 100.554 77.5278C100.44 77.4136 100.35 77.278 100.288 77.129C100.227 76.9799 100.196 76.8202 100.196 76.659V75.935C100.196 75.7737 100.227 75.614 100.288 75.4649C100.35 75.3159 100.44 75.1803 100.554 75.0661C100.667 74.9519 100.803 74.8612 100.951 74.7992C101.1 74.7372 101.26 74.7052 101.421 74.705H127.621C127.782 74.7052 127.942 74.7372 128.091 74.7992C128.239 74.8612 128.375 74.9519 128.488 75.0661C128.602 75.1803 128.692 75.3159 128.754 75.4649C128.815 75.614 128.846 75.7737 128.846 75.935V76.659C128.846 76.8202 128.815 76.9799 128.754 77.129C128.692 77.278 128.602 77.4136 128.488 77.5278C128.375 77.642 128.239 77.7327 128.091 77.7947C127.942 77.8567 127.782 77.8887 127.621 77.889Z" fill="white"/>
<path d="M132.579 191.033H95.711C95.2476 191.032 94.7888 190.94 94.361 190.762C93.9332 190.584 93.5447 190.323 93.2177 189.994C92.8906 189.666 92.6314 189.277 92.4549 188.848C92.2784 188.42 92.1881 187.96 92.189 187.497V185.414C92.1881 184.951 92.2784 184.492 92.4549 184.063C92.6314 183.635 92.8906 183.245 93.2177 182.917C93.5447 182.588 93.9332 182.328 94.361 182.149C94.7888 181.971 95.2476 181.879 95.711 181.878H132.579C133.042 181.879 133.501 181.971 133.929 182.149C134.357 182.328 134.745 182.588 135.072 182.917C135.399 183.245 135.659 183.635 135.835 184.063C136.012 184.492 136.102 184.951 136.101 185.414V187.5C136.102 187.963 136.012 188.423 135.835 188.851C135.659 189.28 135.399 189.669 135.072 189.997C134.745 190.326 134.357 190.587 133.929 190.765C133.501 190.943 133.042 191.035 132.579 191.036" fill="#7B8CEB"/>
</g>
</svg>
