<svg width="285" height="170" viewBox="0 0 285 170" fill="none" xmlns="http://www.w3.org/2000/svg">
<mask id="mask0_1_1837" style="mask-type:luminance" maskUnits="userSpaceOnUse" x="-38" y="-30" width="351" height="232">
<path d="M313 -30H-38V202H313V-30Z" fill="white"/>
</mask>
<g mask="url(#mask0_1_1837)">
<path d="M251.5 13.174H227.7C226.526 13.174 225.4 13.6403 224.57 14.4703C223.74 15.3003 223.274 16.4261 223.274 17.5999C223.274 18.7738 223.74 19.8996 224.57 20.7296C225.4 21.5596 226.526 22.026 227.7 22.026H251.5C252.674 22.026 253.8 21.5596 254.63 20.7296C255.46 19.8996 255.926 18.7738 255.926 17.5999C255.926 16.4261 255.46 15.3003 254.63 14.4703C253.8 13.6403 252.674 13.174 251.5 13.174Z" fill="#C3BDFF"/>
<path d="M264.071 13.174H240.271C239.097 13.174 237.971 13.6403 237.141 14.4703C236.311 15.3003 235.845 16.4261 235.845 17.5999C235.845 18.7738 236.311 19.8996 237.141 20.7296C237.971 21.5596 239.097 22.026 240.271 22.026H264.071C265.245 22.026 266.371 21.5596 267.201 20.7296C268.031 19.8996 268.497 18.7738 268.497 17.5999C268.497 16.4261 268.031 15.3003 267.201 14.4703C266.371 13.6403 265.245 13.174 264.071 13.174Z" fill="#9686F6"/>
</g>
</svg>
