<svg width="285" height="170" viewBox="0 0 285 170" fill="none" xmlns="http://www.w3.org/2000/svg">
<mask id="mask0_1_1845" style="mask-type:luminance" maskUnits="userSpaceOnUse" x="-38" y="-30" width="351" height="232">
<path d="M313 -30H-38V202H313V-30Z" fill="white"/>
</mask>
<g mask="url(#mask0_1_1845)">
<path d="M232.643 19.567L231.275 18.208C231.546 17.7901 231.665 17.2918 231.612 16.7966C231.559 16.3013 231.338 15.8393 230.985 15.488C230.573 15.0788 230.016 14.8492 229.435 14.8492C228.854 14.8492 228.297 15.0788 227.885 15.488C227.682 15.6898 227.521 15.9297 227.411 16.194C227.301 16.4583 227.244 16.7417 227.244 17.028C227.244 17.3143 227.301 17.5977 227.411 17.862C227.521 18.1263 227.682 18.3662 227.885 18.568C228.24 18.92 228.705 19.1404 229.202 19.1929C229.7 19.2455 230.2 19.127 230.621 18.857L231.989 20.217C232.076 20.303 232.193 20.3513 232.315 20.3513C232.438 20.3513 232.555 20.303 232.642 20.217C232.685 20.1745 232.719 20.124 232.742 20.0683C232.765 20.0126 232.777 19.9528 232.777 19.8925C232.777 19.8322 232.765 19.7724 232.742 19.7167C232.719 19.661 232.685 19.6105 232.642 19.568M230.658 15.813C230.818 15.9722 230.946 16.1616 231.032 16.3702C231.119 16.5788 231.164 16.8025 231.164 17.0285C231.164 17.2545 231.119 17.4782 231.032 17.6868C230.946 17.8954 230.818 18.0848 230.658 18.244C230.333 18.5663 229.893 18.7471 229.435 18.7471C228.977 18.7471 228.537 18.5663 228.212 18.244C228.052 18.0848 227.924 17.8954 227.838 17.6868C227.751 17.4782 227.706 17.2545 227.706 17.0285C227.706 16.8025 227.751 16.5788 227.838 16.3702C227.924 16.1616 228.052 15.9722 228.212 15.813C228.538 15.4909 228.977 15.3103 229.435 15.3103C229.893 15.3103 230.332 15.4909 230.658 15.813Z" fill="white"/>
<path d="M53.583 81.6341C51.5488 82.5162 49.4474 83.2348 47.299 83.7831C41.331 85.2531 35.311 86.7341 29.761 89.4331C22.22 93.1001 15.442 99.5661 14.092 107.8C12.762 115.918 17.062 124.192 23.355 129.533C29.648 134.874 37.671 137.739 45.655 139.893C66.4643 145.494 88.1605 147.016 109.548 144.376C121.667 142.876 133.855 139.934 144.206 133.491C154.557 127.048 162.916 116.691 164.719 104.679C166.522 92.6671 160.652 79.3141 149.54 74.2791C144.997 72.2191 138.993 70.6791 138.004 65.8181C136.791 59.8601 144.704 54.1351 142.082 48.6461C140.923 46.2231 137.982 45.0631 135.282 45.1941C128.667 45.5161 122.299 50.4801 116.617 53.4411C109.992 56.8931 103.295 60.2031 96.527 63.3711C85.0217 68.7564 73.3297 73.7211 61.451 78.2651C58.651 79.3351 56.162 80.5491 53.583 81.6341Z" fill="#C3BDFF"/>
<path d="M144.365 58.094C144.022 59.4125 143.996 60.7936 144.289 62.1241C144.583 63.4545 145.188 64.6965 146.054 65.748C146.95 66.7838 148.118 67.5482 149.426 67.9547C150.733 68.3612 152.129 68.3935 153.454 68.048C154.804 67.5718 156.01 66.757 156.955 65.6817C157.901 64.6063 158.555 63.3063 158.854 61.906C159.206 60.5917 159.255 59.215 159 57.8787C158.745 56.5423 158.19 55.281 157.379 54.189C156.448 53.1056 155.244 52.2905 153.893 51.828C152.541 51.3654 151.091 51.2722 149.691 51.558C147.069 52.275 144.983 55.658 144.368 58.096" fill="#C3BDFF"/>
<path d="M25.607 73.22C24.0974 74.5838 22.9512 76.3022 22.272 78.22C21.9489 79.1817 21.903 80.2149 22.1394 81.2015C22.3758 82.188 22.8851 83.0882 23.609 83.799C25.682 85.569 28.82 84.927 31.449 84.187L51.836 78.442C54.221 77.77 56.757 77.004 58.336 75.106C59.2565 73.8643 59.7618 72.3638 59.7797 70.8182C59.7977 69.2726 59.3274 67.7607 58.436 66.498C57.5072 65.2573 56.3278 64.226 54.9743 63.4711C53.6208 62.7161 52.1236 62.2544 50.58 62.116C45.874 61.549 42.442 63.205 38.368 65.024C33.619 67.144 29.311 69.501 25.607 73.224" fill="#C3BDFF"/>
<path d="M139.686 138.7H38.758V76.238C38.7625 75.014 39.2528 73.8419 40.1212 72.9793C40.9896 72.1167 42.165 71.6342 43.389 71.638H135.056C136.28 71.6345 137.455 72.1171 138.323 72.9796C139.191 73.8422 139.681 75.0141 139.686 76.238V138.7Z" fill="#C7D2D7"/>
<path d="M40.442 138.7V76.238C40.4452 75.4589 40.7572 74.713 41.3097 74.1637C41.8622 73.6144 42.6099 73.3067 43.389 73.308H135.055C135.834 73.3067 136.582 73.6144 137.134 74.1637C137.687 74.713 137.999 75.4589 138.002 76.238V138.7H40.442Z" fill="#0D0B3F"/>
<path d="M132.95 78.33H45.494V133.679H132.95V78.33Z" fill="#C3BDFF"/>
<path d="M146.688 138.7H31.757V143.513H146.688V138.7Z" fill="#C7D2D7"/>
<path d="M134.434 146.791H44.011C39.7093 146.791 35.483 145.661 31.756 143.513H146.688C142.961 145.661 138.735 146.791 134.434 146.791Z" fill="#99A3B0"/>
<path d="M98.659 141.107H83.574C82.9339 141.109 82.3193 140.856 81.8653 140.405C81.4113 139.954 81.1551 139.341 81.153 138.701H101.08C101.079 139.018 101.016 139.332 100.894 139.624C100.771 139.917 100.593 140.182 100.368 140.406C100.143 140.629 99.8765 140.806 99.5833 140.926C99.29 141.047 98.976 141.108 98.659 141.107Z" fill="#99A3B0"/>
<path d="M108.171 107.88H69.155L67.655 138.7H109.663L108.171 107.88Z" fill="#D53873"/>
<path d="M89.838 107.88H87.489L87.399 138.7H89.929L89.838 107.88Z" fill="#F0BF6C"/>
<path d="M89.838 107.88L89.928 138.7H91.117L92.644 107.88H89.838Z" fill="#992D72"/>
<path d="M69.155 121.682H56.621V102.267C56.6255 100.782 56.9224 99.3124 57.4948 97.9422C58.0672 96.5719 58.9039 95.3278 59.9571 94.281C61.0103 93.2341 62.2594 92.4049 63.633 91.8407C65.0067 91.2766 66.478 90.9885 67.963 90.993H69.156L69.155 121.682Z" fill="#992D72"/>
<path d="M104.963 121.682H117.5V102.267C117.496 100.782 117.199 99.3124 116.626 97.9422C116.054 96.5719 115.217 95.3278 114.164 94.281C113.111 93.2341 111.862 92.4049 110.488 91.8407C109.114 91.2766 107.643 90.9885 106.158 90.993H104.965L104.963 121.682Z" fill="#992D72"/>
<path d="M60.724 111.084C60.8376 109.077 60.5025 107.07 59.7431 105.209C58.9838 103.348 57.8191 101.68 56.334 100.325C56.8102 98.5674 56.6406 96.6973 55.856 95.054C55.508 94.334 54.856 93.585 54.056 93.717C53.179 93.863 52.844 94.971 52.956 95.847C53.2046 96.6953 53.2961 97.5819 53.226 98.463C52.899 99.79 51.369 100.443 50.674 101.623C50.4393 102.071 50.2973 102.562 50.2564 103.066C50.2155 103.571 50.2766 104.078 50.436 104.558C50.7606 105.516 51.2195 106.423 51.799 107.252C52.6217 108.752 53.7537 110.061 55.12 111.091C55.9769 111.566 56.9409 111.815 57.9209 111.814C58.9009 111.813 59.8643 111.562 60.72 111.084" fill="#EBA588"/>
<path d="M91.117 82.518L91.538 89.037L132.058 86.971V79.9L91.117 82.518Z" fill="#D53873"/>
<path d="M92.381 88.994L93.011 102.71H130.62L131.181 87.01L92.381 88.994Z" fill="#D53873"/>
<path d="M108.171 81.428L108.73 88.16L114.973 87.854V80.994L108.171 81.428Z" fill="#F5D896"/>
<path d="M109.483 102.71L109.018 88.146L114.666 87.868L114.535 102.71H109.483Z" fill="#F5D896"/>
<g opacity="0.5">
<mask id="mask1_1_1845" style="mask-type:luminance" maskUnits="userSpaceOnUse" x="92" y="87" width="40" height="16">
<path d="M131.181 87.015H92.381V102.71H131.181V87.015Z" fill="white"/>
</mask>
<g mask="url(#mask1_1_1845)">
<path d="M131.181 87.015L92.381 88.993L93.011 102.709H130.62L130.703 100.409H99.364C98.5585 100.411 97.7825 100.106 97.1943 99.5554C96.6062 99.005 96.2502 98.2509 96.199 97.447L95.934 93.086C95.8864 92.262 96.1632 91.4521 96.7052 90.8295C97.2472 90.207 98.0113 89.8213 98.834 89.755L131.181 87.015Z" fill="#992D72"/>
</g>
</g>
<path d="M89.466 83.0929L91.116 82.5179L91.537 89.0369L89.245 89.5809L89.466 83.0929Z" fill="#992D72"/>
<path d="M89.247 89.581L91.538 89.037L92.381 88.994L93.011 102.71H88.8L89.247 89.581Z" fill="#7F1C61"/>
<path d="M112.518 102.71H62.279V109.685H112.518V102.71Z" fill="#797C99"/>
<path d="M111.222 109.685H63.576V128.517H111.222V109.685Z" fill="#6C708C"/>
<path d="M89.854 102.71H84.942V109.685H89.854V102.71Z" fill="white"/>
<path d="M89.727 109.685H85.069V128.517H89.727V109.685Z" fill="white"/>
<g opacity="0.3">
<mask id="mask2_1_1845" style="mask-type:luminance" maskUnits="userSpaceOnUse" x="63" y="109" width="49" height="20">
<path d="M111.222 109.685H63.576V128.517H111.222V109.685Z" fill="white"/>
</mask>
<g mask="url(#mask2_1_1845)">
<path d="M81.153 109.685H111.221V128.517H63.575V126.146L102.893 124.946C103.983 124.915 105.019 124.461 105.78 123.681C106.542 122.9 106.97 121.854 106.974 120.763V115.4C106.97 114.338 106.564 113.318 105.838 112.543C105.112 111.768 104.12 111.297 103.061 111.225L81.153 109.685Z" fill="#21255C"/>
</g>
</g>
<path d="M47.439 74.671L89.727 75.403L88.8 102.71H46.6L47.439 74.671Z" fill="#F0BF6C"/>
<path d="M71.962 88.1L63.262 87.646V74.946L71.962 75.125V88.1Z" fill="#F5D896"/>
<path d="M87.4 75.363L86.71 88.257C86.5867 90.4426 85.63 92.4977 84.037 93.9991C82.4441 95.5006 80.336 96.3341 78.147 96.328H46.789L46.6 102.71H88.8L89.726 75.403L87.4 75.363Z" fill="#EBA25D"/>
<path d="M89.611 78.832L101.711 81.841L91.117 82.518L89.467 83.093L89.611 78.832Z" fill="#0D0B3F"/>
<path d="M124.925 104.058C122.598 106.761 120.972 109.996 120.191 113.476C119.769 115.376 119.604 117.321 119.184 119.219C118.843 121.146 117.992 122.946 116.719 124.432C115.241 125.852 113.268 126.641 111.219 126.632V113.172C112.636 111.594 113.726 109.751 114.425 107.749C116.856 106.616 119.38 105.701 121.811 104.568C122.778 104.105 123.857 103.928 124.922 104.057" fill="#F0BF9C"/>
<path d="M119.95 108.89C118.293 108.833 116.687 108.299 115.326 107.351C115.026 107.484 114.726 107.612 114.426 107.751C114.1 108.68 113.689 109.577 113.198 110.431C114.369 110.639 115.57 110.61 116.73 110.346C117.889 110.081 118.984 109.586 119.949 108.891" fill="#EBA588"/>
<path d="M118.6 110.045C116.927 109.872 115.305 109.365 113.831 108.554C112.357 107.743 111.061 106.644 110.019 105.323C109.656 104.916 109.411 104.417 109.311 103.881C109.269 103.612 109.318 103.337 109.451 103.1C109.584 102.862 109.792 102.676 110.043 102.571C110.228 102.527 110.421 102.524 110.607 102.563C110.793 102.602 110.968 102.682 111.12 102.797C111.42 103.028 111.695 103.291 111.939 103.581C113.234 104.74 114.833 105.507 116.548 105.791C114.341 104.423 112.659 102.352 111.772 99.9121C111.59 99.4995 111.526 99.0447 111.588 98.5981C111.626 98.3759 111.739 98.1737 111.909 98.0255C112.079 97.8774 112.295 97.7924 112.52 97.7851C112.852 97.8495 113.151 98.026 113.368 98.2851C115.144 99.9851 117.329 101.459 119.105 103.153L116.056 99.2681C115.759 98.9248 115.514 98.5405 115.327 98.1271C115.235 97.9197 115.189 97.6951 115.192 97.4683C115.195 97.2416 115.246 97.0181 115.343 96.8131C115.497 96.5721 115.715 96.3785 115.972 96.2537C116.23 96.1289 116.516 96.0778 116.801 96.1061C117.37 96.172 117.915 96.3781 118.385 96.7061C120.345 97.9038 121.829 99.7439 122.585 101.913C122.747 100.992 122.666 100.046 122.35 99.166C122.034 98.2862 121.495 97.5039 120.785 96.8961C120.44 96.6474 120.122 96.3632 119.836 96.0481C119.695 95.8886 119.601 95.6937 119.563 95.4844C119.526 95.2751 119.546 95.0595 119.623 94.8611C119.923 94.2511 120.806 94.2611 121.461 94.4611C123.127 94.9712 124.54 96.0892 125.419 97.5931C126.282 99.1001 126.542 100.878 126.146 102.569C125.83 103.471 125.356 104.309 124.746 105.045C124.186 105.885 123.561 106.68 122.875 107.421C122.293 108.045 121.64 108.597 120.929 109.067C120.261 109.608 119.453 109.949 118.599 110.05" fill="#F0BF9C"/>
<path d="M121.115 95.793C121.524 95.6079 121.855 95.2856 122.052 94.882C121.751 94.7524 121.438 94.6494 121.119 94.574C121.029 94.5472 120.934 94.5393 120.84 94.5508C120.746 94.5623 120.656 94.593 120.575 94.641C120.495 94.7201 120.444 94.8247 120.432 94.9368C120.421 95.049 120.448 95.1618 120.51 95.256C120.673 95.4725 120.877 95.6547 121.11 95.792" fill="#FCD6BE"/>
<path d="M116.43 98.314C117.129 98.0153 117.749 97.557 118.239 96.976C118.098 96.811 117.92 96.6819 117.72 96.5994C117.519 96.517 117.302 96.4836 117.086 96.502C116.889 96.5288 116.703 96.6068 116.546 96.7283C116.389 96.8497 116.266 97.0103 116.191 97.194C116.13 97.3853 116.12 97.5893 116.162 97.7857C116.204 97.9821 116.296 98.1642 116.43 98.314Z" fill="#FCD6BE"/>
<path d="M112.053 99.868C112.586 99.7267 113.078 99.4627 113.49 99.097C113.355 98.9121 113.193 98.7483 113.01 98.611C112.921 98.5369 112.813 98.4893 112.698 98.4735C112.584 98.4576 112.467 98.4742 112.361 98.5214C112.255 98.5685 112.165 98.6443 112.1 98.7402C112.035 98.8361 111.998 98.9483 111.994 99.064C111.972 99.3321 111.992 99.6019 112.053 99.864" fill="#FCD6BE"/>
<path d="M109.924 104.656C110.421 104.457 110.868 104.15 111.231 103.756C111.048 103.487 110.773 103.294 110.458 103.214C110.299 103.206 110.141 103.248 110.007 103.334C109.873 103.421 109.769 103.547 109.71 103.695C109.67 103.861 109.668 104.034 109.706 104.201C109.743 104.368 109.817 104.523 109.924 104.656Z" fill="#FCD6BE"/>
<path d="M63.576 127.872C62.279 128.108 60.9447 128.038 59.6796 127.667C58.4145 127.296 57.2538 126.635 56.29 125.735C53.79 123.476 52.949 119.951 52.473 116.626C51.997 113.301 51.718 109.812 49.953 106.948C52.7595 107.795 55.6658 108.265 58.596 108.348C59.9062 111.971 61.5741 115.455 63.575 118.748L63.576 127.872Z" fill="#F0BF9C"/>
<path d="M56.769 114.493C58.2589 114.69 59.7671 114.706 61.261 114.542C60.861 113.742 60.476 112.942 60.113 112.129C58.226 112.554 56.278 113.001 54.421 113.415C54.7192 113.744 55.0808 114.009 55.4842 114.194C55.8876 114.379 56.3243 114.48 56.768 114.492" fill="#EBA588"/>
<path d="M55.051 113.833C56.7342 113.833 58.4003 113.496 59.9511 112.842C61.5018 112.187 62.9058 111.229 64.08 110.023C64.4838 109.656 64.7795 109.186 64.935 108.663C65.0051 108.4 64.9849 108.121 64.8778 107.871C64.7706 107.621 64.5827 107.415 64.344 107.284C64.1644 107.221 63.973 107.198 63.7837 107.218C63.5943 107.238 63.4117 107.299 63.249 107.398C62.9252 107.597 62.6235 107.83 62.349 108.093C60.9395 109.112 59.2692 109.71 57.533 109.816C59.871 108.683 61.7604 106.798 62.898 104.462C63.1223 104.071 63.2334 103.626 63.219 103.175C63.2036 102.951 63.1114 102.739 62.958 102.575C62.8046 102.411 62.5994 102.305 62.377 102.275C62.0387 102.303 61.7207 102.448 61.477 102.684C59.533 104.184 57.206 105.431 55.262 106.933L58.701 103.384C59.032 103.074 59.3163 102.717 59.545 102.325C59.6581 102.129 59.7275 101.91 59.7486 101.684C59.7696 101.459 59.7418 101.231 59.667 101.017C59.539 100.761 59.3427 100.546 59.0998 100.395C58.8568 100.245 58.5769 100.164 58.291 100.163C57.7178 100.169 57.155 100.316 56.653 100.593C54.5796 101.582 52.9125 103.259 51.935 105.338C51.8708 104.406 52.0501 103.474 52.455 102.632C52.86 101.791 53.4769 101.069 54.245 100.538C54.6142 100.327 54.9601 100.077 55.277 99.793C55.4336 99.6492 55.5477 99.4652 55.6069 99.261C55.6662 99.0569 55.6683 98.8403 55.613 98.635C55.376 97.997 54.5 97.9141 53.828 98.0441C52.1176 98.3794 50.5957 99.3452 49.564 100.75C48.5484 102.159 48.104 103.901 48.32 105.624C48.3966 106.304 48.7078 106.936 49.2 107.412C49.691 107.831 50.266 108.15 50.726 108.604C51.4396 109.477 52.0045 110.462 52.398 111.519C52.898 112.528 53.91 113.84 55.042 113.846" fill="#F0BF9C"/>
<path d="M54.044 99.3999C53.657 99.1743 53.361 98.8206 53.207 98.3999C53.5203 98.3026 53.8415 98.2326 54.167 98.1909C54.2595 98.1735 54.3546 98.1755 54.4464 98.1967C54.5381 98.2178 54.6245 98.2578 54.7 98.3139C54.7716 98.4012 54.8107 98.5106 54.8107 98.6235C54.8107 98.7363 54.7716 98.8457 54.7 98.9329C54.5139 99.1312 54.2907 99.2909 54.043 99.4029" fill="#FCD6BE"/>
<path d="M58.44 102.391C57.7761 102.022 57.2079 101.502 56.781 100.874C56.9383 100.724 57.1294 100.613 57.3382 100.552C57.547 100.491 57.7674 100.48 57.981 100.522C58.1739 100.569 58.351 100.665 58.4946 100.802C58.6383 100.939 58.7432 101.112 58.799 101.302C58.8395 101.499 58.8281 101.703 58.7659 101.894C58.7036 102.084 58.5927 102.256 58.444 102.391" fill="#FCD6BE"/>
<path d="M62.631 104.389C62.1157 104.194 61.6534 103.881 61.281 103.475C61.4348 103.305 61.6131 103.159 61.81 103.041C61.9038 102.987 62.0088 102.955 62.1169 102.948C62.225 102.941 62.3332 102.96 62.433 103.002C62.5364 103.063 62.6221 103.15 62.6817 103.254C62.7413 103.359 62.7728 103.477 62.773 103.597C62.7672 103.867 62.7193 104.134 62.631 104.389Z" fill="#FCD6BE"/>
<path d="M64.248 109.371C63.7737 109.122 63.3615 108.77 63.042 108.34C63.2521 108.091 63.5459 107.928 63.868 107.881C64.0274 107.889 64.1801 107.947 64.3047 108.047C64.4292 108.147 64.5192 108.283 64.562 108.437C64.5844 108.606 64.5678 108.779 64.5133 108.94C64.4589 109.102 64.3681 109.25 64.248 109.371Z" fill="#FCD6BE"/>
<path d="M113.956 133.679H64.967V138.701H113.956V133.679Z" fill="#0D0B3F"/>
<path d="M158.5 146.791H23.309C22.9575 146.791 22.6203 146.931 22.3717 147.179C22.1232 147.428 21.9835 147.765 21.9835 148.117C21.9835 148.468 22.1232 148.805 22.3717 149.054C22.6203 149.302 22.9575 149.442 23.309 149.442H158.5C158.852 149.442 159.189 149.302 159.437 149.054C159.686 148.805 159.826 148.468 159.826 148.117C159.826 147.765 159.686 147.428 159.437 147.179C159.189 146.931 158.852 146.791 158.5 146.791Z" fill="#C3BDFF"/>
</g>
</svg>
