<svg width="457" height="267" viewBox="0 0 457 267" fill="none" xmlns="http://www.w3.org/2000/svg">
<mask id="mask0_1_2417" style="mask-type:luminance" maskUnits="userSpaceOnUse" x="-14" y="-12" width="484" height="299">
<path d="M470 -12H-14V287H470V-12Z" fill="white"/>
</mask>
<g mask="url(#mask0_1_2417)">
<path d="M112.578 108.005H85.078V140.775H112.578V108.005Z" fill="#E5E9FE"/>
<path d="M109.086 137.056H88.569C88.4347 137.056 88.3017 137.029 88.1777 136.977C88.0537 136.926 87.941 136.85 87.8462 136.755C87.7514 136.66 87.6763 136.547 87.6251 136.423C87.5739 136.298 87.5477 136.165 87.548 136.031V135.431C87.5477 135.16 87.6551 134.9 87.8466 134.708C88.038 134.516 88.2979 134.408 88.569 134.407H109.087C109.358 134.408 109.618 134.516 109.809 134.708C110.001 134.9 110.108 135.16 110.108 135.431V136.031C110.108 136.165 110.082 136.298 110.031 136.423C109.98 136.547 109.905 136.66 109.81 136.755C109.715 136.85 109.602 136.926 109.478 136.977C109.354 137.029 109.22 137.056 109.086 137.056Z" fill="#7B8CEB"/>
<path d="M143.212 108.005H115.712V140.775H143.212V108.005Z" fill="#E5E9FE"/>
<path d="M139.882 137.056H119.365C119.231 137.056 119.098 137.029 118.974 136.977C118.85 136.926 118.737 136.85 118.642 136.755C118.547 136.66 118.472 136.547 118.421 136.423C118.37 136.298 118.344 136.165 118.344 136.031V135.431C118.344 135.16 118.451 134.9 118.643 134.708C118.834 134.516 119.094 134.408 119.365 134.407H139.883C140.154 134.408 140.414 134.516 140.605 134.708C140.797 134.9 140.904 135.16 140.904 135.431V136.031C140.904 136.165 140.878 136.298 140.827 136.423C140.776 136.547 140.701 136.66 140.606 136.755C140.511 136.85 140.398 136.926 140.274 136.977C140.15 137.029 140.016 137.056 139.882 137.056Z" fill="#7B8CEB"/>
<path d="M143.213 144.094H85.078V176.864H143.213V144.094Z" fill="#E5E9FE"/>
<path d="M139.882 172.613H119.365C119.231 172.613 119.098 172.586 118.974 172.535C118.849 172.483 118.737 172.407 118.642 172.312C118.547 172.217 118.472 172.104 118.421 171.98C118.37 171.856 118.344 171.722 118.344 171.588V170.988C118.344 170.854 118.37 170.721 118.421 170.596C118.472 170.472 118.547 170.359 118.642 170.264C118.737 170.169 118.85 170.093 118.974 170.042C119.098 169.99 119.231 169.963 119.365 169.963H139.883C140.154 169.964 140.414 170.072 140.605 170.264C140.797 170.456 140.904 170.716 140.904 170.987V171.587C140.904 171.721 140.878 171.855 140.827 171.979C140.776 172.103 140.701 172.216 140.606 172.311C140.511 172.406 140.399 172.482 140.274 172.534C140.15 172.585 140.017 172.612 139.883 172.612" fill="#7B8CEB"/>
<path d="M113.731 172.613H89.211C89.0766 172.613 88.9436 172.586 88.8195 172.535C88.6954 172.483 88.5828 172.407 88.4879 172.312C88.3931 172.217 88.318 172.104 88.2668 171.98C88.2157 171.856 88.1896 171.722 88.19 171.588V170.988C88.1897 170.854 88.2159 170.721 88.2671 170.596C88.3183 170.472 88.3934 170.359 88.4882 170.264C88.583 170.169 88.6957 170.093 88.8197 170.042C88.9437 169.99 89.0767 169.963 89.211 169.963H113.731C113.865 169.963 113.998 169.99 114.122 170.041C114.247 170.093 114.359 170.169 114.454 170.264C114.549 170.359 114.624 170.472 114.675 170.596C114.726 170.72 114.752 170.854 114.752 170.988V171.588C114.752 171.722 114.726 171.856 114.675 171.98C114.624 172.104 114.549 172.217 114.454 172.312C114.359 172.407 114.247 172.483 114.122 172.535C113.998 172.586 113.865 172.613 113.731 172.613Z" fill="#7B8CEB"/>
<g opacity="0.25">
<mask id="mask1_1_2417" style="mask-type:luminance" maskUnits="userSpaceOnUse" x="91" y="84" width="71" height="114">
<path d="M161.627 84.92H91.918V197.162H161.627V84.92Z" fill="white"/>
</mask>
<g mask="url(#mask1_1_2417)">
<path d="M97.377 197.162C96.6586 197.161 95.9475 197.018 95.2843 196.742C94.621 196.466 94.0187 196.061 93.5117 195.553C93.0047 195.044 92.6029 194.44 92.3293 193.775C92.0556 193.111 91.9156 192.399 91.917 191.681V90.4C91.9157 89.6817 92.0559 88.9702 92.3296 88.306C92.6032 87.6419 93.005 87.0381 93.5121 86.5292C94.0191 86.0204 94.6213 85.6164 95.2845 85.3402C95.9476 85.0641 96.6587 84.9214 97.377 84.92H156.167C156.885 84.9214 157.596 85.0641 158.26 85.3402C158.923 85.6164 159.525 86.0204 160.032 86.5292C160.539 87.0381 160.941 87.6419 161.214 88.306C161.488 88.9702 161.628 89.6817 161.627 90.4L97.377 197.162Z" fill="white"/>
</g>
</g>
<path d="M75.728 187.087H29.912V220.748H75.728V187.087Z" fill="#FBC253"/>
<g opacity="0.25">
<mask id="mask2_1_2417" style="mask-type:luminance" maskUnits="userSpaceOnUse" x="29" y="187" width="47" height="34">
<path d="M75.727 187.087H29.911V220.748H75.727V187.087Z" fill="white"/>
</mask>
<g mask="url(#mask2_1_2417)">
<path d="M29.911 220.748V187.088H75.727L29.911 220.748Z" fill="white"/>
</g>
</g>
<path d="M64.72 199.798H40.918V208.038H64.72V199.798Z" fill="white"/>
</g>
</svg>
