<svg width="142" height="139" viewBox="0 0 142 139" fill="none" xmlns="http://www.w3.org/2000/svg">
<g opacity="0.09">
<mask id="mask0_1_1941" style="mask-type:luminance" maskUnits="userSpaceOnUse" x="0" y="0" width="142" height="139">
<path d="M141.539 0.0789795H0.346008V138.045H141.539V0.0789795Z" fill="white"/>
</mask>
<g mask="url(#mask0_1_1941)">
<path d="M60.847 138.045C36.147 133.893 16.385 118.006 6.412 94.9C1.52284 83.2548 -0.454538 70.5935 0.651039 58.012C1.75662 45.4306 5.91183 33.3081 12.757 22.694C15.881 17.8219 19.7373 13.4604 24.19 9.76303C30.762 4.60034 38.6343 1.3567 46.9356 0.391106C55.2369 -0.574484 63.6435 0.775635 71.225 4.29203C75.739 6.46303 80.003 9.53604 82.525 13.882C84.38 17.082 85.199 20.8 87.025 24.018C89.865 29.028 94.9 32.402 100.114 34.8C105.328 37.198 110.881 38.807 116.028 41.349C133.592 50.021 144.928 70.982 140.628 90.182C138.628 99.115 133.636 107.129 127.667 114.042C115.967 127.594 98.954 137.81 81.148 136.61" fill="#004383"/>
</g>
</g>
</svg>
