<svg width="48" height="47" viewBox="0 0 48 47" fill="none" xmlns="http://www.w3.org/2000/svg">
<path opacity="0.051" d="M5.663 0H42.3C42.9534 0.00314389 43.5998 0.134951 44.2023 0.387939C44.8047 0.640928 45.3514 1.01006 45.8112 1.47437C46.2709 1.93867 46.6347 2.48907 46.8818 3.09399C47.1288 3.69891 47.2543 4.34659 47.251 5V42C47.2543 42.6534 47.1288 43.3011 46.8818 43.906C46.6347 44.5109 46.2709 45.0613 45.8112 45.5256C45.3514 45.9899 44.8047 46.3591 44.2023 46.6121C43.5998 46.865 42.9534 46.9969 42.3 47H5.663C5.00958 46.9969 4.3632 46.865 3.76074 46.6121C3.15829 46.3591 2.61155 45.9899 2.1518 45.5256C1.69204 45.0613 1.32825 44.5109 1.08121 43.906C0.834166 43.3011 0.708717 42.6534 0.712008 42V5C0.705627 3.68045 1.22363 2.41251 2.1521 1.47485C3.08057 0.537197 4.34345 0.00661422 5.663 0Z" fill="#FD8983"/>
<path d="M36.186 10H10.815C10.5988 10 10.3915 10.0859 10.2387 10.2387C10.0859 10.3916 10 10.5988 10 10.815V36.185C10 36.4012 10.0859 36.6084 10.2387 36.7613C10.3915 36.9141 10.5988 37 10.815 37H36.186C36.4022 37 36.6094 36.9141 36.7623 36.7613C36.9151 36.6084 37.001 36.4012 37.001 36.185V10.815C37.001 10.5988 36.9151 10.3916 36.7623 10.2387C36.6094 10.0859 36.4022 10 36.186 10ZM21.056 11.628H25.945V18.92L23.865 17.88C23.7518 17.8234 23.627 17.7939 23.5005 17.7939C23.374 17.7939 23.2492 17.8234 23.136 17.88L21.056 18.92V11.628ZM35.371 35.368H11.63V11.628H19.43V20.239C19.43 20.3779 19.4655 20.5144 19.5332 20.6357C19.6008 20.757 19.6983 20.859 19.8164 20.932C19.9345 21.005 20.0693 21.0467 20.208 21.053C20.3467 21.0593 20.4848 21.03 20.609 20.968L23.509 19.52L26.409 20.968C26.5332 21.03 26.6713 21.0593 26.81 21.053C26.9487 21.0467 27.0835 21.005 27.2016 20.932C27.3197 20.859 27.4172 20.757 27.4848 20.6357C27.5525 20.5144 27.588 20.3779 27.588 20.239V11.628H35.388L35.371 35.368Z" fill="white"/>
<path d="M10.815 37C10.599 37 10.3919 36.9143 10.2391 36.7617C10.0863 36.6091 10.0003 36.402 10 36.186V10.8159C10.0003 10.5998 10.0862 10.3928 10.239 10.24C10.3918 10.0872 10.5989 10.0012 10.815 10.001H36.185C36.4011 10.001 36.6084 10.0869 36.7613 10.2397C36.9141 10.3926 37 10.5998 37 10.8159V36.186C37 36.293 36.9789 36.399 36.9379 36.4978C36.897 36.5966 36.8369 36.6864 36.7612 36.762C36.6855 36.8376 36.5957 36.8974 36.4968 36.9382C36.398 36.9791 36.292 37.0001 36.185 37H10.815ZM11.629 35.3701H35.369V11.6299H27.569V20.24C27.5692 20.379 27.5339 20.5158 27.4663 20.6372C27.3988 20.7586 27.3013 20.8608 27.1831 20.9338C27.0649 21.0069 26.93 21.0485 26.7911 21.0547C26.6523 21.0609 26.5142 21.0313 26.39 20.969L23.49 19.522L20.59 20.969C20.4658 21.031 20.3277 21.0603 20.189 21.054C20.0503 21.0477 19.9155 21.0061 19.7974 20.9331C19.6793 20.8601 19.5818 20.758 19.5142 20.6367C19.4465 20.5154 19.411 20.3789 19.411 20.24V11.6299H11.611L11.629 35.3701ZM23.864 17.8821L25.945 18.9231V11.6299H21.055V18.9231L23.135 17.8821C23.2481 17.8253 23.3729 17.7957 23.4995 17.7957C23.6261 17.7957 23.7509 17.8253 23.864 17.8821Z" fill="url(#paint0_linear_1_2467)"/>
<defs>
<linearGradient id="paint0_linear_1_2467" x1="33.301" y1="37" x2="13.6999" y2="10.0003" gradientUnits="userSpaceOnUse">
<stop stop-color="#FD8983"/>
<stop offset="1" stop-color="#FB7069"/>
</linearGradient>
</defs>
</svg>
