<svg width="48" height="47" viewBox="0 0 48 47" fill="none" xmlns="http://www.w3.org/2000/svg">
<path opacity="0.051" d="M5.76203 0H42.4C43.7196 0.00661422 44.9824 0.537197 45.9109 1.47485C46.8394 2.41251 47.3574 3.68045 47.351 5V42C47.3543 42.6534 47.2289 43.3011 46.9818 43.906C46.7348 44.5109 46.371 45.0613 45.9112 45.5256C45.4514 45.9899 44.9047 46.3591 44.3022 46.6121C43.6998 46.865 43.0534 46.9969 42.4 47H5.76203C5.10861 46.9969 4.4622 46.865 3.85974 46.6121C3.25729 46.3591 2.71055 45.9899 2.2508 45.5256C1.79104 45.0613 1.42728 44.5109 1.18024 43.906C0.933195 43.3011 0.807685 42.6534 0.810976 42V5C0.804595 3.68045 1.32263 2.41251 2.2511 1.47485C3.17957 0.537197 4.44248 0.00661422 5.76203 0Z" fill="#FD8983"/>
<path d="M21.916 21.241H11.132V10.631H21.916V21.241ZM12.592 19.807H20.459V12.065H12.592V19.807Z" fill="white"/>
<path d="M38 36.8409H24.923L38 23.9709V36.8409ZM28.44 35.4069H36.54V27.4329L28.44 35.4069Z" fill="white"/>
<path d="M31.532 22.503C29.8615 22.5147 28.2545 21.8634 27.0635 20.6919C25.8726 19.5205 25.1948 17.9245 25.179 16.254C25.2297 14.6036 25.921 13.0379 27.1063 11.8884C28.2916 10.739 29.8779 10.0962 31.529 10.0962C33.1801 10.0962 34.7664 10.739 35.9517 11.8884C37.137 13.0379 37.8282 14.6036 37.879 16.254C37.8631 17.9234 37.1862 19.5185 35.9966 20.6898C34.8069 21.8611 33.2015 22.5131 31.532 22.503ZM31.532 11.434C30.2432 11.4239 29.0031 11.9259 28.0843 12.8297C27.1654 13.7335 26.6431 14.9652 26.632 16.254C26.6861 17.516 27.2255 18.7084 28.1377 19.5823C29.0499 20.4562 30.2643 20.944 31.5275 20.944C32.7907 20.944 34.0051 20.4562 34.9173 19.5823C35.8294 18.7084 36.3689 17.516 36.423 16.254C36.4119 14.9667 35.8908 13.7365 34.9739 12.8329C34.057 11.9293 32.8192 11.4263 31.532 11.434Z" fill="white"/>
<path d="M12.2874 36.9755L23.4378 25.8251C23.7295 25.5334 23.7295 25.0604 23.4378 24.7687C23.1461 24.477 22.6731 24.477 22.3814 24.7687L11.231 35.9191C10.9393 36.2108 10.9393 36.6838 11.231 36.9755C11.5227 37.2672 11.9957 37.2672 12.2874 36.9755Z" fill="white"/>
<path d="M23.4376 35.9195L12.2872 24.7692C11.9955 24.4775 11.5225 24.4775 11.2308 24.7692C10.9391 25.0609 10.9391 25.5339 11.2308 25.8256L22.3812 36.976C22.6729 37.2677 23.1458 37.2677 23.4376 36.976C23.7293 36.6842 23.7293 36.2113 23.4376 35.9195Z" fill="white"/>
<path d="M22.381 36.9752L17.335 31.9291L12.288 36.9752C12.1479 37.1154 11.9577 37.1939 11.7595 37.1939C11.5613 37.1939 11.3712 37.1154 11.231 36.9752C11.0909 36.835 11.0121 36.6449 11.0121 36.4466C11.0121 36.2484 11.0909 36.0582 11.231 35.9181L16.278 30.8722L11.231 25.8251C11.091 25.6849 11.0124 25.4949 11.0125 25.2967C11.0125 25.0986 11.0913 24.9087 11.2315 24.7687C11.3717 24.6286 11.5617 24.5501 11.7598 24.5501C11.958 24.5502 12.148 24.629 12.288 24.7691L17.335 29.815L22.381 24.7691C22.521 24.629 22.711 24.5502 22.9091 24.5501C23.1073 24.5501 23.2973 24.6286 23.4375 24.7687C23.5777 24.9087 23.6565 25.0986 23.6566 25.2967C23.6566 25.4949 23.578 25.6849 23.438 25.8251L18.391 30.8722L23.438 35.9181C23.5782 36.0582 23.6569 36.2484 23.6569 36.4466C23.6569 36.6449 23.5782 36.835 23.438 36.9752C23.2978 37.1154 23.1077 37.1939 22.9095 37.1939C22.7113 37.1939 22.5211 37.1154 22.381 36.9752ZM24.923 36.8402L38 23.971V36.8402H24.923ZM28.44 35.4061H36.54V27.432L28.44 35.4061ZM25.178 16.2501C25.1577 14.9894 25.5131 13.7513 26.1988 12.6932C26.8845 11.6351 27.8695 10.8049 29.0285 10.3084C30.1875 9.81196 31.4681 9.67156 32.7071 9.90513C33.9461 10.1387 35.0876 10.7356 35.9863 11.62C36.8849 12.5044 37.5001 13.6361 37.7535 14.8712C38.0069 16.1063 37.8871 17.389 37.4092 18.5558C36.9314 19.7226 36.1172 20.7209 35.0702 21.4234C34.0232 22.126 32.7909 22.5011 31.53 22.5011C29.8597 22.5123 28.2531 21.8607 27.0625 20.6891C25.8719 19.5174 25.1946 17.9214 25.179 16.2511L25.178 16.2501ZM26.635 16.2501C26.6185 17.2226 26.8919 18.1781 27.4202 18.9947C27.9485 19.8114 28.7078 20.4522 29.6016 20.8358C30.4954 21.2194 31.4831 21.3284 32.439 21.1488C33.3949 20.9692 34.2758 20.5093 34.9694 19.8275C35.663 19.1456 36.138 18.2726 36.3339 17.3199C36.5298 16.3672 36.4377 15.3778 36.0694 14.4776C35.7011 13.5774 35.0732 12.8072 34.2657 12.265C33.4582 11.7228 32.5076 11.4333 31.535 11.4332C30.2467 11.4233 29.0072 11.9251 28.0886 12.8285C27.1701 13.7318 26.6476 14.9628 26.636 16.2511L26.635 16.2501ZM11.135 21.2401V10.63H21.916V21.2401H11.135ZM12.592 19.806H20.459V12.0631H12.592V19.806Z" fill="url(#paint0_linear_1_2497)"/>
<defs>
<linearGradient id="paint0_linear_1_2497" x1="34.3836" y1="37.1939" x2="14.238" y2="10.0853" gradientUnits="userSpaceOnUse">
<stop stop-color="#FD8983"/>
<stop offset="1" stop-color="#FB7069"/>
</linearGradient>
</defs>
</svg>
