<svg width="457" height="267" viewBox="0 0 457 267" fill="none" xmlns="http://www.w3.org/2000/svg">
<mask id="mask0_1_2354" style="mask-type:luminance" maskUnits="userSpaceOnUse" x="-14" y="-12" width="484" height="299">
<path d="M470 -12H-14V287H470V-12Z" fill="white"/>
</mask>
<g mask="url(#mask0_1_2354)">
<path d="M14.7 28.673C14.7032 27.7935 14.9668 26.9347 15.4578 26.205C15.9487 25.4753 16.6449 24.9074 17.4583 24.5731C18.2718 24.2388 19.1661 24.153 20.0283 24.3266C20.8905 24.5001 21.6819 24.9253 22.3026 25.5484C22.9233 26.1715 23.3454 26.9645 23.5157 27.8273C23.686 28.6902 23.5968 29.5841 23.2594 30.3963C22.922 31.2085 22.3515 31.9025 21.6199 32.3906C20.8883 32.8788 20.0285 33.1392 19.149 33.139C17.9668 33.1366 16.834 32.6648 15.9997 31.8273C15.1654 30.9898 14.6979 29.8552 14.7 28.673Z" fill="#7B8CEB"/>
<path d="M143.359 34.959H92.724C91.2739 34.9561 89.8845 34.3774 88.8611 33.3501C87.8377 32.3228 87.2643 30.9311 87.267 29.481V27.174C87.2643 25.724 87.8377 24.3323 88.8611 23.305C89.8845 22.2777 91.2739 21.699 92.724 21.696H143.359C144.077 21.6974 144.788 21.8401 145.451 22.1161C146.114 22.3921 146.716 22.796 147.223 23.3047C147.729 23.8133 148.131 24.4169 148.405 25.0808C148.678 25.7447 148.818 26.456 148.817 27.174V29.481C148.818 30.1991 148.678 30.9104 148.405 31.5743C148.131 32.2382 147.729 32.8418 147.223 33.3504C146.716 33.8591 146.114 34.263 145.451 34.539C144.788 34.815 144.077 34.9577 143.359 34.959Z" fill="white"/>
</g>
</svg>
