<svg width="48" height="47" viewBox="0 0 48 47" fill="none" xmlns="http://www.w3.org/2000/svg">
<path opacity="0.051" d="M5.75202 0H42.386C43.7055 0.00661422 44.9684 0.537197 45.8969 1.47485C46.8254 2.41251 47.3434 3.68045 47.337 5V42C47.3434 43.3195 46.8254 44.5875 45.8969 45.5251C44.9684 46.4628 43.7055 46.9934 42.386 47H5.75202C5.0986 46.9969 4.45219 46.865 3.84973 46.6121C3.24728 46.3591 2.70054 45.9899 2.24079 45.5256C1.78103 45.0613 1.41727 44.5109 1.17023 43.906C0.923186 43.3011 0.797736 42.6534 0.801027 42V5C0.794646 3.68045 1.31262 2.41251 2.24109 1.47485C3.16956 0.537197 4.43247 0.00661422 5.75202 0Z" fill="#FD8983"/>
<mask id="mask0_1_2479" style="mask-type:luminance" maskUnits="userSpaceOnUse" x="15" y="10" width="18" height="27">
<path d="M33 10H15V37H33V10Z" fill="white"/>
</mask>
<g mask="url(#mask0_1_2479)">
<path d="M24 22.265C25.891 22.265 27.424 20.7517 27.424 18.885C27.424 17.0183 25.891 15.505 24 15.505C22.109 15.505 20.576 17.0183 20.576 18.885C20.576 20.7517 22.109 22.265 24 22.265Z" stroke="white" stroke-width="1.288" stroke-miterlimit="10"/>
<path d="M32.4 18.885C32.4 23.467 24.236 35.937 24.236 35.937C24.236 35.937 15.6 23.466 15.6 18.885C15.6143 16.6711 16.5072 14.5536 18.0824 12.9979C19.6576 11.4422 21.7861 10.5757 24 10.589C26.2139 10.5757 28.3424 11.4422 29.9176 12.9979C31.4928 14.5536 32.3857 16.6711 32.4 18.885Z" stroke="white" stroke-width="1.288" stroke-miterlimit="10"/>
</g>
<path d="M15 37V10H33V37H15Z" fill="url(#paint0_linear_1_2479)"/>
<path d="M15 37V10H33V37H15Z" fill="#FD8983"/>
<defs>
<linearGradient id="paint0_linear_1_2479" x1="33" y1="35.893" x2="8.86906" y2="21.1249" gradientUnits="userSpaceOnUse">
<stop stop-color="#FD8983"/>
<stop offset="1" stop-color="#FB7069"/>
</linearGradient>
</defs>
</svg>
