<svg width="24" height="21" viewBox="0 0 24 21" fill="none" xmlns="http://www.w3.org/2000/svg">
<mask id="mask0_1_2288" style="mask-type:luminance" maskUnits="userSpaceOnUse" x="0" y="1" width="24" height="21">
<path d="M24 1.00024H0V21.0002H24V1.00024Z" fill="white"/>
</mask>
<g mask="url(#mask0_1_2288)">
<path d="M9.73198 10.8313C11.085 10.8791 12.4018 10.3885 13.3936 9.46693C14.3855 8.54539 14.9714 7.26816 15.023 5.91527C14.9711 4.56255 14.3851 3.28557 13.3933 2.36425C12.4015 1.44292 11.0848 0.952423 9.73198 1.00027C8.37895 0.952428 7.06216 1.44306 6.07033 2.3646C5.07849 3.28614 4.49255 4.56338 4.44098 5.91627C4.49281 7.26898 5.07886 8.54596 6.07067 9.46729C7.06248 10.3886 8.37912 10.8791 9.73198 10.8313ZM9.73198 2.40527C10.6983 2.37121 11.6387 2.72165 12.3471 3.37979C13.0554 4.03792 13.474 4.95006 13.511 5.91627C13.474 6.88266 13.0553 7.79495 12.3467 8.45311C11.6381 9.11128 10.6975 9.4616 9.73098 9.42727C8.76449 9.4616 7.82383 9.11128 7.11524 8.45311C6.40665 7.79495 5.98796 6.88266 5.95098 5.91627C5.98796 4.9497 6.40679 4.03725 7.11559 3.37906C7.8244 2.72087 8.76532 2.37067 9.73198 2.40527Z" fill="#5A77D0"/>
<path d="M3.685 5.23535H0V6.59635H3.685V5.23535Z" fill="#5A77D0"/>
<path d="M24.614 5.23535H15.685V6.59635H24.614V5.23535Z" fill="#5A77D0"/>
<path d="M20.504 16.0843C20.4524 14.7311 19.8662 13.4535 18.8739 12.5319C17.8817 11.6103 16.5643 11.1199 15.211 11.1683C13.858 11.1205 12.5412 11.6111 11.5493 12.5326C10.5575 13.4542 9.97156 14.7314 9.91998 16.0843C9.97156 17.4372 10.5575 18.7144 11.5493 19.636C12.5412 20.5575 13.858 21.0481 15.211 21.0003C16.5643 21.0487 17.8817 20.5583 18.8739 19.6367C19.8662 18.7151 20.4524 17.4376 20.504 16.0843ZM18.992 16.0843C18.955 17.0509 18.5362 17.9633 17.8274 18.6215C17.1186 19.2797 16.1776 19.6299 15.211 19.5953C14.2445 19.6296 13.3038 19.2793 12.5952 18.6212C11.8867 17.963 11.468 17.0507 11.431 16.0843C11.468 15.1179 11.8867 14.2056 12.5952 13.5475C13.3038 12.8893 14.2445 12.539 15.211 12.5733C16.1776 12.5387 17.1186 12.8889 17.8274 13.5471C18.5362 14.2053 18.955 15.1177 18.992 16.0843Z" fill="#5A77D0"/>
<path d="M21.26 16.7642H24.945V15.4032H21.26V16.7642Z" fill="#5A77D0"/>
<path d="M0.0950098 16.7642H9.26001V15.4032H0.0950098V16.7642Z" fill="#5A77D0"/>
</g>
<path d="M9.92102 16.0843C9.84287 15.0213 10.0867 13.9595 10.6207 13.0371C11.1548 12.1148 11.9542 11.3747 12.9149 10.9132C13.8757 10.4518 14.9531 10.2905 16.0068 10.4502C17.0606 10.61 18.0418 11.0834 18.8226 11.8089C19.6034 12.5343 20.1476 13.4782 20.3843 14.5174C20.6209 15.5566 20.5391 16.6429 20.1494 17.6349C19.7597 18.6269 19.0803 19.4786 18.1996 20.0789C17.3189 20.6792 16.2778 21.0002 15.212 21.0003C13.859 21.0481 12.5421 20.5574 11.5503 19.6359C10.5585 18.7144 9.97259 17.4371 9.92102 16.0843ZM11.432 16.0843C11.376 16.8437 11.5499 17.6024 11.9313 18.2615C12.3127 18.9206 12.8837 19.4495 13.5701 19.7793C14.2564 20.1092 15.0262 20.2245 15.7791 20.1105C16.5319 19.9965 17.2331 19.6584 17.791 19.1402C18.3489 18.6219 18.7378 17.9477 18.907 17.2052C19.0761 16.4628 19.0177 15.6866 18.7394 14.9778C18.461 14.269 17.9756 13.6606 17.3464 13.2317C16.7172 12.8028 15.9735 12.5733 15.212 12.5733C14.2456 12.5392 13.3051 12.8896 12.5966 13.5478C11.888 14.2059 11.4693 15.118 11.432 16.0843ZM21.259 16.7643V15.4003H24V16.7613L21.259 16.7643ZM0.0939941 16.7643V15.4003H9.26001V16.7613L0.0939941 16.7643ZM4.43994 5.91531C4.36159 4.85215 4.6054 3.78998 5.1394 2.86734C5.67341 1.94469 6.47295 1.20437 7.43384 0.742703C8.39473 0.281037 9.47235 0.11941 10.5264 0.27908C11.5804 0.438751 12.5619 0.912298 13.3429 1.63784C14.1239 2.36339 14.6684 3.30729 14.9052 4.34671C15.1419 5.38612 15.0601 6.47274 14.6704 7.46499C14.2807 8.45724 13.6011 9.30914 12.7202 9.90957C11.8394 10.51 10.7981 10.8313 9.73206 10.8313C8.37902 10.8794 7.06209 10.389 6.07007 9.46768C5.07804 8.54632 4.49177 7.2682 4.43994 5.91531ZM5.95203 5.91531C5.89597 6.67472 6.06992 7.43335 6.45129 8.09243C6.83267 8.75152 7.40375 9.28043 8.09009 9.61026C8.77642 9.94009 9.54618 10.0556 10.2991 9.94156C11.052 9.82756 11.7531 9.48944 12.311 8.97122C12.869 8.45299 13.2578 7.77873 13.427 7.03628C13.5962 6.29384 13.5378 5.51764 13.2594 4.80887C12.981 4.10009 12.4956 3.49156 11.8665 3.06265C11.2373 2.63374 10.4935 2.40438 9.73206 2.40432C8.76533 2.36973 7.82428 2.72001 7.1156 3.37845C6.40692 4.03688 5.98849 4.94865 5.95203 5.91531ZM15.6851 6.59524V5.23428H24V6.59524H15.6851ZM0 6.59524V5.23428H3.68506V6.59524H0Z" fill="#FD8983"/>
</svg>
