<svg width="145" height="5" viewBox="0 0 145 5" fill="none" xmlns="http://www.w3.org/2000/svg">
<path d="M22.5 0H2.5C1.11929 0 0 1.11929 0 2.5C0 3.88071 1.11929 5 2.5 5H22.5C23.8807 5 25 3.88071 25 2.5C25 1.11929 23.8807 0 22.5 0Z" fill="#CDD7DF"/>
<path d="M62.5 0H42.5C41.1193 0 40 1.11929 40 2.5C40 3.88071 41.1193 5 42.5 5H62.5C63.8807 5 65 3.88071 65 2.5C65 1.11929 63.8807 0 62.5 0Z" fill="#CDD7DF"/>
<path d="M102.5 0H82.5C81.1193 0 80 1.11929 80 2.5C80 3.88071 81.1193 5 82.5 5H102.5C103.881 5 105 3.88071 105 2.5C105 1.11929 103.881 0 102.5 0Z" fill="#CDD7DF"/>
<path d="M142.5 0H122.5C121.119 0 120 1.11929 120 2.5C120 3.88071 121.119 5 122.5 5H142.5C143.881 5 145 3.88071 145 2.5C145 1.11929 143.881 0 142.5 0Z" fill="#CDD7DF"/>
</svg>
