<svg width="16" height="15" viewBox="0 0 16 15" fill="none" xmlns="http://www.w3.org/2000/svg">
<path d="M15.278 7.81998C15.2695 9.24591 14.8389 10.6374 14.0405 11.8189C13.2421 13.0004 12.1117 13.9189 10.7919 14.4587C9.47206 14.9985 8.02194 15.1354 6.62443 14.852C5.22693 14.5686 3.94466 13.8777 2.93936 12.8664C1.93406 11.8551 1.25077 10.5688 0.97569 9.1696C0.70061 7.77044 0.846059 6.32115 1.39369 5.00455C1.94132 3.68796 2.8666 2.56303 4.05281 1.77168C5.23902 0.980334 6.63302 0.558009 8.05896 0.557983C9.97923 0.56381 11.8185 1.33215 13.1723 2.69402C14.5261 4.05588 15.2835 5.89972 15.278 7.81998Z" fill="#EDEDED"/>
</svg>
