<svg width="44" height="1" viewBox="0 0 44 1" fill="none" xmlns="http://www.w3.org/2000/svg">
<path d="M0.499985 0.899968H41.486C42.035 0.899968 42.597 0.933968 43.145 0.899968C43.168 0.899968 43.192 0.899968 43.216 0.899968C43.2497 0.899968 43.282 0.8866 43.3058 0.862783C43.3296 0.838966 43.343 0.806652 43.343 0.772969C43.343 0.739287 43.3296 0.706989 43.3058 0.683171C43.282 0.659354 43.2497 0.64597 43.216 0.64597H2.22698C1.67698 0.64597 1.11599 0.61197 0.566986 0.64597C0.543986 0.64597 0.519987 0.64597 0.495987 0.64597C0.462304 0.64597 0.429998 0.659354 0.406181 0.683171C0.382364 0.706989 0.368988 0.739287 0.368988 0.772969C0.368988 0.806652 0.382364 0.838966 0.406181 0.862783C0.429998 0.8866 0.462304 0.899968 0.495987 0.899968" fill="white"/>
</svg>
