<svg width="17" height="4" viewBox="0 0 17 4" fill="none" xmlns="http://www.w3.org/2000/svg">
<path d="M15.662 3.51096H2.15101C1.99767 3.51056 1.84592 3.47995 1.70441 3.42088C1.56291 3.3618 1.43444 3.27542 1.32634 3.16667C1.21824 3.05792 1.13263 2.92893 1.0744 2.78708C1.01618 2.64523 0.98648 2.49329 0.987006 2.33995V2.09995C0.98648 1.94662 1.01618 1.79468 1.0744 1.65282C1.13263 1.51097 1.21824 1.38198 1.32634 1.27323C1.43444 1.16448 1.56291 1.0781 1.70441 1.01903C1.84592 0.959954 1.99767 0.929348 2.15101 0.928955H15.662C15.8153 0.929479 15.9669 0.960185 16.1083 1.01932C16.2497 1.07845 16.378 1.16485 16.486 1.27359C16.594 1.38233 16.6795 1.51127 16.7377 1.65306C16.7959 1.79485 16.8255 1.9467 16.825 2.09995V2.33795C16.8255 2.4912 16.7959 2.64306 16.7377 2.78485C16.6795 2.92664 16.594 3.05558 16.486 3.16432C16.378 3.27306 16.2497 3.35946 16.1083 3.41859C15.9669 3.47773 15.8153 3.50843 15.662 3.50896" fill="#032644"/>
</svg>
