<svg width="44" height="1" viewBox="0 0 44 1" fill="none" xmlns="http://www.w3.org/2000/svg">
<path d="M0.499985 0.299993H41.486C42.035 0.299993 42.597 0.333993 43.145 0.299993C43.168 0.299993 43.192 0.299993 43.216 0.299993C43.2497 0.299993 43.282 0.286609 43.3058 0.262792C43.3296 0.238975 43.343 0.206676 43.343 0.172994C43.343 0.139311 43.3296 0.106998 43.3058 0.0831806C43.282 0.0593634 43.2497 0.0459949 43.216 0.0459949H2.22698C1.67698 0.0459949 1.11599 0.0119949 0.566986 0.0459949C0.543986 0.0459949 0.519987 0.0459949 0.495987 0.0459949C0.462304 0.0459949 0.429998 0.0593634 0.406181 0.0831806C0.382364 0.106998 0.368988 0.139311 0.368988 0.172994C0.368988 0.206676 0.382364 0.238975 0.406181 0.262792C0.429998 0.286609 0.462304 0.299993 0.495987 0.299993" fill="white"/>
</svg>
