<svg width="557" height="139" viewBox="0 0 557 139" fill="none" xmlns="http://www.w3.org/2000/svg">
<g filter="url(#filter0_d_1_2938)">
<path d="M34.845 12H522.745C525.389 12.0085 527.921 13.0666 529.784 14.9419C531.648 16.8172 532.69 19.3562 532.682 22V93C532.686 94.3091 532.433 95.6063 531.935 96.8174C531.438 98.0284 530.707 99.1295 529.785 100.058C528.862 100.987 527.765 101.725 526.557 102.229C525.35 102.734 524.054 102.996 522.745 103H34.845C33.5359 102.996 32.2404 102.734 31.0325 102.229C29.8247 101.725 28.728 100.987 27.8053 100.058C26.8825 99.1295 26.1517 98.0284 25.6546 96.8174C25.1575 95.6063 24.9038 94.3091 24.908 93V22C24.8998 19.3562 25.942 16.8172 27.8056 14.9419C29.6691 13.0666 32.2012 12.0085 34.845 12Z" fill="url(#paint0_linear_1_2938)"/>
</g>
<path d="M278.29 46H105.37C103.989 46 102.87 47.1193 102.87 48.5C102.87 49.8807 103.989 51 105.37 51H278.29C279.671 51 280.79 49.8807 280.79 48.5C280.79 47.1193 279.671 46 278.29 46Z" fill="white"/>
<path d="M105.944 65H232.744C233.327 65.1098 233.853 65.4195 234.231 65.876C234.61 66.3324 234.817 66.907 234.817 67.5C234.817 68.093 234.61 68.6676 234.231 69.124C233.853 69.5805 233.327 69.8902 232.744 70H105.944C105.361 69.8902 104.835 69.5805 104.457 69.124C104.078 68.6676 103.871 68.093 103.871 67.5C103.871 66.907 104.078 66.3324 104.457 65.876C104.835 65.4195 105.361 65.1098 105.944 65Z" fill="white"/>
<path d="M502.68 48H432.72C429.959 48 427.72 50.2386 427.72 53V62C427.72 64.7614 429.959 67 432.72 67H502.68C505.441 67 507.68 64.7614 507.68 62V53C507.68 50.2386 505.441 48 502.68 48Z" fill="#FD8983"/>
<path d="M60.6 55.175C60.4251 55.1564 60.2571 55.0964 60.11 55C59.3293 54.4245 58.3849 54.1141 57.415 54.1141C56.4451 54.1141 55.5007 54.4245 54.72 55C54.6304 55.0661 54.5276 55.1121 54.4186 55.1348C54.3095 55.1575 54.1969 55.1563 54.0884 55.1315C53.9798 55.1066 53.8779 55.0585 53.7897 54.9906C53.7014 54.9227 53.6289 54.8366 53.577 54.738C53.4513 54.5418 53.4067 54.3045 53.4524 54.0761C53.498 53.8476 53.6306 53.6458 53.822 53.513C54.8722 52.7582 56.1365 52.3594 57.4298 52.375C58.7231 52.3907 59.9774 52.82 61.009 53.6C61.2005 53.7328 61.333 53.9346 61.3787 54.1631C61.4244 54.3915 61.3797 54.6288 61.254 54.825C61.1872 54.9374 61.091 55.0293 60.9757 55.091C60.8605 55.1527 60.7306 55.1817 60.6 55.175Z" fill="#FFE100"/>
<path d="M68.933 50.625H46.067C45.8452 50.61 45.6373 50.5113 45.4855 50.3488C45.3337 50.1864 45.2492 49.9723 45.2492 49.75C45.2492 49.5277 45.3337 49.3136 45.4855 49.1512C45.6373 48.9887 45.8452 48.89 46.067 48.875H68.933C69.1549 48.89 69.3627 48.9887 69.5145 49.1512C69.6664 49.3136 69.7508 49.5277 69.7508 49.75C69.7508 49.9723 69.6664 50.1864 69.5145 50.3488C69.3627 50.5113 69.1549 50.61 68.933 50.625Z" fill="#FFE100"/>
<path d="M35.45 59.375H33.817C33.5952 59.36 33.3873 59.2613 33.2355 59.0988C33.0837 58.9364 32.9992 58.7223 32.9992 58.5C32.9992 58.2777 33.0837 58.0636 33.2355 57.9012C33.3873 57.7387 33.5952 57.64 33.817 57.625H35.45C35.6719 57.64 35.8797 57.7387 36.0315 57.9012C36.1834 58.0636 36.2678 58.2777 36.2678 58.5C36.2678 58.7223 36.1834 58.9364 36.0315 59.0988C35.8797 59.2613 35.6719 59.36 35.45 59.375Z" fill="#FFE100"/>
<path d="M81.183 59.375H79.55C79.3282 59.36 79.1203 59.2613 78.9685 59.0988C78.8167 58.9364 78.7322 58.7223 78.7322 58.5C78.7322 58.2777 78.8167 58.0636 78.9685 57.9012C79.1203 57.7387 79.3282 57.64 79.55 57.625H81.183C81.4049 57.64 81.6127 57.7387 81.7645 57.9012C81.9164 58.0636 82.0008 58.2777 82.0008 58.5C82.0008 58.7223 81.9164 58.9364 81.7645 59.0988C81.6127 59.2613 81.4049 59.36 81.183 59.375Z" fill="#FFE100"/>
<path d="M79.55 59.812V56.925C79.5868 55.9028 79.4214 54.8833 79.0635 53.9251C78.7055 52.9668 78.162 52.0887 77.4641 51.3409C76.7662 50.593 75.9276 49.9903 74.9963 49.5672C74.065 49.144 73.0594 48.9088 72.037 48.875H67.3C60.358 48.875 57.337 58.238 62.808 62.875L67.055 66.375C72.118 70.662 79.55 66.724 79.55 59.812Z" fill="#FFE100"/>
<path d="M72.2 48.875H69.75C70.7723 48.9088 71.778 49.144 72.7092 49.5672C73.6405 49.9903 74.4792 50.593 75.1771 51.3409C75.875 52.0887 76.4185 52.9668 76.7765 53.9251C77.1344 54.8833 77.2997 55.9028 77.263 56.925V59.812C77.3288 61.7356 76.7075 63.6198 75.5104 65.127C74.3133 66.6341 72.6186 67.6658 70.73 68.037C75.14 68.824 79.713 65.237 79.713 59.812V56.925C79.7497 55.9028 79.5844 54.8833 79.2265 53.9251C78.8685 52.9668 78.325 52.0887 77.6271 51.3409C76.9292 50.593 76.0905 49.9903 75.1592 49.5672C74.228 49.144 73.2223 48.9088 72.2 48.875Z" fill="#FFA800"/>
<path d="M35.45 59.812V56.925C35.4133 55.9028 35.5786 54.8833 35.9366 53.9251C36.2945 52.9668 36.838 52.0887 37.5359 51.3409C38.2339 50.593 39.0725 49.9903 40.0038 49.5672C40.9351 49.144 41.9407 48.9088 42.963 48.875H47.781C54.723 48.875 57.744 58.238 52.273 62.875L48.026 66.375C42.881 70.662 35.449 66.725 35.449 59.813" fill="#FFE100"/>
<path d="M42.963 48.875H45.413C44.3907 48.9088 43.3851 49.144 42.4538 49.5672C41.5225 49.9903 40.6839 50.593 39.9859 51.3409C39.288 52.0887 38.7445 52.9668 38.3866 53.9251C38.0286 54.8833 37.8633 55.9028 37.9 56.925V59.812C37.8342 61.7356 38.4555 63.6198 39.6526 65.127C40.8497 66.6341 42.5444 67.6658 44.433 68.037C40.023 68.824 35.45 65.237 35.45 59.812V56.925C35.4133 55.9028 35.5786 54.8833 35.9366 53.9251C36.2945 52.9668 36.838 52.0887 37.5359 51.3409C38.2339 50.593 39.0725 49.9903 40.0038 49.5672C40.9351 49.144 41.9407 48.9088 42.963 48.875Z" fill="white"/>
<path d="M71.71 69C69.7999 68.9694 67.9568 68.2906 66.483 67.075L62.236 63.575C60.8663 62.4119 59.8772 60.8645 59.3967 59.133C58.9162 57.4015 58.9665 55.5656 59.541 53.863C60.0429 52.1877 61.0658 50.7161 62.461 49.6617C63.8563 48.6074 65.5514 48.0253 67.3 48H72.118C76.61 48 80.366 52.025 80.366 56.925V59.812C80.3681 62.2795 79.4343 64.6559 77.753 66.462C76.9641 67.2643 76.0236 67.9018 74.9862 68.3375C73.9488 68.7732 72.8352 68.9984 71.71 69ZM67.3 49.75C65.9037 49.7627 64.5497 50.2311 63.4441 51.084C62.3385 51.9369 61.5417 53.1276 61.175 54.475C60.6984 55.8215 60.6464 57.2818 61.0261 58.6587C61.4057 60.0357 62.1987 61.263 63.298 62.175L67.545 65.675C68.7229 66.6975 70.2322 67.2572 71.792 67.25C72.6939 67.2347 73.5838 67.0413 74.4106 66.6809C75.2375 66.3205 75.9849 65.8003 76.61 65.15C77.3033 64.4298 77.8477 63.5799 78.212 62.649C78.5763 61.7181 78.7533 60.7244 78.733 59.725V56.925C78.7858 55.0878 78.1119 53.304 76.8575 51.9606C75.6031 50.6173 73.8695 49.823 72.033 49.75H67.3Z" fill="#494D54"/>
<path d="M43.29 69C42.1177 68.9674 40.9633 68.7037 39.8931 68.2239C38.8229 67.7441 37.858 67.0578 37.0537 66.2043C36.2494 65.3507 35.6215 64.3467 35.2061 63.25C34.7907 62.1532 34.596 60.9852 34.633 59.813V56.925C34.633 52.025 38.39 48 42.963 48H47.781C49.5224 48.0156 51.2118 48.5954 52.596 49.6522C53.9801 50.7091 54.9843 52.1862 55.458 53.862C56.0263 55.5658 56.0729 57.4005 55.5918 59.131C55.1108 60.8614 54.1241 62.4089 52.758 63.575L48.511 67.075C47.0599 68.3255 45.2056 69.0091 43.29 69ZM42.963 49.75C41.1265 49.823 39.3929 50.6173 38.1386 51.9606C36.8842 53.304 36.2102 55.0878 36.263 56.925V59.812C36.2291 60.7635 36.3847 61.7122 36.7208 62.6031C37.0568 63.4939 37.5665 64.3091 38.2204 65.0011C38.8742 65.6932 39.6591 66.2484 40.5294 66.6345C41.3998 67.0206 42.3381 67.2298 43.29 67.25C44.8498 67.2572 46.3591 66.6975 47.537 65.675L51.784 62.175C52.8794 61.26 53.6695 60.0326 54.0488 58.6568C54.4282 57.2809 54.3787 55.822 53.907 54.475C53.5287 53.1342 52.7288 51.9508 51.6257 51.0998C50.5226 50.2489 49.1749 49.7756 47.782 49.75H42.963Z" fill="#494D54"/>
<path d="M68.933 49.75H46.067C45.8452 49.735 45.6373 49.6363 45.4855 49.4738C45.3337 49.3114 45.2492 49.0973 45.2492 48.875C45.2492 48.6527 45.3337 48.4386 45.4855 48.2762C45.6373 48.1137 45.8452 48.015 46.067 48H68.933C69.1549 48.015 69.3627 48.1137 69.5145 48.2762C69.6664 48.4386 69.7508 48.6527 69.7508 48.875C69.7508 49.0973 69.6664 49.3114 69.5145 49.4738C69.3627 49.6363 69.1549 49.735 68.933 49.75Z" fill="#494D54"/>
<path d="M35.45 58.5H33.817C33.5952 58.485 33.3873 58.3863 33.2355 58.2238C33.0837 58.0614 32.9992 57.8473 32.9992 57.625C32.9992 57.4027 33.0837 57.1886 33.2355 57.0262C33.3873 56.8637 33.5952 56.765 33.817 56.75H35.45C35.6719 56.765 35.8797 56.8637 36.0315 57.0262C36.1834 57.1886 36.2678 57.4027 36.2678 57.625C36.2678 57.8473 36.1834 58.0614 36.0315 58.2238C35.8797 58.3863 35.6719 58.485 35.45 58.5Z" fill="#494D54"/>
<path d="M81.183 58.5H79.55C79.3282 58.485 79.1203 58.3863 78.9685 58.2238C78.8167 58.0614 78.7322 57.8473 78.7322 57.625C78.7322 57.4027 78.8167 57.1886 78.9685 57.0262C79.1203 56.8637 79.3282 56.765 79.55 56.75H81.183C81.4049 56.765 81.6127 56.8637 81.7645 57.0262C81.9164 57.1886 82.0008 57.4027 82.0008 57.625C82.0008 57.8473 81.9164 58.0614 81.7645 58.2238C81.6127 58.3863 81.4049 58.485 81.183 58.5Z" fill="#494D54"/>
<defs>
<filter id="filter0_d_1_2938" x="0.907959" y="0" width="555.774" height="139" filterUnits="userSpaceOnUse" color-interpolation-filters="sRGB">
<feFlood flood-opacity="0" result="BackgroundImageFix"/>
<feColorMatrix in="SourceAlpha" type="matrix" values="0 0 0 0 0 0 0 0 0 0 0 0 0 0 0 0 0 0 127 0" result="hardAlpha"/>
<feOffset dy="12"/>
<feGaussianBlur stdDeviation="12"/>
<feColorMatrix type="matrix" values="0 0 0 0 0.537255 0 0 0 0 0.537255 0 0 0 0 0.537255 0 0 0 0.09 0"/>
<feBlend mode="normal" in2="BackgroundImageFix" result="effect1_dropShadow_1_2938"/>
<feBlend mode="normal" in="SourceGraphic" in2="effect1_dropShadow_1_2938" result="shape"/>
</filter>
<linearGradient id="paint0_linear_1_2938" x1="278.795" y1="12" x2="278.795" y2="12" gradientUnits="userSpaceOnUse">
<stop stop-color="#FFE7E1"/>
<stop offset="1" stop-color="#FFF0EC"/>
</linearGradient>
</defs>
</svg>
