<svg width="577" height="260" viewBox="0 0 577 260" fill="none" xmlns="http://www.w3.org/2000/svg">
<g filter="url(#filter0_d_1_2745)">
<path d="M33.941 12H522.058C524.702 12.0079 527.235 13.0661 529.099 14.9414C530.964 16.8167 532.007 19.3557 531.999 22V93C532.007 95.6443 530.964 98.1833 529.099 100.059C527.235 101.934 524.702 102.992 522.058 103H33.941C31.2967 102.992 28.7638 101.934 26.8995 100.059C25.0352 98.1833 23.9923 95.6443 24 93V22C23.9923 19.3557 25.0352 16.8167 26.8995 14.9414C28.7638 13.0661 31.2967 12.0079 33.941 12Z" fill="url(#paint0_linear_1_2745)"/>
</g>
<path d="M277.5 46H104.5C103.119 46 102 47.1193 102 48.5C102 49.8807 103.119 51 104.5 51H277.5C278.881 51 280 49.8807 280 48.5C280 47.1193 278.881 46 277.5 46Z" fill="white"/>
<path d="M105.073 65H231.927C232.511 65.1087 233.038 65.4184 233.417 65.875C233.797 66.3316 234.004 66.9063 234.004 67.5C234.004 68.0937 233.797 68.6684 233.417 69.125C233.038 69.5816 232.511 69.8913 231.927 70H105.073C104.489 69.8913 103.962 69.5816 103.583 69.125C103.203 68.6684 102.996 68.0937 102.996 67.5C102.996 66.9063 103.203 66.3316 103.583 65.875C103.962 65.4184 104.489 65.1087 105.073 65Z" fill="white"/>
<path d="M502 48H432C429.239 48 427 50.2386 427 53V62C427 64.7614 429.239 67 432 67H502C504.761 67 507 64.7614 507 62V53C507 50.2386 504.761 48 502 48Z" fill="#FD8983"/>
<path d="M49.568 36.0002C49.9033 35.9949 50.2343 36.0773 50.528 36.2392C53.452 37.8542 56.128 37.8752 58.563 36.3522C58.8205 36.1907 59.113 36.0933 59.416 36.0682L59.427 36.1952C59.3902 37.4807 58.8553 38.7015 57.9352 39.5999C57.0151 40.4983 55.7819 41.004 54.496 41.0102C53.2024 41.0106 51.9615 40.4982 51.045 39.5852C50.1236 38.6698 49.5947 37.4318 49.57 36.1332L49.568 36.0002Z" fill="#FE860A"/>
<path d="M67.072 57.8122H41.927L35.213 53.9322C35.1188 53.8772 35.0489 53.7886 35.0174 53.6841C34.9859 53.5797 34.995 53.4672 35.043 53.3692L40.951 41.3152C41.0236 41.1668 41.1357 41.0412 41.275 40.9522L48.55 36.3082C48.843 36.1199 49.1814 36.014 49.5295 36.0019C49.8776 35.9897 50.2226 36.0717 50.528 36.2392C53.452 37.8542 56.128 37.8752 58.563 36.3522C58.8753 36.1584 59.2363 36.0576 59.6038 36.0617C59.9714 36.0658 60.3301 36.1745 60.638 36.3752L67.726 40.9522C67.8635 41.0412 67.9742 41.166 68.046 41.3132L73.956 53.3692C74.004 53.4672 74.0131 53.5797 73.9816 53.6841C73.9501 53.7886 73.8802 53.8772 73.786 53.9322L67.072 57.8122Z" fill="#FE9738"/>
<path d="M47.316 37.0952L41.275 40.9522C41.1357 41.0412 41.0236 41.1668 40.951 41.3152L35.044 53.3692C34.996 53.4672 34.9869 53.5797 35.0184 53.6841C35.0499 53.7886 35.1198 53.8772 35.214 53.9322L41.928 57.8122H47.317L47.316 37.0952Z" fill="#FE860A"/>
<path d="M60.639 36.3752C60.3311 36.1745 59.9724 36.0658 59.6048 36.0617C59.2373 36.0576 58.8763 36.1584 58.564 36.3522C56.129 37.8762 53.453 37.8522 50.529 36.2392C50.2236 36.0717 49.8786 35.9897 49.5305 36.0019C49.1824 36.014 48.844 36.1199 48.551 36.3082L41.275 40.9522L41.987 50.0722V78.6082C41.9867 78.6595 41.9966 78.7102 42.0159 78.7576C42.0353 78.8051 42.0638 78.8482 42.0998 78.8846C42.1358 78.921 42.1787 78.95 42.2259 78.9698C42.2731 78.9896 42.3238 79 42.375 79.0002H66.624C66.6752 79 66.7259 78.9896 66.7731 78.9698C66.8203 78.95 66.8632 78.921 66.8992 78.8846C66.9352 78.8482 66.9637 78.8051 66.9831 78.7576C67.0024 78.7102 67.0123 78.6595 67.012 78.6082V50.0712L67.727 40.9512L60.639 36.3752Z" fill="#FEA95C"/>
<path d="M60.975 74.2722C58.9543 74.2609 56.9557 73.8516 55.0932 73.0678C53.2307 72.2839 51.5409 71.141 50.1202 69.7041C48.6994 68.2671 47.5756 66.5645 46.8129 64.6933C46.0502 62.822 45.6635 60.8189 45.675 58.7982V45.3462L45.14 38.4872L41.275 40.9522L41.987 50.0722V79.0002H67.012V74.2722H60.975Z" fill="#FE9738"/>
<path d="M60.638 36.3752L61.689 37.0532C61.4621 38.7955 60.6102 40.3962 59.2917 41.5575C57.9733 42.7188 56.2779 43.3619 54.5209 43.367C52.7639 43.3721 51.0648 42.739 49.7396 41.5854C48.4143 40.4318 47.5531 38.8362 47.316 37.0952L48.55 36.3082C48.8544 36.1135 49.2067 36.0069 49.568 36.0002V36.1332C49.5937 37.4324 50.1242 38.6705 51.047 39.5852C51.963 40.4977 53.2031 41.0101 54.496 41.0102C55.7821 41.0043 57.0156 40.4987 57.9358 39.6002C58.8561 38.7018 59.3912 37.4808 59.428 36.1952L59.417 36.0682C59.8468 36.0327 60.2762 36.1407 60.638 36.3752Z" fill="#6CF5C2"/>
<path d="M54.496 40.3553C53.9391 40.3563 53.3875 40.2475 52.8727 40.035C52.3579 39.8226 51.8901 39.5107 51.496 39.1173C50.8766 38.5018 50.4583 37.7132 50.296 36.8553C53.288 38.4823 56.096 38.5493 58.663 37.0553C58.443 37.995 57.9115 38.8326 57.1549 39.4318C56.3983 40.031 55.4611 40.3565 54.496 40.3553Z" fill="white"/>
<g filter="url(#filter1_d_1_2745)">
<path d="M33.9412 112.997H37.9412V113.997H33.9412V112.997ZM39.9412 112.997H43.9412V113.997H39.9412V112.997ZM45.9412 112.997H49.9412V113.997H45.9412V112.997ZM51.9412 112.997H55.9412V113.997H51.9412V112.997ZM57.9412 112.997H61.9412V113.997H57.9412V112.997ZM63.9412 112.997H67.9412V113.997H63.9412V112.997ZM69.9412 112.997H73.9412V113.997H69.9412V112.997ZM75.9412 112.997H79.9412V113.997H75.9412V112.997ZM81.9412 112.997H85.9412V113.997H81.9412V112.997ZM87.9412 112.997H91.9412V113.997H87.9412V112.997ZM93.9412 112.997H97.9412V113.997H93.9412V112.997ZM99.9412 112.997H103.941V113.997H99.9412V112.997ZM105.941 112.997H109.941V113.997H105.941V112.997ZM111.941 112.997H115.941V113.997H111.941V112.997ZM117.941 112.997H121.941V113.997H117.941V112.997ZM123.941 112.997H127.941V113.997H123.941V112.997ZM129.941 112.997H133.941V113.997H129.941V112.997ZM135.941 112.997H139.941V113.997H135.941V112.997ZM141.941 112.997H145.941V113.997H141.941V112.997ZM147.941 112.997H151.941V113.997H147.941V112.997ZM153.941 112.997H157.941V113.997H153.941V112.997ZM159.941 112.997H163.941V113.997H159.941V112.997ZM165.941 112.997H169.941V113.997H165.941V112.997ZM171.941 112.997H175.941V113.997H171.941V112.997ZM177.941 112.997H181.941V113.997H177.941V112.997ZM183.941 112.997H187.941V113.997H183.941V112.997ZM189.941 112.997H193.941V113.997H189.941V112.997ZM195.941 112.997H199.941V113.997H195.941V112.997ZM201.941 112.997H205.941V113.997H201.941V112.997ZM207.941 112.997H211.941V113.997H207.941V112.997ZM213.941 112.997H217.941V113.997H213.941V112.997ZM219.941 112.997H223.941V113.997H219.941V112.997ZM225.941 112.997H229.941V113.997H225.941V112.997ZM231.941 112.997H235.941V113.997H231.941V112.997ZM237.941 112.997H241.941V113.997H237.941V112.997ZM243.941 112.997H247.941V113.997H243.941V112.997ZM249.941 112.997H253.941V113.997H249.941V112.997ZM255.941 112.997H259.941V113.997H255.941V112.997ZM261.941 112.997H265.941V113.997H261.941V112.997ZM267.941 112.997H271.941V113.997H267.941V112.997ZM273.941 112.997H277.941V113.997H273.941V112.997ZM279.941 112.997H283.941V113.997H279.941V112.997ZM285.941 112.997H289.941V113.997H285.941V112.997ZM291.941 112.997H295.941V113.997H291.941V112.997ZM297.941 112.997H301.941V113.997H297.941V112.997ZM303.941 112.997H307.941V113.997H303.941V112.997ZM309.941 112.997H313.941V113.997H309.941V112.997ZM315.941 112.997H319.941V113.997H315.941V112.997ZM321.941 112.997H325.941V113.997H321.941V112.997ZM327.941 112.997H331.941V113.997H327.941V112.997ZM333.941 112.997H337.941V113.997H333.941V112.997ZM339.941 112.997H343.941V113.997H339.941V112.997ZM345.941 112.997H349.941V113.997H345.941V112.997ZM351.941 112.997H355.941V113.997H351.941V112.997ZM357.941 112.997H361.941V113.997H357.941V112.997ZM363.941 112.997H367.941V113.997H363.941V112.997ZM369.941 112.997H373.941V113.997H369.941V112.997ZM375.941 112.997H379.941V113.997H375.941V112.997ZM381.941 112.997H385.941V113.997H381.941V112.997ZM387.941 112.997H391.941V113.997H387.941V112.997ZM393.941 112.997H397.941V113.997H393.941V112.997ZM399.941 112.997H403.941V113.997H399.941V112.997ZM405.941 112.997H409.941V113.997H405.941V112.997ZM411.941 112.997H415.941V113.997H411.941V112.997ZM417.941 112.997H421.941V113.997H417.941V112.997ZM423.941 112.997H427.941V113.997H423.941V112.997ZM429.941 112.997H433.941V113.997H429.941V112.997ZM435.941 112.997H439.941V113.997H435.941V112.997ZM441.941 112.997H445.941V113.997H441.941V112.997ZM447.941 112.997H451.941V113.997H447.941V112.997ZM453.941 112.997H457.941V113.997H453.941V112.997ZM459.941 112.997H463.941V113.997H459.941V112.997ZM465.941 112.997H469.941V113.997H465.941V112.997ZM471.941 112.997H475.941V113.997H471.941V112.997ZM477.941 112.997H481.941V113.997H477.941V112.997ZM483.941 112.997H487.941V113.997H483.941V112.997ZM489.941 112.997H493.941V113.997H489.941V112.997ZM495.941 112.997H499.941V113.997H495.941V112.997ZM501.941 112.997H505.941V113.997H501.941V112.997ZM507.941 112.997H511.941V113.997H507.941V112.997ZM513.941 112.997H517.941V113.997H513.941V112.997ZM519.941 112.997H522.059C522.069 112.997 522.079 112.997 522.089 112.997C522.1 112.997 522.11 112.997 522.12 112.997C522.13 112.997 522.14 112.999 522.15 112.997C522.16 112.997 522.17 112.994 522.18 112.998C522.19 112.998 522.201 112.998 522.21 112.998C522.22 112.998 522.23 112.999 522.24 112.998C522.259 112.999 522.278 112.999 522.297 113C522.297 113 522.298 113 522.298 113C522.308 113 522.32 113 522.328 113C522.338 113.001 522.348 113 522.358 113.001C522.368 113.002 522.378 113.003 522.388 113.002C522.398 113.003 522.408 113.003 522.418 113.003C522.427 113.004 522.437 113.004 522.447 113.004C522.704 113.015 522.958 113.034 523.21 113.063C523.219 113.061 523.229 113.066 523.238 113.067C523.248 113.067 523.258 113.069 523.268 113.07C523.277 113.071 523.287 113.073 523.296 113.074C523.306 113.076 523.316 113.077 523.326 113.078C523.335 113.078 523.344 113.08 523.353 113.081C523.362 113.082 523.371 113.084 523.38 113.084C523.388 113.085 523.398 113.086 523.407 113.088C523.417 113.089 523.427 113.091 523.436 113.092C523.446 113.093 523.455 113.095 523.464 113.096C523.621 113.119 523.776 113.144 523.93 113.174L523.742 114.156C523.191 114.051 522.625 113.997 522.059 113.997H519.941V112.997ZM525.843 113.747C525.846 113.748 525.85 113.75 525.853 113.751C525.856 113.752 525.859 113.754 525.862 113.755C525.869 113.758 525.875 113.761 525.882 113.764C525.885 113.765 525.888 113.766 525.89 113.767C525.897 113.77 525.904 113.772 525.911 113.776C525.914 113.777 525.917 113.778 525.919 113.779C525.926 113.782 525.933 113.785 525.94 113.788C525.942 113.789 525.944 113.789 525.946 113.79C525.953 113.794 525.961 113.797 525.969 113.801C525.97 113.801 525.971 113.801 525.972 113.802C526.532 114.043 527.065 114.335 527.567 114.671C527.583 114.683 527.6 114.693 527.616 114.705C527.617 114.705 527.617 114.705 527.618 114.705C527.679 114.747 527.74 114.79 527.801 114.833C527.801 114.833 527.801 114.833 527.801 114.833C527.808 114.838 527.816 114.844 527.824 114.85C527.825 114.85 527.825 114.851 527.826 114.851C527.834 114.856 527.841 114.862 527.848 114.867C527.849 114.868 527.85 114.869 527.851 114.869C527.858 114.874 527.865 114.879 527.873 114.885C527.874 114.886 527.875 114.886 527.876 114.887C527.883 114.892 527.89 114.897 527.897 114.902C527.898 114.903 527.899 114.904 527.9 114.905C527.907 114.91 527.914 114.915 527.921 114.92C527.922 114.921 527.924 114.922 527.925 114.923C527.932 114.928 527.939 114.933 527.946 114.938C527.947 114.939 527.948 114.94 527.949 114.941C527.956 114.946 527.963 114.952 527.97 114.956C527.971 114.957 527.972 114.958 527.973 114.958C527.98 114.964 527.987 114.969 527.994 114.975C527.995 114.976 527.996 114.976 527.998 114.977C528.016 114.991 528.034 115.004 528.052 115.018C528.053 115.019 528.054 115.019 528.054 115.02C528.061 115.025 528.068 115.03 528.075 115.036C528.076 115.037 528.077 115.038 528.079 115.038C528.085 115.043 528.092 115.048 528.098 115.053C528.1 115.055 528.101 115.056 528.103 115.057C528.11 115.062 528.116 115.067 528.122 115.072C528.124 115.073 528.125 115.075 528.127 115.076C528.133 115.08 528.14 115.086 528.146 115.091C528.148 115.092 528.149 115.093 528.151 115.095C528.157 115.1 528.164 115.104 528.17 115.109C528.172 115.111 528.173 115.112 528.175 115.113C528.182 115.119 528.187 115.123 528.194 115.128C528.195 115.129 528.197 115.131 528.199 115.132C528.205 115.137 528.212 115.142 528.218 115.147C528.219 115.148 528.221 115.149 528.222 115.15C528.229 115.156 528.235 115.161 528.242 115.166C528.243 115.167 528.245 115.168 528.246 115.17C528.253 115.175 528.259 115.18 528.266 115.185C528.267 115.186 528.268 115.187 528.269 115.188C528.276 115.193 528.282 115.199 528.289 115.205C528.29 115.205 528.291 115.206 528.292 115.207C528.319 115.228 528.344 115.249 528.37 115.271C528.386 115.284 528.401 115.296 528.416 115.309C528.416 115.309 528.417 115.309 528.416 115.309C528.424 115.315 528.432 115.322 528.439 115.328C528.439 115.329 528.439 115.329 528.44 115.329C528.447 115.335 528.455 115.341 528.462 115.348C528.462 115.348 528.462 115.348 528.462 115.348C528.695 115.546 528.92 115.754 529.134 115.973L528.42 116.673C527.569 115.806 526.573 115.132 525.46 114.671L525.843 113.747ZM530.384 117.53C530.77 118.123 531.094 118.76 531.349 119.432C531.349 119.432 531.349 119.432 531.35 119.433C531.351 119.437 531.353 119.441 531.355 119.446C531.355 119.446 531.355 119.447 531.355 119.447C531.357 119.452 531.358 119.455 531.36 119.46C531.361 119.462 531.361 119.463 531.362 119.465C531.363 119.468 531.364 119.472 531.365 119.475C531.366 119.476 531.367 119.478 531.368 119.48C531.369 119.483 531.37 119.486 531.371 119.488C531.372 119.491 531.373 119.494 531.374 119.497C531.375 119.498 531.375 119.501 531.376 119.503C531.377 119.506 531.378 119.509 531.38 119.512C531.38 119.514 531.381 119.515 531.381 119.517C531.382 119.52 531.384 119.523 531.385 119.527C531.385 119.528 531.386 119.53 531.387 119.532C531.388 119.535 531.389 119.538 531.39 119.54C531.391 119.542 531.391 119.544 531.392 119.546C531.393 119.549 531.394 119.552 531.395 119.555C531.396 119.557 531.396 119.559 531.397 119.561C531.398 119.564 531.399 119.567 531.401 119.57C531.401 119.571 531.402 119.573 531.402 119.575C531.404 119.578 531.405 119.582 531.406 119.585C531.407 119.586 531.407 119.587 531.407 119.589C531.409 119.593 531.41 119.597 531.412 119.601C531.412 119.601 531.412 119.602 531.412 119.603C531.414 119.607 531.415 119.61 531.417 119.614C531.417 119.616 531.417 119.617 531.418 119.618C531.419 119.622 531.421 119.626 531.422 119.63C531.422 119.63 531.422 119.631 531.423 119.631C531.424 119.636 531.426 119.64 531.427 119.645C531.431 119.655 531.434 119.664 531.438 119.674C531.438 119.674 531.438 119.674 531.438 119.674C531.584 120.093 531.704 120.524 531.795 120.966C531.796 120.971 531.797 120.976 531.798 120.981C531.798 120.981 531.798 120.982 531.798 120.983C531.799 120.987 531.8 120.992 531.801 120.996C531.801 120.997 531.801 120.997 531.801 120.998C531.802 121.003 531.803 121.006 531.804 121.011C531.804 121.012 531.804 121.013 531.804 121.014C531.805 121.018 531.806 121.022 531.807 121.026C531.807 121.027 531.807 121.028 531.807 121.029C531.808 121.033 531.809 121.037 531.81 121.041C531.81 121.043 531.81 121.044 531.811 121.045C531.811 121.049 531.812 121.053 531.813 121.057C531.813 121.058 531.813 121.059 531.814 121.06C531.814 121.064 531.815 121.068 531.816 121.072C531.816 121.074 531.816 121.075 531.817 121.077C531.817 121.08 531.818 121.083 531.819 121.087C531.819 121.089 531.819 121.091 531.82 121.093C531.82 121.096 531.821 121.099 531.822 121.102C531.822 121.104 531.823 121.107 531.823 121.109C531.823 121.112 531.824 121.114 531.824 121.117C531.825 121.12 531.825 121.122 531.826 121.125C531.826 121.127 531.827 121.13 531.827 121.133C531.828 121.136 531.828 121.139 531.829 121.142C531.829 121.143 531.83 121.145 531.83 121.148C531.831 121.151 531.831 121.154 531.832 121.157C531.832 121.16 531.833 121.161 531.833 121.163C531.834 121.167 531.834 121.17 531.835 121.174C531.835 121.176 531.836 121.177 531.836 121.179C531.837 121.183 531.837 121.186 531.838 121.19C531.838 121.192 531.838 121.193 531.839 121.194C531.839 121.199 531.84 121.203 531.841 121.207C531.841 121.208 531.841 121.209 531.841 121.209C531.842 121.215 531.843 121.22 531.844 121.225L530.86 121.4C530.648 120.209 530.206 119.09 529.545 118.075L530.384 117.53ZM531 123.216H532V127.216H531V123.216ZM531 129.216H532V133.216H531V129.216ZM531 135.216H532V139.216H531V135.216ZM531 141.216H532V145.216H531V141.216ZM531 147.216H532V151.216H531V147.216ZM531 153.216H532V157.216H531V153.216ZM531 159.216H532V163.216H531V159.216ZM531 165.216H532V169.216H531V165.216ZM531 171.216H532V175.216H531V171.216ZM531 177.216H532V181.216H531V177.216ZM531 183.216H532V187.216H531V183.216ZM531 189.216H532V193.216H531V189.216ZM530.934 195.094L531.927 195.213C531.869 195.692 531.778 196.16 531.656 196.616C531.655 196.616 531.655 196.617 531.655 196.618C531.645 196.653 531.635 196.689 531.625 196.725C531.623 196.733 531.621 196.742 531.618 196.75C531.618 196.752 531.617 196.754 531.617 196.756C531.616 196.759 531.615 196.762 531.614 196.765C531.614 196.767 531.613 196.769 531.612 196.771C531.611 196.774 531.611 196.777 531.61 196.78C531.609 196.781 531.609 196.783 531.608 196.785C531.607 196.788 531.606 196.791 531.605 196.795C531.605 196.796 531.605 196.797 531.605 196.797C531.604 196.802 531.602 196.806 531.601 196.81C531.601 196.811 531.601 196.812 531.6 196.813C531.599 196.817 531.598 196.821 531.597 196.825C531.596 196.826 531.596 196.827 531.596 196.829C531.594 196.832 531.593 196.836 531.592 196.84C531.592 196.841 531.592 196.841 531.592 196.841C531.589 196.851 531.586 196.861 531.583 196.871C531.583 196.87 531.583 196.871 531.583 196.871C531.582 196.875 531.58 196.88 531.579 196.885C531.579 196.886 531.579 196.886 531.578 196.887C531.577 196.891 531.576 196.895 531.574 196.9C531.574 196.9 531.574 196.901 531.574 196.901C531.573 196.906 531.571 196.911 531.57 196.915C531.568 196.92 531.567 196.925 531.565 196.93C531.565 196.931 531.565 196.931 531.565 196.931C531.564 196.936 531.562 196.94 531.561 196.945C531.561 196.945 531.56 196.946 531.56 196.947C531.559 196.951 531.558 196.955 531.556 196.96C531.556 196.96 531.556 196.96 531.556 196.961C531.552 196.976 531.547 196.99 531.542 197.005C531.542 197.005 531.542 197.005 531.542 197.005C531.538 197.02 531.533 197.035 531.528 197.05C531.527 197.055 531.525 197.059 531.523 197.064C531.523 197.064 531.523 197.065 531.523 197.065C531.517 197.085 531.51 197.104 531.504 197.123C531.504 197.123 531.504 197.124 531.504 197.123C531.501 197.133 531.498 197.143 531.495 197.153C531.494 197.153 531.494 197.154 531.494 197.154C531.493 197.159 531.491 197.163 531.49 197.168C531.488 197.173 531.486 197.178 531.485 197.183C531.485 197.183 531.484 197.184 531.484 197.184C531.409 197.41 531.325 197.633 531.234 197.852C531.234 197.851 531.234 197.852 531.234 197.852C531.23 197.861 531.226 197.871 531.222 197.88C531.222 197.881 531.222 197.881 531.222 197.881C531.218 197.891 531.214 197.9 531.21 197.909C531.21 197.909 531.21 197.91 531.21 197.91C531.208 197.914 531.206 197.919 531.204 197.923C531.204 197.923 531.204 197.924 531.204 197.924C531.202 197.928 531.2 197.932 531.199 197.936C531.198 197.937 531.198 197.938 531.197 197.939C531.196 197.943 531.194 197.947 531.192 197.951C531.192 197.952 531.192 197.953 531.191 197.954C531.19 197.957 531.188 197.961 531.187 197.964C531.186 197.965 531.186 197.967 531.185 197.968C531.184 197.972 531.182 197.975 531.181 197.978C531.18 197.98 531.179 197.981 531.179 197.983C531.177 197.986 531.176 197.989 531.175 197.992C531.174 197.994 531.173 197.995 531.173 197.997C531.171 198 531.17 198.003 531.169 198.006C531.168 198.008 531.167 198.01 531.167 198.011C531.165 198.014 531.164 198.017 531.163 198.02C531.162 198.022 531.161 198.023 531.16 198.025C531.159 198.028 531.158 198.031 531.156 198.034C531.156 198.036 531.155 198.038 531.154 198.039C531.153 198.042 531.152 198.045 531.151 198.047C531.15 198.05 531.149 198.052 531.148 198.054C531.147 198.056 531.146 198.059 531.144 198.061C531.143 198.063 531.142 198.066 531.141 198.068C531.14 198.07 531.14 198.072 531.139 198.074C531.137 198.077 531.136 198.08 531.135 198.082C531.134 198.084 531.133 198.086 531.132 198.089C531.131 198.091 531.13 198.094 531.129 198.097C531.128 198.098 531.127 198.1 531.126 198.102C531.125 198.105 531.124 198.108 531.123 198.11C531.122 198.112 531.121 198.114 531.12 198.116C531.119 198.119 531.117 198.122 531.116 198.125C531.115 198.126 531.115 198.128 531.114 198.129C531.113 198.133 531.111 198.136 531.11 198.139C531.109 198.14 531.109 198.141 531.108 198.142C531.106 198.146 531.105 198.15 531.103 198.153C531.103 198.154 531.103 198.155 531.102 198.155C531.101 198.159 531.099 198.163 531.097 198.167C531.096 198.168 531.096 198.168 531.096 198.169C531.094 198.173 531.092 198.177 531.09 198.181C531.09 198.182 531.09 198.182 531.09 198.182C531.088 198.186 531.086 198.19 531.084 198.195C531.084 198.195 531.084 198.196 531.083 198.196C530.959 198.466 530.823 198.729 530.677 198.985L529.809 198.487C530.411 197.438 530.789 196.296 530.934 195.094ZM528.764 199.95L529.516 200.609C529.513 200.613 529.51 200.617 529.507 200.62C529.501 200.627 529.494 200.634 529.488 200.641C529.487 200.642 529.486 200.644 529.484 200.645C529.479 200.652 529.474 200.657 529.469 200.663C529.466 200.666 529.464 200.668 529.462 200.671C529.457 200.676 529.453 200.681 529.449 200.685C529.445 200.69 529.441 200.694 529.437 200.699C529.434 200.702 529.432 200.705 529.429 200.707C529.425 200.712 529.42 200.717 529.416 200.722C529.413 200.725 529.411 200.727 529.409 200.729C529.404 200.735 529.4 200.74 529.395 200.746C529.393 200.747 529.391 200.75 529.389 200.752C529.384 200.758 529.378 200.763 529.373 200.769C529.372 200.771 529.37 200.772 529.368 200.774C529.363 200.78 529.358 200.786 529.352 200.792C529.351 200.793 529.349 200.795 529.348 200.797C529.342 200.803 529.336 200.809 529.33 200.816C529.329 200.817 529.328 200.818 529.327 200.819C529.321 200.826 529.314 200.833 529.308 200.84C529.307 200.84 529.307 200.841 529.307 200.841C528.945 201.228 528.553 201.587 528.135 201.912C528.127 201.918 528.118 201.925 528.11 201.931C528.11 201.932 528.11 201.932 528.109 201.932C528.101 201.938 528.094 201.944 528.086 201.95C528.085 201.95 528.084 201.951 528.084 201.952C528.076 201.957 528.069 201.963 528.062 201.968C528.061 201.969 528.06 201.97 528.059 201.971C528.052 201.976 528.044 201.981 528.037 201.987C528.036 201.988 528.035 201.989 528.034 201.99C528.027 201.995 528.019 202 528.012 202.006C528.011 202.007 528.01 202.007 528.009 202.008C528.002 202.014 527.995 202.019 527.988 202.024C527.987 202.025 527.985 202.026 527.984 202.027C527.977 202.032 527.97 202.038 527.963 202.042C527.962 202.043 527.96 202.045 527.959 202.046C527.952 202.051 527.945 202.056 527.938 202.061C527.937 202.062 527.935 202.063 527.933 202.064C527.927 202.069 527.92 202.075 527.913 202.08C527.911 202.081 527.909 202.082 527.906 202.084C527.901 202.089 527.895 202.093 527.889 202.098C527.886 202.1 527.883 202.101 527.88 202.103C527.875 202.107 527.869 202.111 527.864 202.116C527.861 202.118 527.857 202.12 527.854 202.122C527.849 202.126 527.843 202.13 527.838 202.134C527.835 202.136 527.832 202.139 527.829 202.141C527.824 202.144 527.818 202.148 527.813 202.152C527.81 202.154 527.807 202.157 527.804 202.159C527.799 202.163 527.793 202.166 527.788 202.17C527.785 202.172 527.782 202.174 527.778 202.177C527.773 202.18 527.768 202.184 527.763 202.187C527.76 202.19 527.756 202.192 527.753 202.195C527.748 202.198 527.743 202.202 527.738 202.205C527.734 202.207 527.731 202.21 527.727 202.213C527.723 202.216 527.718 202.219 527.713 202.223C527.708 202.226 527.703 202.23 527.697 202.234C527.695 202.235 527.692 202.237 527.689 202.239C527.683 202.244 527.677 202.248 527.67 202.252C527.668 202.254 527.666 202.255 527.665 202.256C527.658 202.261 527.651 202.266 527.644 202.27C527.643 202.271 527.641 202.272 527.64 202.273C527.633 202.278 527.626 202.282 527.619 202.287C527.618 202.288 527.616 202.289 527.614 202.29C527.607 202.295 527.6 202.3 527.593 202.305C527.592 202.306 527.592 202.306 527.591 202.307C527.198 202.572 526.785 202.809 526.355 203.017L525.921 202.116C527.007 201.592 527.964 200.863 528.764 199.95ZM524.235 202.728L524.479 203.698C524.309 203.741 524.138 203.779 523.965 203.813C523.959 203.815 523.953 203.815 523.947 203.816C523.948 203.816 523.947 203.816 523.947 203.816C523.941 203.818 523.935 203.819 523.929 203.82C523.929 203.819 523.928 203.82 523.929 203.82C523.917 203.822 523.904 203.825 523.892 203.827C523.886 203.828 523.881 203.829 523.875 203.83C523.869 203.832 523.863 203.832 523.857 203.833C523.851 203.833 523.845 203.836 523.839 203.837C523.832 203.837 523.824 203.839 523.818 203.841C523.812 203.841 523.806 203.842 523.8 203.844C523.795 203.845 523.789 203.845 523.783 203.847C523.777 203.847 523.772 203.848 523.766 203.85C523.761 203.851 523.756 203.851 523.751 203.852C523.744 203.853 523.737 203.854 523.73 203.856C523.725 203.856 523.72 203.857 523.715 203.858C523.71 203.86 523.705 203.86 523.699 203.861C523.694 203.861 523.687 203.863 523.682 203.864C523.68 203.864 523.678 203.865 523.677 203.865C523.663 203.867 523.65 203.869 523.636 203.871C523.631 203.871 523.626 203.873 523.621 203.874C523.616 203.874 523.61 203.875 523.604 203.876C523.604 203.876 523.603 203.877 523.602 203.877C523.582 203.88 523.562 203.883 523.543 203.886C523.542 203.886 523.542 203.886 523.541 203.886C523.536 203.887 523.532 203.888 523.527 203.888C523.524 203.888 523.517 203.89 523.511 203.891C523.511 203.891 523.511 203.891 523.511 203.891C523.491 203.893 523.469 203.897 523.449 203.899C523.33 203.916 523.211 203.931 523.092 203.943C523.087 203.944 523.081 203.944 523.076 203.945C523.075 203.945 523.074 203.945 523.074 203.945C523.022 203.95 522.971 203.955 522.919 203.959C522.918 203.96 522.918 203.96 522.917 203.96C522.912 203.96 522.906 203.958 522.901 203.961C522.896 203.961 522.892 203.962 522.887 203.962C522.887 203.962 522.886 203.962 522.887 203.962C522.866 203.964 522.845 203.966 522.825 203.967C522.82 203.967 522.814 203.968 522.808 203.969C522.808 203.969 522.807 203.969 522.806 203.969C522.786 203.97 522.766 203.972 522.746 203.973C522.741 203.974 522.735 203.974 522.73 203.974C522.725 203.974 522.719 203.975 522.713 203.975C522.696 203.976 522.683 203.977 522.667 203.978C522.662 203.977 522.657 203.979 522.653 203.979C522.647 203.978 522.642 203.98 522.636 203.98C522.63 203.98 522.624 203.981 522.619 203.981C522.61 203.981 522.6 203.982 522.59 203.982C522.585 203.982 522.581 203.983 522.576 203.983C522.57 203.983 522.564 203.983 522.558 203.984C522.552 203.984 522.546 203.985 522.541 203.985C522.534 203.986 522.529 203.986 522.523 203.986C522.514 203.985 522.505 203.987 522.495 203.987C522.49 203.987 522.484 203.988 522.479 203.988C522.474 203.988 522.468 203.989 522.462 203.988C522.457 203.989 522.45 203.989 522.445 203.989C522.43 203.988 522.416 203.99 522.4 203.991C522.395 203.991 522.389 203.991 522.384 203.991C522.378 203.992 522.372 203.992 522.366 203.992C522.36 203.993 522.354 203.992 522.349 203.993C522.343 203.993 522.336 203.992 522.33 203.993C522.322 203.993 522.315 203.993 522.307 203.994C522.301 203.994 522.294 203.995 522.288 203.994C522.282 203.995 522.276 203.994 522.27 203.995C522.264 203.994 522.258 203.994 522.252 203.995C522.244 203.995 522.236 203.996 522.228 203.995C522.222 203.996 522.216 203.996 522.209 203.996C522.203 203.996 522.198 203.996 522.191 203.996C522.186 203.996 522.18 203.996 522.173 203.996C522.168 203.996 522.161 203.996 522.156 203.996C522.148 203.996 522.14 203.995 522.132 203.996C522.126 203.996 522.12 203.996 522.113 203.996C522.107 203.996 522.101 203.996 522.094 203.996C522.089 203.996 522.082 203.996 522.076 203.996C522.07 203.996 522.064 203.996 522.059 203.996H520.503V202.996H522.059C522.795 202.996 523.527 202.906 524.235 202.728ZM514.503 202.996H518.503V203.996H514.503V202.996ZM508.503 202.996H512.503V203.996H508.503V202.996ZM502.503 202.996H506.503V203.996H502.503V202.996ZM496.503 202.996H500.503V203.996H496.503V202.996ZM490.503 202.996H494.503V203.996H490.503V202.996ZM484.503 202.996H488.503V203.996H484.503V202.996ZM478.503 202.996H482.503V203.996H478.503V202.996ZM472.503 202.996H476.503V203.996H472.503V202.996ZM466.503 202.996H470.503V203.996H466.503V202.996ZM460.503 202.996H464.503V203.996H460.503V202.996ZM454.503 202.996H458.503V203.996H454.503V202.996ZM448.503 202.996H452.503V203.996H448.503V202.996ZM442.503 202.996H446.503V203.996H442.503V202.996ZM436.503 202.996H440.503V203.996H436.503V202.996ZM430.503 202.996H434.503V203.996H430.503V202.996ZM424.503 202.996H428.503V203.996H424.503V202.996ZM418.503 202.996H422.503V203.996H418.503V202.996ZM412.503 202.996H416.503V203.996H412.503V202.996ZM406.503 202.996H410.503V203.996H406.503V202.996ZM400.503 202.996H404.503V203.996H400.503V202.996ZM394.503 202.996H398.503V203.996H394.503V202.996ZM388.503 202.996H392.503V203.996H388.503V202.996ZM382.503 202.996H386.503V203.996H382.503V202.996ZM376.503 202.996H380.503V203.996H376.503V202.996ZM370.503 202.996H374.503V203.996H370.503V202.996ZM364.503 202.996H368.503V203.996H364.503V202.996ZM358.503 202.996H362.503V203.996H358.503V202.996ZM352.503 202.996H356.503V203.996H352.503V202.996ZM346.503 202.996H350.503V203.996H346.503V202.996ZM340.503 202.996H344.503V203.996H340.503V202.996ZM334.503 202.996H338.503V203.996H334.503V202.996ZM328.503 202.996H332.503V203.996H328.503V202.996ZM322.503 202.996H326.503V203.996H322.503V202.996ZM316.503 202.996H320.503V203.996H316.503V202.996ZM310.503 202.996H314.503V203.996H310.503V202.996ZM304.503 202.996H308.503V203.996H304.503V202.996ZM298.503 202.996H302.503V203.996H298.503V202.996ZM292.503 202.996H296.503V203.996H292.503V202.996ZM286.503 202.996H290.503V203.996H286.503V202.996ZM280.503 202.996H284.503V203.996H280.503V202.996ZM274.503 202.996H278.503V203.996H274.503V202.996ZM268.503 202.996H272.503V203.996H268.503V202.996ZM262.503 202.996H266.503V203.996H262.503V202.996ZM256.503 202.996H260.503V203.996H256.503V202.996ZM250.503 202.996H254.503V203.996H250.503V202.996ZM244.503 202.996H248.503V203.996H244.503V202.996ZM238.503 202.996H242.503V203.996H238.503V202.996ZM232.503 202.996H236.503V203.996H232.503V202.996ZM226.503 202.996H230.503V203.996H226.503V202.996ZM220.503 202.996H224.503V203.996H220.503V202.996ZM214.503 202.996H218.503V203.996H214.503V202.996ZM208.503 202.996H212.503V203.996H208.503V202.996ZM202.503 202.996H206.503V203.996H202.503V202.996ZM196.503 202.996H200.503V203.996H196.503V202.996ZM190.503 202.996H194.503V203.996H190.503V202.996ZM184.503 202.996H188.503V203.996H184.503V202.996ZM178.503 202.996H182.503V203.996H178.503V202.996ZM172.503 202.996H176.503V203.996H172.503V202.996ZM166.503 202.996H170.503V203.996H166.503V202.996ZM160.503 202.996H164.503V203.996H160.503V202.996ZM154.503 202.996H158.503V203.996H154.503V202.996ZM148.503 202.996H152.503V203.996H148.503V202.996ZM142.503 202.996H146.503V203.996H142.503V202.996ZM136.503 202.996H140.503V203.996H136.503V202.996ZM130.503 202.996H134.503V203.996H130.503V202.996ZM124.503 202.996H128.503V203.996H124.503V202.996ZM118.503 202.996H122.503V203.996H118.503V202.996ZM112.503 202.996H116.503V203.996H112.503V202.996ZM106.503 202.996H110.503V203.996H106.503V202.996ZM100.503 202.996H104.503V203.996H100.503V202.996ZM94.5031 202.996H98.5031V203.996H94.5031V202.996ZM88.5031 202.996H92.5031V203.996H88.5031V202.996ZM82.5031 202.996H86.5031V203.996H82.5031V202.996ZM76.5031 202.996H80.5031V203.996H76.5031V202.996ZM70.5031 202.996H74.5031V203.996H70.5031V202.996ZM64.5031 202.996H68.5031V203.996H64.5031V202.996ZM58.5031 202.996H62.5031V203.996H58.5031V202.996ZM52.5031 202.996H56.5031V203.996H52.5031V202.996ZM46.5031 202.996H50.5031V203.996H46.5031V202.996ZM40.5031 202.996H44.5031V203.996H40.5031V202.996ZM34.5031 202.996H38.5031V203.996H34.5031V202.996ZM29.2955 201.688C30.3276 202.321 31.4568 202.73 32.6516 202.904L32.5078 203.893C31.8372 203.796 31.188 203.631 30.5676 203.406C30.5634 203.405 30.559 203.403 30.5547 203.401C30.5541 203.401 30.5531 203.401 30.5525 203.401C30.5479 203.399 30.5431 203.397 30.5385 203.395C30.5251 203.391 30.5114 203.386 30.498 203.381C30.4874 203.377 30.4768 203.372 30.4662 203.369C30.4523 203.363 30.4381 203.358 30.4242 203.353C30.4238 203.352 30.4235 203.352 30.4231 203.352C30.4189 203.351 30.4148 203.349 30.4106 203.348C30.41 203.348 30.4094 203.347 30.4088 203.347C30.4047 203.346 30.4005 203.344 30.3965 203.342C30.3959 203.342 30.3951 203.342 30.3945 203.342C30.3899 203.34 30.3855 203.338 30.3807 203.336C30.3716 203.332 30.3621 203.329 30.3529 203.326C30.3531 203.326 30.3527 203.325 30.3529 203.326C29.8008 203.111 29.2721 202.847 28.7727 202.54L29.2955 201.688ZM25.7848 197.691C26.2792 198.795 26.9792 199.773 27.8657 200.6L27.1837 201.331C27.1803 201.329 27.177 201.325 27.1736 201.322C27.1716 201.32 27.1697 201.318 27.1677 201.317C27.1624 201.311 27.1567 201.306 27.1512 201.301C27.1494 201.299 27.1476 201.298 27.1456 201.296C27.1403 201.291 27.1351 201.286 27.1296 201.281C27.1274 201.279 27.1252 201.277 27.123 201.274C27.1178 201.269 27.1125 201.265 27.1073 201.26C27.1053 201.258 27.1033 201.256 27.1012 201.254C27.0959 201.248 27.0907 201.244 27.0856 201.239C27.0833 201.236 27.0808 201.234 27.0785 201.232C27.0734 201.227 27.0685 201.222 27.0634 201.217C27.0612 201.215 27.0591 201.213 27.0569 201.211C27.0518 201.206 27.0465 201.201 27.0414 201.196C27.0392 201.194 27.037 201.192 27.0349 201.19C27.0295 201.184 27.0245 201.18 27.0192 201.175C27.0172 201.173 27.0154 201.171 27.0135 201.169C27.0082 201.163 27.0029 201.159 26.9976 201.153C26.9952 201.151 26.9929 201.149 26.9907 201.146C26.9856 201.142 26.981 201.137 26.976 201.132C26.973 201.129 26.9702 201.126 26.9673 201.123C26.9631 201.12 26.9585 201.115 26.9542 201.111C26.9506 201.107 26.9468 201.103 26.943 201.1C26.9388 201.095 26.9348 201.091 26.9307 201.087C26.9276 201.084 26.9246 201.081 26.9216 201.078C26.9167 201.073 26.9117 201.068 26.9069 201.063C26.9047 201.061 26.9025 201.059 26.9003 201.057C26.8948 201.051 26.8892 201.045 26.8837 201.04C26.8821 201.038 26.8805 201.037 26.8789 201.035C26.8733 201.029 26.8676 201.023 26.8619 201.017C26.8605 201.016 26.8591 201.015 26.8578 201.014C26.8519 201.007 26.8462 201.001 26.8403 200.996C26.8391 200.994 26.838 200.993 26.8368 200.992C26.8309 200.986 26.8248 200.979 26.819 200.974C26.8179 200.973 26.8169 200.972 26.8158 200.97C26.8097 200.964 26.804 200.958 26.7979 200.952C26.7969 200.951 26.7959 200.95 26.7948 200.949C26.7889 200.942 26.783 200.936 26.7771 200.93C26.7759 200.929 26.7747 200.928 26.7736 200.926C26.7679 200.92 26.7617 200.914 26.7562 200.908C26.755 200.907 26.7538 200.906 26.7526 200.904C26.7468 200.898 26.741 200.892 26.7351 200.886C26.7343 200.885 26.7334 200.884 26.7325 200.883C26.689 200.837 26.6459 200.79 26.603 200.744C26.6028 200.743 26.6024 200.743 26.6022 200.743C26.5959 200.736 26.5897 200.729 26.5835 200.722C26.5829 200.721 26.5824 200.721 26.5818 200.72C26.5753 200.713 26.5691 200.706 26.5626 200.699C26.5627 200.699 26.5624 200.699 26.5626 200.699C26.5559 200.691 26.5492 200.684 26.5426 200.676C26.5427 200.676 26.5425 200.676 26.5426 200.676C26.1344 200.219 25.7668 199.723 25.4471 199.196C25.447 199.195 25.4468 199.195 25.4467 199.195C25.4417 199.186 25.4368 199.179 25.4318 199.17C25.4315 199.17 25.4313 199.169 25.431 199.169C25.4261 199.161 25.4214 199.153 25.4165 199.145C25.416 199.144 25.4156 199.143 25.4152 199.142C25.4105 199.135 25.4058 199.127 25.4011 199.119C25.4006 199.118 25.4 199.117 25.3995 199.116C25.395 199.109 25.3903 199.101 25.3857 199.093C25.3851 199.092 25.3845 199.091 25.3839 199.09C25.3794 199.082 25.3749 199.075 25.3705 199.067C25.3698 199.066 25.369 199.065 25.3683 199.063C25.3639 199.056 25.3594 199.048 25.355 199.04C25.3544 199.039 25.3539 199.038 25.3533 199.038C25.3488 199.03 25.3442 199.022 25.3396 199.014C25.3392 199.014 25.3389 199.013 25.3385 199.012C25.322 198.984 25.3055 198.955 25.2893 198.926C25.2885 198.925 25.2877 198.923 25.2869 198.922C25.2826 198.914 25.2786 198.907 25.2742 198.899C25.2734 198.898 25.2727 198.896 25.272 198.895C25.2683 198.889 25.2646 198.882 25.261 198.875C25.2595 198.873 25.2581 198.87 25.2566 198.868C25.2529 198.861 25.2495 198.855 25.2458 198.848C25.2445 198.846 25.2432 198.843 25.2418 198.841C25.2384 198.834 25.2346 198.828 25.2311 198.821C25.2296 198.819 25.2283 198.816 25.2268 198.813C25.2233 198.807 25.2198 198.801 25.2163 198.794C25.215 198.792 25.2135 198.789 25.2122 198.787C25.2086 198.78 25.2054 198.774 25.202 198.768C25.2002 198.765 25.1985 198.761 25.1968 198.758C25.1936 198.752 25.1906 198.746 25.1875 198.741C25.1857 198.738 25.1838 198.734 25.182 198.731C25.1788 198.725 25.176 198.72 25.173 198.714C25.1709 198.71 25.1689 198.706 25.167 198.703C25.1641 198.697 25.1614 198.692 25.1584 198.686C25.1564 198.683 25.1543 198.679 25.1522 198.675C25.1495 198.669 25.1466 198.664 25.144 198.659C25.1416 198.654 25.1392 198.65 25.1367 198.645C25.1344 198.641 25.132 198.636 25.1296 198.632C25.127 198.626 25.1244 198.621 25.1218 198.617C25.1196 198.612 25.1176 198.608 25.1154 198.604C25.1127 198.599 25.1101 198.594 25.1074 198.589C25.1052 198.584 25.1035 198.581 25.1013 198.577C25.0986 198.572 25.0961 198.566 25.0934 198.561C25.0913 198.557 25.089 198.553 25.0868 198.548C25.0842 198.543 25.0818 198.538 25.0792 198.534C25.0767 198.528 25.0742 198.524 25.0717 198.518C25.0695 198.514 25.0674 198.51 25.0652 198.506C25.0626 198.5 25.0601 198.496 25.0576 198.491C25.0554 198.486 25.0533 198.482 25.0511 198.477C25.0486 198.473 25.0459 198.467 25.0435 198.462C25.0414 198.458 25.0392 198.454 25.0371 198.45C25.0347 198.444 25.0321 198.439 25.0295 198.434C25.0275 198.43 25.0254 198.426 25.0232 198.421C25.0209 198.416 25.0182 198.411 25.0159 198.406C25.0135 198.402 25.0114 198.397 25.009 198.392C25.0068 198.388 25.0045 198.383 25.0023 198.378C24.9998 198.373 24.9973 198.368 24.9949 198.363C24.9928 198.359 24.9907 198.354 24.9886 198.351C24.986 198.345 24.9833 198.339 24.9805 198.333C24.9788 198.33 24.9769 198.326 24.9751 198.322C24.9724 198.316 24.9696 198.31 24.9669 198.305C24.9651 198.301 24.9635 198.297 24.9617 198.294C24.959 198.288 24.9563 198.282 24.9535 198.276C24.9518 198.273 24.9503 198.269 24.9486 198.266C24.9458 198.26 24.943 198.254 24.9403 198.248C24.9386 198.245 24.9371 198.242 24.9353 198.238C24.9326 198.232 24.9299 198.226 24.9272 198.22C24.9255 198.217 24.9238 198.213 24.9221 198.209C24.9196 198.204 24.9169 198.198 24.9142 198.192C24.9125 198.188 24.9108 198.184 24.9091 198.181C24.9065 198.175 24.9039 198.169 24.9012 198.164C24.899 198.159 24.897 198.155 24.8948 198.15C24.8927 198.145 24.8905 198.14 24.8884 198.136C24.8864 198.131 24.8842 198.126 24.8821 198.121C24.8799 198.117 24.8776 198.112 24.8754 198.107C24.8743 198.104 24.8734 198.102 24.8722 198.1L25.7848 197.691ZM23.9998 192.223H24.9998V193.997C24.9998 194.668 25.0734 195.338 25.2186 195.986L24.2428 196.205C24.1136 195.628 24.0339 195.032 24.0085 194.422C24.0071 194.387 24.0059 194.351 24.0048 194.316C24.0048 194.316 24.0046 194.315 24.0046 194.314C24.0045 194.309 24.0044 194.304 24.0043 194.299C24.0042 194.298 24.0042 194.297 24.0042 194.296C24.004 194.291 24.0039 194.287 24.0038 194.283C24.0037 194.281 24.0037 194.279 24.0037 194.278C24.0035 194.273 24.0034 194.269 24.0033 194.265C24.0032 194.263 24.0032 194.263 24.0032 194.261C24.0031 194.257 24.0029 194.252 24.0028 194.247C24.0028 194.246 24.0027 194.245 24.0027 194.244C24.0026 194.239 24.0024 194.234 24.0024 194.23C24.0023 194.228 24.0023 194.227 24.0023 194.226C24.0022 194.222 24.0021 194.217 24.0021 194.213C24.002 194.211 24.002 194.21 24.002 194.209C24.0016 194.192 24.0012 194.175 24.001 194.157C24.001 194.156 24.001 194.154 24.001 194.153C24.0009 194.148 24.0009 194.144 24.0007 194.141C24.0007 194.139 24.0007 194.136 24.0007 194.134C24.0006 194.13 24.0006 194.127 24.0005 194.123C24.0005 194.121 24.0005 194.12 24.0005 194.118C24.0004 194.114 24.0004 194.11 24.0004 194.106C24.0004 194.104 24.0002 194.102 24.0002 194.1C24.0002 194.096 24.0002 194.093 24.0001 194.089C24.0001 194.087 24.0001 194.084 24.0001 194.082C24.0001 194.079 24 194.076 24 194.072C24 194.07 24 194.068 24 194.065C24 194.062 24 194.059 23.9999 194.055C23.9999 194.053 23.9999 194.05 23.9999 194.048C23.9999 194.045 23.9999 194.041 23.9999 194.038C23.9999 194.036 23.9999 194.033 23.9998 194.031C23.9998 194.027 23.9998 194.023 23.9998 194.019C23.9998 194.017 23.9998 194.016 23.9998 194.014C23.9998 194.008 23.9998 194.003 23.9998 193.997V192.223ZM23.9998 186.223H24.9998V190.223H23.9998V186.223ZM23.9998 180.223H24.9998V184.223H23.9998V180.223ZM23.9998 174.223H24.9998V178.223H23.9998V174.223ZM23.9998 168.223H24.9998V172.223H23.9998V168.223ZM23.9998 162.223H24.9998V166.223H23.9998V162.223ZM23.9998 156.223H24.9998V160.223H23.9998V156.223ZM23.9998 150.223H24.9998V154.223H23.9998V150.223ZM23.9998 144.223H24.9998V148.223H23.9998V144.223ZM23.9998 138.223H24.9998V142.223H23.9998V138.223ZM23.9998 132.223H24.9998V136.223H23.9998V132.223ZM23.9998 126.223H24.9998V130.223H23.9998V126.223ZM24.3776 120.257L25.34 120.529C25.1143 121.328 24.9998 122.158 24.9998 122.997V124.223H23.9998V122.997C23.9998 122.99 23.9998 122.984 23.9998 122.977C23.9998 122.975 23.9998 122.974 23.9998 122.972C23.9998 122.966 23.9999 122.961 23.9999 122.956C23.9999 122.954 23.9999 122.953 23.9999 122.951C23.9999 122.944 23.9999 122.937 24 122.931C24 122.93 24 122.929 24 122.928C24 122.922 24.0001 122.917 24.0001 122.911C24.0001 122.909 24.0001 122.907 24.0001 122.905C24.0002 122.899 24.0002 122.893 24.0004 122.888C24.0004 122.887 24.0004 122.886 24.0004 122.885C24.0005 122.878 24.0005 122.872 24.0006 122.865C24.0006 122.864 24.0006 122.862 24.0006 122.86C24.0007 122.855 24.0009 122.85 24.0009 122.845C24.0009 122.843 24.001 122.841 24.001 122.839C24.0011 122.833 24.0012 122.827 24.0012 122.82C24.0013 122.819 24.0013 122.818 24.0013 122.817C24.0015 122.811 24.0016 122.805 24.0017 122.799C24.0017 122.797 24.0017 122.796 24.0017 122.794C24.0018 122.788 24.002 122.784 24.0021 122.778C24.0021 122.776 24.0022 122.775 24.0022 122.773C24.0023 122.767 24.0024 122.76 24.0027 122.754C24.0027 122.752 24.0027 122.751 24.0027 122.75C24.0028 122.745 24.0031 122.739 24.0032 122.734C24.0032 122.732 24.0033 122.729 24.0033 122.727C24.0034 122.722 24.0035 122.717 24.0038 122.711C24.0038 122.71 24.0038 122.709 24.0038 122.708C24.004 122.701 24.0042 122.695 24.0044 122.688C24.0045 122.686 24.0045 122.684 24.0046 122.683C24.0048 122.678 24.0049 122.673 24.005 122.668C24.0051 122.666 24.0051 122.664 24.0052 122.662C24.0054 122.656 24.0056 122.651 24.0057 122.645C24.0059 122.643 24.006 122.641 24.0061 122.638C24.0062 122.633 24.0063 122.628 24.0066 122.623C24.0067 122.621 24.0067 122.619 24.0068 122.616C24.007 122.612 24.0072 122.607 24.0073 122.602C24.0074 122.601 24.0076 122.598 24.0076 122.596C24.0078 122.59 24.0081 122.583 24.0083 122.578C24.0084 122.575 24.0085 122.574 24.0085 122.572C24.0088 122.567 24.009 122.562 24.0092 122.558C24.0093 122.556 24.0094 122.553 24.0095 122.551C24.0098 122.546 24.0099 122.541 24.0101 122.536C24.0103 122.534 24.0103 122.533 24.0104 122.531C24.0106 122.525 24.011 122.518 24.0112 122.512C24.0114 122.51 24.0115 122.508 24.0116 122.505C24.0117 122.501 24.012 122.497 24.0122 122.492C24.0123 122.49 24.0125 122.488 24.0126 122.485C24.0128 122.48 24.0131 122.475 24.0133 122.47C24.0134 122.467 24.0137 122.464 24.0138 122.461C24.014 122.456 24.0143 122.452 24.0145 122.447C24.0146 122.445 24.0148 122.442 24.0149 122.439C24.0151 122.435 24.0154 122.432 24.0156 122.428C24.0157 122.425 24.0159 122.422 24.0161 122.42C24.0164 122.414 24.0167 122.408 24.0171 122.402C24.0172 122.399 24.0173 122.397 24.0176 122.394C24.0178 122.39 24.0179 122.387 24.0182 122.383C24.0183 122.38 24.0186 122.376 24.0188 122.373C24.019 122.37 24.0192 122.367 24.0194 122.363C24.0197 122.359 24.0199 122.355 24.0201 122.351C24.0204 122.347 24.0208 122.343 24.021 122.338C24.0212 122.334 24.0215 122.33 24.0217 122.327C24.0219 122.325 24.0221 122.322 24.0222 122.319C24.0225 122.316 24.0227 122.311 24.0229 122.308C24.0231 122.306 24.0232 122.304 24.0233 122.302C24.0239 122.295 24.0244 122.287 24.0249 122.28C24.025 122.278 24.0253 122.276 24.0254 122.274C24.0256 122.27 24.0259 122.266 24.0262 122.262C24.0264 122.26 24.0265 122.258 24.0267 122.255C24.0276 122.242 24.0286 122.229 24.0297 122.216C24.0298 122.214 24.0299 122.212 24.0302 122.209C24.0304 122.205 24.0308 122.202 24.031 122.198C24.0312 122.195 24.0314 122.193 24.0316 122.191C24.0322 122.183 24.0328 122.175 24.0336 122.166C24.0337 122.165 24.0337 122.165 24.0338 122.164C24.0342 122.16 24.0344 122.156 24.0348 122.151C24.035 122.149 24.0352 122.148 24.0353 122.146C24.0356 122.142 24.036 122.137 24.0364 122.133C24.0363 122.133 24.0364 122.132 24.0364 122.133C24.0371 122.123 24.0381 122.113 24.0389 122.103C24.0391 122.102 24.0391 122.101 24.0392 122.1C24.0397 122.096 24.04 122.091 24.0404 122.086C24.0405 122.085 24.0406 122.084 24.0408 122.083C24.042 122.069 24.0433 122.054 24.0447 122.039C24.0448 122.038 24.0449 122.038 24.045 122.037C24.0455 122.032 24.0459 122.027 24.0464 122.022C24.0464 122.022 24.0465 122.021 24.0465 122.021C24.048 122.006 24.0494 121.991 24.0509 121.976C24.051 121.975 24.0511 121.974 24.0513 121.973C24.1108 121.385 24.2211 120.811 24.3776 120.257ZM27.5955 115.299L28.2365 116.066C27.3065 116.843 26.5538 117.782 25.9993 118.858L25.1104 118.4C25.1327 118.356 25.1553 118.313 25.1781 118.271C25.1825 118.263 25.1871 118.254 25.1917 118.246C25.192 118.245 25.1924 118.244 25.1929 118.243C25.197 118.235 25.2014 118.227 25.2057 118.22C25.2063 118.218 25.2069 118.217 25.2075 118.216C25.2117 118.208 25.2162 118.2 25.2205 118.192C25.2209 118.191 25.2214 118.19 25.2219 118.189C25.2262 118.182 25.2308 118.173 25.235 118.165C25.2356 118.164 25.2362 118.163 25.2367 118.163C25.241 118.155 25.2452 118.147 25.2495 118.14C25.2504 118.138 25.2511 118.137 25.252 118.135C25.256 118.127 25.2601 118.121 25.2642 118.113C25.2651 118.111 25.266 118.11 25.267 118.108C25.2711 118.101 25.2751 118.093 25.2793 118.086C25.28 118.084 25.2806 118.083 25.2814 118.082C25.2856 118.075 25.29 118.067 25.2944 118.059C25.2949 118.058 25.2955 118.057 25.296 118.056C25.3005 118.048 25.3048 118.04 25.3093 118.033C25.3119 118.028 25.3143 118.024 25.3169 118.019C25.3213 118.012 25.3254 118.005 25.3298 117.997C25.3306 117.996 25.3313 117.995 25.332 117.993C25.3361 117.986 25.3401 117.979 25.3441 117.972C25.3452 117.97 25.3463 117.969 25.3474 117.967C25.3513 117.96 25.3555 117.953 25.3595 117.946C25.3606 117.944 25.3618 117.942 25.3629 117.94C25.3667 117.934 25.3705 117.927 25.3744 117.92C25.3759 117.918 25.3772 117.915 25.3788 117.913C25.3824 117.907 25.3862 117.9 25.3899 117.894C25.3914 117.892 25.3929 117.889 25.3945 117.886C25.3982 117.88 25.4017 117.874 25.4054 117.868C25.4071 117.865 25.4087 117.862 25.4104 117.86C25.4141 117.853 25.4177 117.847 25.4214 117.841C25.4231 117.838 25.4248 117.835 25.4265 117.832C25.4299 117.827 25.4332 117.821 25.4366 117.816C25.4388 117.812 25.441 117.809 25.4432 117.805C25.4463 117.8 25.4497 117.794 25.4529 117.789C25.4552 117.785 25.4576 117.781 25.46 117.777C25.4629 117.772 25.4658 117.767 25.4688 117.763C25.4709 117.759 25.4731 117.756 25.4755 117.752C25.4789 117.747 25.4819 117.742 25.4854 117.736C25.4883 117.731 25.4911 117.726 25.494 117.722C25.4962 117.718 25.4988 117.714 25.5011 117.71C25.5042 117.705 25.5072 117.701 25.5103 117.696C25.5126 117.692 25.5151 117.688 25.5175 117.684C25.5205 117.679 25.5237 117.674 25.5267 117.669C25.5291 117.665 25.5314 117.662 25.5337 117.658C25.5369 117.653 25.5399 117.648 25.5431 117.643C25.5461 117.639 25.5492 117.634 25.5522 117.629C25.5547 117.625 25.5573 117.621 25.5597 117.617C25.5625 117.613 25.5657 117.608 25.5685 117.603C25.5712 117.599 25.5737 117.595 25.5764 117.591C25.5796 117.586 25.5828 117.581 25.5859 117.576C25.5884 117.572 25.5907 117.569 25.5931 117.565C25.5963 117.56 25.6 117.554 25.6031 117.549C25.6053 117.546 25.6075 117.542 25.6096 117.539C25.6132 117.534 25.6166 117.529 25.6202 117.523C25.6226 117.519 25.6249 117.516 25.6272 117.512C25.6305 117.507 25.6333 117.503 25.6366 117.498C25.6393 117.494 25.642 117.49 25.6448 117.486C25.6477 117.481 25.6506 117.476 25.6536 117.472C25.6571 117.467 25.6605 117.462 25.6641 117.456C25.6661 117.453 25.6683 117.45 25.6704 117.447C25.674 117.441 25.6775 117.436 25.6812 117.431C25.6832 117.428 25.6854 117.424 25.6875 117.421C25.6912 117.415 25.6949 117.41 25.6986 117.405C25.7006 117.402 25.7025 117.399 25.7045 117.396C25.7083 117.391 25.7119 117.385 25.7156 117.379C25.7179 117.376 25.7197 117.373 25.722 117.37C25.7257 117.365 25.7294 117.359 25.733 117.354C25.7351 117.351 25.7372 117.348 25.7394 117.345C25.7429 117.339 25.7466 117.334 25.7501 117.329C25.7527 117.325 25.755 117.322 25.7574 117.318C25.761 117.313 25.7644 117.308 25.7679 117.303C25.7706 117.299 25.7731 117.295 25.7758 117.291C25.7789 117.287 25.7822 117.282 25.7855 117.277C25.7883 117.273 25.7909 117.269 25.7938 117.266C25.797 117.261 25.8002 117.256 25.8033 117.252C25.8063 117.247 25.8088 117.244 25.8118 117.24C25.8149 117.235 25.8182 117.23 25.8214 117.226C25.8241 117.222 25.8268 117.218 25.8295 117.214C25.833 117.209 25.8364 117.205 25.8398 117.2C25.8424 117.196 25.8451 117.192 25.8477 117.189C25.8512 117.184 25.8546 117.179 25.8582 117.174C25.8606 117.171 25.8633 117.167 25.8656 117.163C25.8694 117.159 25.8732 117.153 25.877 117.148C25.8793 117.144 25.8815 117.142 25.8839 117.138C25.8877 117.133 25.8914 117.128 25.8951 117.122C25.8976 117.119 25.8995 117.117 25.9019 117.113C25.9058 117.108 25.9095 117.102 25.9135 117.098C25.9154 117.095 25.918 117.091 25.92 117.088C25.9238 117.083 25.9276 117.078 25.9315 117.073C25.9337 117.07 25.9359 117.067 25.9381 117.063C25.942 117.058 25.946 117.053 25.95 117.047C25.952 117.045 25.9542 117.042 25.9562 117.039C25.9603 117.034 25.9645 117.028 25.9686 117.022C25.9705 117.02 25.9724 117.017 25.9742 117.015C25.9786 117.009 25.9829 117.003 25.9872 116.997C25.9891 116.995 25.9911 116.992 25.9929 116.99C25.9972 116.984 26.0016 116.978 26.006 116.972C26.0081 116.97 26.0105 116.966 26.0126 116.963C26.0165 116.958 26.0206 116.953 26.0245 116.948C26.0271 116.944 26.0297 116.941 26.0321 116.937C26.036 116.933 26.0398 116.928 26.0437 116.922C26.0461 116.919 26.0486 116.916 26.051 116.913C26.0552 116.907 26.0592 116.902 26.0634 116.896C26.0656 116.894 26.0676 116.891 26.0697 116.889C26.0742 116.882 26.0789 116.876 26.0835 116.871C26.0852 116.868 26.0869 116.866 26.0886 116.864C26.0933 116.858 26.0978 116.852 26.1024 116.846C26.1041 116.844 26.1057 116.842 26.1074 116.84C26.1121 116.833 26.1167 116.828 26.1213 116.822C26.1232 116.819 26.1249 116.817 26.1267 116.815C26.1312 116.809 26.1357 116.804 26.1403 116.798C26.142 116.795 26.144 116.793 26.1458 116.79C26.1503 116.785 26.1548 116.779 26.1593 116.773C26.161 116.771 26.1632 116.768 26.165 116.767C26.1696 116.761 26.1741 116.755 26.1787 116.749C26.1804 116.747 26.1823 116.745 26.1841 116.742C26.1887 116.736 26.1934 116.731 26.198 116.725C26.1998 116.723 26.2015 116.721 26.2032 116.718C26.208 116.712 26.2126 116.706 26.2174 116.701C26.2191 116.699 26.2208 116.697 26.2225 116.694C26.2275 116.688 26.2324 116.682 26.2374 116.676C26.239 116.674 26.2407 116.672 26.2423 116.67C26.2476 116.663 26.2528 116.657 26.2579 116.651C26.2592 116.649 26.2606 116.647 26.2617 116.646C26.2671 116.64 26.2725 116.633 26.2778 116.626C26.2794 116.624 26.2808 116.623 26.2823 116.621C26.2877 116.615 26.2931 116.608 26.2986 116.601C26.2998 116.6 26.3008 116.599 26.302 116.597C26.3074 116.591 26.3127 116.584 26.3182 116.578C26.3196 116.576 26.3208 116.575 26.3221 116.573C26.3274 116.567 26.3328 116.56 26.338 116.554C26.3395 116.552 26.3406 116.551 26.342 116.549C26.3473 116.543 26.3524 116.537 26.3577 116.531C26.3591 116.529 26.3608 116.527 26.3623 116.525C26.3676 116.519 26.3728 116.513 26.3781 116.507C26.3794 116.505 26.3804 116.504 26.3818 116.502C26.3873 116.496 26.3927 116.489 26.3982 116.483C26.3994 116.481 26.4006 116.48 26.4019 116.479C26.4073 116.472 26.4131 116.466 26.4187 116.459C26.4198 116.458 26.4207 116.457 26.4216 116.455C26.4274 116.449 26.4331 116.442 26.4388 116.436C26.4401 116.434 26.4409 116.434 26.4421 116.432C26.448 116.425 26.4536 116.418 26.4595 116.412C26.4603 116.411 26.4613 116.41 26.4622 116.409C26.4681 116.402 26.4741 116.395 26.48 116.389C26.4808 116.388 26.4817 116.387 26.4825 116.386C26.4889 116.378 26.4952 116.371 26.5015 116.364C26.502 116.364 26.5023 116.363 26.5027 116.363C26.5093 116.355 26.5159 116.348 26.5226 116.34C26.5232 116.339 26.5236 116.339 26.5243 116.338C26.5305 116.331 26.5369 116.324 26.5432 116.317C26.5438 116.316 26.5443 116.316 26.5449 116.315C26.5513 116.308 26.5575 116.301 26.5638 116.294C26.5645 116.293 26.5651 116.292 26.5657 116.292C26.5721 116.285 26.5785 116.278 26.585 116.27C26.5853 116.27 26.5857 116.269 26.5862 116.269C26.5925 116.262 26.5989 116.255 26.6053 116.248C26.606 116.247 26.6071 116.246 26.6077 116.246C26.6139 116.239 26.6202 116.232 26.6265 116.225C26.6271 116.224 26.6277 116.224 26.6283 116.223C26.6348 116.216 26.6411 116.209 26.6476 116.202C26.6481 116.202 26.6488 116.201 26.6493 116.2C26.6558 116.193 26.6625 116.186 26.6691 116.179C26.6694 116.178 26.6697 116.178 26.6702 116.178C26.6768 116.17 26.6833 116.163 26.6901 116.156C26.6907 116.155 26.6908 116.155 26.6914 116.155C26.9747 115.851 27.2767 115.565 27.5955 115.299ZM33.053 113.037L33.1417 114.033C31.9371 114.14 30.787 114.485 29.7233 115.059L29.2485 114.179C30.3951 113.56 31.6764 113.161 33.0367 113.038C33.0414 113.038 33.0477 113.037 33.053 113.037C33.0527 113.037 33.0532 113.037 33.053 113.037Z" fill="#CDD7DF"/>
</g>
<g filter="url(#filter2_d_1_2745)">
<path d="M54.941 133H543.058C545.702 133.008 548.235 134.066 550.099 135.941C551.964 137.817 553.007 140.356 552.999 143V214C553.007 216.644 551.964 219.183 550.099 221.059C548.235 222.934 545.702 223.992 543.058 224H54.941C52.2967 223.992 49.7638 222.934 47.8995 221.059C46.0352 219.183 44.9923 216.644 45 214V143C44.9923 140.356 46.0352 137.817 47.8995 135.941C49.7638 134.066 52.2967 133.008 54.941 133Z" fill="url(#paint1_linear_1_2745)"/>
</g>
<path d="M298.5 167H125.5C124.119 167 123 168.119 123 169.5C123 170.881 124.119 172 125.5 172H298.5C299.881 172 301 170.881 301 169.5C301 168.119 299.881 167 298.5 167Z" fill="white"/>
<path d="M126.073 186H252.927C253.509 186.111 254.034 186.421 254.411 186.877C254.789 187.334 254.995 187.908 254.995 188.5C254.995 189.092 254.789 189.666 254.411 190.123C254.034 190.579 253.509 190.889 252.927 191H126.073C125.491 190.889 124.966 190.579 124.589 190.123C124.211 189.666 124.005 189.092 124.005 188.5C124.005 187.908 124.211 187.334 124.589 186.877C124.966 186.421 125.491 186.111 126.073 186Z" fill="white"/>
<path d="M523 169H453C450.239 169 448 171.239 448 174V183C448 185.761 450.239 188 453 188H523C525.761 188 528 185.761 528 183V174C528 171.239 525.761 169 523 169Z" fill="#9CC4EF"/>
<path d="M63.874 185.226L67.705 177.965L68.158 178.251L64.327 185.512L63.874 185.226Z" fill="#EEEFEE"/>
<path d="M64.408 185.599L71.044 181.407L71.306 181.907L64.67 186.099L64.408 185.599Z" fill="#EEEFEE"/>
<path d="M64.7 186.215H72.363V186.788H64.7V186.215Z" fill="#EEEFEE"/>
<path d="M64.408 187.403L64.67 186.903L71.306 191.096L71.044 191.596L64.408 187.403Z" fill="#EEEFEE"/>
<path d="M63.875 187.776L64.328 187.49L68.16 194.754L67.707 195.04L63.875 187.776Z" fill="#EEEFEE"/>
<path d="M63.244 187.809H63.767V196.194H63.244V187.809Z" fill="#EEEFEE"/>
<path d="M58.849 194.754L62.68 187.491L63.133 187.777L59.3 195.039L58.849 194.754Z" fill="#EEEFEE"/>
<path d="M55.7 191.099L62.336 186.907L62.598 187.407L55.964 191.595L55.7 191.099Z" fill="#EEEFEE"/>
<path d="M54.647 186.216H62.31V186.789H54.647V186.216Z" fill="#EEEFEE"/>
<path d="M55.7 181.904L55.962 181.404L62.6 185.601L62.338 186.101L55.7 181.904Z" fill="#EEEFEE"/>
<path d="M58.848 178.254L59.3 177.964L63.131 185.225L62.678 185.511L58.848 178.254Z" fill="#EEEFEE"/>
<path d="M63.242 176.809H63.765V185.194H63.242V176.809Z" fill="#EEEFEE"/>
<path d="M96.874 185.228L100.705 177.967L101.158 178.253L97.327 185.514L96.874 185.228Z" fill="#EEEFEE"/>
<path d="M97.407 185.598L104.043 181.406L104.305 181.906L97.669 186.094L97.407 185.598Z" fill="#EEEFEE"/>
<path d="M97.7 186.215H105.363V186.788H97.7V186.215Z" fill="#EEEFEE"/>
<path d="M97.408 187.403L97.67 186.903L104.306 191.095L104.044 191.595L97.408 187.403Z" fill="#EEEFEE"/>
<path d="M96.875 187.775L97.328 187.489L101.159 194.754L100.706 195.04L96.875 187.775Z" fill="#EEEFEE"/>
<path d="M96.244 187.809H96.767V196.194H96.244V187.809Z" fill="#EEEFEE"/>
<path d="M91.849 194.754L95.68 187.493L96.133 187.779L92.3 195.041L91.849 194.754Z" fill="#EEEFEE"/>
<path d="M88.7 191.099L95.336 186.906L95.598 187.406L88.962 191.599L88.7 191.099Z" fill="#EEEFEE"/>
<path d="M87.647 186.216H95.31V186.789H87.647V186.216Z" fill="#DBD8DD"/>
<path d="M88.7 181.905L88.962 181.405L95.6 185.601L95.338 186.101L88.7 181.905Z" fill="#EEEFEE"/>
<path d="M91.847 178.254L92.3 177.968L96.131 185.229L95.678 185.515L91.847 178.254Z" fill="#DBD8DD"/>
<path d="M96.243 176.809H96.766V185.194H96.243V176.809Z" fill="#EEEFEE"/>
<path d="M80.129 187.068L81.446 185.787L80.658 184.827L80.118 186.243C80.0145 186.509 80.0184 186.805 80.129 187.068Z" fill="#BBBBCD"/>
<path d="M63.5 175.011C69.3 175.011 74.006 180.152 74.009 186.5C74.012 192.848 69.309 198 63.509 198C57.709 198 53 192.86 53 186.512C53 180.164 57.7 175.012 63.5 175.012V175.011ZM63.5 195.652C68.12 195.659 71.87 191.566 71.876 186.51C71.882 181.454 68.14 177.354 63.521 177.346C58.902 177.338 55.151 181.432 55.145 186.488V186.513C55.151 191.554 58.887 195.647 63.5 195.654V195.652Z" fill="#575B6D"/>
<path d="M96.494 175.01C102.294 175.01 106.994 180.148 107 186.495C107.006 192.842 102.3 197.989 96.505 197.995C90.71 198.001 86 192.854 86 186.507C86 180.16 90.7 175.016 96.495 175.007L96.494 175.01ZM96.494 195.655C101.114 195.666 104.867 191.577 104.877 186.521C104.887 181.465 101.15 177.359 96.53 177.348C91.91 177.337 88.157 181.426 88.147 186.482V186.508C88.156 191.55 91.886 195.638 96.494 195.655Z" fill="#575B6D"/>
<path d="M64.866 170.36C64.9621 170.399 65.0652 170.418 65.169 170.415C65.2727 170.413 65.3748 170.389 65.4688 170.345C65.5627 170.301 65.6465 170.238 65.7149 170.159C65.7833 170.081 65.8347 169.99 65.866 169.891L65.873 169.871L66.038 169.392C66.1109 169.193 66.1091 168.974 66.0327 168.776C65.9564 168.579 65.8108 168.415 65.623 168.317L65.584 168.298C65.1781 168.109 64.8581 167.774 64.6873 167.36C64.5165 166.946 64.5075 166.483 64.662 166.063C64.7617 165.745 64.9583 165.466 65.2244 165.265C65.4904 165.064 65.8127 164.951 66.146 164.942H67.42V162.742H66.149C65.3023 162.767 64.4904 163.084 63.8511 163.64C63.2118 164.195 62.7846 164.955 62.642 165.79C62.4348 166.691 62.5425 167.636 62.9471 168.468C63.3518 169.299 64.029 169.967 64.866 170.36Z" fill="#575B6D"/>
<path d="M80.118 186.243L80.658 184.827L81.446 185.787L80.129 187.068C80.0184 186.805 80.0145 186.509 80.118 186.243Z" fill="#BBBBCD"/>
<path d="M69.316 164.942H67.426V162.748H70.726C70.9903 162.748 71.2439 162.853 71.4313 163.039C71.6187 163.226 71.7247 163.479 71.726 163.743C71.7329 163.894 71.7095 164.046 71.657 164.188L70.6 167.526H87.252L88.681 163.771L90.526 164.608L89.112 168.354L97.624 186.154C97.7064 186.321 97.7474 186.506 97.7434 186.692C97.7394 186.879 97.6906 187.061 97.601 187.225C97.5198 187.382 97.3974 187.515 97.2468 187.608C97.0962 187.701 96.9231 187.752 96.746 187.754H81.052C80.8835 187.752 80.7184 187.707 80.5726 187.622C80.4267 187.538 80.3049 187.418 80.219 187.273C80.1773 187.208 80.1468 187.137 80.129 187.062L79.949 187.234L68.719 173.424L64.455 186.871L62.555 186.145L69.316 164.942ZM95.084 185.565L88.107 170.986L82.549 185.565H95.084ZM80.659 184.826L86.42 169.718H69.9L69.472 171.072L80.659 184.826Z" fill="#EF5261"/>
<path d="M96.494 189.076C97.0123 189.125 97.5334 189.017 97.989 188.764C98.4445 188.512 98.8132 188.128 99.0467 187.663C99.2802 187.198 99.3676 186.673 99.2974 186.157C99.2273 185.641 99.0029 185.158 98.6536 184.772C98.3044 184.386 97.8466 184.114 97.3403 183.993C96.834 183.871 96.3028 183.906 95.8164 184.092C95.33 184.277 94.9111 184.606 94.6146 185.034C94.3182 185.462 94.1579 185.969 94.155 186.49V186.516C94.1313 187.164 94.3631 187.796 94.8007 188.275C95.2382 188.753 95.8463 189.041 96.494 189.076Z" fill="#62667C"/>
<path d="M96.494 187.632C96.7809 187.622 97.0521 187.498 97.2482 187.289C97.4442 187.079 97.5492 186.8 97.54 186.513C97.5549 186.368 97.5393 186.222 97.4942 186.084C97.4491 185.946 97.3754 185.818 97.278 185.71C97.1806 185.602 97.0616 185.516 96.9287 185.457C96.7958 185.398 96.6519 185.367 96.5065 185.367C96.3611 185.367 96.2172 185.398 96.0843 185.457C95.9514 185.516 95.8324 185.602 95.735 185.71C95.6376 185.818 95.5639 185.946 95.5188 186.084C95.4737 186.222 95.4581 186.368 95.473 186.513C95.461 186.797 95.5617 187.073 95.7529 187.283C95.9442 187.493 96.2106 187.618 96.494 187.632Z" fill="#DBD8DD"/>
<path d="M63.492 189.154C64.1538 189.096 64.7699 188.792 65.2197 188.304C65.6696 187.815 65.9207 187.176 65.924 186.511C65.9272 185.847 65.6823 185.205 65.2373 184.712C64.7923 184.219 64.1791 183.91 63.518 183.845C62.8446 183.873 62.2097 184.166 61.7525 184.661C61.2952 185.156 61.053 185.813 61.079 186.486V186.513C61.055 187.182 61.2943 187.833 61.7456 188.327C62.1969 188.821 62.824 189.118 63.492 189.154Z" fill="#62667C"/>
<path d="M63.492 187.714C63.7996 187.703 64.0903 187.571 64.3005 187.346C64.5106 187.121 64.623 186.822 64.613 186.514C64.626 186.203 64.5154 185.899 64.3054 185.67C64.0954 185.44 63.8029 185.303 63.492 185.288C63.1853 185.308 62.8987 185.447 62.6943 185.677C62.4898 185.906 62.3841 186.207 62.4 186.514C62.3872 186.818 62.4947 187.114 62.6992 187.339C62.9037 187.563 63.1886 187.698 63.492 187.714Z" fill="#DBD8DD"/>
<path d="M77.16 186.654C77.1088 187.733 77.4869 188.789 78.2117 189.59C78.9364 190.392 79.949 190.874 81.028 190.931C82.0903 190.84 83.0802 190.355 83.803 189.571C84.5259 188.787 84.9296 187.761 84.9347 186.695C84.9398 185.629 84.5461 184.599 83.8308 183.809C83.1155 183.018 82.1304 182.523 81.069 182.422H81.049C79.9728 182.47 78.9593 182.942 78.2304 183.735C77.5015 184.528 77.1166 185.578 77.16 186.654Z" fill="#62667C"/>
<path d="M78.709 186.654C78.7472 187.108 78.9168 187.541 79.1969 187.901C79.477 188.26 79.8557 188.531 80.2868 188.679C80.7178 188.827 81.1826 188.846 81.6245 188.735C82.0664 188.623 82.4663 188.385 82.7755 188.051C83.0847 187.716 83.2898 187.298 83.3658 186.849C83.4418 186.399 83.3855 185.938 83.2037 185.52C83.0218 185.102 82.7223 184.746 82.3417 184.495C81.9611 184.245 81.5158 184.11 81.06 184.108H81.048C80.4007 184.137 79.7912 184.421 79.3528 184.898C78.9145 185.375 78.683 186.007 78.709 186.654Z" fill="#DBD8DD"/>
<path d="M83.857 165.511C83.8539 165.577 83.8638 165.642 83.8862 165.704C83.9086 165.766 83.943 165.823 83.9874 165.872C84.0318 165.92 84.0853 165.96 84.145 165.988C84.2047 166.015 84.2692 166.031 84.335 166.034H91.935C92.4465 166.01 92.9276 165.784 93.273 165.406C93.6184 165.028 93.8 164.529 93.778 164.017C93.8 163.505 93.6184 163.006 93.273 162.628C92.9276 162.25 92.4465 162.024 91.935 162H87.066C86.1758 162.042 85.3385 162.435 84.7373 163.093C84.1361 163.751 83.819 164.621 83.857 165.511Z" fill="#575B6D"/>
<path d="M81.646 194.054H80.446V186.831C80.4425 186.748 80.472 186.666 80.5281 186.604C80.5843 186.543 80.6626 186.505 80.746 186.501H81.339C81.4224 186.505 81.5007 186.543 81.5568 186.604C81.613 186.666 81.6425 186.748 81.639 186.831V194.054H81.646Z" fill="#EEEFEE"/>
<path d="M82.541 194.773H79.555C79.4409 194.768 79.3336 194.717 79.2566 194.633C79.1796 194.548 79.1391 194.437 79.144 194.323V193.589C79.1388 193.475 79.1792 193.363 79.2563 193.279C79.3334 193.195 79.4408 193.144 79.555 193.139H82.541C82.6551 193.144 82.7624 193.195 82.8394 193.279C82.9164 193.363 82.9569 193.475 82.952 193.589V194.323C82.9569 194.437 82.9164 194.548 82.8394 194.633C82.7624 194.717 82.6551 194.768 82.541 194.773Z" fill="#575B6D"/>
<defs>
<filter id="filter0_d_1_2745" x="-6.10352e-05" y="0" width="555.999" height="139" filterUnits="userSpaceOnUse" color-interpolation-filters="sRGB">
<feFlood flood-opacity="0" result="BackgroundImageFix"/>
<feColorMatrix in="SourceAlpha" type="matrix" values="0 0 0 0 0 0 0 0 0 0 0 0 0 0 0 0 0 0 127 0" result="hardAlpha"/>
<feOffset dy="12"/>
<feGaussianBlur stdDeviation="12"/>
<feColorMatrix type="matrix" values="0 0 0 0 0.537255 0 0 0 0 0.537255 0 0 0 0 0.537255 0 0 0 0.09 0"/>
<feBlend mode="normal" in2="BackgroundImageFix" result="effect1_dropShadow_1_2745"/>
<feBlend mode="normal" in="SourceGraphic" in2="effect1_dropShadow_1_2745" result="shape"/>
</filter>
<filter id="filter1_d_1_2745" x="20.9998" y="110.996" width="514" height="97.0004" filterUnits="userSpaceOnUse" color-interpolation-filters="sRGB">
<feFlood flood-opacity="0" result="BackgroundImageFix"/>
<feColorMatrix in="SourceAlpha" type="matrix" values="0 0 0 0 0 0 0 0 0 0 0 0 0 0 0 0 0 0 127 0" result="hardAlpha"/>
<feOffset dy="1"/>
<feGaussianBlur stdDeviation="1.5"/>
<feColorMatrix type="matrix" values="0 0 0 0 0 0 0 0 0 0 0 0 0 0 0 0 0 0 0.071 0"/>
<feBlend mode="normal" in2="BackgroundImageFix" result="effect1_dropShadow_1_2745"/>
<feBlend mode="normal" in="SourceGraphic" in2="effect1_dropShadow_1_2745" result="shape"/>
</filter>
<filter id="filter2_d_1_2745" x="20.9999" y="121" width="555.999" height="139" filterUnits="userSpaceOnUse" color-interpolation-filters="sRGB">
<feFlood flood-opacity="0" result="BackgroundImageFix"/>
<feColorMatrix in="SourceAlpha" type="matrix" values="0 0 0 0 0 0 0 0 0 0 0 0 0 0 0 0 0 0 127 0" result="hardAlpha"/>
<feOffset dy="12"/>
<feGaussianBlur stdDeviation="12"/>
<feColorMatrix type="matrix" values="0 0 0 0 0.537255 0 0 0 0 0.537255 0 0 0 0 0.537255 0 0 0 0.09 0"/>
<feBlend mode="normal" in2="BackgroundImageFix" result="effect1_dropShadow_1_2745"/>
<feBlend mode="normal" in="SourceGraphic" in2="effect1_dropShadow_1_2745" result="shape"/>
</filter>
<linearGradient id="paint0_linear_1_2745" x1="277.999" y1="12" x2="277.999" y2="12" gradientUnits="userSpaceOnUse">
<stop stop-color="#FFE7E1"/>
<stop offset="1" stop-color="#FFF0EC"/>
</linearGradient>
<linearGradient id="paint1_linear_1_2745" x1="298.999" y1="224" x2="298.999" y2="133" gradientUnits="userSpaceOnUse">
<stop stop-color="#D5E8FD"/>
<stop offset="1" stop-color="#D5E8FD"/>
</linearGradient>
</defs>
</svg>
