<svg width="591" height="144" viewBox="0 0 591 144" fill="none" xmlns="http://www.w3.org/2000/svg">
<g filter="url(#filter0_d_1_1448)">
<path d="M147 2H8C5.23858 2 3 4.23858 3 7V82C3 84.7614 5.23858 87 8 87H147C149.761 87 152 84.7614 152 82V7C152 4.23858 149.761 2 147 2Z" fill="url(#paint0_linear_1_1448)"/>
</g>
<path d="M142.5 19H73.5C72.1193 19 71 20.1193 71 21.5C71 22.8807 72.1193 24 73.5 24H142.5C143.881 24 145 22.8807 145 21.5C145 20.1193 143.881 19 142.5 19Z" fill="white"/>
<path d="M116.5 33H73.5C72.1193 33 71 34.1193 71 35.5C71 36.8807 72.1193 38 73.5 38H116.5C117.881 38 119 36.8807 119 35.5C119 34.1193 117.881 33 116.5 33Z" fill="white"/>
<path d="M116.5 58H73.5C72.1193 58 71 59.1193 71 60.5V69.5C71 70.8807 72.1193 72 73.5 72H116.5C117.881 72 119 70.8807 119 69.5V60.5C119 59.1193 117.881 58 116.5 58Z" fill="#FD8983"/>
<path d="M38.477 41.4921C38.3104 41.4759 38.1496 41.4218 38.007 41.3341C37.2461 40.812 36.3449 40.5325 35.422 40.5325C34.4992 40.5325 33.598 40.812 32.837 41.3341C32.7506 41.3949 32.6525 41.4371 32.5489 41.4581C32.4453 41.4791 32.3385 41.4785 32.2352 41.4562C32.1319 41.434 32.0343 41.3906 31.9485 41.3288C31.8628 41.2669 31.7908 41.1881 31.737 41.0971C31.6773 41.0097 31.6359 40.911 31.6154 40.8072C31.5948 40.7033 31.5955 40.5964 31.6175 40.4928C31.6395 40.3892 31.6822 40.2912 31.7432 40.2046C31.8041 40.118 31.8819 40.0447 31.972 39.9891C32.9945 39.3044 34.2003 38.9455 35.4308 38.9596C36.6612 38.9737 37.8585 39.3602 38.865 40.0681C38.9551 40.1237 39.033 40.197 39.0939 40.2836C39.1548 40.3702 39.1976 40.4682 39.2195 40.5718C39.2415 40.6754 39.2422 40.7823 39.2217 40.8862C39.2012 40.99 39.1598 41.0887 39.1 41.1761C39.0329 41.2787 38.9401 41.3619 38.8308 41.4173C38.7214 41.4728 38.5994 41.4986 38.477 41.4921Z" fill="#FFE100"/>
<path d="M46.467 37.375H24.533C24.328 37.3677 24.1338 37.2811 23.9913 37.1335C23.8488 36.9858 23.7692 36.7887 23.7692 36.5835C23.7692 36.3783 23.8488 36.1811 23.9913 36.0335C24.1338 35.8859 24.328 35.7993 24.533 35.792H46.467C46.6721 35.7993 46.8663 35.8859 47.0088 36.0335C47.1513 36.1811 47.2309 36.3783 47.2309 36.5835C47.2309 36.7887 47.1513 36.9858 47.0088 37.1335C46.8663 37.2811 46.6721 37.3677 46.467 37.375Z" fill="#FFE100"/>
<path d="M14.35 45.292H12.783C12.578 45.2847 12.3838 45.1981 12.2413 45.0505C12.0988 44.9028 12.0192 44.7057 12.0192 44.5005C12.0192 44.2953 12.0988 44.0981 12.2413 43.9505C12.3838 43.8029 12.578 43.7163 12.783 43.709H14.35C14.5551 43.7163 14.7493 43.8029 14.8918 43.9505C15.0343 44.0981 15.1139 44.2953 15.1139 44.5005C15.1139 44.7057 15.0343 44.9028 14.8918 45.0505C14.7493 45.1981 14.5551 45.2847 14.35 45.292Z" fill="#FFE100"/>
<path d="M58.217 45.292H56.65C56.445 45.2847 56.2508 45.1981 56.1083 45.0505C55.9658 44.9028 55.8862 44.7057 55.8862 44.5005C55.8862 44.2953 55.9658 44.0981 56.1083 43.9505C56.2508 43.8029 56.445 43.7163 56.65 43.709H58.217C58.4221 43.7163 58.6163 43.8029 58.7588 43.9505C58.9013 44.0981 58.9809 44.2953 58.9809 44.5005C58.9809 44.7057 58.9013 44.9028 58.7588 45.0505C58.6163 45.1981 58.4221 45.2847 58.217 45.292Z" fill="#FFE100"/>
<path d="M56.65 45.687V43.075C56.6575 42.1229 56.4768 41.1787 56.1182 40.2966C55.7596 39.4146 55.2303 38.6121 54.5605 37.9353C53.8908 37.2585 53.0939 36.7207 52.2157 36.3529C51.3374 35.9851 50.3952 35.7945 49.443 35.792H44.9C38.242 35.792 35.343 44.263 40.592 48.459L44.665 51.626C45.7662 52.4885 47.0889 53.0219 48.4804 53.1646C49.8719 53.3073 51.2753 53.0535 52.5286 52.4324C53.782 51.8113 54.834 50.8484 55.5633 49.6548C56.2926 48.4612 56.6693 47.0856 56.65 45.687Z" fill="#FFE100"/>
<path d="M49.6 35.792H47.25C48.2022 35.7945 49.1444 35.9851 50.0227 36.3529C50.9009 36.7207 51.6978 37.2585 52.3675 37.9353C53.0373 38.6121 53.5666 39.4146 53.9252 40.2966C54.2838 41.1787 54.4645 42.1229 54.457 43.075V45.687C54.4794 47.4731 53.8586 49.2076 52.7081 50.5739C51.5575 51.9402 49.9539 52.8471 48.19 53.129C49.2603 53.2957 50.3541 53.2276 51.3954 52.9293C52.4368 52.6311 53.4008 52.1099 54.2205 51.4019C55.0403 50.6939 55.6963 49.816 56.1429 48.8292C56.5896 47.8423 56.8162 46.7702 56.807 45.687V43.075C56.8145 42.1229 56.6338 41.1787 56.2752 40.2966C55.9166 39.4146 55.3873 38.6121 54.7175 37.9353C54.0478 37.2585 53.2509 36.7207 52.3727 36.3529C51.4944 35.9851 50.5522 35.7945 49.6 35.792Z" fill="#FFA800"/>
<path d="M14.35 45.687V43.075C14.3425 42.1229 14.5232 41.1787 14.8818 40.2966C15.2404 39.4146 15.7698 38.6121 16.4395 37.9353C17.1092 37.2585 17.9061 36.7207 18.7844 36.3529C19.6626 35.9851 20.6049 35.7945 21.557 35.792H26.179C32.837 35.792 35.736 44.263 30.487 48.459L26.414 51.626C25.3085 52.4932 23.9806 53.0306 22.5831 53.1762C21.1856 53.3219 19.7754 53.0699 18.5148 52.4494C17.2542 51.8288 16.1945 50.8648 15.4577 49.6685C14.7209 48.4721 14.3369 47.092 14.35 45.687Z" fill="#FFE100"/>
<path d="M21.557 35.792H23.907C22.9549 35.7945 22.0126 35.9851 21.1344 36.3529C20.2561 36.7207 19.4593 37.2585 18.7895 37.9353C18.1198 38.6121 17.5904 39.4146 17.2318 40.2966C16.8732 41.1787 16.6925 42.1229 16.7 43.075V45.687C16.6776 47.4731 17.2984 49.2076 18.449 50.5739C19.5996 51.9402 21.2032 52.8471 22.967 53.129C21.8967 53.2957 20.803 53.2276 19.7616 52.9293C18.7203 52.6311 17.7563 52.1099 16.9365 51.4019C16.1167 50.6939 15.4608 49.816 15.0141 48.8292C14.5675 47.8423 14.3409 46.7702 14.35 45.687V43.075C14.3425 42.1229 14.5232 41.1787 14.8818 40.2966C15.2404 39.4146 15.7698 38.6121 16.4395 37.9353C17.1093 37.2585 17.9061 36.7207 18.7844 36.3529C19.6626 35.9851 20.6049 35.7945 21.557 35.792Z" fill="white"/>
<path d="M49.13 54C47.3144 53.9777 45.5552 53.3664 44.117 52.258L40.044 49.091C38.7539 48.0791 37.8113 46.6902 37.3473 45.1176C36.8833 43.5449 36.921 41.8668 37.4552 40.3166C37.9895 38.7665 38.9936 37.4214 40.3279 36.4685C41.6622 35.5156 43.2604 35.0023 44.9 35H49.522C51.6373 35.0365 53.6531 35.9041 55.1337 37.4152C56.6143 38.9263 57.4406 40.9595 57.434 43.075V45.687C57.4252 47.9449 56.5241 50.1078 54.927 51.704C53.3608 53.1847 51.2854 54.0067 49.13 54ZM44.9 36.583C43.5912 36.569 42.3128 36.9773 41.2544 37.7474C40.1961 38.5175 39.4143 39.6083 39.025 40.858C38.5709 42.084 38.5238 43.4237 38.8907 44.6786C39.2576 45.9334 40.019 47.0367 41.062 47.825L45.135 50.992C46.2866 51.9246 47.7263 52.4283 49.208 52.417C50.9349 52.3976 52.5888 51.7177 53.83 50.517C54.4879 49.8823 55.0082 49.119 55.3586 48.2747C55.7091 47.4304 55.8821 46.523 55.867 45.609V43.075C55.8684 41.3647 55.1944 39.7231 53.9915 38.5073C52.7886 37.2914 51.1542 36.5999 49.444 36.583H44.9Z" fill="#494D54"/>
<path d="M21.87 54C20.7785 54.002 19.6973 53.7883 18.6886 53.3711C17.68 52.954 16.7637 52.3416 15.9924 51.5692C15.2211 50.7968 14.61 49.8796 14.1943 48.8703C13.7786 47.8611 13.5665 46.7796 13.57 45.688V43.075C13.5678 40.9474 14.4062 38.9051 15.9027 37.3927C17.3992 35.8803 19.4325 35.0204 21.56 35H26.182C27.8134 34.9858 29.4068 35.492 30.7309 36.4451C32.0549 37.3982 33.0407 38.7485 33.545 40.3C34.0852 41.8514 34.1264 43.5329 33.6628 45.1089C33.1993 46.6849 32.2542 48.0763 30.96 49.088L26.887 52.255C25.4662 53.3984 23.6936 54.0149 21.87 54ZM21.557 36.583C19.8468 36.5999 18.2125 37.2915 17.0096 38.5073C15.8067 39.7231 15.1326 41.3648 15.134 43.075V45.687C15.1288 46.5728 15.2996 47.4508 15.6363 48.27C15.9731 49.0893 16.4692 49.8335 17.0958 50.4596C17.7224 51.0856 18.4671 51.581 19.2866 51.917C20.1062 52.2531 20.9843 52.423 21.87 52.417C23.3518 52.4284 24.7915 51.9247 25.943 50.992L30.016 47.825C31.0323 47.0144 31.7733 45.9096 32.1379 44.6617C32.5024 43.4139 32.4726 42.0839 32.0526 40.8536C31.6326 39.6233 30.8429 38.5528 29.7913 37.7884C28.7398 37.024 27.4779 36.603 26.178 36.583H21.557Z" fill="#494D54"/>
<path d="M46.467 36.583H24.533C24.328 36.5757 24.1338 36.4891 23.9913 36.3415C23.8488 36.1939 23.7692 35.9967 23.7692 35.7915C23.7692 35.5863 23.8488 35.3891 23.9913 35.2415C24.1338 35.0939 24.328 35.0073 24.533 35H46.467C46.6721 35.0073 46.8663 35.0939 47.0088 35.2415C47.1513 35.3891 47.2309 35.5863 47.2309 35.7915C47.2309 35.9967 47.1513 36.1939 47.0088 36.3415C46.8663 36.4891 46.6721 36.5757 46.467 36.583Z" fill="#494D54"/>
<path d="M14.35 44.5H12.783C12.578 44.4927 12.3838 44.4061 12.2413 44.2585C12.0988 44.1108 12.0192 43.9137 12.0192 43.7085C12.0192 43.5033 12.0988 43.3061 12.2413 43.1585C12.3838 43.0109 12.578 42.9243 12.783 42.917H14.35C14.5551 42.9243 14.7493 43.0109 14.8918 43.1585C15.0343 43.3061 15.1139 43.5033 15.1139 43.7085C15.1139 43.9137 15.0343 44.1108 14.8918 44.2585C14.7493 44.4061 14.5551 44.4927 14.35 44.5Z" fill="#494D54"/>
<path d="M58.217 44.5H56.65C56.445 44.4927 56.2508 44.4061 56.1083 44.2585C55.9658 44.1108 55.8862 43.9137 55.8862 43.7085C55.8862 43.5033 55.9658 43.3061 56.1083 43.1585C56.2508 43.0109 56.445 42.9243 56.65 42.917H58.217C58.4221 42.9243 58.6163 43.0109 58.7588 43.1585C58.9013 43.3061 58.9809 43.5033 58.9809 43.7085C58.9809 43.9137 58.9013 44.1108 58.7588 44.2585C58.6163 44.4061 58.4221 44.4927 58.217 44.5Z" fill="#494D54"/>
<g filter="url(#filter1_d_1_1448)">
<path d="M317 2H178C175.239 2 173 4.23858 173 7V82C173 84.7614 175.239 87 178 87H317C319.761 87 322 84.7614 322 82V7C322 4.23858 319.761 2 317 2Z" fill="url(#paint1_linear_1_1448)"/>
</g>
<path d="M312.5 19H243.5C242.119 19 241 20.1193 241 21.5C241 22.8807 242.119 24 243.5 24H312.5C313.881 24 315 22.8807 315 21.5C315 20.1193 313.881 19 312.5 19Z" fill="white"/>
<path d="M286.5 33H243.5C242.119 33 241 34.1193 241 35.5C241 36.8807 242.119 38 243.5 38H286.5C287.881 38 289 36.8807 289 35.5C289 34.1193 287.881 33 286.5 33Z" fill="white"/>
<path d="M286.5 58H243.5C242.119 58 241 59.1193 241 60.5V69.5C241 70.8807 242.119 72 243.5 72H286.5C287.881 72 289 70.8807 289 69.5V60.5C289 59.1193 287.881 58 286.5 58Z" fill="#FD8983"/>
<path d="M201.314 33.78C201.235 33.5405 201.103 33.3217 200.928 33.1399C200.753 32.9581 200.54 32.8178 200.304 32.7294C200.067 32.6411 199.814 32.6068 199.563 32.6292C199.312 32.6517 199.069 32.7302 198.852 32.859C197.982 33.3591 197.228 34.0372 196.639 34.849L196.771 34.987L198.057 34.936L198.591 35.595L201.013 40.761L205.137 45.361L206.937 46.351L207.425 46.06C204.293 42.677 202.204 36.714 201.312 33.773L201.314 33.78Z" fill="#E61E2B"/>
<path d="M215.07 47.8041C214.458 47.7814 213.81 47.7531 213.126 47.7191C204.663 47.2991 200.477 39.1011 199.096 35.6891C198.929 35.3026 198.626 34.9917 198.243 34.8164C197.86 34.6411 197.426 34.6139 197.025 34.7401C194.555 35.5911 191.915 35.8249 189.334 35.4211C189.095 35.3709 188.849 35.374 188.612 35.4299C188.374 35.4859 188.152 35.5935 187.961 35.745C187.77 35.8965 187.615 36.0883 187.507 36.3066C187.398 36.5249 187.339 36.7644 187.334 37.0081V38.4361C187.338 40.7399 187.073 43.0364 186.546 45.2791C186.51 45.4311 186.474 45.5911 186.438 45.7571L187.518 46.7961V52.0491L194.785 52.9181H200.731L211.461 53.8571L215.305 53.3571V48.6271L215.07 47.8041Z" fill="#FF636E"/>
<path d="M191.793 35.623C190.969 35.6401 190.145 35.5731 189.335 35.423C189.096 35.3728 188.85 35.3758 188.613 35.4318C188.375 35.4878 188.153 35.5954 187.962 35.7469C187.771 35.8984 187.616 36.0901 187.508 36.3084C187.399 36.5267 187.34 36.7663 187.335 37.01V38.438C187.339 40.7418 187.074 43.0382 186.547 45.281C186.511 45.433 186.475 45.593 186.439 45.759L187.519 46.798V52.049L189.031 52.23C189.096 51.1665 189.247 50.11 189.483 49.071C190.179 45.1322 190.625 41.1532 190.818 37.158C190.817 36.8357 190.908 36.5199 191.081 36.2479C191.254 35.9759 191.501 35.7591 191.793 35.623Z" fill="#FF4654"/>
<path d="M196.982 39.5741C197.721 39.5741 198.32 38.997 198.32 38.2851C198.32 37.5732 197.721 36.9961 196.982 36.9961C196.243 36.9961 195.644 37.5732 195.644 38.2851C195.644 38.997 196.243 39.5741 196.982 39.5741Z" fill="#FF4654"/>
<path d="M221.119 47.857C219.643 47.903 217.677 47.901 215.07 47.804C214.37 49.4862 214.273 51.3585 214.796 53.104L215.44 53.553L221.045 52.789L224.755 51.619L225.261 51.127V50.804C224.996 49.9227 224.444 49.1549 223.694 48.6216C222.944 48.0884 222.038 47.8201 221.118 47.859L221.119 47.857Z" fill="#CBE2FF"/>
<path d="M217.836 47.877C217.005 47.865 216.087 47.842 215.07 47.804C214.37 49.4862 214.273 51.3585 214.796 53.104L215.44 53.553L217.67 53.253C217.214 51.4831 217.272 49.6203 217.836 47.882V47.877Z" fill="#9DC6FB"/>
<path d="M188.068 45.5641C187.519 45.5641 186.973 45.6289 186.439 45.7571C186.097 47.3675 185.865 48.9992 185.744 50.6411L185.837 51.1551L186.584 51.7211L190.668 52.3001L194.458 52.4801L194.782 52.1961C194.782 52.1431 194.782 52.0901 194.782 52.0371C194.749 50.2881 194.022 48.624 192.763 47.4102C191.503 46.1965 189.813 45.5325 188.064 45.5641H188.068Z" fill="#FF4654"/>
<path d="M186.585 51.7199L189.041 52.0679C189.112 51.0581 189.259 50.0552 189.483 49.0679C189.661 48.2769 189.844 47.1239 190.015 45.8399C188.851 45.5015 187.618 45.4722 186.439 45.7549C186.097 47.3653 185.865 48.9971 185.744 50.6389L185.837 51.1529L186.585 51.7199Z" fill="#E61E2B"/>
<path d="M224.556 51.3769C216.271 54.0489 207.096 53.1669 202.641 52.4709C200.795 52.1832 198.926 52.0764 197.059 52.1519C193.66 52.3169 190.253 52.1073 186.9 51.5269C186.651 51.4824 186.416 51.3786 186.216 51.2242C186.016 51.0698 185.855 50.8693 185.749 50.6399C185.685 51.4529 185.639 52.3299 185.616 53.2709C185.613 53.6372 185.74 53.9927 185.976 54.2735C186.211 54.5543 186.539 54.742 186.9 54.8029C190.254 55.3832 193.662 55.5924 197.062 55.4269C198.927 55.3526 200.796 55.4605 202.64 55.7489C207.095 56.4489 216.27 57.3269 224.555 54.6549C224.8 54.5796 225.015 54.4283 225.169 54.2229C225.323 54.0174 225.407 53.7685 225.41 53.5119V51.8669C225.41 51.5067 225.36 51.1483 225.261 50.8019C225.107 51.0757 224.855 51.2808 224.555 51.3759L224.556 51.3769Z" fill="#F9F6F9"/>
<path d="M186.9 51.5269C186.651 51.4824 186.416 51.3786 186.216 51.2242C186.016 51.0698 185.855 50.8693 185.749 50.6399C185.685 51.4529 185.639 52.3299 185.616 53.2709C185.613 53.6372 185.74 53.9927 185.976 54.2735C186.211 54.5543 186.539 54.742 186.9 54.8029C187.543 54.9229 188.416 55.0619 189.492 55.1819C189.239 54.7978 189.082 54.359 189.033 53.9019C188.988 53.2202 188.997 52.5361 189.06 51.8559C188.18 51.7479 187.455 51.6299 186.9 51.5269Z" fill="#CBE2FF"/>
<path d="M486 2.5H347C344.515 2.5 342.5 4.51472 342.5 7V82C342.5 84.4853 344.515 86.5 347 86.5H486C488.485 86.5 490.5 84.4853 490.5 82V7C490.5 4.51472 488.485 2.5 486 2.5Z" stroke="#CDD7DF" stroke-dasharray="4 2"/>
<g filter="url(#filter2_d_1_1448)">
<path d="M562 23H423C420.239 23 418 25.2386 418 28V103C418 105.761 420.239 108 423 108H562C564.761 108 567 105.761 567 103V28C567 25.2386 564.761 23 562 23Z" fill="#D5E8FD"/>
</g>
<path d="M557.5 40H488.5C487.119 40 486 41.1193 486 42.5C486 43.8807 487.119 45 488.5 45H557.5C558.881 45 560 43.8807 560 42.5C560 41.1193 558.881 40 557.5 40Z" fill="white"/>
<path d="M531.5 54H488.5C487.119 54 486 55.1193 486 56.5C486 57.8807 487.119 59 488.5 59H531.5C532.881 59 534 57.8807 534 56.5C534 55.1193 532.881 54 531.5 54Z" fill="white"/>
<path d="M531.5 79H488.5C487.119 79 486 80.1193 486 81.5V90.5C486 91.8807 487.119 93 488.5 93H531.5C532.881 93 534 91.8807 534 90.5V81.5C534 80.1193 532.881 79 531.5 79Z" fill="#9CC4EF"/>
<path d="M450.731 45.7058H448.962V68.2548H450.731V45.7058Z" fill="#DBD9DC"/>
<path d="M456.039 45.7058H454.27V68.2548H456.039V45.7058Z" fill="#DBD9DC"/>
<path d="M450.731 45.7058H448.962V48.4118H450.731V45.7058Z" fill="#C9C6CA"/>
<path d="M456.039 45.7058H454.27V48.4118H456.039V45.7058Z" fill="#C9C6CA"/>
<path d="M446.308 83.49H442.769V87.098C442.767 87.3347 442.859 87.5624 443.025 87.7311C443.191 87.8999 443.417 87.9959 443.654 87.998H445.423C445.66 87.9959 445.886 87.8999 446.052 87.7311C446.218 87.5624 446.31 87.3347 446.308 87.098V83.49Z" fill="#5D5360"/>
<path d="M446.307 83.49H442.769V86.196H446.307V83.49Z" fill="#4B3F4E"/>
<path d="M462.231 83.49H458.693V87.098C458.691 87.3347 458.783 87.5624 458.949 87.7311C459.115 87.8999 459.341 87.9959 459.578 87.998H461.347C461.584 87.9959 461.81 87.8999 461.976 87.7311C462.142 87.5624 462.234 87.3347 462.232 87.098L462.231 83.49Z" fill="#5D5360"/>
<path d="M462.231 83.49H458.693V86.196H462.231V83.49Z" fill="#4B3F4E"/>
<path d="M461.346 84.3919H443.654C443.302 84.3885 442.954 84.3158 442.63 84.178C442.307 84.0402 442.013 83.8399 441.767 83.5886C441.52 83.3373 441.326 83.04 441.194 82.7135C441.063 82.387 440.997 82.0379 441 81.6859V59.1369C440.997 58.785 441.063 58.4358 441.194 58.1093C441.326 57.7829 441.52 57.4855 441.767 57.2342C442.013 56.9829 442.307 56.7827 442.63 56.6448C442.954 56.507 443.302 56.4343 443.654 56.4309H461.346C461.698 56.4343 462.046 56.507 462.37 56.6448C462.693 56.7827 462.987 56.9829 463.233 57.2342C463.48 57.4855 463.674 57.7829 463.806 58.1093C463.938 58.4358 464.003 58.785 464 59.1369V81.6869C464.007 82.3975 463.731 83.0817 463.233 83.589C462.735 84.0962 462.057 84.385 461.346 84.3919Z" fill="#E6646E"/>
<path d="M446.308 81.6859V59.1369C446.305 58.785 446.371 58.4358 446.502 58.1093C446.634 57.7829 446.828 57.4855 447.075 57.2342C447.321 56.9829 447.615 56.7827 447.938 56.6448C448.262 56.507 448.61 56.4343 448.962 56.4309H443.654C443.302 56.4343 442.954 56.507 442.63 56.6448C442.307 56.7827 442.013 56.9829 441.767 57.2342C441.52 57.4855 441.326 57.7829 441.194 58.1093C441.063 58.4358 440.997 58.785 441 59.1369V81.6869C440.997 82.0389 441.063 82.388 441.194 82.7145C441.326 83.041 441.52 83.3383 441.767 83.5896C442.013 83.8409 442.307 84.0412 442.63 84.179C442.954 84.3168 443.302 84.3895 443.654 84.3929H448.962C448.61 84.3895 448.262 84.3168 447.938 84.1789C447.614 84.041 447.321 83.8406 447.074 83.5893C446.828 83.3379 446.633 83.0404 446.502 82.7138C446.37 82.3872 446.304 82.0379 446.308 81.6859Z" fill="#DC4655"/>
<path d="M456.039 46.6078H448.962C448.725 46.6057 448.499 46.5097 448.333 46.341C448.167 46.1722 448.075 45.9445 448.077 45.7078V43.9078C448.075 43.6711 448.167 43.4434 448.333 43.2747C448.499 43.1059 448.725 43.0099 448.962 43.0078H456.039C456.276 43.0099 456.502 43.1059 456.668 43.2747C456.834 43.4434 456.926 43.6711 456.924 43.9078V45.7078C456.926 45.9444 456.833 46.172 456.667 46.3407C456.502 46.5094 456.276 46.6054 456.039 46.6078Z" fill="#6F6571"/>
<path d="M457.808 80.7838H447.192C446.481 80.7767 445.803 80.4876 445.305 79.9802C444.808 79.4727 444.532 78.7884 444.539 78.0778V69.0578C444.536 68.7059 444.602 68.3567 444.733 68.0302C444.865 67.7038 445.059 67.4064 445.306 67.1551C445.552 66.9038 445.846 66.7036 446.169 66.5657C446.493 66.4279 446.841 66.3552 447.193 66.3518H457.808C458.16 66.3552 458.508 66.4279 458.832 66.5657C459.155 66.7036 459.449 66.9038 459.695 67.1551C459.942 67.4064 460.136 67.7038 460.268 68.0302C460.4 68.3567 460.465 68.7059 460.462 69.0578V78.0778C460.465 78.4298 460.4 78.7789 460.268 79.1054C460.136 79.4319 459.942 79.7292 459.695 79.9805C459.449 80.2318 459.155 80.4321 458.832 80.5699C458.508 80.7077 458.16 80.7804 457.808 80.7838Z" fill="#FF8087"/>
<path d="M456.923 70.863H448.077C447.838 70.863 447.609 70.7682 447.441 70.5994C447.272 70.4306 447.177 70.2017 447.177 69.963C447.177 69.7243 447.272 69.4954 447.441 69.3266C447.609 69.1578 447.838 69.063 448.077 69.063H456.923C457.162 69.063 457.391 69.1578 457.559 69.3266C457.728 69.4954 457.823 69.7243 457.823 69.963C457.823 70.2017 457.728 70.4306 457.559 70.5994C457.391 70.7682 457.162 70.863 456.923 70.863Z" fill="#DC4655"/>
<path d="M455.154 72.667C454.917 72.6649 454.691 72.5689 454.525 72.4001C454.359 72.2314 454.267 72.0037 454.269 71.767V69.967C454.265 69.8483 454.285 69.7301 454.328 69.6193C454.37 69.5085 454.435 69.4074 454.517 69.3221C454.6 69.2367 454.699 69.1688 454.808 69.1225C454.917 69.0761 455.035 69.0522 455.153 69.0522C455.272 69.0522 455.39 69.0761 455.499 69.1225C455.608 69.1688 455.707 69.2367 455.79 69.3221C455.872 69.4074 455.937 69.5085 455.979 69.6193C456.022 69.7301 456.042 69.8483 456.038 69.967V71.767C456.04 72.0035 455.948 72.2311 455.782 72.3998C455.616 72.5685 455.39 72.6646 455.154 72.667Z" fill="#F5DCB4"/>
<path d="M460.462 60.9409H444.539C444.3 60.9409 444.071 60.846 443.903 60.6773C443.734 60.5085 443.639 60.2796 443.639 60.0409C443.639 59.8022 443.734 59.5733 443.903 59.4045C444.071 59.2357 444.3 59.1409 444.539 59.1409H460.462C460.701 59.1409 460.93 59.2357 461.098 59.4045C461.267 59.5733 461.362 59.8022 461.362 60.0409C461.362 60.2796 461.267 60.5085 461.098 60.6773C460.93 60.846 460.701 60.9409 460.462 60.9409Z" fill="#FF8087"/>
<path d="M443.654 60.0389C443.652 60.2756 443.744 60.5033 443.91 60.6721C444.076 60.8408 444.302 60.9368 444.539 60.9389H446.308V59.1389H444.539C444.302 59.141 444.076 59.237 443.91 59.4058C443.744 59.5745 443.652 59.8022 443.654 60.0389Z" fill="#E6646E"/>
<path d="M456.039 44.8039H448.962C448.725 44.8018 448.499 44.7058 448.333 44.5371C448.167 44.3683 448.075 44.1406 448.077 43.9039C448.075 43.6672 448.167 43.4395 448.333 43.2708C448.499 43.102 448.725 43.006 448.962 43.0039H456.039C456.276 43.006 456.502 43.102 456.668 43.2708C456.834 43.4395 456.926 43.6672 456.924 43.9039C456.926 44.1405 456.833 44.3681 456.667 44.5368C456.502 44.7055 456.276 44.8015 456.039 44.8039Z" fill="#867E88"/>
<defs>
<filter id="filter0_d_1_1448" x="0" y="0" width="155" height="91" filterUnits="userSpaceOnUse" color-interpolation-filters="sRGB">
<feFlood flood-opacity="0" result="BackgroundImageFix"/>
<feColorMatrix in="SourceAlpha" type="matrix" values="0 0 0 0 0 0 0 0 0 0 0 0 0 0 0 0 0 0 127 0" result="hardAlpha"/>
<feOffset dy="1"/>
<feGaussianBlur stdDeviation="1.5"/>
<feColorMatrix type="matrix" values="0 0 0 0 0 0 0 0 0 0 0 0 0 0 0 0 0 0 0.071 0"/>
<feBlend mode="normal" in2="BackgroundImageFix" result="effect1_dropShadow_1_1448"/>
<feBlend mode="normal" in="SourceGraphic" in2="effect1_dropShadow_1_1448" result="shape"/>
</filter>
<filter id="filter1_d_1_1448" x="170" y="0" width="155" height="91" filterUnits="userSpaceOnUse" color-interpolation-filters="sRGB">
<feFlood flood-opacity="0" result="BackgroundImageFix"/>
<feColorMatrix in="SourceAlpha" type="matrix" values="0 0 0 0 0 0 0 0 0 0 0 0 0 0 0 0 0 0 127 0" result="hardAlpha"/>
<feOffset dy="1"/>
<feGaussianBlur stdDeviation="1.5"/>
<feColorMatrix type="matrix" values="0 0 0 0 0 0 0 0 0 0 0 0 0 0 0 0 0 0 0.071 0"/>
<feBlend mode="normal" in2="BackgroundImageFix" result="effect1_dropShadow_1_1448"/>
<feBlend mode="normal" in="SourceGraphic" in2="effect1_dropShadow_1_1448" result="shape"/>
</filter>
<filter id="filter2_d_1_1448" x="394" y="11" width="197" height="133" filterUnits="userSpaceOnUse" color-interpolation-filters="sRGB">
<feFlood flood-opacity="0" result="BackgroundImageFix"/>
<feColorMatrix in="SourceAlpha" type="matrix" values="0 0 0 0 0 0 0 0 0 0 0 0 0 0 0 0 0 0 127 0" result="hardAlpha"/>
<feOffset dy="12"/>
<feGaussianBlur stdDeviation="12"/>
<feColorMatrix type="matrix" values="0 0 0 0 0.537255 0 0 0 0 0.537255 0 0 0 0 0.537255 0 0 0 0.09 0"/>
<feBlend mode="normal" in2="BackgroundImageFix" result="effect1_dropShadow_1_1448"/>
<feBlend mode="normal" in="SourceGraphic" in2="effect1_dropShadow_1_1448" result="shape"/>
</filter>
<linearGradient id="paint0_linear_1_1448" x1="77.5" y1="2" x2="77.5" y2="2" gradientUnits="userSpaceOnUse">
<stop stop-color="#FFE7E1"/>
<stop offset="1" stop-color="#FFF0EC"/>
</linearGradient>
<linearGradient id="paint1_linear_1_1448" x1="247.5" y1="2" x2="247.5" y2="2" gradientUnits="userSpaceOnUse">
<stop stop-color="#FFE7E1"/>
<stop offset="1" stop-color="#FFF0EC"/>
</linearGradient>
</defs>
</svg>
