<svg width="557" height="149" viewBox="0 0 557 149" fill="none" xmlns="http://www.w3.org/2000/svg">
<g filter="url(#filter0_d_1_3072)">
<path d="M13.7336 1.99729H17.7336V2.99729H13.7336V1.99729ZM19.7336 1.99729H23.7336V2.99729H19.7336V1.99729ZM25.7336 1.99729H29.7336V2.99729H25.7336V1.99729ZM31.7336 1.99729H35.7336V2.99729H31.7336V1.99729ZM37.7336 1.99729H41.7336V2.99729H37.7336V1.99729ZM43.7336 1.99729H47.7336V2.99729H43.7336V1.99729ZM49.7336 1.99729H53.7336V2.99729H49.7336V1.99729ZM55.7336 1.99729H59.7336V2.99729H55.7336V1.99729ZM61.7336 1.99729H65.7336V2.99729H61.7336V1.99729ZM67.7336 1.99729H71.7336V2.99729H67.7336V1.99729ZM73.7336 1.99729H77.7336V2.99729H73.7336V1.99729ZM79.7336 1.99729H83.7336V2.99729H79.7336V1.99729ZM85.7336 1.99729H89.7336V2.99729H85.7336V1.99729ZM91.7336 1.99729H95.7336V2.99729H91.7336V1.99729ZM97.7336 1.99729H101.734V2.99729H97.7336V1.99729ZM103.734 1.99729H107.734V2.99729H103.734V1.99729ZM109.734 1.99729H113.734V2.99729H109.734V1.99729ZM115.734 1.99729H119.734V2.99729H115.734V1.99729ZM121.734 1.99729H125.734V2.99729H121.734V1.99729ZM127.734 1.99729H131.734V2.99729H127.734V1.99729ZM133.734 1.99729H137.734V2.99729H133.734V1.99729ZM139.734 1.99729H143.734V2.99729H139.734V1.99729ZM145.734 1.99729H149.734V2.99729H145.734V1.99729ZM151.734 1.99729H155.734V2.99729H151.734V1.99729ZM157.734 1.99729H161.734V2.99729H157.734V1.99729ZM163.734 1.99729H167.734V2.99729H163.734V1.99729ZM169.734 1.99729H173.734V2.99729H169.734V1.99729ZM175.734 1.99729H179.734V2.99729H175.734V1.99729ZM181.734 1.99729H185.734V2.99729H181.734V1.99729ZM187.734 1.99729H191.734V2.99729H187.734V1.99729ZM193.734 1.99729H197.734V2.99729H193.734V1.99729ZM199.734 1.99729H203.734V2.99729H199.734V1.99729ZM205.734 1.99729H209.734V2.99729H205.734V1.99729ZM211.734 1.99729H215.734V2.99729H211.734V1.99729ZM217.734 1.99729H221.734V2.99729H217.734V1.99729ZM223.734 1.99729H227.734V2.99729H223.734V1.99729ZM229.734 1.99729H233.734V2.99729H229.734V1.99729ZM235.734 1.99729H239.734V2.99729H235.734V1.99729ZM241.734 1.99729H245.734V2.99729H241.734V1.99729ZM247.734 1.99729H251.734V2.99729H247.734V1.99729ZM253.734 1.99729H257.734V2.99729H253.734V1.99729ZM259.734 1.99729H263.734V2.99729H259.734V1.99729ZM265.734 1.99729H269.734V2.99729H265.734V1.99729ZM271.734 1.99729H275.734V2.99729H271.734V1.99729ZM277.734 1.99729H281.734V2.99729H277.734V1.99729ZM283.734 1.99729H287.734V2.99729H283.734V1.99729ZM289.734 1.99729H293.734V2.99729H289.734V1.99729ZM295.734 1.99729H299.734V2.99729H295.734V1.99729ZM301.734 1.99729H305.734V2.99729H301.734V1.99729ZM307.734 1.99729H311.734V2.99729H307.734V1.99729ZM313.734 1.99729H317.734V2.99729H313.734V1.99729ZM319.734 1.99729H323.734V2.99729H319.734V1.99729ZM325.734 1.99729H329.734V2.99729H325.734V1.99729ZM331.734 1.99729H335.734V2.99729H331.734V1.99729ZM337.734 1.99729H341.734V2.99729H337.734V1.99729ZM343.734 1.99729H347.734V2.99729H343.734V1.99729ZM349.734 1.99729H353.734V2.99729H349.734V1.99729ZM355.734 1.99729H359.734V2.99729H355.734V1.99729ZM361.734 1.99729H365.734V2.99729H361.734V1.99729ZM367.734 1.99729H371.734V2.99729H367.734V1.99729ZM373.734 1.99729H377.734V2.99729H373.734V1.99729ZM379.734 1.99729H383.734V2.99729H379.734V1.99729ZM385.734 1.99729H389.734V2.99729H385.734V1.99729ZM391.734 1.99729H395.734V2.99729H391.734V1.99729ZM397.734 1.99729H401.734V2.99729H397.734V1.99729ZM403.734 1.99729H407.734V2.99729H403.734V1.99729ZM409.734 1.99729H413.734V2.99729H409.734V1.99729ZM415.734 1.99729H419.734V2.99729H415.734V1.99729ZM421.734 1.99729H425.734V2.99729H421.734V1.99729ZM427.734 1.99729H431.734V2.99729H427.734V1.99729ZM433.734 1.99729H437.734V2.99729H433.734V1.99729ZM439.734 1.99729H443.734V2.99729H439.734V1.99729ZM445.734 1.99729H449.734V2.99729H445.734V1.99729ZM451.734 1.99729H455.734V2.99729H451.734V1.99729ZM457.734 1.99729H461.734V2.99729H457.734V1.99729ZM463.734 1.99729H467.734V2.99729H463.734V1.99729ZM469.734 1.99729H473.734V2.99729H469.734V1.99729ZM475.734 1.99729H479.734V2.99729H475.734V1.99729ZM481.734 1.99729H485.734V2.99729H481.734V1.99729ZM487.734 1.99729H491.734V2.99729H487.734V1.99729ZM493.734 1.99729H497.734V2.99729H493.734V1.99729ZM499.734 1.99729H501.729C501.74 1.99729 501.75 1.99826 501.763 1.99729C501.769 1.99729 501.775 1.9968 501.781 1.99729C501.788 1.99729 501.794 1.99778 501.802 1.99778C501.809 1.99778 501.817 1.99729 501.824 1.99778C501.829 1.99778 501.835 1.99826 501.841 1.99778C501.846 1.99778 501.851 1.99924 501.856 1.99826C501.867 1.99826 501.878 1.99533 501.888 1.99875C501.894 1.99875 501.899 1.99875 501.905 1.99875C501.91 1.99875 501.915 1.99924 501.92 1.99924C501.926 1.99924 501.931 1.99924 501.936 1.99924C501.942 1.99973 501.946 1.99826 501.952 1.99973C501.957 1.99973 501.964 1.99826 501.968 2.00022C501.973 2.00022 501.979 2.00217 501.984 2.00071C501.989 2.00071 501.995 2.00022 502 2.00071C502.005 2.00119 502.011 2.00363 502.016 2.00119C502.021 2.00168 502.026 2.00168 502.031 2.00168C502.036 2.00217 502.042 2.00217 502.047 2.00217C502.057 2.00266 502.068 2.00315 502.078 2.00315C502.078 2.00315 502.079 2.00315 502.078 2.00315C502.638 2.02317 503.188 2.08908 503.72 2.19797L503.52 3.17795C502.934 3.05783 502.332 2.99729 501.729 2.99729H499.734V1.99729ZM505.625 2.79514C506.862 3.32639 507.97 4.10227 508.888 5.06223L508.166 5.75363C507.326 4.87619 506.339 4.19016 505.231 3.71408L505.625 2.79514ZM510.119 6.63498C510.384 7.0549 510.62 7.49631 510.822 7.95578C510.822 7.9553 510.822 7.95578 510.822 7.95578C510.824 7.96018 510.826 7.96555 510.828 7.96994C510.83 7.97483 510.832 7.97971 510.834 7.9841C510.838 7.99338 510.843 8.00315 510.847 8.01291C510.849 8.01731 510.851 8.02219 510.853 8.02707C510.855 8.03196 510.857 8.03635 510.859 8.04123C510.859 8.04123 510.859 8.04172 510.859 8.04123C510.861 8.04612 510.863 8.05051 510.865 8.05539C510.865 8.05539 510.865 8.05588 510.865 8.05637C510.869 8.06516 510.873 8.07492 510.877 8.08371C510.877 8.0842 510.877 8.0842 510.877 8.08469C510.881 8.09397 510.885 8.10324 510.889 8.11203C510.889 8.11252 510.889 8.11301 510.89 8.1135C510.891 8.11789 510.893 8.12229 510.895 8.12717C510.895 8.12717 510.895 8.12717 510.895 8.12717C510.897 8.13156 510.899 8.13645 510.901 8.14084C510.901 8.14133 510.901 8.14182 510.902 8.14231C510.903 8.1467 510.905 8.1511 510.907 8.155C510.907 8.15549 510.907 8.15598 510.907 8.15647C510.909 8.16037 510.911 8.16428 510.912 8.16819C510.913 8.16965 510.913 8.17063 510.914 8.17209C510.915 8.17551 510.917 8.17942 510.918 8.18283C510.919 8.18381 510.919 8.18479 510.92 8.18576C510.921 8.18918 510.923 8.19309 510.924 8.19699C510.925 8.19846 510.925 8.19895 510.926 8.20041C510.927 8.20432 510.929 8.20822 510.93 8.21213C510.931 8.21311 510.931 8.21311 510.931 8.21408C510.933 8.21799 510.934 8.22141 510.936 8.22531C510.936 8.22678 510.937 8.22776 510.937 8.22922C510.939 8.23313 510.94 8.23655 510.942 8.24045C510.942 8.24143 510.943 8.2424 510.943 8.24289C510.944 8.2468 510.946 8.25022 510.947 8.25412C510.948 8.2551 510.948 8.25656 510.949 8.25803C510.95 8.26145 510.952 8.26535 510.953 8.26877C510.954 8.26975 510.954 8.27072 510.954 8.27219C510.956 8.27512 510.957 8.27854 510.958 8.28196C510.959 8.28342 510.96 8.28537 510.96 8.28733C510.962 8.29026 510.963 8.29367 510.964 8.29709C510.965 8.29856 510.965 8.29953 510.966 8.301C510.967 8.30442 510.969 8.30735 510.97 8.31076C510.97 8.31223 510.971 8.31418 510.972 8.31565C510.973 8.31906 510.975 8.32297 510.976 8.32639C510.976 8.32737 510.977 8.32834 510.977 8.32981C510.979 8.33274 510.98 8.33615 510.981 8.33908C510.982 8.34104 510.982 8.34299 510.983 8.34446C510.984 8.34738 510.985 8.35031 510.986 8.35276C510.987 8.3552 510.988 8.35666 510.989 8.35862C510.99 8.36155 510.991 8.36447 510.992 8.3674C510.993 8.36936 510.994 8.3718 510.994 8.37326C510.995 8.37619 510.996 8.37863 510.997 8.38156C510.998 8.38352 510.999 8.38547 511 8.38791C511 8.38938 511.001 8.39035 511.001 8.39182C511.008 8.40842 511.014 8.42405 511.02 8.44065C511.021 8.44211 511.021 8.44406 511.022 8.44553C511.025 8.45383 511.028 8.46262 511.032 8.47141C511.032 8.47238 511.032 8.47336 511.033 8.47385C511.034 8.47776 511.035 8.48166 511.037 8.48557C511.037 8.48655 511.038 8.48752 511.038 8.4885C511.039 8.49143 511.04 8.49485 511.042 8.49826C511.042 8.49973 511.043 8.50119 511.043 8.50315C511.045 8.50705 511.047 8.51145 511.048 8.51535C511.048 8.51584 511.048 8.51633 511.049 8.51682C511.05 8.52024 511.051 8.52414 511.052 8.52756C511.053 8.52903 511.054 8.53049 511.054 8.53196C511.055 8.53488 511.056 8.53733 511.057 8.54074C511.058 8.5427 511.059 8.54465 511.059 8.5466C511.06 8.54856 511.061 8.551 511.062 8.55344C511.063 8.55637 511.064 8.55881 511.065 8.56125C511.066 8.56369 511.066 8.56565 511.067 8.56809C511.068 8.57053 511.069 8.57297 511.07 8.57541C511.071 8.57834 511.072 8.58078 511.073 8.58371C511.074 8.58567 511.074 8.58811 511.075 8.59006C511.076 8.59299 511.077 8.59543 511.078 8.59836C511.079 8.60031 511.08 8.60227 511.08 8.60422C511.081 8.60715 511.083 8.61057 511.084 8.6135C511.084 8.61545 511.085 8.61692 511.086 8.61887C511.087 8.62229 511.088 8.62522 511.089 8.62863C511.09 8.6301 511.09 8.63156 511.091 8.63254C511.092 8.63645 511.093 8.63987 511.094 8.64328C511.095 8.64475 511.095 8.64621 511.096 8.64719C511.097 8.6511 511.098 8.65451 511.099 8.65793C511.1 8.6594 511.1 8.66037 511.101 8.66184C511.102 8.66526 511.103 8.66819 511.104 8.67209C511.105 8.67356 511.105 8.67502 511.106 8.67697C511.107 8.68039 511.108 8.68332 511.109 8.68674C511.11 8.68821 511.11 8.68967 511.111 8.69065C511.112 8.69455 511.113 8.69797 511.115 8.70139C511.115 8.70285 511.116 8.70432 511.116 8.7053C511.117 8.70871 511.118 8.71262 511.12 8.71604C511.12 8.7175 511.121 8.71897 511.121 8.71994C511.122 8.72336 511.124 8.72727 511.125 8.7302C511.125 8.73166 511.126 8.73313 511.126 8.73459C511.127 8.7385 511.129 8.7424 511.13 8.74631C511.13 8.7468 511.13 8.74729 511.131 8.74826C511.132 8.75217 511.134 8.75608 511.135 8.76047C511.135 8.76145 511.135 8.76242 511.136 8.7634C511.137 8.76731 511.138 8.77072 511.14 8.77463C511.14 8.77561 511.141 8.77707 511.141 8.77805C511.142 8.78147 511.143 8.78537 511.144 8.7883C511.145 8.79026 511.146 8.79172 511.146 8.79367C511.147 8.79709 511.148 8.80051 511.149 8.80393C511.15 8.8049 511.15 8.80588 511.151 8.80735C511.152 8.81125 511.153 8.81467 511.154 8.81858C511.155 8.81955 511.155 8.82053 511.156 8.82199C511.157 8.8259 511.158 8.82932 511.159 8.83322C511.16 8.8342 511.16 8.83518 511.16 8.83615C511.162 8.84006 511.163 8.84348 511.164 8.84738C511.165 8.84885 511.165 8.84983 511.165 8.85129C511.167 8.8552 511.168 8.8591 511.169 8.86301C511.169 8.8635 511.169 8.86399 511.17 8.86447C511.171 8.86936 511.172 8.87326 511.174 8.87766C511.174 8.87815 511.174 8.87863 511.174 8.87912C511.176 8.88352 511.177 8.88742 511.179 8.89231C511.179 8.8928 511.179 8.89328 511.179 8.89377C511.181 8.89817 511.182 8.90207 511.183 8.90647C511.184 8.90744 511.184 8.90891 511.184 8.90988C511.186 8.9133 511.187 8.9177 511.188 8.92112C511.188 8.92209 511.188 8.92258 511.189 8.92356C511.19 8.92746 511.191 8.93186 511.193 8.93576C511.193 8.93674 511.193 8.93772 511.194 8.93869C511.195 8.9426 511.196 8.94651 511.198 8.9509C511.198 8.95139 511.198 8.95188 511.198 8.95237C511.199 8.95627 511.201 8.96115 511.202 8.96506C511.202 8.96604 511.203 8.96701 511.203 8.96848C511.204 8.97238 511.206 8.97629 511.207 8.9802C511.207 8.98069 511.207 8.98069 511.207 8.98117C511.208 8.98557 511.21 8.99045 511.211 8.99485C511.211 8.99533 511.212 8.99533 511.212 8.99582C511.215 9.0051 511.218 9.01487 511.22 9.02414C511.221 9.02463 511.221 9.02512 511.221 9.0261C511.239 9.08371 511.256 9.14231 511.273 9.20041C511.273 9.2009 511.273 9.2009 511.273 9.20139C511.276 9.21067 511.279 9.22043 511.282 9.2302C511.283 9.23508 511.285 9.23996 511.286 9.24436C511.286 9.24485 511.286 9.24533 511.286 9.24582C511.287 9.24973 511.288 9.25315 511.289 9.25705C511.29 9.25852 511.29 9.25998 511.291 9.26145C511.292 9.26584 511.293 9.26926 511.294 9.27317C511.294 9.27414 511.294 9.27512 511.295 9.2761C511.296 9.28 511.297 9.2844 511.298 9.2883C511.298 9.28928 511.299 9.29026 511.299 9.29074C511.3 9.29465 511.301 9.29953 511.302 9.30344C511.302 9.30442 511.303 9.3049 511.303 9.30539C511.304 9.30979 511.305 9.31369 511.306 9.3176C511.307 9.31906 511.307 9.31955 511.307 9.32053C511.308 9.32492 511.31 9.32932 511.311 9.33371C511.311 9.3342 511.311 9.33469 511.311 9.33518C511.312 9.33957 511.313 9.34397 511.315 9.34836C511.315 9.34885 511.315 9.34983 511.315 9.35031C511.316 9.35471 511.318 9.35959 511.319 9.36399C511.319 9.36399 511.319 9.36447 511.319 9.36496C511.32 9.36936 511.321 9.37326 511.323 9.37766C511.323 9.37863 511.323 9.37961 511.323 9.38059C511.324 9.38449 511.326 9.3884 511.327 9.3928C511.327 9.39377 511.327 9.39475 511.327 9.39572C511.329 9.39963 511.329 9.40305 511.331 9.40696C511.331 9.40842 511.331 9.40988 511.332 9.41086C511.333 9.41428 511.333 9.41819 511.334 9.4216C511.335 9.42356 511.335 9.42502 511.336 9.42649C511.336 9.4299 511.337 9.43283 511.338 9.43625C511.339 9.43821 511.339 9.44016 511.34 9.44162C511.341 9.44504 511.341 9.44846 511.342 9.45188C511.343 9.45334 511.343 9.45481 511.344 9.45627C511.344 9.45969 511.345 9.4636 511.346 9.46701C511.347 9.46848 511.347 9.46994 511.347 9.47141C511.348 9.47483 511.349 9.47873 511.35 9.48215C511.351 9.48362 511.351 9.48557 511.351 9.48703C511.352 9.48996 511.353 9.49289 511.354 9.49582C511.354 9.49826 511.355 9.50071 511.355 9.50315C511.356 9.50608 511.357 9.50852 511.358 9.51194C511.358 9.5134 511.359 9.51535 511.359 9.51731C511.36 9.52072 511.361 9.52365 511.362 9.52707C511.362 9.52854 511.362 9.53 511.363 9.53196C511.364 9.53537 511.365 9.53879 511.365 9.54221C511.366 9.54416 511.366 9.54563 511.367 9.54758C511.367 9.55051 511.368 9.55344 511.369 9.55686C511.37 9.55881 511.37 9.56076 511.371 9.56272C511.371 9.56613 511.372 9.56906 511.373 9.57248C511.373 9.57395 511.374 9.57541 511.374 9.57688C511.375 9.5803 511.376 9.58371 511.377 9.58762C511.377 9.58908 511.377 9.59055 511.378 9.59153C511.379 9.59543 511.38 9.59934 511.381 9.60324C511.381 9.60422 511.381 9.6052 511.381 9.60617C511.382 9.60959 511.383 9.61399 511.384 9.6174C511.385 9.61936 511.385 9.62131 511.385 9.62326C511.386 9.62668 511.387 9.6301 511.388 9.63303C511.388 9.63449 511.388 9.63596 511.389 9.63742C511.39 9.64084 511.391 9.64426 511.391 9.64817C511.392 9.64963 511.392 9.6511 511.392 9.65256C511.393 9.65647 511.394 9.65988 511.395 9.66379C511.396 9.66526 511.396 9.66623 511.396 9.6677C511.397 9.67112 511.398 9.67453 511.398 9.67795C511.399 9.68088 511.4 9.68332 511.4 9.68576C511.401 9.68821 511.402 9.69113 511.402 9.69358C511.403 9.69602 511.403 9.69895 511.404 9.70188C511.405 9.70383 511.405 9.70627 511.406 9.70871C511.406 9.71115 511.407 9.7136 511.407 9.71604C511.408 9.71897 511.409 9.72141 511.409 9.72434C511.411 9.73313 511.414 9.7424 511.416 9.75168C511.416 9.75266 511.416 9.75315 511.416 9.75412C511.421 9.77463 511.426 9.79514 511.43 9.81565C511.43 9.81711 511.43 9.8176 511.431 9.81906C511.433 9.82834 511.435 9.83713 511.437 9.84641C511.437 9.84787 511.437 9.84885 511.438 9.85031C511.44 9.85959 511.442 9.86887 511.444 9.87815C511.446 9.8884 511.448 9.89914 511.45 9.90891C511.454 9.9299 511.459 9.9509 511.463 9.97141C511.489 10.0959 511.512 10.2219 511.533 10.3479L510.546 10.511C510.349 9.31711 509.921 8.1926 509.274 7.16965L510.119 6.63498ZM510.667 12.341H511.667V16.341H510.667V12.341ZM510.667 18.341H511.667V22.341H510.667V18.341ZM510.667 24.341H511.667V28.341H510.667V24.341ZM510.667 30.341H511.667V34.341H510.667V30.341ZM510.667 36.341H511.667V40.341H510.667V36.341ZM510.667 42.341H511.667V46.341H510.667V42.341ZM510.667 48.341H511.667V52.341H510.667V48.341ZM510.667 54.341H511.667V58.341H510.667V54.341ZM510.667 60.341H511.667V64.341H510.667V60.341ZM510.667 66.341H511.667V70.341H510.667V66.341ZM510.667 72.341H511.667V76.341H510.667V72.341ZM510.667 78.341H511.667V82.341H510.667V78.341ZM510.588 84.2053L511.579 84.3371C511.544 84.5964 511.5 84.8513 511.447 85.1037C511.446 85.1086 511.445 85.113 511.444 85.1174C511.443 85.1184 511.443 85.1189 511.443 85.1198C511.442 85.1233 511.442 85.1262 511.441 85.1296C511.44 85.132 511.44 85.134 511.44 85.136C511.439 85.1389 511.438 85.1418 511.438 85.1447C511.437 85.1467 511.437 85.1487 511.436 85.1511C511.436 85.154 511.435 85.1565 511.435 85.1594C511.434 85.1618 511.433 85.1643 511.433 85.1667C511.432 85.1692 511.432 85.1716 511.431 85.174C511.431 85.1765 511.43 85.1794 511.429 85.1823C511.429 85.1843 511.429 85.1862 511.428 85.1882C511.427 85.1916 511.427 85.195 511.426 85.198C511.426 85.1994 511.425 85.2014 511.425 85.2024C511.424 85.2063 511.423 85.2097 511.423 85.2131C511.422 85.2151 511.422 85.2165 511.422 85.218C511.421 85.2219 511.42 85.2253 511.419 85.2292C511.419 85.2302 511.418 85.2312 511.418 85.2321C511.417 85.2361 511.416 85.2404 511.415 85.2448C511.415 85.2453 511.415 85.2463 511.415 85.2468C511.414 85.2517 511.413 85.2561 511.412 85.261C511.412 85.2605 511.412 85.261 511.412 85.261C511.411 85.2658 511.409 85.2712 511.408 85.2756C511.408 85.2766 511.408 85.2766 511.408 85.2771C511.403 85.2971 511.399 85.3176 511.394 85.3376C511.279 85.8186 511.13 86.2863 510.949 86.7375C510.949 86.738 510.948 86.739 510.948 86.74C510.946 86.7439 510.945 86.7478 510.943 86.7517C510.943 86.7527 510.942 86.7536 510.942 86.7546C510.941 86.7585 510.939 86.7619 510.938 86.7654C510.937 86.7668 510.936 86.7688 510.936 86.7707C510.934 86.7737 510.933 86.7771 510.932 86.78C510.931 86.7815 510.931 86.7829 510.93 86.7844C510.929 86.7873 510.927 86.7903 510.926 86.7937C510.925 86.7956 510.925 86.7976 510.924 86.8C510.923 86.8025 510.921 86.8054 510.92 86.8083C510.919 86.8103 510.918 86.8127 510.918 86.8147C510.917 86.8171 510.916 86.8191 510.915 86.8215C510.914 86.8239 510.913 86.8269 510.912 86.8293C510.911 86.8318 510.91 86.8337 510.909 86.8362C510.908 86.8386 510.906 86.8415 510.906 86.844C510.905 86.8459 510.904 86.8479 510.903 86.8498C510.902 86.8528 510.901 86.8552 510.9 86.8581C510.899 86.8601 510.898 86.862 510.897 86.864C510.896 86.8669 510.895 86.8698 510.893 86.8728C510.893 86.8747 510.892 86.8762 510.892 86.8777C510.89 86.8806 510.889 86.8835 510.888 86.8864C510.887 86.8884 510.886 86.8904 510.885 86.8923C510.884 86.8952 510.883 86.8982 510.882 86.9011C510.881 86.9026 510.88 86.904 510.88 86.906C510.878 86.9089 510.877 86.9123 510.875 86.9157C510.875 86.9172 510.874 86.9182 510.874 86.9196C510.872 86.9236 510.871 86.927 510.869 86.9304C510.869 86.9314 510.868 86.9323 510.868 86.9328C510.866 86.9372 510.865 86.9411 510.863 86.945C510.863 86.9455 510.863 86.946 510.862 86.947C510.693 87.3425 510.499 87.7253 510.282 88.093L509.421 87.5847C510.035 86.5427 510.428 85.406 510.588 84.2053ZM508.358 89.0349L509.102 89.7033C508.705 90.1438 508.271 90.5486 507.803 90.9128C507.795 90.9192 507.787 90.9255 507.779 90.9314C507.779 90.9319 507.778 90.9319 507.778 90.9323C507.77 90.9382 507.762 90.9445 507.754 90.9504C507.754 90.9504 507.753 90.9514 507.753 90.9514C507.745 90.9572 507.738 90.9631 507.73 90.969C507.729 90.9695 507.729 90.9699 507.728 90.9709C507.72 90.9763 507.713 90.9821 507.706 90.9875C507.705 90.9885 507.704 90.989 507.703 90.99C507.695 90.9953 507.688 91.0007 507.681 91.0061C507.68 91.007 507.679 91.008 507.678 91.0085C507.671 91.0139 507.664 91.0193 507.656 91.0246C507.655 91.0256 507.654 91.0266 507.653 91.0276C507.646 91.0324 507.639 91.0378 507.632 91.0427C507.631 91.0442 507.629 91.0451 507.628 91.0461C507.621 91.051 507.614 91.0564 507.607 91.0617C507.605 91.0627 507.604 91.0637 507.603 91.0647C507.596 91.07 507.589 91.0749 507.582 91.0798C507.58 91.0813 507.578 91.0827 507.576 91.0842C507.57 91.0891 507.563 91.0935 507.557 91.0984C507.555 91.0998 507.552 91.1018 507.55 91.1032C507.544 91.1076 507.537 91.1125 507.531 91.1169C507.529 91.1189 507.527 91.1203 507.524 91.1223C507.518 91.1262 507.512 91.1311 507.506 91.135C507.503 91.1369 507.501 91.1384 507.499 91.1404C507.493 91.1447 507.487 91.1487 507.481 91.153C507.478 91.155 507.476 91.157 507.473 91.1589C507.468 91.1628 507.462 91.1667 507.457 91.1706C507.453 91.1726 507.451 91.175 507.448 91.177C507.442 91.1809 507.437 91.1843 507.432 91.1877C507.429 91.1902 507.425 91.1931 507.422 91.195C507.417 91.1985 507.412 91.2024 507.407 91.2053C507.403 91.2082 507.4 91.2102 507.396 91.2126C507.392 91.216 507.387 91.2195 507.382 91.2229C507.377 91.2263 507.372 91.2297 507.367 91.2331C507.364 91.2356 507.361 91.238 507.357 91.24C507.352 91.2439 507.346 91.2478 507.341 91.2517C507.338 91.2536 507.335 91.2556 507.332 91.2575C507.326 91.2614 507.321 91.2654 507.314 91.2697C507.312 91.2712 507.31 91.2727 507.307 91.2746C507.302 91.2785 507.295 91.2829 507.289 91.2868C507.287 91.2883 507.285 91.2903 507.282 91.2917C507.276 91.2961 507.269 91.3005 507.263 91.3049C507.261 91.3059 507.26 91.3069 507.258 91.3078C507.251 91.3127 507.244 91.3176 507.236 91.3225C507.236 91.323 507.235 91.3235 507.235 91.3235C506.815 91.6052 506.373 91.8557 505.911 92.0715L505.488 91.1653C506.58 90.6545 507.546 89.9377 508.358 89.0349ZM503.794 91.7561L504.026 92.7287C503.619 92.8259 503.201 92.8977 502.776 92.9426C502.771 92.9436 502.765 92.9465 502.76 92.9441C502.754 92.9445 502.748 92.9431 502.743 92.946C502.737 92.9465 502.732 92.947 502.727 92.9475C502.703 92.9499 502.678 92.9524 502.653 92.9548C502.648 92.9548 502.643 92.9558 502.637 92.9563C502.632 92.9563 502.627 92.9572 502.621 92.9572C502.616 92.9592 502.61 92.9587 502.604 92.9592C502.603 92.9592 502.603 92.9592 502.602 92.9592C502.582 92.9612 502.563 92.9626 502.543 92.9641C502.538 92.9651 502.533 92.9651 502.528 92.9655C502.523 92.9655 502.518 92.9665 502.512 92.9665C502.506 92.9675 502.501 92.967 502.496 92.968C502.49 92.9685 502.484 92.9685 502.479 92.9695C502.464 92.9695 502.449 92.9709 502.435 92.9724C502.429 92.9724 502.424 92.9734 502.419 92.9734C502.413 92.9743 502.408 92.9738 502.402 92.9748C502.397 92.9748 502.391 92.9758 502.385 92.9758C502.38 92.9758 502.374 92.9768 502.369 92.9768C502.363 92.9768 502.357 92.9778 502.352 92.9778C502.337 92.9821 502.323 92.9792 502.309 92.9807C502.303 92.9812 502.298 92.9812 502.293 92.9817C502.287 92.9817 502.281 92.9821 502.276 92.9821C502.27 92.9831 502.265 92.9831 502.259 92.9831C502.253 92.9841 502.248 92.9846 502.242 92.9841C502.236 92.9841 502.23 92.9851 502.225 92.9851C502.217 92.9851 502.209 92.9856 502.201 92.9861C502.195 92.987 502.189 92.987 502.183 92.987C502.177 92.9875 502.171 92.9875 502.165 92.988C502.159 92.9875 502.154 92.988 502.148 92.9885C502.142 92.9885 502.137 92.9885 502.131 92.9895C502.126 92.99 502.12 92.9904 502.114 92.99C502.108 92.9904 502.102 92.9909 502.096 92.9904C502.088 92.9909 502.081 92.9914 502.073 92.9914C502.067 92.9919 502.061 92.9924 502.055 92.9919C502.05 92.9924 502.044 92.9929 502.038 92.9924C502.032 92.9929 502.026 92.9934 502.021 92.9929C502.015 92.9939 502.009 92.9934 502.003 92.9934C501.998 92.9939 501.992 92.9939 501.986 92.9939C501.979 92.9948 501.971 92.9948 501.964 92.9944C501.958 92.9953 501.951 92.9948 501.945 92.9948C501.939 92.9948 501.933 92.9953 501.927 92.9953C501.922 92.9953 501.916 92.9958 501.91 92.9958C501.904 92.9963 501.898 92.9963 501.892 92.9958C501.886 92.9963 501.881 92.9968 501.875 92.9963C501.869 92.9963 501.863 92.9963 501.858 92.9963C501.851 92.9963 501.843 92.9987 501.836 92.9968C501.829 92.9968 501.823 92.9963 501.817 92.9968C501.81 92.9968 501.804 92.9958 501.798 92.9973C501.792 92.9973 501.787 92.9973 501.781 92.9973C501.775 92.9973 501.769 92.9973 501.763 92.9973C501.757 92.9978 501.752 92.9978 501.746 92.9973C501.74 92.9973 501.734 92.9973 501.729 92.9973H500.047V91.9973H501.729C502.427 91.9973 503.122 91.9162 503.794 91.7561ZM494.047 91.9973H498.047V92.9973H494.047V91.9973ZM488.047 91.9973H492.047V92.9973H488.047V91.9973ZM482.047 91.9973H486.047V92.9973H482.047V91.9973ZM476.047 91.9973H480.047V92.9973H476.047V91.9973ZM470.047 91.9973H474.047V92.9973H470.047V91.9973ZM464.047 91.9973H468.047V92.9973H464.047V91.9973ZM458.047 91.9973H462.047V92.9973H458.047V91.9973ZM452.047 91.9973H456.047V92.9973H452.047V91.9973ZM446.047 91.9973H450.047V92.9973H446.047V91.9973ZM440.047 91.9973H444.047V92.9973H440.047V91.9973ZM434.047 91.9973H438.047V92.9973H434.047V91.9973ZM428.047 91.9973H432.047V92.9973H428.047V91.9973ZM422.047 91.9973H426.047V92.9973H422.047V91.9973ZM416.047 91.9973H420.047V92.9973H416.047V91.9973ZM410.047 91.9973H414.047V92.9973H410.047V91.9973ZM404.047 91.9973H408.047V92.9973H404.047V91.9973ZM398.047 91.9973H402.047V92.9973H398.047V91.9973ZM392.047 91.9973H396.047V92.9973H392.047V91.9973ZM386.047 91.9973H390.047V92.9973H386.047V91.9973ZM380.047 91.9973H384.047V92.9973H380.047V91.9973ZM374.047 91.9973H378.047V92.9973H374.047V91.9973ZM368.047 91.9973H372.047V92.9973H368.047V91.9973ZM362.047 91.9973H366.047V92.9973H362.047V91.9973ZM356.047 91.9973H360.047V92.9973H356.047V91.9973ZM350.047 91.9973H354.047V92.9973H350.047V91.9973ZM344.047 91.9973H348.047V92.9973H344.047V91.9973ZM338.047 91.9973H342.047V92.9973H338.047V91.9973ZM332.047 91.9973H336.047V92.9973H332.047V91.9973ZM326.047 91.9973H330.047V92.9973H326.047V91.9973ZM320.047 91.9973H324.047V92.9973H320.047V91.9973ZM314.047 91.9973H318.047V92.9973H314.047V91.9973ZM308.047 91.9973H312.047V92.9973H308.047V91.9973ZM302.047 91.9973H306.047V92.9973H302.047V91.9973ZM296.047 91.9973H300.047V92.9973H296.047V91.9973ZM290.047 91.9973H294.047V92.9973H290.047V91.9973ZM284.047 91.9973H288.047V92.9973H284.047V91.9973ZM278.047 91.9973H282.047V92.9973H278.047V91.9973ZM272.047 91.9973H276.047V92.9973H272.047V91.9973ZM266.047 91.9973H270.047V92.9973H266.047V91.9973ZM260.047 91.9973H264.047V92.9973H260.047V91.9973ZM254.047 91.9973H258.047V92.9973H254.047V91.9973ZM248.047 91.9973H252.047V92.9973H248.047V91.9973ZM242.047 91.9973H246.047V92.9973H242.047V91.9973ZM236.047 91.9973H240.047V92.9973H236.047V91.9973ZM230.047 91.9973H234.047V92.9973H230.047V91.9973ZM224.047 91.9973H228.047V92.9973H224.047V91.9973ZM218.047 91.9973H222.047V92.9973H218.047V91.9973ZM212.047 91.9973H216.047V92.9973H212.047V91.9973ZM206.047 91.9973H210.047V92.9973H206.047V91.9973ZM200.047 91.9973H204.047V92.9973H200.047V91.9973ZM194.047 91.9973H198.047V92.9973H194.047V91.9973ZM188.047 91.9973H192.047V92.9973H188.047V91.9973ZM182.047 91.9973H186.047V92.9973H182.047V91.9973ZM176.047 91.9973H180.047V92.9973H176.047V91.9973ZM170.047 91.9973H174.047V92.9973H170.047V91.9973ZM164.047 91.9973H168.047V92.9973H164.047V91.9973ZM158.047 91.9973H162.047V92.9973H158.047V91.9973ZM152.047 91.9973H156.047V92.9973H152.047V91.9973ZM146.047 91.9973H150.047V92.9973H146.047V91.9973ZM140.047 91.9973H144.047V92.9973H140.047V91.9973ZM134.047 91.9973H138.047V92.9973H134.047V91.9973ZM128.047 91.9973H132.047V92.9973H128.047V91.9973ZM122.047 91.9973H126.047V92.9973H122.047V91.9973ZM116.047 91.9973H120.047V92.9973H116.047V91.9973ZM110.047 91.9973H114.047V92.9973H110.047V91.9973ZM104.047 91.9973H108.047V92.9973H104.047V91.9973ZM98.0468 91.9973H102.047V92.9973H98.0468V91.9973ZM92.0468 91.9973H96.0468V92.9973H92.0468V91.9973ZM86.0468 91.9973H90.0468V92.9973H86.0468V91.9973ZM80.0468 91.9973H84.0468V92.9973H80.0468V91.9973ZM74.0468 91.9973H78.0468V92.9973H74.0468V91.9973ZM68.0468 91.9973H72.0468V92.9973H68.0468V91.9973ZM62.0468 91.9973H66.0468V92.9973H62.0468V91.9973ZM56.0468 91.9973H60.0468V92.9973H56.0468V91.9973ZM50.0468 91.9973H54.0468V92.9973H50.0468V91.9973ZM44.0468 91.9973H48.0468V92.9973H44.0468V91.9973ZM38.0468 91.9973H42.0468V92.9973H38.0468V91.9973ZM32.0468 91.9973H36.0468V92.9973H32.0468V91.9973ZM26.0468 91.9973H30.0468V92.9973H26.0468V91.9973ZM20.0468 91.9973H24.0468V92.9973H20.0468V91.9973ZM14.0468 91.9973H18.0468V92.9973H14.0468V91.9973ZM8.89929 90.5691C9.91577 91.2282 11.0342 91.6662 12.2234 91.8694L12.0547 92.8552C11.8975 92.8283 11.7415 92.7976 11.5868 92.7634C11.5828 92.7649 11.5771 92.7614 11.572 92.76C11.5675 92.76 11.5625 92.7575 11.5577 92.757C11.5525 92.7556 11.5472 92.7546 11.5419 92.7531C11.5371 92.7531 11.532 92.7512 11.5269 92.7497C11.5222 92.7497 11.5165 92.7478 11.5114 92.7463C11.5065 92.7453 11.502 92.7448 11.4967 92.7429C11.4918 92.7419 11.4865 92.7409 11.4816 92.7395C11.4763 92.7385 11.472 92.738 11.4669 92.7361C11.4623 92.7351 11.457 92.7336 11.4523 92.7326C11.4478 92.7317 11.4436 92.7302 11.4392 92.7297C11.4347 92.7287 11.4294 92.7278 11.4257 92.7263C11.4213 92.7248 11.4166 92.7263 11.4124 92.7229C10.6989 92.5515 10.015 92.302 9.37048 91.9846C9.29822 91.9489 9.22705 91.9128 9.15588 91.8757C9.15601 91.8757 9.15576 91.8757 9.15588 91.8757C9.15234 91.8737 9.14856 91.8718 9.1449 91.8698C9.1438 91.8694 9.14282 91.8689 9.14185 91.8684C9.13904 91.8669 9.13696 91.8659 9.13416 91.8645C9.12988 91.8625 9.12561 91.8596 9.12134 91.8576C9.11914 91.8567 9.1167 91.8552 9.1145 91.8542C9.1123 91.8528 9.11023 91.8518 9.10803 91.8508C9.10376 91.8479 9.09888 91.8454 9.0946 91.8435C9.09216 91.842 9.08972 91.841 9.08728 91.8396C9.08545 91.8386 9.08337 91.8376 9.08154 91.8366C9.07898 91.8352 9.07642 91.8337 9.07385 91.8322C9.07166 91.8313 9.06982 91.8303 9.06763 91.8288C9.06519 91.8279 9.06287 91.8264 9.06042 91.8249C9.05847 91.8239 9.05664 91.823 9.05469 91.822C9.052 91.8205 9.04956 91.8191 9.04688 91.8181C9.04492 91.8166 9.04285 91.8156 9.04089 91.8147C9.03674 91.8127 9.0321 91.8103 9.02808 91.8078C9.02527 91.8064 9.02246 91.8049 9.01965 91.8029C9.01831 91.8025 9.01624 91.8015 9.01477 91.8005C9.01196 91.799 9.00879 91.7971 9.00598 91.7956C9.00452 91.7951 9.00342 91.7942 9.00195 91.7937C8.99878 91.7917 8.99573 91.7903 8.99255 91.7883C8.99097 91.7873 8.98962 91.7868 8.98804 91.7859C8.98499 91.7844 8.98218 91.7824 8.97913 91.781C8.97778 91.7805 8.97632 91.7795 8.97485 91.7785C8.9718 91.7771 8.96863 91.7751 8.96558 91.7737C8.96411 91.7727 8.96289 91.7722 8.96155 91.7712C8.95825 91.7697 8.95496 91.7678 8.95166 91.7658C8.95056 91.7654 8.94983 91.7649 8.94873 91.7644C8.94531 91.7624 8.94189 91.7605 8.9386 91.7585C8.93713 91.758 8.93616 91.757 8.93481 91.7566C8.9314 91.7546 8.9281 91.7527 8.92468 91.7507C8.92383 91.7502 8.92273 91.7497 8.922 91.7492C8.91833 91.7473 8.91467 91.7453 8.91113 91.7434C8.91003 91.7429 8.90967 91.7424 8.90857 91.7419C8.90454 91.7395 8.90076 91.7375 8.89673 91.7351C8.89697 91.7356 8.89648 91.7351 8.89673 91.7351C8.89282 91.7331 8.88806 91.7302 8.88416 91.7282C8.8833 91.7278 8.88245 91.7273 8.88171 91.7268C8.87793 91.7248 8.87415 91.7224 8.87036 91.7204C8.86987 91.7199 8.86926 91.7199 8.86877 91.7195C8.86487 91.7175 8.86096 91.7151 8.85706 91.7131C8.8562 91.7126 8.85608 91.7121 8.85522 91.7116C8.84668 91.7068 8.83789 91.7019 8.82935 91.697C8.82959 91.697 8.8291 91.697 8.82935 91.697C8.66858 91.6047 8.51013 91.5085 8.3551 91.4079L8.89929 90.5691ZM5.49011 86.4846C5.9563 87.6003 6.63159 88.5964 7.49731 89.445L6.79712 90.1589C6.79529 90.1574 6.79407 90.156 6.79224 90.1545C6.78784 90.1501 6.78357 90.1457 6.77917 90.1413C6.77625 90.1384 6.77368 90.136 6.77075 90.133C6.76611 90.1286 6.7616 90.1242 6.75708 90.1198C6.75439 90.1169 6.75208 90.1145 6.74939 90.112C6.74438 90.1071 6.73938 90.1023 6.73438 90.0969C6.73242 90.0949 6.73022 90.093 6.72815 90.091C6.7229 90.0857 6.71765 90.0803 6.71228 90.0749C6.71057 90.073 6.70862 90.071 6.70679 90.0695C6.70117 90.0637 6.69556 90.0583 6.68994 90.0525C6.68835 90.051 6.68701 90.0495 6.68542 90.0481C6.67957 90.0417 6.67358 90.0359 6.66772 90.03C6.66638 90.0285 6.66541 90.0276 6.66406 90.0261C6.65784 90.0197 6.65149 90.0134 6.64526 90.007C6.64441 90.0061 6.64343 90.0051 6.64258 90.0041C6.63599 89.9973 6.62952 89.9909 6.62292 89.9841C6.62219 89.9831 6.62109 89.9821 6.62048 89.9817C6.61389 89.9748 6.6073 89.968 6.60083 89.9612C6.6001 89.9607 6.59961 89.9597 6.59888 89.9592C6.59229 89.9524 6.58582 89.9455 6.57922 89.9387C6.57874 89.9382 6.578 89.9377 6.57764 89.9372C6.57092 89.9299 6.56433 89.9231 6.55774 89.9162C6.55725 89.9157 6.55676 89.9153 6.5564 89.9148C6.54968 89.9079 6.54297 89.9006 6.53625 89.8938C6.53589 89.8933 6.5354 89.8928 6.53503 89.8923C6.52844 89.8855 6.52173 89.8781 6.51514 89.8713C6.51477 89.8708 6.51404 89.8703 6.51367 89.8698C6.50696 89.8625 6.50037 89.8557 6.49377 89.8484C6.49329 89.8479 6.49304 89.8479 6.49268 89.8474C6.48584 89.8401 6.47913 89.8327 6.47229 89.8254C6.47241 89.8254 6.47217 89.8254 6.47229 89.8254C6.46545 89.8181 6.45813 89.8103 6.45129 89.8029C6.45105 89.8025 6.45081 89.8025 6.45056 89.802C6.19775 89.528 5.95984 89.24 5.7384 88.9387C5.71997 88.9138 5.70166 88.8884 5.68347 88.8635C5.67737 88.8552 5.67139 88.8464 5.66528 88.8381C5.66541 88.8386 5.66516 88.8376 5.66528 88.8381C5.63513 88.7961 5.6051 88.7531 5.57568 88.7107C5.57532 88.7102 5.5752 88.7102 5.57483 88.7097C5.56934 88.7019 5.56372 88.6936 5.55811 88.6853C5.55774 88.6848 5.55725 88.6843 5.55688 88.6838C5.55151 88.676 5.54614 88.6682 5.54077 88.6604C5.54016 88.6594 5.53943 88.6584 5.53894 88.6574C5.53369 88.6496 5.52856 88.6423 5.52344 88.635C5.52271 88.6335 5.52185 88.6325 5.52112 88.6316C5.51611 88.6237 5.51099 88.6164 5.50598 88.6091C5.50525 88.6081 5.50452 88.6067 5.50378 88.6057C5.49878 88.5984 5.49365 88.5905 5.48853 88.5832C5.48792 88.5822 5.48718 88.5813 5.48645 88.5798C5.48157 88.5725 5.47644 88.5652 5.47156 88.5578C5.47083 88.5564 5.46973 88.5549 5.46912 88.5539C5.46423 88.5466 5.45935 88.5393 5.45447 88.532C5.45374 88.531 5.45264 88.529 5.4519 88.528C5.4469 88.5207 5.44202 88.5129 5.43713 88.5056C5.4364 88.5046 5.43567 88.5031 5.43494 88.5022C5.43005 88.4948 5.42505 88.487 5.42017 88.4797C5.41931 88.4782 5.4187 88.4773 5.41785 88.4763C5.41284 88.4685 5.40808 88.4612 5.40308 88.4533C5.40222 88.4524 5.40137 88.4509 5.40051 88.4494C5.39563 88.4421 5.39099 88.4348 5.38611 88.4275C5.38513 88.4255 5.38391 88.4236 5.38293 88.4221C5.37817 88.4148 5.37341 88.4074 5.36865 88.4001C5.3678 88.3987 5.36682 88.3972 5.36597 88.3957C5.36145 88.3884 5.35681 88.3816 5.35217 88.3742C5.3512 88.3728 5.34985 88.3703 5.34888 88.3689C5.34448 88.362 5.33997 88.3547 5.33569 88.3479C5.33435 88.3459 5.3335 88.3445 5.33215 88.3425C5.32788 88.3357 5.32361 88.3288 5.31946 88.3225C5.31812 88.32 5.31653 88.3176 5.31519 88.3156C5.31116 88.3088 5.30701 88.3025 5.30298 88.2961C5.30176 88.2937 5.30042 88.2917 5.29907 88.2898C5.29492 88.2829 5.29089 88.2766 5.28687 88.2697C5.2854 88.2673 5.28394 88.2649 5.28247 88.2629C5.27844 88.2561 5.27466 88.2502 5.27075 88.2439C5.26929 88.2414 5.2677 88.2385 5.26624 88.2365C5.26233 88.2302 5.25854 88.2238 5.25464 88.2175C5.25305 88.2146 5.25159 88.2121 5.25 88.2097C5.24597 88.2033 5.24207 88.1965 5.23816 88.1902C5.23682 88.1882 5.2356 88.1862 5.23438 88.1838C5.23022 88.177 5.22632 88.1706 5.22229 88.1638C5.22095 88.1618 5.21948 88.1594 5.21814 88.157C5.21411 88.1501 5.21008 88.1438 5.20605 88.1369C5.20459 88.1345 5.20312 88.132 5.20166 88.1296C5.19788 88.1233 5.19409 88.1169 5.19031 88.1106C5.1886 88.1076 5.18665 88.1042 5.18494 88.1013C5.18115 88.0949 5.17749 88.0886 5.17371 88.0822C5.17224 88.0798 5.17078 88.0774 5.16931 88.0749C5.16565 88.0686 5.16187 88.0617 5.1582 88.0554C5.15637 88.0525 5.15466 88.0495 5.15295 88.0466C5.14917 88.0403 5.14539 88.0339 5.1416 88.0271C5.14014 88.0246 5.13867 88.0222 5.13733 88.0197C5.13367 88.0134 5.13013 88.007 5.12646 88.0012C5.12476 87.9978 5.12317 87.9953 5.12146 87.9924C5.11792 87.9861 5.11438 87.9797 5.11084 87.9738C5.10925 87.9709 5.10767 87.9685 5.1062 87.9655C5.10266 87.9592 5.09924 87.9533 5.0957 87.947C5.09399 87.9441 5.09241 87.9411 5.0907 87.9382C5.08728 87.9323 5.08398 87.9265 5.08057 87.9201C5.07886 87.9172 5.07715 87.9143 5.07544 87.9113C5.07214 87.9055 5.06885 87.8996 5.06555 87.8938C5.06372 87.8904 5.06213 87.8874 5.0603 87.884C5.05701 87.8781 5.05371 87.8723 5.05042 87.8664C5.04858 87.863 5.047 87.8601 5.04517 87.8571C5.04187 87.8513 5.0387 87.8454 5.03552 87.8396C5.03369 87.8362 5.03174 87.8327 5.02991 87.8293C5.02673 87.8235 5.02356 87.8176 5.02039 87.8117C5.01831 87.8078 5.01624 87.8044 5.01416 87.8005C5.01123 87.7951 5.00842 87.7898 5.00562 87.7849C5.0033 87.7805 5.00134 87.7771 4.99902 87.7727C4.99609 87.7673 4.99316 87.7619 4.99036 87.7566C4.98816 87.7527 4.98633 87.7492 4.98425 87.7453C4.98145 87.74 4.97852 87.7346 4.97571 87.7292C4.97363 87.7253 4.97131 87.7214 4.96924 87.7175C4.96631 87.7116 4.96338 87.7063 4.96045 87.7004C4.9585 87.697 4.95654 87.6936 4.95471 87.6897C4.95166 87.6843 4.94873 87.6784 4.94568 87.6731C4.94397 87.6696 4.94189 87.6657 4.94019 87.6623C4.93689 87.656 4.93359 87.6496 4.93042 87.6438C4.92896 87.6408 4.92725 87.6379 4.92578 87.635C4.92261 87.6286 4.91931 87.6223 4.91602 87.6159C4.91443 87.613 4.91321 87.6106 4.91162 87.6076C4.90833 87.6013 4.90503 87.5945 4.90173 87.5881C4.90027 87.5857 4.89893 87.5827 4.89746 87.5798C4.89417 87.5735 4.89075 87.5671 4.88745 87.5608C4.88611 87.5578 4.88477 87.5554 4.8833 87.5525C4.88 87.5456 4.87671 87.5393 4.87329 87.5329C4.87195 87.53 4.87073 87.5276 4.86926 87.5246C4.86597 87.5178 4.86255 87.5114 4.85925 87.5046C4.85791 87.5022 4.85669 87.4997 4.85547 87.4973C4.85205 87.4904 4.84863 87.4836 4.84521 87.4768C4.84412 87.4743 4.84265 87.4714 4.84155 87.4695C4.83801 87.4621 4.83447 87.4553 4.83105 87.4485C4.82996 87.446 4.82898 87.4441 4.82788 87.4421C4.82422 87.4343 4.82043 87.427 4.81677 87.4192C4.8158 87.4172 4.81482 87.4153 4.81384 87.4133C4.81006 87.4055 4.8064 87.3982 4.80273 87.3904C4.80151 87.3884 4.80066 87.3864 4.79956 87.384C4.7959 87.3762 4.79211 87.3684 4.78833 87.3611C4.78748 87.3591 4.78674 87.3576 4.78589 87.3557C4.7821 87.3479 4.77832 87.3401 4.77454 87.3322C4.7738 87.3308 4.77307 87.3293 4.77234 87.3279C4.76855 87.3195 4.76477 87.3117 4.76099 87.3039C4.76025 87.3025 4.75977 87.301 4.75916 87.3C4.75525 87.2917 4.75146 87.2834 4.74756 87.2756C4.74695 87.2741 4.74634 87.2727 4.74573 87.2712C4.74182 87.2634 4.73792 87.2551 4.73413 87.2468C4.73376 87.2458 4.73303 87.2444 4.73254 87.2434C4.72864 87.2351 4.72473 87.2268 4.72083 87.218C4.72046 87.2175 4.71985 87.216 4.71936 87.2151C4.71545 87.2063 4.71143 87.198 4.7074 87.1892C4.70715 87.1887 4.70679 87.1877 4.70654 87.1872C4.70239 87.1779 4.69836 87.1692 4.69421 87.1604C4.69397 87.1599 4.69373 87.1594 4.69348 87.1589C4.68933 87.1496 4.68518 87.1404 4.68103 87.1311C4.68115 87.1311 4.68091 87.1311 4.68103 87.1311C4.64209 87.0446 4.604 86.9572 4.5675 86.8703L5.49011 86.4846ZM3.7948 80.9724H4.7948V82.9978C4.7948 83.593 4.85278 84.1877 4.96704 84.7658L3.98608 84.9597C3.88818 84.4646 3.82666 83.9568 3.80432 83.4382C3.8042 83.4372 3.8042 83.4362 3.8042 83.4353C3.80396 83.4309 3.80383 83.4265 3.80359 83.4216C3.80359 83.4216 3.80359 83.4206 3.80347 83.4201C3.80334 83.4157 3.8031 83.4113 3.80298 83.407C3.80298 83.406 3.80286 83.405 3.80286 83.404C3.80273 83.3996 3.80249 83.3952 3.80237 83.3913C3.80237 83.3899 3.80225 83.3899 3.80225 83.3884C3.80212 83.3845 3.802 83.3806 3.80176 83.3767C3.80176 83.3752 3.80176 83.3737 3.80164 83.3723C3.80151 83.3684 3.80139 83.365 3.80127 83.3611C3.80115 83.3596 3.80115 83.3581 3.80103 83.3567C3.8009 83.3528 3.8009 83.3493 3.80078 83.3459C3.80066 83.344 3.80066 83.3425 3.80054 83.3405C3.80042 83.3371 3.80029 83.3332 3.80017 83.3298C3.80017 83.3283 3.80005 83.3264 3.80005 83.3249C3.79993 83.3215 3.7998 83.3181 3.79968 83.3147C3.79968 83.3127 3.79956 83.3108 3.79956 83.3088C3.79944 83.3054 3.79932 83.302 3.79919 83.2986C3.79919 83.2966 3.79907 83.2951 3.79907 83.2927C3.79895 83.2898 3.79883 83.2863 3.79883 83.2834C3.79871 83.2815 3.79871 83.279 3.79858 83.2766C3.79846 83.2737 3.79846 83.2702 3.79834 83.2673C3.79834 83.2654 3.79822 83.2634 3.79822 83.2614C3.7981 83.258 3.79797 83.2551 3.79797 83.2517C3.79785 83.2497 3.79785 83.2468 3.79773 83.2448C3.79773 83.2419 3.79761 83.239 3.79761 83.2361C3.79749 83.2336 3.79749 83.2312 3.79736 83.2287C3.79736 83.2263 3.79724 83.2234 3.79724 83.2204C3.79712 83.218 3.79712 83.2151 3.797 83.2126C3.797 83.2097 3.797 83.2072 3.79688 83.2043C3.79688 83.2019 3.79675 83.1999 3.79675 83.1975C3.79675 83.1945 3.79663 83.1916 3.79663 83.1887C3.79651 83.1858 3.79651 83.1833 3.79639 83.1804C3.79639 83.1779 3.79639 83.1755 3.79626 83.1731C3.79626 83.1701 3.79626 83.1672 3.79614 83.1638C3.79614 83.1618 3.79614 83.1594 3.79602 83.1574C3.79602 83.1545 3.7959 83.1506 3.7959 83.1477C3.7959 83.1457 3.7959 83.1433 3.79578 83.1413C3.79578 83.1384 3.79578 83.1355 3.79565 83.1325C3.79565 83.1301 3.79565 83.1277 3.79565 83.1252C3.79553 83.1228 3.79553 83.1194 3.79553 83.1164C3.79541 83.114 3.79541 83.1115 3.79541 83.1096C3.79541 83.1062 3.79541 83.1037 3.79529 83.1008C3.79529 83.0984 3.79529 83.0959 3.79529 83.0935C3.79517 83.0905 3.79517 83.0876 3.79517 83.0847C3.79517 83.0822 3.79517 83.0798 3.79517 83.0774C3.79504 83.0744 3.79504 83.0715 3.79504 83.0686C3.79504 83.0661 3.79504 83.0637 3.79504 83.0617C3.79504 83.0588 3.79492 83.0554 3.79492 83.0525C3.79492 83.05 3.79492 83.0476 3.79492 83.0456C3.79492 83.0432 3.79492 83.0403 3.79492 83.0378C3.79492 83.0349 3.79492 83.0324 3.7948 83.0295C3.7948 83.0276 3.7948 83.0256 3.7948 83.0237C3.7948 83.0202 3.7948 83.0168 3.7948 83.0134C3.7948 83.008 3.7948 83.0031 3.7948 82.9978V80.9724ZM3.7948 74.9724H4.7948V78.9724H3.7948V74.9724ZM3.7948 68.9724H4.7948V72.9724H3.7948V68.9724ZM3.7948 62.9724H4.7948V66.9724H3.7948V62.9724ZM3.7948 56.9724H4.7948V60.9724H3.7948V56.9724ZM3.7948 50.9724H4.7948V54.9724H3.7948V50.9724ZM3.7948 44.9724H4.7948V48.9724H3.7948V44.9724ZM3.7948 38.9724H4.7948V42.9724H3.7948V38.9724ZM3.7948 32.9724H4.7948V36.9724H3.7948V32.9724ZM3.7948 26.9724H4.7948V30.9724H3.7948V26.9724ZM3.7948 20.9724H4.7948V24.9724H3.7948V20.9724ZM3.7948 14.9724H4.7948V18.9724H3.7948V14.9724ZM4.2439 9.01731L5.19897 9.31321C4.93079 10.1784 4.7948 11.0818 4.7948 11.9978V12.9724H3.7948V11.9978C3.7948 11.9905 3.7948 11.9831 3.7948 11.9758C3.7948 11.9743 3.7948 11.9724 3.7948 11.9709C3.79492 11.9636 3.79492 11.9568 3.79492 11.9494C3.79492 11.9426 3.79504 11.9343 3.79504 11.9275C3.79504 11.9255 3.79504 11.924 3.79504 11.9221C3.79517 11.9148 3.79517 11.9079 3.79529 11.9006C3.79529 11.8938 3.79541 11.886 3.79553 11.8786C3.79553 11.8772 3.79553 11.8757 3.79553 11.8738C3.79565 11.8669 3.79578 11.8596 3.79578 11.8523C3.7959 11.8518 3.7959 11.8513 3.7959 11.8508C3.7959 11.844 3.79602 11.8376 3.79614 11.8308C3.79614 11.8288 3.79626 11.8269 3.79626 11.8249C3.79639 11.8176 3.79651 11.8108 3.79663 11.8039C3.79663 11.803 3.79663 11.803 3.79663 11.8025C3.79675 11.7956 3.79688 11.7888 3.79712 11.782C3.79712 11.7805 3.79712 11.7785 3.79724 11.7766C3.79736 11.7697 3.79749 11.7624 3.79773 11.7551C3.79785 11.7478 3.79797 11.7405 3.79822 11.7331C3.79822 11.7317 3.79834 11.7307 3.79834 11.7287C3.79858 11.7214 3.79871 11.7141 3.79895 11.7068C3.79919 11.6994 3.79932 11.6921 3.79956 11.6848C3.79968 11.6833 3.79968 11.6823 3.79968 11.6809C3.79993 11.6736 3.80017 11.6662 3.80042 11.6584C3.80066 11.6511 3.8009 11.6438 3.80115 11.6364C3.80127 11.635 3.80127 11.634 3.80127 11.6325C3.80188 11.6179 3.80237 11.6028 3.80298 11.5876C3.8031 11.5866 3.8031 11.5857 3.8031 11.5847C3.80371 11.5696 3.80444 11.5544 3.80505 11.5393C3.80505 11.5383 3.80518 11.5378 3.80518 11.5368C3.80591 11.5217 3.80664 11.5061 3.80737 11.4905C3.80737 11.4909 3.80737 11.49 3.80737 11.4905C3.80823 11.4748 3.80908 11.4577 3.80994 11.4421C3.80994 11.4426 3.80994 11.4416 3.80994 11.4421C3.85571 10.6023 4.00452 9.78928 4.2439 9.01731ZM7.58447 4.14084L8.20605 4.92405C7.25757 5.67697 6.48169 6.5969 5.90002 7.65891L5.02295 7.17893C5.12378 6.99485 5.2301 6.81418 5.3418 6.63791C5.38635 6.5676 5.43201 6.49729 5.47827 6.42746C5.47815 6.42795 5.47852 6.42746 5.47827 6.42746C5.48975 6.41037 5.50159 6.3928 5.51318 6.37571C5.51306 6.37571 5.51331 6.37571 5.51318 6.37571C5.5188 6.3674 5.52502 6.35813 5.53064 6.35031C5.53076 6.34983 5.53113 6.34934 5.53137 6.34885C5.53699 6.34104 5.54248 6.33274 5.5481 6.32444C5.54846 6.32395 5.54871 6.32346 5.54907 6.32297C5.55481 6.31467 5.56055 6.30637 5.56616 6.29807C5.56604 6.29856 5.56641 6.29807 5.56616 6.29807C5.57202 6.28977 5.57825 6.28098 5.58411 6.27219C5.60779 6.23801 5.63208 6.20383 5.65613 6.17014C5.65601 6.17014 5.65637 6.16965 5.65613 6.17014C5.66199 6.16184 5.66846 6.15305 5.67432 6.14475C5.67456 6.14475 5.67468 6.14426 5.67493 6.14377C5.68066 6.13596 5.68652 6.12766 5.69238 6.11985C5.69275 6.11936 5.69312 6.11887 5.69348 6.11838C5.69922 6.11008 5.70508 6.10227 5.71082 6.09446C5.71106 6.09397 5.71143 6.09348 5.71167 6.09299C5.71741 6.08518 5.72327 6.07737 5.72913 6.06906C5.72949 6.06858 5.72986 6.06809 5.73022 6.0676C5.73608 6.05979 5.74182 6.05197 5.74768 6.04416C5.74805 6.04367 5.74817 6.04319 5.74854 6.0427C5.75452 6.03488 5.7605 6.02658 5.76648 6.01877C5.76672 6.01828 5.76685 6.01828 5.76697 6.0178C5.77307 6.00949 5.77917 6.00168 5.78528 5.99338C5.81018 5.96018 5.83557 5.92649 5.86084 5.89377C5.8606 5.89377 5.86108 5.89328 5.86084 5.89377C5.86694 5.88547 5.87366 5.87717 5.87976 5.86887C5.88 5.86887 5.88025 5.86838 5.88037 5.86789C5.88647 5.86008 5.8927 5.85227 5.8988 5.84446C5.89905 5.84397 5.89941 5.84348 5.89966 5.84348C5.90576 5.83567 5.91174 5.82785 5.91785 5.82004C5.91821 5.81955 5.91858 5.81906 5.91895 5.81858C5.92493 5.81076 5.93103 5.80295 5.93701 5.79563C5.93738 5.79514 5.93787 5.79465 5.93823 5.79416C5.94421 5.78635 5.95007 5.77903 5.95605 5.77121C5.95654 5.77072 5.95728 5.76975 5.95789 5.76926C5.96375 5.76194 5.96973 5.75412 5.97559 5.7468C5.97607 5.74631 5.97644 5.74582 5.97705 5.74485C5.98303 5.73752 5.98901 5.7302 5.995 5.72238C5.99561 5.7219 5.99597 5.72141 5.99658 5.72043C6.00269 5.71311 6.00879 5.7053 6.01501 5.69748C6.01538 5.69699 6.01538 5.69699 6.01575 5.69651C6.04175 5.66428 6.06799 5.63254 6.09448 5.60031C6.10095 5.5925 6.10754 5.58469 6.11401 5.57688C6.11438 5.57639 6.11487 5.5759 6.11523 5.57541C6.12146 5.56809 6.12769 5.56076 6.13391 5.55295C6.13452 5.55246 6.13477 5.55197 6.13538 5.55149C6.14136 5.54416 6.14734 5.53733 6.15332 5.53C6.15417 5.52903 6.15515 5.52805 6.15601 5.52707C6.16187 5.51975 6.16785 5.51291 6.17371 5.50608C6.17432 5.5051 6.17517 5.50412 6.17578 5.50363C6.18176 5.49631 6.18774 5.48947 6.19373 5.48264C6.19434 5.48166 6.19543 5.4802 6.19604 5.47971C6.20215 5.47238 6.20837 5.46555 6.21436 5.45822C6.21497 5.45774 6.21533 5.45725 6.21594 5.45676C6.22217 5.44944 6.22827 5.44211 6.2345 5.43479C6.23511 5.4343 6.23584 5.43332 6.23645 5.43283C6.2428 5.42551 6.24915 5.41819 6.25549 5.41086C6.25574 5.41037 6.25623 5.40988 6.25647 5.40988C6.26294 5.40207 6.26953 5.39475 6.27612 5.38742C6.27637 5.38694 6.27673 5.38645 6.27686 5.38645C6.29041 5.37082 6.30383 5.35569 6.31738 5.34055C6.31799 5.33957 6.31848 5.33908 6.31921 5.3386C6.32544 5.33127 6.33179 5.32444 6.33813 5.31711C6.33875 5.31662 6.33923 5.31613 6.33984 5.31516C6.34607 5.30832 6.35242 5.301 6.35864 5.29416C6.3595 5.29319 6.35999 5.2927 6.36072 5.29172C6.36707 5.28488 6.37329 5.27805 6.37952 5.27121C6.38025 5.27024 6.38098 5.26926 6.38159 5.26877C6.3877 5.26194 6.3938 5.2551 6.40002 5.24826C6.401 5.24729 6.40186 5.24631 6.40283 5.24533C6.40894 5.2385 6.41492 5.23215 6.4209 5.22531C6.422 5.22434 6.42273 5.22336 6.42383 5.22238C6.42981 5.21604 6.43579 5.2092 6.44177 5.20285C6.44287 5.20139 6.44373 5.20041 6.44482 5.19944C6.45081 5.19309 6.45691 5.18625 6.46289 5.1799C6.46375 5.17893 6.46509 5.17746 6.46594 5.17649C6.47168 5.17063 6.47754 5.16428 6.4834 5.15793C6.48474 5.15647 6.48608 5.155 6.4873 5.15354C6.49329 5.14719 6.49915 5.14084 6.50513 5.13449C6.50623 5.13352 6.50708 5.13254 6.50818 5.13156C6.51428 5.12473 6.52039 5.11838 6.52649 5.11203C6.52783 5.11057 6.52881 5.10959 6.53015 5.10813C6.53625 5.10178 6.54224 5.09543 6.54834 5.08908C6.54956 5.08762 6.55103 5.08615 6.55237 5.08469C6.55823 5.07834 6.56396 5.07248 6.56982 5.06613C6.57129 5.06467 6.573 5.06321 6.57446 5.06125C6.58008 5.05539 6.58569 5.04953 6.59143 5.04367C6.5929 5.04221 6.5946 5.04026 6.59619 5.03879C6.60168 5.03342 6.60706 5.02756 6.61255 5.0217C6.6145 5.01975 6.61597 5.01828 6.61792 5.01633C6.62329 5.01096 6.62854 5.00559 6.63391 4.99973C6.63586 4.99778 6.63757 4.99631 6.63953 4.99387C6.64478 4.9885 6.65002 4.98362 6.65527 4.97824C6.65723 4.97629 6.65942 4.97385 6.66138 4.9719C6.6665 4.96653 6.67175 4.96115 6.67688 4.95578C6.67883 4.95383 6.68091 4.95188 6.68298 4.94992C6.68823 4.94455 6.69336 4.93918 6.69861 4.9343C6.70056 4.93186 6.70264 4.9299 6.70459 4.92795C6.70972 4.92307 6.71497 4.9177 6.72021 4.91233C6.72217 4.91037 6.72461 4.90793 6.72656 4.90598C6.73157 4.9011 6.73657 4.89572 6.74158 4.89084C6.74438 4.88791 6.74707 4.88547 6.74988 4.88254C6.75439 4.87815 6.75891 4.87375 6.76343 4.86936C6.76672 4.86594 6.76978 4.86301 6.77307 4.85959C6.7771 4.85569 6.78113 4.85178 6.78503 4.84787C6.7887 4.84446 6.79272 4.84055 6.79626 4.83713C6.79968 4.83371 6.8031 4.8303 6.80652 4.82688C6.81079 4.82297 6.81494 4.81858 6.81921 4.81467C6.82202 4.81174 6.82495 4.80881 6.82788 4.80588C6.83252 4.80149 6.83728 4.79709 6.84192 4.79221C6.84436 4.79026 6.8468 4.78781 6.84924 4.78537C6.85413 4.78049 6.85901 4.77561 6.86401 4.77121C6.8667 4.76828 6.86938 4.76584 6.87219 4.7634C6.87683 4.75852 6.88171 4.75412 6.88647 4.74973C6.88867 4.74729 6.89099 4.74533 6.89319 4.74289C6.89832 4.73801 6.90344 4.73313 6.90869 4.72824C6.90979 4.72727 6.91077 4.72629 6.91187 4.72531C6.92883 4.7092 6.94519 4.69358 6.96228 4.67795C6.96265 4.67746 6.96301 4.67697 6.96338 4.67697C6.97046 4.67014 6.97754 4.6633 6.9845 4.65696C6.98425 4.65696 6.98474 4.65696 6.9845 4.65696C7.00635 4.63645 7.02893 4.61594 7.0509 4.59543C7.22327 4.43821 7.40137 4.28635 7.58447 4.14084ZM13.0975 2.01731L13.1609 3.01535C11.9529 3.09201 10.7943 3.40842 9.71753 3.95481L9.26514 3.06272C9.74817 2.8176 10.2538 2.61106 10.7781 2.44699C10.778 2.44699 10.7782 2.44699 10.7781 2.44699C10.8505 2.42405 10.9232 2.40256 10.9963 2.38156C10.9995 2.37912 11.0024 2.37961 11.006 2.37863C11.0101 2.37766 11.0151 2.37571 11.0194 2.37473C11.0244 2.37424 11.0299 2.37326 11.0347 2.37033C11.0399 2.36936 11.0453 2.36789 11.05 2.36594C11.0546 2.36496 11.0593 2.3635 11.0637 2.36252C11.0685 2.36106 11.0734 2.35959 11.0787 2.35813C11.084 2.35666 11.0892 2.3552 11.0941 2.35373C11.099 2.35276 11.1035 2.35178 11.1088 2.34983C11.113 2.34836 11.1178 2.3469 11.1219 2.34641C11.1268 2.34494 11.1312 2.3425 11.1365 2.3425C11.1414 2.34104 11.1465 2.34201 11.1514 2.33811C11.1562 2.33664 11.1614 2.33371 11.1666 2.3342C11.1711 2.33274 11.1757 2.33225 11.1802 2.3303C11.1848 2.32932 11.1893 2.32785 11.194 2.32688C11.1989 2.32541 11.204 2.32395 11.2089 2.32297C11.2122 2.32395 11.2185 2.32004 11.2239 2.31906C11.2242 2.31906 11.2246 2.31858 11.225 2.31858C11.8287 2.16086 12.4548 2.05832 13.0975 2.01731Z" fill="#CDD7DF"/>
</g>
<g filter="url(#filter1_d_1_3072)">
<path d="M34.728 22H522.728C525.372 22.0082 527.905 23.0666 529.768 24.9419C531.632 26.8172 532.675 29.356 532.667 32V103C532.675 105.644 531.632 108.183 529.768 110.058C527.905 111.933 525.372 112.992 522.728 113H34.728C32.084 112.992 29.5514 111.933 27.6875 110.058C25.8236 108.183 24.781 105.644 24.789 103V32C24.781 29.356 25.8236 26.8172 27.6875 24.9419C29.5514 23.0666 32.084 22.0082 34.728 22Z" fill="url(#paint0_linear_1_3072)"/>
</g>
<path d="M278.23 56H105.27C103.889 56 102.77 57.1193 102.77 58.5C102.77 59.8807 103.889 61 105.27 61H278.23C279.611 61 280.73 59.8807 280.73 58.5C280.73 57.1193 279.611 56 278.23 56Z" fill="white"/>
<path d="M105.842 75H232.665C233.248 75.1098 233.774 75.4195 234.152 75.876C234.531 76.3324 234.738 76.907 234.738 77.5C234.738 78.093 234.531 78.6676 234.152 79.124C233.774 79.5805 233.248 79.8902 232.665 80H105.842C105.259 79.8902 104.733 79.5805 104.355 79.124C103.976 78.6676 103.769 78.093 103.769 77.5C103.769 76.907 103.976 76.3324 104.355 75.876C104.733 75.4195 105.259 75.1098 105.842 75Z" fill="white"/>
<path d="M502.67 58H432.69C429.929 58 427.69 60.2386 427.69 63V72C427.69 74.7614 429.929 77 432.69 77H502.67C505.431 77 507.67 74.7614 507.67 72V63C507.67 60.2386 505.431 58 502.67 58Z" fill="#9CC4EF"/>
<path d="M43.877 48.3618C43.7681 48.2447 43.6356 48.1519 43.4884 48.0895C43.3411 48.0271 43.1823 47.9965 43.0224 47.9997C42.8625 48.003 42.705 48.0399 42.5604 48.1081C42.4157 48.1764 42.2871 48.2744 42.183 48.3958L40.927 49.8168C40.8438 49.9096 40.7898 50.0249 40.7721 50.1482C40.7543 50.2715 40.7734 50.3974 40.827 50.5098C40.9397 50.7312 40.9842 50.981 40.955 51.2277C40.9258 51.4744 40.8242 51.7069 40.663 51.8958L39.516 53.1958C39.4116 53.3167 39.2825 53.4137 39.1374 53.4805C38.9924 53.5472 38.8347 53.5821 38.675 53.5828C38.5162 53.5831 38.3593 53.549 38.215 53.4828C38.1065 53.4341 37.9851 53.422 37.8691 53.4483C37.7531 53.4746 37.6488 53.538 37.572 53.6288L36.314 55.0598C36.1064 55.2996 35.9947 55.6077 36.0005 55.9248C36.0062 56.2419 36.1289 56.5457 36.345 56.7778L51.003 72.2078L58.766 64.0358L43.877 48.3618Z" fill="#CE795F"/>
<path d="M43.877 48.3618C43.768 48.2447 43.6356 48.1519 43.4883 48.0895C43.3411 48.0271 43.1823 47.9965 43.0224 47.9997C42.8625 48.003 42.705 48.0399 42.5604 48.1081C42.4157 48.1764 42.2871 48.2744 42.183 48.3958L41.453 49.2248L44.169 52.0838L38.027 58.5488L40.598 61.2548L48.361 53.0828L43.877 48.3618Z" fill="#A05A4B"/>
<path d="M73.656 79.7079L58.767 64.0349L51.004 72.2069L65.662 87.6369C65.7656 87.7484 65.8906 87.838 66.0295 87.9002C66.1685 87.9624 66.3185 87.996 66.4707 87.999C66.6229 88.002 66.7742 87.9743 66.9154 87.9175C67.0567 87.8608 67.1851 87.7763 67.293 87.6688L73.627 81.4958C73.8633 81.2601 73.9985 80.9415 74.0039 80.6077C74.0093 80.2739 73.8845 79.9512 73.656 79.7079Z" fill="#B66652"/>
<path d="M58.767 64.0349L57.145 65.7419L71.213 80.5518L64.839 86.7719L65.661 87.6379C65.7646 87.7494 65.8896 87.839 66.0285 87.9012C66.1675 87.9634 66.3175 87.997 66.4697 88C66.6219 88.003 66.7731 87.9753 66.9144 87.9185C67.0557 87.8618 67.1841 87.7773 67.292 87.6698L73.627 81.4958C73.8625 81.2606 73.9975 80.9431 74.0035 80.6103C74.0095 80.2775 73.8859 79.9554 73.659 79.7119L58.767 64.0349Z" fill="#81493B"/>
<path d="M64.056 55.0528L63.387 55.7688L65.949 59.8888L67.299 58.4678C67.7309 58.0042 67.9711 57.394 67.9711 56.7603C67.9711 56.1266 67.7309 55.5165 67.299 55.0528C67.0918 54.8299 66.8409 54.6522 66.5619 54.5306C66.2829 54.4091 65.9818 54.3463 65.6775 54.3463C65.3732 54.3463 65.0721 54.4091 64.7931 54.5306C64.5141 54.6522 64.2632 54.8299 64.056 55.0528Z" fill="#FFB545"/>
<path d="M55 52.9088C53.9327 52.9085 52.8691 53.0333 51.831 53.2808L50.675 52.0648C50.4678 51.8418 50.2168 51.6639 49.9377 51.5422C49.6586 51.4206 49.3574 51.3578 49.053 51.3578C48.7485 51.3578 48.4474 51.4206 48.1683 51.5422C47.8892 51.6639 47.6382 51.8418 47.431 52.0648L39.862 60.0318C39.43 60.4955 39.1899 61.1056 39.1899 61.7393C39.1899 62.373 39.43 62.9832 39.862 63.4468L41.018 64.6638C40.7826 65.7589 40.6639 66.8758 40.664 67.9958C40.664 76.3168 47.095 83.0868 55 83.0868C62.905 83.0868 69.336 76.3208 69.336 67.9958C69.336 59.6708 62.905 52.9088 55 52.9088Z" fill="#FFB545"/>
<path d="M70.138 72.5518L68.984 71.3378C69.2204 70.2396 69.3394 69.1193 69.339 67.9958C69.3539 65.6373 68.8248 63.3071 67.7927 61.1863C66.7605 59.0655 65.2533 57.2113 63.388 55.7678C63.0149 56.2377 62.8226 56.8258 62.8459 57.4254C62.8692 58.0249 63.1065 58.5963 63.515 59.0358C65.7785 61.4718 67.0366 64.674 67.0366 67.9993C67.0366 71.3246 65.7785 74.5268 63.515 76.9628C62.4263 78.1322 61.1083 79.0649 59.6434 79.7026C58.1784 80.3402 56.5977 80.6694 55 80.6694C53.4022 80.6694 51.8216 80.3402 50.3566 79.7026C48.8916 79.0649 47.5737 78.1322 46.485 76.9628C46.0896 76.5376 45.5427 76.285 44.9627 76.2598C44.3826 76.2345 43.8158 76.4386 43.385 76.8278C44.6651 78.7391 46.3928 80.3087 48.4178 81.4C50.4427 82.4914 52.7037 83.0715 55.004 83.0898C56.0733 83.09 57.139 82.9645 58.179 82.7158L59.327 83.9348C59.5342 84.1579 59.7852 84.3358 60.0643 84.4574C60.3434 84.5791 60.6445 84.6419 60.949 84.6419C61.2534 84.6419 61.5546 84.5791 61.8337 84.4574C62.1128 84.3358 62.3638 84.1579 62.571 83.9348L70.14 75.9678C70.5719 75.5038 70.8119 74.8934 70.8116 74.2594C70.8112 73.6255 70.5705 73.0153 70.138 72.5518Z" fill="#FF6344"/>
<path d="M55 78.8648C52.1914 78.7878 49.5278 77.6006 47.593 75.5633C45.6582 73.5259 44.61 70.8047 44.678 67.9958C44.6121 65.1884 45.6613 62.4692 47.5959 60.4336C49.5305 58.398 52.1928 57.2118 55 57.1348C57.808 57.2105 60.4716 58.3961 62.4073 60.4318C64.3429 62.4676 65.3928 65.1875 65.327 67.9958C65.395 70.8055 64.346 73.5275 62.4102 75.565C60.4743 77.6025 57.8095 78.7891 55 78.8648Z" fill="#FFF9EB"/>
<path d="M60.505 58.8128C60.1528 59.2835 59.9771 59.863 60.0086 60.45C60.04 61.037 60.2766 61.5944 60.677 62.0248C62.1852 63.6491 63.0234 65.7837 63.0234 68.0003C63.0234 70.2169 62.1852 72.3515 60.677 73.9758C59.9512 74.7555 59.0725 75.3774 58.0958 75.8026C57.1191 76.2277 56.0653 76.4472 55 76.4472C53.9347 76.4472 52.8809 76.2277 51.9042 75.8026C50.9275 75.3774 50.0488 74.7555 49.323 73.9758C48.9357 73.5584 48.4022 73.3066 47.8338 73.2729C47.2654 73.2391 46.7059 73.4261 46.272 73.7948C47.1632 75.3235 48.436 76.5945 49.966 77.4835C51.496 78.3724 53.2306 78.8487 55 78.8658C57.8097 78.7901 60.4746 77.6033 62.4106 75.5656C64.3465 73.5279 65.3953 70.8057 65.327 67.9958C65.3397 66.1868 64.9064 64.4025 64.0653 62.8008C63.2243 61.1991 62.0014 59.8294 60.505 58.8128Z" fill="#D3CDBF"/>
<path d="M47.097 66.3958L48.646 66.8328C48.6945 66.8467 48.7446 66.8537 48.795 66.8538C48.9239 66.8514 49.0483 66.806 49.1485 66.7248C49.2486 66.6437 49.3189 66.5314 49.348 66.4058C49.3611 66.3548 49.3678 66.3024 49.368 66.2498C49.37 66.1197 49.3296 65.9925 49.2529 65.8873C49.1763 65.7821 49.0675 65.7048 48.943 65.6668L47.394 65.2298C47.32 65.2107 47.2428 65.2066 47.1672 65.2178C47.0915 65.229 47.0189 65.2553 46.9536 65.2951C46.8883 65.335 46.8317 65.3875 46.7871 65.4496C46.7425 65.5118 46.7108 65.5822 46.694 65.6568C46.6809 65.7078 46.6742 65.7602 46.674 65.8128C46.6719 65.9427 46.712 66.0697 46.7883 66.1748C46.8646 66.28 46.9729 66.3575 47.097 66.3958Z" fill="#808DAF"/>
<path d="M46.692 70.3428C46.7211 70.4684 46.7914 70.5807 46.8915 70.6618C46.9917 70.743 47.1161 70.7884 47.245 70.7908C47.2954 70.7907 47.3455 70.7837 47.394 70.7698L48.943 70.3328C49.0675 70.2949 49.1762 70.2175 49.2529 70.1123C49.3296 70.0072 49.37 69.8799 49.368 69.7498C49.3678 69.6972 49.3611 69.6448 49.348 69.5938C49.3311 69.5192 49.2995 69.4488 49.2549 69.3866C49.2103 69.3245 49.1537 69.272 49.0884 69.2322C49.0231 69.1923 48.9505 69.166 48.8748 69.1548C48.7992 69.1436 48.722 69.1477 48.648 69.1668L47.099 69.6038C46.9745 69.6418 46.8657 69.7192 46.7891 69.8243C46.7124 69.9295 46.672 70.0567 46.674 70.1868C46.6736 70.2394 46.6796 70.2918 46.692 70.3428Z" fill="#808DAF"/>
<path d="M49.327 74.5789C49.4032 74.5786 49.4785 74.5628 49.5483 74.5324C49.6181 74.5019 49.681 74.4575 49.733 74.4019L50.868 73.2019C50.9761 73.086 51.0362 72.9334 51.0362 72.7749C51.0362 72.6164 50.9761 72.4638 50.868 72.3479C50.8161 72.2922 50.7534 72.2477 50.6836 72.2174C50.6139 72.187 50.5386 72.1713 50.4625 72.1713C50.3864 72.1713 50.3111 72.187 50.2414 72.2174C50.1716 72.2477 50.1088 72.2922 50.057 72.3479L48.922 73.5479C48.8139 73.6638 48.7538 73.8164 48.7538 73.9749C48.7538 74.1334 48.8139 74.286 48.922 74.4019C48.9738 74.4574 49.0365 74.5018 49.1062 74.5322C49.1758 74.5627 49.251 74.5785 49.327 74.5789Z" fill="#808DAF"/>
<path d="M50.865 62.7958L49.727 61.5958C49.6751 61.5401 49.6124 61.4957 49.5426 61.4654C49.4728 61.435 49.3976 61.4193 49.3215 61.4193C49.2454 61.4193 49.1701 61.435 49.1004 61.4654C49.0306 61.4957 48.9678 61.5401 48.916 61.5958C48.8079 61.7117 48.7477 61.8643 48.7477 62.0228C48.7477 62.1813 48.8079 62.3339 48.916 62.4498L50.051 63.6498C50.1027 63.7057 50.1655 63.7502 50.2353 63.7807C50.305 63.8111 50.3803 63.8268 50.4565 63.8268C50.5326 63.8268 50.6079 63.8111 50.6777 63.7807C50.7475 63.7502 50.8102 63.7057 50.862 63.6498C50.9705 63.5343 51.0312 63.3819 51.0317 63.2234C51.0323 63.0649 50.9727 62.9121 50.865 62.7958Z" fill="#808DAF"/>
<path d="M60.272 61.5958L59.137 62.7958C59.0289 62.9117 58.9688 63.0643 58.9688 63.2228C58.9688 63.3813 59.0289 63.5339 59.137 63.6498C59.1888 63.7055 59.2516 63.7499 59.3214 63.7803C59.3911 63.8107 59.4664 63.8264 59.5425 63.8264C59.6186 63.8264 59.6939 63.8107 59.7636 63.7803C59.8334 63.7499 59.8961 63.7055 59.948 63.6498L61.083 62.4498C61.1911 62.3339 61.2512 62.1813 61.2512 62.0228C61.2512 61.8643 61.1911 61.7117 61.083 61.5958C61.0311 61.5401 60.9684 61.4957 60.8986 61.4654C60.8288 61.435 60.7536 61.4193 60.6775 61.4193C60.6014 61.4193 60.5261 61.435 60.4564 61.4654C60.3866 61.4957 60.3238 61.5401 60.272 61.5958Z" fill="#808DAF"/>
<path d="M56.527 59.6809L56.112 61.3109C56.0989 61.3618 56.0922 61.4142 56.092 61.4669C56.09 61.597 56.1304 61.7242 56.2071 61.8294C56.2837 61.9345 56.3925 62.0119 56.517 62.0499C56.5654 62.0637 56.6156 62.0708 56.666 62.0709C56.7949 62.0684 56.9193 62.023 57.0194 61.9419C57.1196 61.8607 57.1898 61.7484 57.219 61.6229L57.634 59.9929C57.6471 59.9419 57.6538 59.8895 57.654 59.8369C57.6613 59.6941 57.6148 59.5539 57.5237 59.4437C57.4327 59.3336 57.3036 59.2616 57.162 59.242C57.0205 59.2224 56.8767 59.2566 56.7591 59.3379C56.6415 59.4191 56.5587 59.5415 56.527 59.6809Z" fill="#808DAF"/>
<path d="M53.337 62.0708C53.3874 62.0707 53.4375 62.0637 53.486 62.0498C53.6105 62.0119 53.7193 61.9345 53.7959 61.8293C53.8726 61.7242 53.913 61.5969 53.911 61.4668C53.9108 61.4142 53.9041 61.3618 53.891 61.3108L53.476 59.6808C53.4575 59.6058 53.4241 59.5353 53.3777 59.4735C53.3314 59.4116 53.2731 59.3598 53.2064 59.3209C53.1396 59.2821 53.0657 59.2571 52.989 59.2474C52.9124 59.2377 52.8345 59.2435 52.7602 59.2646C52.6859 59.2856 52.6165 59.3213 52.5562 59.3697C52.496 59.418 52.4461 59.478 52.4095 59.546C52.3729 59.6141 52.3504 59.6888 52.3432 59.7657C52.3361 59.8426 52.3445 59.9202 52.368 59.9938L52.783 61.6238C52.8124 61.7494 52.8828 61.8615 52.9832 61.9425C53.0836 62.0235 53.2081 62.0686 53.337 62.0708Z" fill="#808DAF"/>
<path d="M59.947 72.3529C59.8951 72.2972 59.8324 72.2527 59.7626 72.2224C59.6928 72.192 59.6176 72.1763 59.5415 72.1763C59.4654 72.1763 59.3901 72.192 59.3204 72.2224C59.2506 72.2527 59.1878 72.2972 59.136 72.3529C59.0279 72.4688 58.9677 72.6214 58.9677 72.7799C58.9677 72.9384 59.0279 73.091 59.136 73.2069L60.271 74.4069C60.3228 74.4626 60.3856 74.507 60.4554 74.5373C60.5251 74.5677 60.6004 74.5834 60.6765 74.5834C60.7526 74.5834 60.8278 74.5677 60.8976 74.5373C60.9674 74.507 61.0301 74.4626 61.082 74.4069C61.1901 74.291 61.2502 74.1384 61.2502 73.9799C61.2502 73.8214 61.1901 73.6688 61.082 73.5529L59.947 72.3529Z" fill="#808DAF"/>
<path d="M62.755 70.7908C62.8839 70.7884 63.0083 70.743 63.1084 70.6618C63.2086 70.5807 63.2788 70.4684 63.308 70.3428C63.3211 70.2919 63.3278 70.2395 63.328 70.1868C63.3299 70.0567 63.2896 69.9295 63.2129 69.8243C63.1362 69.7192 63.0275 69.6418 62.903 69.6038L61.354 69.1668C61.2799 69.1477 61.2028 69.1436 61.1272 69.1548C61.0515 69.166 60.9789 69.1923 60.9136 69.2322C60.8483 69.272 60.7917 69.3245 60.7471 69.3866C60.7025 69.4488 60.6708 69.5192 60.654 69.5938C60.6409 69.6448 60.6342 69.6972 60.634 69.7498C60.632 69.8799 60.6724 70.0072 60.7491 70.1123C60.8257 70.2175 60.9345 70.2949 61.059 70.3328L62.608 70.7698C62.6558 70.7835 62.7053 70.7906 62.755 70.7908Z" fill="#808DAF"/>
<path d="M61.206 66.8528C61.2564 66.8527 61.3065 66.8457 61.355 66.8318L62.903 66.3958C63.0529 66.3488 63.1788 66.2456 63.2543 66.1079C63.3298 65.9701 63.349 65.8085 63.308 65.6568C63.2911 65.5822 63.2595 65.5118 63.2149 65.4496C63.1703 65.3875 63.1137 65.335 63.0484 65.2951C62.9831 65.2553 62.9105 65.229 62.8348 65.2178C62.7592 65.2066 62.682 65.2107 62.608 65.2298L61.059 65.6668C60.9249 65.7109 60.8104 65.8001 60.7348 65.9193C60.6593 66.0385 60.6275 66.1802 60.6448 66.3203C60.6622 66.4603 60.7276 66.59 60.83 66.6871C60.9323 66.7842 61.0652 66.8428 61.206 66.8528Z" fill="#808DAF"/>
<path d="M53.486 73.9488C53.412 73.9296 53.3348 73.9256 53.2592 73.9368C53.1835 73.948 53.1109 73.9743 53.0456 74.0141C52.9803 74.054 52.9237 74.1065 52.8791 74.1686C52.8345 74.2308 52.8028 74.3012 52.786 74.3758L52.371 76.0058C52.3579 76.0568 52.3512 76.1092 52.351 76.1618C52.349 76.2919 52.3894 76.4192 52.4661 76.5243C52.5427 76.6295 52.6515 76.7069 52.776 76.7448C52.8244 76.7587 52.8746 76.7657 52.925 76.7658C53.0539 76.7634 53.1783 76.718 53.2784 76.6368C53.3786 76.5557 53.4488 76.4434 53.478 76.3178L53.893 74.6878C53.9061 74.6368 53.9128 74.5844 53.913 74.5318C53.9148 74.4014 53.8741 74.274 53.7971 74.1688C53.7201 74.0636 53.6108 73.9864 53.486 73.9488Z" fill="#808DAF"/>
<path d="M56.527 76.3188C56.5561 76.4444 56.6264 76.5567 56.7265 76.6378C56.8267 76.719 56.9511 76.7644 57.08 76.7668C57.1304 76.7668 57.1805 76.7597 57.229 76.7458C57.3535 76.7079 57.4623 76.6305 57.5389 76.5254C57.6156 76.4202 57.656 76.293 57.654 76.1628C57.6538 76.1102 57.6471 76.0578 57.634 76.0068L57.219 74.3768C57.2022 74.3022 57.1705 74.2318 57.1259 74.1697C57.0813 74.1075 57.0247 74.055 56.9594 74.0152C56.8941 73.9753 56.8215 73.949 56.7458 73.9378C56.6702 73.9266 56.593 73.9307 56.519 73.9498C56.3945 73.9878 56.2857 74.0652 56.2091 74.1703C56.1324 74.2755 56.092 74.4027 56.094 74.5328C56.0942 74.5855 56.1009 74.6379 56.114 74.6888L56.527 76.3188Z" fill="#808DAF"/>
<path d="M55.811 68.8528C55.9549 68.6995 56.0578 68.5124 56.1102 68.3087C56.1627 68.1051 56.1629 67.8916 56.111 67.6878L57.248 66.4878C57.3561 66.3719 57.4162 66.2193 57.4162 66.0608C57.4162 65.9023 57.3561 65.7497 57.248 65.6338C57.1961 65.5781 57.1334 65.5337 57.0636 65.5033C56.9939 65.4729 56.9186 65.4573 56.8425 65.4573C56.7664 65.4573 56.6911 65.4729 56.6214 65.5033C56.5516 65.5337 56.4888 65.5781 56.437 65.6338L55.3 66.8338C55.1067 66.7799 54.9023 66.7799 54.709 66.8338L52.487 64.4958C52.4351 64.4401 52.3724 64.3957 52.3026 64.3653C52.2329 64.3349 52.1576 64.3193 52.0815 64.3193C52.0054 64.3193 51.9301 64.3349 51.8604 64.3653C51.7906 64.3957 51.7278 64.4401 51.676 64.4958C51.5679 64.6117 51.5078 64.7643 51.5078 64.9228C51.5078 65.0813 51.5679 65.2339 51.676 65.3498L53.894 67.6848C53.8421 67.8886 53.8423 68.1021 53.8948 68.3057C53.9472 68.5094 54.0501 68.6965 54.194 68.8498C54.2974 68.9606 54.4225 69.049 54.5614 69.1095C54.7004 69.17 54.8503 69.2014 55.0018 69.2017C55.1534 69.202 55.3034 69.1711 55.4426 69.1111C55.5818 69.0511 55.7071 68.9632 55.811 68.8528Z" fill="#808DAF"/>
<defs>
<filter id="filter0_d_1_3072" x="0.7948" y="-0.00292969" width="513.873" height="97.0006" filterUnits="userSpaceOnUse" color-interpolation-filters="sRGB">
<feFlood flood-opacity="0" result="BackgroundImageFix"/>
<feColorMatrix in="SourceAlpha" type="matrix" values="0 0 0 0 0 0 0 0 0 0 0 0 0 0 0 0 0 0 127 0" result="hardAlpha"/>
<feOffset dy="1"/>
<feGaussianBlur stdDeviation="1.5"/>
<feColorMatrix type="matrix" values="0 0 0 0 0 0 0 0 0 0 0 0 0 0 0 0 0 0 0.071 0"/>
<feBlend mode="normal" in2="BackgroundImageFix" result="effect1_dropShadow_1_3072"/>
<feBlend mode="normal" in="SourceGraphic" in2="effect1_dropShadow_1_3072" result="shape"/>
</filter>
<filter id="filter1_d_1_3072" x="0.78894" y="10" width="555.878" height="139" filterUnits="userSpaceOnUse" color-interpolation-filters="sRGB">
<feFlood flood-opacity="0" result="BackgroundImageFix"/>
<feColorMatrix in="SourceAlpha" type="matrix" values="0 0 0 0 0 0 0 0 0 0 0 0 0 0 0 0 0 0 127 0" result="hardAlpha"/>
<feOffset dy="12"/>
<feGaussianBlur stdDeviation="12"/>
<feColorMatrix type="matrix" values="0 0 0 0 0.537255 0 0 0 0 0.537255 0 0 0 0 0.537255 0 0 0 0.09 0"/>
<feBlend mode="normal" in2="BackgroundImageFix" result="effect1_dropShadow_1_3072"/>
<feBlend mode="normal" in="SourceGraphic" in2="effect1_dropShadow_1_3072" result="shape"/>
</filter>
<linearGradient id="paint0_linear_1_3072" x1="278.728" y1="113" x2="278.728" y2="22" gradientUnits="userSpaceOnUse">
<stop stop-color="#D5E8FD"/>
<stop offset="1" stop-color="#D5E8FD"/>
</linearGradient>
</defs>
</svg>
