<svg width="494" height="91" viewBox="0 0 494 91" fill="none" xmlns="http://www.w3.org/2000/svg">
<g filter="url(#filter0_d_1_1352)">
<path d="M147 2H8C5.23858 2 3 4.23858 3 7V82C3 84.7614 5.23858 87 8 87H147C149.761 87 152 84.7614 152 82V7C152 4.23858 149.761 2 147 2Z" fill="url(#paint0_linear_1_1352)"/>
</g>
<path d="M142.5 19H73.5C72.1193 19 71 20.1193 71 21.5C71 22.8807 72.1193 24 73.5 24H142.5C143.881 24 145 22.8807 145 21.5C145 20.1193 143.881 19 142.5 19Z" fill="white"/>
<path d="M116.5 33H73.5C72.1193 33 71 34.1193 71 35.5C71 36.8807 72.1193 38 73.5 38H116.5C117.881 38 119 36.8807 119 35.5C119 34.1193 117.881 33 116.5 33Z" fill="white"/>
<path d="M116.5 58H73.5C72.1193 58 71 59.1193 71 60.5V69.5C71 70.8807 72.1193 72 73.5 72H116.5C117.881 72 119 70.8807 119 69.5V60.5C119 59.1193 117.881 58 116.5 58Z" fill="#FD8983"/>
<path d="M22.471 49.6449L26.16 43.1899L26.597 43.4449L22.908 49.8999L22.471 49.6449Z" fill="#EEEFEE"/>
<path d="M22.985 49.977L29.375 46.25L29.627 46.691L23.237 50.418L22.985 49.977Z" fill="#EEEFEE"/>
<path d="M23.266 50.5242H30.645V51.0372H23.266V50.5242Z" fill="#EEEFEE"/>
<path d="M22.985 51.5811L23.237 51.1401L29.627 54.8671L29.375 55.3081L22.985 51.5811Z" fill="#EEEFEE"/>
<path d="M22.473 51.912L22.909 51.657L26.6 58.112L26.164 58.367L22.473 51.912Z" fill="#EEEFEE"/>
<path d="M21.864 51.937H22.364V59.39H21.864V51.937Z" fill="#EEEFEE"/>
<path d="M17.632 58.1142L21.321 51.6592L21.758 51.9142L18.069 58.3682L17.632 58.1142Z" fill="#EEEFEE"/>
<path d="M14.6 54.866L20.992 51.137L21.244 51.578L14.854 55.307L14.6 54.866Z" fill="#EEEFEE"/>
<path d="M13.586 50.5251H20.965V51.0371H13.586V50.5251Z" fill="#EEEFEE"/>
<path d="M14.6 46.693L14.852 46.252L21.242 49.979L20.99 50.42L14.6 46.693Z" fill="#EEEFEE"/>
<path d="M17.631 43.4449L18.067 43.1899L21.756 49.6439L21.32 49.8989L17.631 43.4449Z" fill="#EEEFEE"/>
<path d="M21.863 42.1641H22.363V49.6171H21.863V42.1641Z" fill="#EEEFEE"/>
<path d="M54.249 49.6471L57.938 43.1921L58.375 43.4471L54.686 49.9021L54.249 49.6471Z" fill="#EEEFEE"/>
<path d="M54.762 49.976L61.152 46.249L61.404 46.69L55.014 50.417L54.762 49.976Z" fill="#EEEFEE"/>
<path d="M55.044 50.5242H62.423V51.0372H55.044V50.5242Z" fill="#EEEFEE"/>
<path d="M54.764 51.5811L55.016 51.1401L61.406 54.8671L61.154 55.3081L54.764 51.5811Z" fill="#EEEFEE"/>
<path d="M54.25 51.912L54.687 51.657L58.376 58.112L57.939 58.367L54.25 51.912Z" fill="#EEEFEE"/>
<path d="M53.642 51.937H54.142V59.39H53.642V51.937Z" fill="#EEEFEE"/>
<path d="M49.41 58.1152L53.1 51.6602L53.537 51.9152L49.848 58.3702L49.41 58.1152Z" fill="#EEEFEE"/>
<path d="M46.38 54.866L52.77 51.137L53.022 51.578L46.632 55.305L46.38 54.866Z" fill="#EEEFEE"/>
<path d="M45.364 50.5249H52.743V51.0369H45.364V50.5249Z" fill="#DBD8DD"/>
<path d="M46.38 46.693L46.632 46.252L53.022 49.979L52.77 50.42L46.38 46.693Z" fill="#EEEFEE"/>
<path d="M49.408 43.4449L49.845 43.1899L53.534 49.6449L53.098 49.8999L49.408 43.4449Z" fill="#DBD8DD"/>
<path d="M53.641 42.1641H54.141V49.6171H53.641V42.1641Z" fill="#EEEFEE"/>
<path d="M38.125 51.282L39.393 50.144L38.635 49.29L38.115 50.549C38.0659 50.6653 38.0415 50.7905 38.0434 50.9167C38.0453 51.0429 38.0724 51.1673 38.125 51.282Z" fill="#BBBBCD"/>
<path d="M22.11 40.5659C24.795 40.6021 27.3578 41.6938 29.2442 43.6049C31.1305 45.516 32.1888 48.0927 32.1901 50.778C32.1914 53.4632 31.1357 56.0411 29.2512 57.954C27.3667 59.8669 24.8049 60.9611 22.12 60.9999C19.435 60.9637 16.8722 59.872 14.9858 57.9609C13.0995 56.0499 12.0412 53.4731 12.0399 50.7878C12.0385 48.1026 13.0943 45.5248 14.9788 43.6119C16.8633 41.699 19.425 40.6048 22.11 40.5659ZM22.11 58.9139C23.7227 58.9323 25.3046 58.4711 26.6547 57.5887C28.0048 56.7063 29.0622 55.4426 29.6926 53.9581C30.323 52.4736 30.4981 50.8351 30.1955 49.2509C29.8929 47.6667 29.1264 46.2081 27.9932 45.0604C26.86 43.9127 25.4113 43.1277 23.8311 42.805C22.2508 42.4823 20.6103 42.6365 19.1179 43.248C17.6255 43.8595 16.3484 44.9007 15.4489 46.2395C14.5494 47.5782 14.0681 49.1541 14.066 50.7669V50.7889C14.0593 52.9318 14.9021 54.9901 16.4098 56.5129C17.9174 58.0358 19.9671 58.8991 22.11 58.9139Z" fill="#575B6D"/>
<path d="M53.883 40.565C55.9076 40.5434 57.893 41.124 59.587 42.233C61.281 43.342 62.6073 44.9294 63.3973 46.7937C64.1873 48.6579 64.4055 50.7149 64.0242 52.7034C63.6428 54.6919 62.6791 56.5222 61.2555 57.9619C59.8318 59.4016 58.0124 60.3858 56.0283 60.7894C54.0442 61.1931 51.9849 60.9979 50.1119 60.2289C48.239 59.4598 46.6368 58.1515 45.5088 56.47C44.3809 54.7885 43.7781 52.8098 43.777 50.785C43.7695 49.4504 44.0249 48.1274 44.5287 46.8915C45.0326 45.6556 45.7749 44.531 46.7133 43.582C47.6517 42.6329 48.7679 41.8781 49.9981 41.3604C51.2283 40.8428 52.5484 40.5725 53.883 40.565ZM53.883 58.916C55.4957 58.9357 57.0778 58.4756 58.4285 57.5942C59.7792 56.7129 60.8376 55.45 61.4691 53.966C62.1007 52.482 62.277 50.8438 61.9757 49.2594C61.6744 47.675 60.909 46.2158 59.7768 45.0673C58.6445 43.9187 57.1965 43.1325 55.6166 42.8085C54.0367 42.4845 52.3961 42.6373 50.9032 43.2476C49.4103 43.8578 48.1324 44.898 47.2318 46.2359C46.3312 47.5738 45.8485 49.1492 45.845 50.762V50.785C45.838 52.9274 46.6796 54.9853 48.1856 56.509C49.6917 58.0327 51.7407 58.8981 53.883 58.916Z" fill="#575B6D"/>
<path d="M23.426 36.4311C23.5168 36.4675 23.6138 36.4856 23.7116 36.4844C23.8095 36.4831 23.906 36.4625 23.9959 36.4238C24.0857 36.385 24.1669 36.3288 24.2349 36.2585C24.3029 36.1882 24.3563 36.1051 24.392 36.0141L24.399 35.9961L24.558 35.5701C24.6264 35.3898 24.623 35.1902 24.5486 35.0123C24.4742 34.8344 24.3344 34.6919 24.158 34.6141L24.12 34.5971C23.7402 34.4498 23.4338 34.1586 23.2676 33.7867C23.1013 33.4148 23.0885 32.9923 23.232 32.6111C23.3395 32.3183 23.5341 32.0656 23.7895 31.8868C24.045 31.708 24.3492 31.6118 24.661 31.6111H25.888V29.6641H24.662C23.8748 29.6636 23.111 29.9319 22.4969 30.4245C21.8829 30.9171 21.4553 31.6045 21.285 32.3731C21.0992 33.1937 21.2128 34.0536 21.6055 34.7978C21.9981 35.5419 22.6438 36.1212 23.426 36.4311Z" fill="#575B6D"/>
<path d="M38.114 50.549L38.634 49.29L39.392 50.144L38.124 51.282C38.0714 51.1673 38.0433 51.0429 38.0414 50.9167C38.0395 50.7905 38.0649 50.6653 38.114 50.549Z" fill="#BBBBCD"/>
<path d="M27.712 31.615H25.892V29.665H29.067C29.1885 29.6595 29.3099 29.678 29.4242 29.7195C29.5386 29.7609 29.6436 29.8246 29.7333 29.9067C29.8231 29.9888 29.8957 30.0878 29.9471 30.198C29.9985 30.3082 30.0277 30.4275 30.033 30.549C30.0401 30.6856 30.0172 30.8221 29.966 30.949L28.947 33.915H44.984L46.36 30.577L48.137 31.321L46.775 34.648L54.975 50.475C55.0542 50.622 55.0939 50.787 55.09 50.9539C55.0862 51.1208 55.039 51.2839 54.953 51.427C54.8688 51.5704 54.7485 51.6892 54.6041 51.7717C54.4597 51.8542 54.2963 51.8974 54.13 51.897H39.013C38.8548 51.897 38.6991 51.858 38.5596 51.7836C38.4201 51.7091 38.301 51.6014 38.213 51.47C38.173 51.4131 38.1435 51.3494 38.126 51.282L37.953 51.435L27.137 39.155L23.031 51.107L21.2 50.462L27.712 31.615ZM52.525 49.947L45.807 36.988L40.454 49.947H52.525ZM38.634 49.29L44.182 35.86H28.275L27.863 37.06L38.634 49.29Z" fill="#EF5261"/>
<path d="M53.883 53.0681C54.3362 53.075 54.7812 52.9472 55.1616 52.7007C55.542 52.4542 55.8405 52.1003 56.0194 51.6838C56.1982 51.2673 56.2493 50.8071 56.1661 50.3616C56.0829 49.916 55.8692 49.5052 55.5521 49.1814C55.235 48.8575 54.8288 48.6352 54.3851 48.5426C53.9414 48.45 53.4802 48.4914 53.0601 48.6614C52.6399 48.8314 52.2797 49.1224 52.0253 49.4975C51.7709 49.8726 51.6336 50.3149 51.631 50.7681V50.7911C51.632 51.3902 51.8689 51.9648 52.2903 52.3906C52.7118 52.8163 53.2839 53.059 53.883 53.0661V53.0681Z" fill="#62667C"/>
<path d="M53.883 51.784C54.0145 51.7849 54.1449 51.7599 54.2667 51.7103C54.3885 51.6608 54.4993 51.5877 54.5929 51.4953C54.6864 51.4029 54.7608 51.2929 54.8118 51.1717C54.8628 51.0505 54.8893 50.9204 54.89 50.7889C54.8911 50.5207 54.7856 50.263 54.5968 50.0725C54.4079 49.882 54.1512 49.7743 53.883 49.7729C53.6179 49.7774 53.3655 49.887 53.1812 50.0775C52.9969 50.268 52.8957 50.5239 52.9 50.7889C52.8987 51.0512 53.0014 51.3032 53.1857 51.4897C53.37 51.6763 53.6208 51.7821 53.883 51.784Z" fill="#DBD8DD"/>
<path d="M22.1 53.1369C22.568 53.1448 23.0277 53.0134 23.4208 52.7594C23.8139 52.5054 24.1226 52.1403 24.3077 51.7104C24.4927 51.2805 24.5458 50.8053 24.4601 50.3452C24.3744 49.8851 24.1538 49.4608 23.8264 49.1264C23.499 48.7919 23.0796 48.5623 22.6214 48.4669C22.1632 48.3714 21.687 48.4143 21.2533 48.5902C20.8195 48.766 20.4479 49.0668 20.1855 49.4544C19.9232 49.842 19.782 50.2989 19.78 50.7669V50.7909C19.7815 51.4081 20.0256 52.0001 20.4596 52.4389C20.8936 52.8778 21.4828 53.1285 22.1 53.1369Z" fill="#62667C"/>
<path d="M22.1 51.857C22.3845 51.8583 22.6579 51.7467 22.8602 51.5466C23.0625 51.3466 23.1771 51.0744 23.179 50.79C23.1803 50.5024 23.0674 50.226 22.8651 50.0216C22.6628 49.8172 22.3876 49.7015 22.1 49.7C21.816 49.7055 21.5458 49.8233 21.3484 50.0275C21.1511 50.2318 21.0427 50.506 21.047 50.79C21.0457 51.0709 21.1557 51.341 21.3531 51.541C21.5505 51.7409 21.819 51.8546 22.1 51.857Z" fill="#DBD8DD"/>
<path d="M35.265 50.9141C35.2686 51.653 35.4907 52.3742 35.9033 52.9871C36.316 53.6 36.9008 54.0771 37.5841 54.3583C38.2673 54.6395 39.0185 54.7122 39.7431 54.5674C40.4676 54.4225 41.1331 54.0665 41.6557 53.5442C42.1783 53.0218 42.5346 52.3566 42.6799 51.6321C42.8251 50.9077 42.7528 50.1564 42.472 49.473C42.1911 48.7896 41.7144 48.2045 41.1017 47.7915C40.489 47.3785 39.7679 47.1561 39.029 47.1521H39.009C38.0137 47.1547 37.0602 47.5525 36.3581 48.258C35.6561 48.9634 35.2629 49.9188 35.265 50.9141Z" fill="#62667C"/>
<path d="M36.757 50.918C36.759 51.3627 36.8925 51.7969 37.1408 52.1658C37.3891 52.5348 37.741 52.822 38.1522 52.9913C38.5634 53.1606 39.0155 53.2045 39.4516 53.1173C39.8877 53.0301 40.2882 52.8158 40.6027 52.5015C40.9173 52.1871 41.1317 51.7866 41.2191 51.3506C41.3064 50.9146 41.2628 50.4624 41.0937 50.0511C40.9245 49.6399 40.6375 49.2878 40.2686 49.0394C39.8998 48.7909 39.4657 48.6572 39.021 48.655H39.009C38.7125 48.6557 38.419 48.7147 38.1453 48.8288C37.8716 48.9429 37.623 49.1098 37.4138 49.3199C37.2046 49.5301 37.0388 49.7793 36.926 50.0535C36.8131 50.3278 36.7563 50.6215 36.757 50.918Z" fill="#DBD8DD"/>
<path d="M41.714 32.121C41.7137 32.1818 41.7254 32.2421 41.7485 32.2983C41.7715 32.3546 41.8054 32.4058 41.8482 32.449C41.891 32.4922 41.9419 32.5265 41.998 32.55C42.054 32.5735 42.1142 32.5857 42.175 32.586H49.5C49.9755 32.586 50.4316 32.3971 50.7678 32.0608C51.1041 31.7246 51.293 31.2685 51.293 30.793C51.293 30.3175 51.1041 29.8614 50.7678 29.5252C50.4316 29.1889 49.9755 29 49.5 29H44.8C43.9764 29.0042 43.1882 29.3354 42.6087 29.9207C42.0293 30.5059 41.706 31.2974 41.71 32.121H41.714Z" fill="#575B6D"/>
<path d="M39.585 57.4911H38.433V51.0721C38.4327 50.9948 38.4631 50.9206 38.5175 50.8656C38.5718 50.8107 38.6457 50.7796 38.723 50.7791H39.294C39.3713 50.7796 39.4452 50.8107 39.4995 50.8656C39.5539 50.9206 39.5843 50.9948 39.584 51.0721V57.4901L39.585 57.4911Z" fill="#EEEFEE"/>
<path d="M40.447 58.1319H37.572C37.4659 58.1319 37.3642 58.0898 37.2892 58.0148C37.2141 57.9398 37.172 57.838 37.172 57.7319V57.0799C37.172 56.9738 37.2141 56.8721 37.2892 56.7971C37.3642 56.7221 37.4659 56.6799 37.572 56.6799H40.448C40.5541 56.6799 40.6558 56.7221 40.7308 56.7971C40.8058 56.8721 40.848 56.9738 40.848 57.0799V57.7319C40.848 57.7845 40.8376 57.8366 40.8174 57.8852C40.7973 57.9338 40.7677 57.978 40.7305 58.0151C40.6932 58.0523 40.649 58.0817 40.6004 58.1018C40.5517 58.1218 40.4996 58.1321 40.447 58.1319Z" fill="#575B6D"/>
<g filter="url(#filter1_d_1_1352)">
<path d="M317 2H178C175.239 2 173 4.23858 173 7V82C173 84.7614 175.239 87 178 87H317C319.761 87 322 84.7614 322 82V7C322 4.23858 319.761 2 317 2Z" fill="url(#paint1_linear_1_1352)"/>
</g>
<path d="M312.5 19H243.5C242.119 19 241 20.1193 241 21.5C241 22.8807 242.119 24 243.5 24H312.5C313.881 24 315 22.8807 315 21.5C315 20.1193 313.881 19 312.5 19Z" fill="white"/>
<path d="M286.5 33H243.5C242.119 33 241 34.1193 241 35.5C241 36.8807 242.119 38 243.5 38H286.5C287.881 38 289 36.8807 289 35.5C289 34.1193 287.881 33 286.5 33Z" fill="white"/>
<path d="M286.5 58H243.5C242.119 58 241 59.1193 241 60.5V69.5C241 70.8807 242.119 72 243.5 72H286.5C287.881 72 289 70.8807 289 69.5V60.5C289 59.1193 287.881 58 286.5 58Z" fill="#FD8983"/>
<path d="M199.195 24C199.521 23.9947 199.844 24.0732 200.131 24.228C202.98 25.768 205.588 25.788 207.96 24.335C208.212 24.1808 208.497 24.0883 208.791 24.065L208.802 24.186C208.753 25.424 208.225 26.5945 207.329 27.4508C206.434 28.3072 205.241 28.7827 204.002 28.777C202.746 28.7799 201.539 28.2922 200.638 27.418C199.743 26.5535 199.225 25.3704 199.197 24.126L199.195 24Z" fill="#FE860A"/>
<path d="M216.25 44.797H191.75L185.208 41.097C185.117 41.0458 185.049 40.9615 185.018 40.8615C184.987 40.7615 184.996 40.6535 185.043 40.56L190.799 29.067C190.87 28.9244 190.98 28.8043 191.115 28.72L198.203 24.293C198.49 24.1133 198.819 24.0128 199.158 24.0013C199.496 23.9899 199.832 24.0681 200.13 24.228C202.98 25.768 205.587 25.788 207.959 24.335C208.265 24.15 208.616 24.0541 208.973 24.058C209.33 24.0619 209.679 24.1654 209.981 24.357L216.888 28.721C217.021 28.8051 217.129 28.924 217.2 29.065L222.957 40.565C223.004 40.6585 223.013 40.7665 222.982 40.8665C222.951 40.9665 222.883 41.0508 222.792 41.102L216.25 44.797Z" fill="#FE9738"/>
<path d="M197.001 25.0439L191.115 28.7209C190.98 28.8054 190.87 28.9255 190.799 29.0679L185.043 40.5599C184.996 40.6535 184.987 40.7615 185.018 40.8615C185.049 40.9615 185.117 41.0458 185.208 41.0969L191.75 44.7969H197.001V25.0439Z" fill="#FE860A"/>
<path d="M209.982 24.357C209.68 24.165 209.331 24.0612 208.973 24.0573C208.616 24.0534 208.264 24.1496 207.958 24.335C205.585 25.788 202.978 25.768 200.129 24.228C199.83 24.0681 199.495 23.99 199.156 24.0016C198.818 24.0132 198.488 24.1141 198.201 24.294L191.115 28.721L191.809 37.421V64.626C191.809 64.6754 191.819 64.7242 191.838 64.7698C191.858 64.8153 191.885 64.8566 191.921 64.8913C191.956 64.926 191.997 64.9535 192.043 64.9722C192.089 64.9908 192.138 65.0003 192.187 65H215.814C215.863 65.0003 215.912 64.9908 215.958 64.9722C216.004 64.9535 216.045 64.926 216.08 64.8913C216.116 64.8566 216.143 64.8153 216.163 64.7698C216.182 64.7242 216.192 64.6754 216.192 64.626V37.416L216.892 28.716L209.982 24.357Z" fill="#FEA95C"/>
<path d="M210.309 60.4919C206.376 60.5121 202.596 58.969 199.8 56.2021C197.004 53.4353 195.422 49.6712 195.402 45.7379V32.9089L194.88 26.3689L191.115 28.7209L191.809 37.4209V64.9999H216.192V60.4919H210.309Z" fill="#FE9738"/>
<path d="M209.981 24.358L211.005 25.005C210.748 26.6738 209.903 28.1959 208.622 29.2969C207.342 30.398 205.711 31.0057 204.022 31.0105C202.334 31.0153 200.699 30.417 199.412 29.3233C198.126 28.2295 197.272 26.7123 197.005 25.045L198.205 24.295C198.503 24.1088 198.846 24.0071 199.197 24.001V24.127C199.225 25.371 199.743 26.5538 200.638 27.418C201.539 28.2913 202.745 28.7786 204 28.776C205.239 28.7816 206.432 28.3062 207.327 27.4498C208.223 26.5934 208.751 25.423 208.8 24.185L208.791 24.065C209.209 24.0308 209.627 24.1337 209.981 24.358Z" fill="#6CF5C2"/>
<path d="M204 28.1521C202.91 28.1566 201.862 27.7345 201.079 26.9761C200.476 26.3943 200.066 25.6414 199.904 24.8191C202.819 26.3701 205.56 26.4341 208.056 25.0091C207.831 25.9122 207.308 26.7133 206.573 27.2834C205.837 27.8536 204.931 28.1595 204 28.1521Z" fill="white"/>
<g filter="url(#filter2_d_1_1352)">
<path d="M486 2H347C344.239 2 342 4.23858 342 7V82C342 84.7614 344.239 87 347 87H486C488.761 87 491 84.7614 491 82V7C491 4.23858 488.761 2 486 2Z" fill="url(#paint2_linear_1_1352)"/>
</g>
<path d="M481.5 19H412.5C411.119 19 410 20.1193 410 21.5C410 22.8807 411.119 24 412.5 24H481.5C482.881 24 484 22.8807 484 21.5C484 20.1193 482.881 19 481.5 19Z" fill="white"/>
<path d="M455.5 33H412.5C411.119 33 410 34.1193 410 35.5C410 36.8807 411.119 38 412.5 38H455.5C456.881 38 458 36.8807 458 35.5C458 34.1193 456.881 33 455.5 33Z" fill="white"/>
<path d="M455.5 58H412.5C411.119 58 410 59.1193 410 60.5V69.5C410 70.8807 411.119 72 412.5 72H455.5C456.881 72 458 70.8807 458 69.5V60.5C458 59.1193 456.881 58 455.5 58Z" fill="#FD8983"/>
<path d="M361.67 26.3361C361.561 26.227 361.431 26.1411 361.288 26.0835C361.146 26.0258 360.992 25.9976 360.838 26.0004C360.684 26.0033 360.532 26.0373 360.392 26.1003C360.251 26.1633 360.125 26.254 360.02 26.3671L358.802 27.6811C358.722 27.7651 358.67 27.8718 358.653 27.9866C358.636 28.1014 358.655 28.2186 358.708 28.3221C358.817 28.5268 358.86 28.7605 358.83 28.9906C358.8 29.2207 358.7 29.4358 358.542 29.6061L357.425 30.8061C357.267 30.976 357.061 31.0927 356.834 31.14C356.607 31.1873 356.371 31.1629 356.158 31.0701C356.053 31.0248 355.936 31.0135 355.824 31.0377C355.711 31.0619 355.609 31.1204 355.532 31.2051L354.306 32.5311C354.104 32.7483 353.995 33.0353 354 33.3316C354.006 33.628 354.126 33.9106 354.336 34.1201L368.608 48.3921L376.167 40.8331L361.67 26.3361Z" fill="#CE795F"/>
<path d="M361.67 26.3361C361.561 26.227 361.431 26.1411 361.288 26.0835C361.146 26.0258 360.992 25.9976 360.838 26.0004C360.684 26.0033 360.532 26.0373 360.392 26.1003C360.251 26.1633 360.125 26.254 360.02 26.3671L359.309 27.1341L361.954 29.7791L355.974 35.7591L358.474 38.2591L366.033 30.7001L361.67 26.3361Z" fill="#A05A4B"/>
<path d="M390.665 55.3311L376.165 40.8311L368.608 48.3921L382.881 62.6651C383.091 62.8747 383.373 62.995 383.669 63.0006C383.966 63.0062 384.253 62.8967 384.47 62.6951L390.634 56.9811C390.747 56.8763 390.838 56.7499 390.901 56.6092C390.964 56.4686 390.998 56.3167 391.001 56.1627C391.004 56.0086 390.975 55.8555 390.918 55.7126C390.86 55.5697 390.774 55.44 390.665 55.3311Z" fill="#B66652"/>
<path d="M376.167 40.833L374.588 42.412L388.288 56.112L382.082 61.865L382.882 62.665C383.092 62.8747 383.374 62.995 383.67 63.0006C383.967 63.0062 384.254 62.8966 384.471 62.695L390.635 56.981C390.748 56.8763 390.839 56.7498 390.902 56.6092C390.965 56.4686 390.999 56.3167 391.002 56.1626C391.005 56.0085 390.976 55.8555 390.919 55.7126C390.861 55.5697 390.775 55.4399 390.666 55.331L376.167 40.833Z" fill="#81493B"/>
<path d="M381.318 32.524L380.667 33.187L383.162 36.998L384.477 35.683C384.896 35.2642 385.131 34.6962 385.131 34.1039C385.132 33.5115 384.896 32.9434 384.478 32.5245C384.059 32.1056 383.491 31.8702 382.898 31.8701C382.306 31.87 381.738 32.1052 381.319 32.524H381.318Z" fill="#FFB545"/>
<path d="M372.5 30.542C371.462 30.5415 370.427 30.6569 369.414 30.886L368.289 29.761C368.082 29.5536 367.836 29.3891 367.565 29.2769C367.294 29.1647 367.003 29.1069 366.71 29.1069C366.417 29.1069 366.126 29.1647 365.855 29.2769C365.585 29.3891 365.338 29.5536 365.131 29.761L357.761 37.131C357.554 37.3384 357.389 37.5846 357.277 37.8556C357.164 38.1266 357.106 38.4171 357.106 38.7105C357.106 39.0039 357.164 39.2944 357.277 39.5654C357.389 39.8364 357.554 40.0826 357.761 40.29L358.886 41.415C358.246 44.2369 358.499 47.1878 359.61 49.8595C360.721 52.5313 362.634 54.7919 365.086 56.3286C367.538 57.8653 370.406 58.6022 373.295 58.4373C376.184 58.2724 378.95 57.2139 381.211 55.4083C383.472 53.6026 385.116 51.1389 385.915 48.3581C386.715 45.5773 386.63 42.6168 385.674 39.886C384.717 37.1553 382.936 34.7893 380.575 33.1153C378.215 31.4413 375.393 30.5421 372.5 30.542Z" fill="#FFB545"/>
<path d="M387.242 48.712L386.119 47.589C386.724 44.9182 386.529 42.1285 385.56 39.5674C384.59 37.0064 382.889 34.7871 380.667 33.186C380.305 33.6136 380.116 34.1618 380.139 34.7217C380.162 35.2817 380.395 35.8126 380.791 36.209C382.99 38.4079 384.225 41.3903 384.225 44.5C384.225 47.6098 382.99 50.5921 380.791 52.791C378.592 54.9899 375.61 56.2253 372.5 56.2253C369.39 56.2253 366.408 54.9899 364.209 52.791C363.813 52.3949 363.282 52.1621 362.722 52.139C362.163 52.1158 361.615 52.304 361.187 52.666C362.788 54.8864 365.007 56.5867 367.568 57.5552C370.128 58.5237 372.917 58.7177 375.587 58.113L376.712 59.242C376.919 59.4494 377.166 59.6139 377.436 59.7261C377.707 59.8383 377.998 59.8961 378.291 59.8961C378.584 59.8961 378.875 59.8383 379.146 59.7261C379.417 59.6139 379.663 59.4494 379.87 59.242L387.24 51.872C387.448 51.6648 387.613 51.4186 387.725 51.1475C387.838 50.8765 387.896 50.5859 387.896 50.2924C387.896 49.999 387.839 49.7083 387.726 49.4371C387.614 49.166 387.45 48.9196 387.242 48.712Z" fill="#FF6344"/>
<path d="M372.5 54.5512C370.512 54.5512 368.569 53.9618 366.917 52.8574C365.264 51.7531 363.976 50.1835 363.215 48.3471C362.454 46.5107 362.255 44.49 362.643 42.5405C363.031 40.591 363.988 38.8003 365.394 37.3948C366.799 35.9892 368.59 35.0321 370.539 34.6443C372.489 34.2565 374.51 34.4555 376.346 35.2162C378.182 35.9768 379.752 37.265 380.856 38.9177C381.961 40.5704 382.55 42.5135 382.55 44.5012C382.547 47.1656 381.487 49.72 379.603 51.6041C377.719 53.4881 375.164 54.548 372.5 54.5512Z" fill="#FFF9EB"/>
<path d="M377.86 36.002C377.518 36.4312 377.346 36.9715 377.377 37.5195C377.408 38.0675 377.64 38.585 378.028 38.973C379.494 40.4389 380.318 42.4272 380.318 44.5005C380.318 46.5737 379.494 48.562 378.028 50.028C376.562 51.4939 374.574 52.3175 372.501 52.3175C370.427 52.3175 368.439 51.4939 366.973 50.028C366.585 49.6397 366.068 49.4079 365.52 49.3769C364.972 49.346 364.431 49.5179 364.002 49.86C364.806 51.136 365.887 52.2147 367.165 53.0159C368.443 53.8171 369.885 54.3203 371.384 54.4882C372.883 54.6561 374.401 54.4843 375.825 53.9856C377.248 53.487 378.541 52.6742 379.608 51.6076C380.674 50.541 381.487 49.248 381.986 47.8245C382.484 46.4009 382.656 44.8833 382.488 43.3843C382.32 41.8853 381.817 40.4434 381.016 39.1654C380.215 37.8874 379.136 36.8062 377.86 36.002Z" fill="#D3CDBF"/>
<path d="M364.805 43.0171L366.313 43.4171C366.385 43.4422 366.462 43.4522 366.539 43.4463C366.615 43.4404 366.689 43.4189 366.757 43.383C366.825 43.3471 366.884 43.2977 366.932 43.2378C366.98 43.1779 367.015 43.1088 367.035 43.0348C367.055 42.9608 367.059 42.8835 367.048 42.8077C367.037 42.7319 367.01 42.6593 366.969 42.5943C366.929 42.5293 366.875 42.4734 366.812 42.43C366.749 42.3866 366.677 42.3567 366.602 42.3421L365.094 41.9421C364.951 41.9038 364.799 41.9239 364.67 41.998C364.607 42.0346 364.551 42.0835 364.506 42.1417C364.462 42.1998 364.429 42.2663 364.41 42.3371C364.391 42.408 364.386 42.4819 364.396 42.5546C364.405 42.6273 364.429 42.6974 364.466 42.7609C364.54 42.8892 364.662 42.9828 364.805 43.0211V43.0171Z" fill="#808DAF"/>
<path d="M364.411 46.668C364.43 46.7388 364.463 46.8053 364.507 46.8635C364.552 46.9218 364.608 46.9706 364.671 47.0073C364.735 47.044 364.805 47.0678 364.878 47.0773C364.95 47.0869 365.024 47.082 365.095 47.063L366.603 46.663C366.674 46.644 366.74 46.6112 366.798 46.5666C366.857 46.5219 366.906 46.4663 366.942 46.4028C366.979 46.3393 367.003 46.2691 367.012 46.1964C367.022 46.1237 367.017 46.0498 366.998 45.979C366.979 45.9081 366.946 45.8417 366.902 45.7835C366.857 45.7253 366.801 45.6765 366.738 45.6398C366.674 45.6031 366.604 45.5793 366.531 45.5697C366.459 45.5601 366.385 45.565 366.314 45.584L364.806 45.984C364.687 46.0158 364.583 46.0859 364.508 46.1833C364.433 46.2807 364.392 46.4001 364.392 46.523C364.392 46.5719 364.398 46.6207 364.411 46.668Z" fill="#808DAF"/>
<path d="M366.973 50.5861C367.046 50.5863 367.119 50.572 367.187 50.544C367.255 50.5161 367.316 50.475 367.368 50.4231L368.474 49.3171C368.579 49.2124 368.638 49.0703 368.638 48.9221C368.638 48.774 368.579 48.6319 368.474 48.5271C368.369 48.4224 368.227 48.3635 368.079 48.3635C367.931 48.3635 367.789 48.4224 367.684 48.5271L366.578 49.6331C366.5 49.7112 366.447 49.8107 366.425 49.919C366.403 50.0274 366.414 50.1397 366.457 50.2418C366.499 50.3439 366.571 50.4311 366.663 50.4924C366.754 50.5537 366.863 50.5863 366.973 50.5861Z" fill="#808DAF"/>
<path d="M368.473 39.6842L367.367 38.5782C367.262 38.4734 367.12 38.4146 366.972 38.4146C366.824 38.4146 366.682 38.4734 366.577 38.5782C366.472 38.6829 366.413 38.825 366.413 38.9732C366.413 39.1213 366.472 39.2634 366.577 39.3682L367.683 40.4742C367.735 40.526 367.796 40.5672 367.864 40.5953C367.932 40.6233 368.005 40.6378 368.078 40.6378C368.151 40.6378 368.224 40.6233 368.292 40.5953C368.36 40.5672 368.421 40.526 368.473 40.4742C368.525 40.4223 368.566 40.3607 368.594 40.2929C368.622 40.2252 368.637 40.1525 368.637 40.0792C368.637 40.0058 368.622 39.9332 368.594 39.8654C368.566 39.7976 368.525 39.736 368.473 39.6842Z" fill="#808DAF"/>
<path d="M377.633 38.5782L376.527 39.6842C376.422 39.7889 376.363 39.931 376.363 40.0792C376.363 40.2273 376.422 40.3694 376.527 40.4742C376.632 40.5789 376.774 40.6378 376.922 40.6378C377.07 40.6378 377.212 40.5789 377.317 40.4742L378.423 39.3682C378.528 39.2634 378.587 39.1213 378.587 38.9732C378.587 38.825 378.528 38.6829 378.423 38.5782C378.318 38.4734 378.176 38.4146 378.028 38.4146C377.88 38.4146 377.738 38.4734 377.633 38.5782Z" fill="#808DAF"/>
<path d="M373.984 36.8051L373.584 38.3131C373.546 38.4562 373.566 38.6087 373.64 38.7369C373.714 38.8652 373.836 38.9588 373.979 38.9971C374.122 39.0355 374.275 39.0154 374.403 38.9413C374.531 38.8672 374.625 38.7452 374.663 38.6021L375.063 37.0941C375.101 36.951 375.081 36.7986 375.007 36.6703C374.933 36.542 374.811 36.4485 374.668 36.4101C374.525 36.3718 374.372 36.3919 374.244 36.466C374.116 36.54 374.022 36.662 373.984 36.8051Z" fill="#808DAF"/>
<path d="M370.881 39.017C370.966 39.0171 371.051 38.9975 371.127 38.9599C371.204 38.9222 371.271 38.8675 371.323 38.7999C371.375 38.7322 371.411 38.6535 371.428 38.5698C371.445 38.4861 371.443 38.3996 371.421 38.317L371.021 36.809C371.002 36.7382 370.969 36.6718 370.925 36.6136C370.88 36.5554 370.824 36.5066 370.761 36.4699C370.697 36.4332 370.627 36.4094 370.554 36.3998C370.482 36.3902 370.408 36.3951 370.337 36.414C370.266 36.433 370.2 36.4658 370.142 36.5104C370.083 36.555 370.035 36.6107 369.998 36.6742C369.924 36.8025 369.904 36.955 369.942 37.098L370.342 38.606C370.374 38.7241 370.445 38.8283 370.542 38.9025C370.639 38.9768 370.759 39.017 370.881 39.017Z" fill="#808DAF"/>
<path d="M377.317 48.5271C377.265 48.4753 377.204 48.4341 377.136 48.406C377.068 48.378 376.995 48.3635 376.922 48.3635C376.849 48.3635 376.776 48.378 376.708 48.406C376.64 48.4341 376.579 48.4753 376.527 48.5271C376.475 48.579 376.434 48.6406 376.406 48.7084C376.378 48.7761 376.363 48.8488 376.363 48.9221C376.363 48.9955 376.378 49.0681 376.406 49.1359C376.434 49.2037 376.475 49.2653 376.527 49.3171L377.633 50.4231C377.685 50.475 377.746 50.5162 377.814 50.5442C377.882 50.5723 377.955 50.5868 378.028 50.5868C378.101 50.5868 378.174 50.5723 378.242 50.5442C378.31 50.5162 378.371 50.475 378.423 50.4231C378.475 50.3713 378.516 50.3097 378.544 50.2419C378.572 50.1741 378.587 50.1015 378.587 50.0281C378.587 49.9548 378.572 49.8821 378.544 49.8144C378.516 49.7466 378.475 49.685 378.423 49.6331L377.317 48.5271Z" fill="#808DAF"/>
<path d="M380.051 47.082C380.188 47.0849 380.322 47.037 380.426 46.9474C380.531 46.8578 380.598 46.7329 380.616 46.5966C380.634 46.4602 380.601 46.3221 380.523 46.2087C380.445 46.0953 380.329 46.0146 380.195 45.982L378.687 45.582C378.616 45.563 378.542 45.5582 378.47 45.5678C378.397 45.5774 378.327 45.6012 378.263 45.6378C378.2 45.6745 378.144 45.7234 378.099 45.7815C378.055 45.8397 378.022 45.9062 378.003 45.977C377.984 46.0479 377.979 46.1217 377.989 46.1945C377.998 46.2672 378.022 46.3373 378.059 46.4008C378.096 46.4643 378.144 46.52 378.203 46.5646C378.261 46.6093 378.327 46.642 378.398 46.661L379.906 47.061C379.953 47.0744 380.002 47.0814 380.051 47.082Z" fill="#808DAF"/>
<path d="M378.542 43.4421C378.591 43.4421 378.64 43.4358 378.687 43.4231L380.195 43.0231C380.338 42.9847 380.46 42.8911 380.534 42.7629C380.608 42.6346 380.628 42.4821 380.59 42.3391C380.552 42.196 380.458 42.074 380.33 41.9999C380.202 41.9258 380.049 41.9057 379.906 41.9441L378.398 42.3441C378.268 42.3798 378.155 42.4615 378.08 42.5739C378.006 42.6863 377.974 42.822 377.992 42.9558C378.009 43.0896 378.075 43.2125 378.176 43.3019C378.277 43.3913 378.407 43.4411 378.542 43.4421Z" fill="#808DAF"/>
<path d="M371.026 50.004C370.955 49.9849 370.881 49.9801 370.809 49.9896C370.736 49.9992 370.666 50.023 370.602 50.0596C370.539 50.0963 370.483 50.1452 370.438 50.2034C370.394 50.2617 370.361 50.3281 370.342 50.399L369.942 51.907C369.904 52.0501 369.924 52.2025 369.998 52.3308C370.072 52.4591 370.194 52.5527 370.337 52.591C370.48 52.6293 370.633 52.6092 370.761 52.5352C370.889 52.4611 370.983 52.3391 371.021 52.196L371.421 50.688C371.44 50.6171 371.445 50.5432 371.435 50.4705C371.426 50.3978 371.402 50.3276 371.365 50.2641C371.329 50.2006 371.28 50.1449 371.222 50.1002C371.163 50.0556 371.097 50.0229 371.026 50.004Z" fill="#808DAF"/>
<path d="M373.984 52.1951C374.003 52.266 374.036 52.3324 374.08 52.3906C374.125 52.4488 374.181 52.4976 374.244 52.5343C374.308 52.571 374.378 52.5948 374.451 52.6044C374.523 52.614 374.597 52.6091 374.668 52.5901C374.739 52.5712 374.805 52.5384 374.863 52.4938C374.922 52.4491 374.971 52.3935 375.007 52.33C375.044 52.2664 375.068 52.1963 375.077 52.1236C375.087 52.0509 375.082 51.977 375.063 51.9061L374.663 50.3981C374.644 50.3273 374.611 50.2609 374.567 50.2027C374.522 50.1445 374.466 50.0957 374.403 50.059C374.339 50.0223 374.269 49.9985 374.196 49.9889C374.124 49.9793 374.05 49.9842 373.979 50.0031C373.908 50.0221 373.842 50.0549 373.784 50.0995C373.725 50.1442 373.677 50.1998 373.64 50.2633C373.603 50.3269 373.579 50.397 373.57 50.4697C373.56 50.5424 373.565 50.6163 373.584 50.6871L373.984 52.1951Z" fill="#808DAF"/>
<path d="M373.29 45.29C373.428 45.1514 373.528 44.9788 373.578 44.7896C373.629 44.6004 373.629 44.4012 373.578 44.212L374.685 43.105C374.79 43.0002 374.849 42.8582 374.849 42.71C374.849 42.5618 374.79 42.4198 374.685 42.315C374.58 42.2102 374.438 42.1514 374.29 42.1514C374.142 42.1514 374 42.2102 373.895 42.315L372.788 43.422C372.599 43.372 372.401 43.372 372.212 43.422L370.052 41.262C369.947 41.1572 369.805 41.0984 369.657 41.0984C369.509 41.0984 369.367 41.1572 369.262 41.262C369.157 41.3668 369.098 41.5088 369.098 41.657C369.098 41.8052 369.157 41.9472 369.262 42.052L371.422 44.212C371.358 44.4493 371.375 44.7009 371.469 44.9278C371.563 45.1548 371.729 45.3444 371.942 45.4672C372.155 45.59 372.402 45.6392 372.646 45.6072C372.889 45.5752 373.116 45.4637 373.29 45.29Z" fill="#808DAF"/>
<defs>
<filter id="filter0_d_1_1352" x="0" y="0" width="155" height="91" filterUnits="userSpaceOnUse" color-interpolation-filters="sRGB">
<feFlood flood-opacity="0" result="BackgroundImageFix"/>
<feColorMatrix in="SourceAlpha" type="matrix" values="0 0 0 0 0 0 0 0 0 0 0 0 0 0 0 0 0 0 127 0" result="hardAlpha"/>
<feOffset dy="1"/>
<feGaussianBlur stdDeviation="1.5"/>
<feColorMatrix type="matrix" values="0 0 0 0 0 0 0 0 0 0 0 0 0 0 0 0 0 0 0.071 0"/>
<feBlend mode="normal" in2="BackgroundImageFix" result="effect1_dropShadow_1_1352"/>
<feBlend mode="normal" in="SourceGraphic" in2="effect1_dropShadow_1_1352" result="shape"/>
</filter>
<filter id="filter1_d_1_1352" x="170" y="0" width="155" height="91" filterUnits="userSpaceOnUse" color-interpolation-filters="sRGB">
<feFlood flood-opacity="0" result="BackgroundImageFix"/>
<feColorMatrix in="SourceAlpha" type="matrix" values="0 0 0 0 0 0 0 0 0 0 0 0 0 0 0 0 0 0 127 0" result="hardAlpha"/>
<feOffset dy="1"/>
<feGaussianBlur stdDeviation="1.5"/>
<feColorMatrix type="matrix" values="0 0 0 0 0 0 0 0 0 0 0 0 0 0 0 0 0 0 0.071 0"/>
<feBlend mode="normal" in2="BackgroundImageFix" result="effect1_dropShadow_1_1352"/>
<feBlend mode="normal" in="SourceGraphic" in2="effect1_dropShadow_1_1352" result="shape"/>
</filter>
<filter id="filter2_d_1_1352" x="339" y="0" width="155" height="91" filterUnits="userSpaceOnUse" color-interpolation-filters="sRGB">
<feFlood flood-opacity="0" result="BackgroundImageFix"/>
<feColorMatrix in="SourceAlpha" type="matrix" values="0 0 0 0 0 0 0 0 0 0 0 0 0 0 0 0 0 0 127 0" result="hardAlpha"/>
<feOffset dy="1"/>
<feGaussianBlur stdDeviation="1.5"/>
<feColorMatrix type="matrix" values="0 0 0 0 0 0 0 0 0 0 0 0 0 0 0 0 0 0 0.071 0"/>
<feBlend mode="normal" in2="BackgroundImageFix" result="effect1_dropShadow_1_1352"/>
<feBlend mode="normal" in="SourceGraphic" in2="effect1_dropShadow_1_1352" result="shape"/>
</filter>
<linearGradient id="paint0_linear_1_1352" x1="77.5" y1="2" x2="77.5" y2="2" gradientUnits="userSpaceOnUse">
<stop stop-color="#FFE7E1"/>
<stop offset="1" stop-color="#FFF0EC"/>
</linearGradient>
<linearGradient id="paint1_linear_1_1352" x1="247.5" y1="2" x2="247.5" y2="2" gradientUnits="userSpaceOnUse">
<stop stop-color="#FFE7E1"/>
<stop offset="1" stop-color="#FFF0EC"/>
</linearGradient>
<linearGradient id="paint2_linear_1_1352" x1="416.5" y1="2" x2="416.5" y2="2" gradientUnits="userSpaceOnUse">
<stop stop-color="#FFE7E1"/>
<stop offset="1" stop-color="#FFF0EC"/>
</linearGradient>
</defs>
</svg>
