<svg width="16" height="12" viewBox="0 0 16 12" fill="none" xmlns="http://www.w3.org/2000/svg">
<mask id="mask0_1_3633" style="mask-type:luminance" maskUnits="userSpaceOnUse" x="0" y="0" width="16" height="12">
<path d="M16 0H0V12H16V0Z" fill="white"/>
</mask>
<g mask="url(#mask0_1_3633)">
<path d="M9.667 11.855C9.58192 11.8583 9.49901 11.8277 9.43642 11.77C9.37383 11.7123 9.33664 11.6321 9.333 11.547C9.33364 11.5056 9.34286 11.4648 9.36007 11.4271C9.37728 11.3894 9.40211 11.3557 9.433 11.328L15.2 6.00304L9.431 0.667041C9.40076 0.639089 9.37677 0.605055 9.36061 0.567174C9.34445 0.529294 9.33649 0.488424 9.33725 0.447248C9.338 0.406072 9.34746 0.365521 9.365 0.328259C9.38253 0.290997 9.40776 0.257866 9.439 0.231042C9.50323 0.175252 9.58543 0.144531 9.6705 0.144531C9.75557 0.144531 9.83778 0.175252 9.902 0.231042L15.902 5.78004C15.9327 5.80743 15.9573 5.84102 15.9742 5.87859C15.991 5.91616 15.9997 5.95687 15.9997 5.99804C15.9997 6.03922 15.991 6.07992 15.9742 6.11749C15.9573 6.15506 15.9327 6.18865 15.902 6.21604L9.902 11.765C9.83769 11.8234 9.75384 11.8555 9.667 11.855Z" fill="#576AA9"/>
<path d="M9.666 12.003C9.5412 12.0076 9.41964 11.9627 9.32784 11.878C9.23604 11.7933 9.18146 11.6758 9.176 11.551C9.17657 11.4905 9.18966 11.4307 9.21444 11.3755C9.23922 11.3202 9.27516 11.2707 9.32 11.23L14.974 6.00302L9.32 0.770016C9.27522 0.729061 9.23964 0.679072 9.21561 0.623351C9.19158 0.567629 9.17964 0.507442 9.18058 0.446766C9.18153 0.38609 9.19533 0.326304 9.22109 0.271358C9.24685 0.216412 9.28397 0.167556 9.33 0.128016C9.42419 0.045794 9.54498 0.000488281 9.67 0.000488281C9.79503 0.000488281 9.91582 0.045794 10.01 0.128016L16.01 5.67902C16.0549 5.71934 16.0909 5.76868 16.1155 5.82381C16.1401 5.87895 16.1528 5.93864 16.1528 5.99902C16.1528 6.05939 16.1401 6.11908 16.1155 6.17422C16.0909 6.22935 16.0549 6.27869 16.01 6.31902L10.01 11.868C9.91569 11.9538 9.79251 12.001 9.665 12L9.666 12.003ZM9.671 0.289016C9.62543 0.28864 9.5813 0.305008 9.547 0.335016C9.53059 0.349559 9.51746 0.367419 9.50846 0.387415C9.49946 0.407411 9.49481 0.429089 9.49481 0.451016C9.49481 0.472943 9.49946 0.49462 9.50846 0.514616C9.51746 0.534613 9.53059 0.552472 9.547 0.567016L15.416 6.00302L9.541 11.431C9.52473 11.4457 9.51169 11.4635 9.50274 11.4835C9.49378 11.5035 9.4891 11.5251 9.489 11.547C9.49083 11.5922 9.51047 11.6348 9.54364 11.6656C9.57681 11.6963 9.62081 11.7126 9.666 11.711C9.71224 11.7114 9.7569 11.6942 9.791 11.663L15.791 6.11402C15.8074 6.09947 15.8206 6.08161 15.8295 6.06162C15.8385 6.04162 15.8432 6.01994 15.8432 5.99802C15.8432 5.97609 15.8385 5.95441 15.8295 5.93441C15.8206 5.91442 15.8074 5.89656 15.791 5.88202L9.791 0.333016C9.75773 0.304163 9.71504 0.288509 9.671 0.289016Z" fill="#576AA9"/>
<path d="M15.667 6.30305H0.333003C0.291013 6.30544 0.248976 6.29923 0.209468 6.28481C0.16996 6.27039 0.133812 6.24805 0.103239 6.21917C0.0726653 6.19029 0.0483096 6.15547 0.0316636 6.11684C0.0150175 6.07822 0.00643158 6.0366 0.00643158 5.99455C0.00643158 5.95249 0.0150175 5.91087 0.0316636 5.87225C0.0483096 5.83363 0.0726653 5.79881 0.103239 5.76992C0.133812 5.74104 0.16996 5.71871 0.209468 5.70428C0.248976 5.68986 0.291013 5.68366 0.333003 5.68605H15.667C15.709 5.68366 15.751 5.68986 15.7905 5.70428C15.83 5.71871 15.8662 5.74104 15.8968 5.76992C15.9273 5.79881 15.9517 5.83363 15.9683 5.87225C15.985 5.91087 15.9936 5.95249 15.9936 5.99455C15.9936 6.0366 15.985 6.07822 15.9683 6.11684C15.9517 6.15547 15.9273 6.19029 15.8968 6.21917C15.8662 6.24805 15.83 6.27039 15.7905 6.28481C15.751 6.29923 15.709 6.30544 15.667 6.30305Z" fill="#576AA9"/>
<path d="M15.667 6.45095H0.333001C0.270981 6.45507 0.208775 6.44641 0.150236 6.42551C0.091698 6.40461 0.0380746 6.37192 -0.00731143 6.32945C-0.0526975 6.28698 -0.0888795 6.23564 -0.113616 6.17862C-0.138352 6.1216 -0.151115 6.0601 -0.151115 5.99795C-0.151115 5.93579 -0.138352 5.87429 -0.113616 5.81727C-0.0888795 5.76025 -0.0526975 5.70891 -0.00731143 5.66644C0.0380746 5.62397 0.091698 5.59128 0.150236 5.57038C0.208775 5.54948 0.270981 5.54082 0.333001 5.54495H15.667C15.729 5.54082 15.7912 5.54948 15.8498 5.57038C15.9083 5.59128 15.9619 5.62397 16.0073 5.66644C16.0527 5.70891 16.0889 5.76025 16.1136 5.81727C16.1384 5.87429 16.1511 5.93579 16.1511 5.99795C16.1511 6.0601 16.1384 6.1216 16.1136 6.17862C16.0889 6.23564 16.0527 6.28698 16.0073 6.32945C15.9619 6.37192 15.9083 6.40461 15.8498 6.42551C15.7912 6.44641 15.729 6.45507 15.667 6.45095ZM0.333001 5.83395C0.289506 5.83395 0.247791 5.85122 0.217036 5.88198C0.18628 5.91274 0.169001 5.95445 0.169001 5.99795C0.169001 6.04144 0.18628 6.08315 0.217036 6.11391C0.247791 6.14467 0.289506 6.16195 0.333001 6.16195H15.667C15.7105 6.16195 15.7522 6.14467 15.783 6.11391C15.8137 6.08315 15.831 6.04144 15.831 5.99795C15.831 5.95445 15.8137 5.91274 15.783 5.88198C15.7522 5.85122 15.7105 5.83395 15.667 5.83395H0.333001Z" fill="#576AA9"/>
</g>
<path d="M9.17603 11.5479C9.17635 11.4874 9.18919 11.4278 9.21381 11.3726C9.23842 11.3173 9.27422 11.2677 9.31897 11.2271L14.484 6.4502H0.333008C0.21094 6.45094 0.0926936 6.40755 0 6.32812V5.66699C0.0926936 5.58756 0.21094 5.54417 0.333008 5.54492H14.485L9.32001 0.768066C9.27548 0.726562 9.24012 0.676083 9.21619 0.620117C9.19225 0.564151 9.18029 0.503737 9.18103 0.442871C9.18301 0.382679 9.19722 0.323547 9.22284 0.269043C9.24846 0.214539 9.28494 0.165912 9.33002 0.125977C9.42462 0.0438045 9.54571 -0.00146484 9.67102 -0.00146484C9.79633 -0.00146484 9.91742 0.0438045 10.012 0.125977L16 5.66602V6.33008L10.014 11.8662C9.91915 11.9526 9.79527 11.9999 9.66699 11.999C9.54225 12.0036 9.42072 11.959 9.3288 11.8745C9.23687 11.7901 9.182 11.6725 9.17603 11.5479Z" fill="white"/>
</svg>
