<svg width="17" height="12" viewBox="0 0 17 12" fill="none" xmlns="http://www.w3.org/2000/svg">
<path d="M5.95098 11.9999C5.91767 12.0017 5.88429 12.0017 5.85098 11.9999C5.66925 11.9872 5.49229 11.936 5.33179 11.8499C5.1713 11.7637 5.03094 11.6444 4.91998 11.4999L0.250979 5.28489C0.152198 5.15401 0.0808144 5.00456 0.0410945 4.84547C0.0013745 4.68638 -0.00586707 4.52091 0.0198027 4.35896C0.0454725 4.197 0.103527 4.04189 0.190497 3.90288C0.277467 3.76387 0.391566 3.64381 0.525979 3.54989C0.800007 3.35596 1.13843 3.27555 1.47041 3.32551C1.80238 3.37546 2.10216 3.5519 2.30698 3.81789L6.10698 8.85789L14.831 0.362894C15.073 0.130653 15.3955 0.000976562 15.731 0.000976562C16.0664 0.000976562 16.3889 0.130653 16.631 0.362894C16.7491 0.476616 16.843 0.612985 16.9071 0.763845C16.9713 0.914706 17.0044 1.07696 17.0044 1.24089C17.0044 1.40483 16.9713 1.56708 16.9071 1.71794C16.843 1.8688 16.7491 2.00517 16.631 2.11889L6.85098 11.6369C6.60874 11.869 6.28647 11.999 5.95098 11.9999Z" fill="#5A77D0"/>
<path d="M5.85305 12C5.6713 11.9874 5.49426 11.9363 5.33376 11.8501C5.17326 11.7639 5.03293 11.6445 4.92202 11.5L0.245994 5.29199C0.147288 5.16113 0.0760297 5.01159 0.0363994 4.85254C-0.00323086 4.69349 -0.0103625 4.52809 0.0154033 4.36621C0.0411692 4.20433 0.0992487 4.04953 0.186302 3.91064C0.273355 3.77176 0.387537 3.65186 0.521995 3.55811C0.796098 3.36387 1.13473 3.28305 1.46694 3.33301C1.79915 3.38297 2.09913 3.5599 2.30398 3.82617L6.10403 8.86719L14.828 0.367188C15.0701 0.134947 15.3926 0.00488281 15.7281 0.00488281C16.0635 0.00488281 16.386 0.134947 16.6281 0.367188C16.7462 0.48091 16.84 0.617206 16.9042 0.768066C16.9684 0.918927 17.0014 1.08118 17.0014 1.24512C17.0014 1.40905 16.9684 1.57131 16.9042 1.72217C16.84 1.87303 16.7462 2.00932 16.6281 2.12305L6.85305 11.6411C6.61075 11.8731 6.28849 12.0029 5.95303 12.0039C5.91964 12.0049 5.88625 12.0037 5.85305 12Z" fill="#94A8F9"/>
</svg>
