<svg width="17" height="12" viewBox="0 0 17 12" fill="none" xmlns="http://www.w3.org/2000/svg">
<path d="M5.95101 11.9999C5.9177 12.0017 5.88432 12.0017 5.85101 11.9999C5.66928 11.9872 5.49232 11.936 5.33182 11.8499C5.17133 11.7637 5.03097 11.6444 4.92001 11.4999L0.25101 5.28489C0.152228 5.15401 0.0808449 5.00456 0.041125 4.84547C0.00140502 4.68638 -0.00583656 4.52091 0.0198333 4.35896C0.0455031 4.197 0.103558 4.04189 0.190528 3.90288C0.277497 3.76387 0.391597 3.64381 0.526009 3.54989C0.800037 3.35596 1.13847 3.27555 1.47044 3.32551C1.80241 3.37546 2.10219 3.5519 2.30701 3.81789L6.10701 8.85789L14.831 0.362894C15.0731 0.130653 15.3956 0.000976562 15.731 0.000976562C16.0665 0.000976562 16.3889 0.130653 16.631 0.362894C16.7491 0.476616 16.843 0.612985 16.9072 0.763845C16.9713 0.914706 17.0044 1.07696 17.0044 1.24089C17.0044 1.40483 16.9713 1.56708 16.9072 1.71794C16.843 1.8688 16.7491 2.00517 16.631 2.11889L6.85101 11.6369C6.60877 11.869 6.2865 11.999 5.95101 11.9999Z" fill="#5A77D0"/>
<path d="M5.85299 12C5.67102 11.9878 5.49375 11.9368 5.33303 11.8506C5.17231 11.7644 5.03184 11.6448 4.921 11.5L0.245998 5.29297C0.147366 5.16213 0.0761422 5.01253 0.0366015 4.85352C-0.0029392 4.6945 -0.00998182 4.52948 0.0158801 4.36768C0.041742 4.20588 0.0999776 4.05087 0.187114 3.91211C0.274251 3.77335 0.388487 3.65364 0.522991 3.56006C0.796898 3.36602 1.13525 3.28519 1.46722 3.33496C1.79919 3.38473 2.09903 3.56132 2.304 3.82715L6.104 8.86816L14.828 0.368164C15.0701 0.135923 15.3925 0.00585937 15.728 0.00585938C16.0635 0.00585937 16.3859 0.135923 16.628 0.368164C16.7461 0.481973 16.84 0.618099 16.9042 0.769043C16.9684 0.919986 17.0014 1.08257 17.0014 1.24658C17.0014 1.4106 16.9684 1.57269 16.9042 1.72363C16.84 1.87458 16.7461 2.01119 16.628 2.125L6.85499 11.6431C6.61253 11.8748 6.29041 12.0045 5.955 12.0059C5.9209 12.0063 5.88681 12.0044 5.85299 12Z" fill="#94A8F9"/>
</svg>
