<svg width="16" height="12" viewBox="0 0 16 12" fill="none" xmlns="http://www.w3.org/2000/svg">
<mask id="mask0_1_1773" style="mask-type:luminance" maskUnits="userSpaceOnUse" x="0" y="0" width="16" height="12">
<path d="M16 0H0V12H16V0Z" fill="white"/>
</mask>
<g mask="url(#mask0_1_1773)">
<path d="M9.66695 11.855C9.58186 11.8583 9.49896 11.8277 9.43636 11.77C9.37377 11.7123 9.33659 11.6321 9.33295 11.547C9.33359 11.5056 9.3428 11.4648 9.36001 11.4271C9.37723 11.3894 9.40206 11.3557 9.43295 11.328L15.1999 6.00304L9.43095 0.667041C9.4007 0.639089 9.37671 0.605055 9.36056 0.567174C9.3444 0.529294 9.33643 0.488424 9.33719 0.447248C9.33795 0.406072 9.3474 0.365521 9.36494 0.328259C9.38248 0.290997 9.4077 0.257866 9.43895 0.231042C9.50317 0.175252 9.58538 0.144531 9.67045 0.144531C9.75552 0.144531 9.83773 0.175252 9.90195 0.231042L15.9019 5.78004C15.9327 5.80743 15.9573 5.84102 15.9741 5.87859C15.991 5.91616 15.9997 5.95687 15.9997 5.99804C15.9997 6.03922 15.991 6.07992 15.9741 6.11749C15.9573 6.15506 15.9327 6.18865 15.9019 6.21604L9.90195 11.765C9.83763 11.8234 9.75378 11.8555 9.66695 11.855Z" fill="#576AA9"/>
<path d="M9.66597 12.003C9.54116 12.0076 9.4196 11.9627 9.3278 11.878C9.23601 11.7933 9.18142 11.6758 9.17596 11.551C9.17653 11.4905 9.18962 11.4307 9.2144 11.3755C9.23918 11.3202 9.27512 11.2707 9.31996 11.23L14.974 6.00302L9.31996 0.770016C9.27518 0.729061 9.2396 0.679072 9.21557 0.623351C9.19154 0.567629 9.1796 0.507442 9.18054 0.446766C9.18149 0.38609 9.1953 0.326304 9.22105 0.271358C9.24681 0.216412 9.28393 0.167556 9.32996 0.128016C9.42415 0.045794 9.54494 0.000488281 9.66996 0.000488281C9.79499 0.000488281 9.91578 0.045794 10.01 0.128016L16.01 5.67902C16.0549 5.71934 16.0908 5.76868 16.1154 5.82381C16.14 5.87895 16.1527 5.93864 16.1527 5.99902C16.1527 6.05939 16.14 6.11908 16.1154 6.17422C16.0908 6.22935 16.0549 6.27869 16.01 6.31902L10.01 11.868C9.91566 11.9538 9.79247 12.001 9.66496 12L9.66597 12.003ZM9.67096 0.289016C9.62539 0.28864 9.58127 0.305008 9.54696 0.335016C9.53055 0.349559 9.51742 0.367419 9.50842 0.387415C9.49942 0.407411 9.49477 0.429089 9.49477 0.451016C9.49477 0.472943 9.49942 0.49462 9.50842 0.514616C9.51742 0.534613 9.53055 0.552472 9.54696 0.567016L15.416 6.00302L9.54097 11.431C9.52469 11.4457 9.51165 11.4635 9.5027 11.4835C9.49374 11.5035 9.48907 11.5251 9.48897 11.547C9.49079 11.5922 9.51043 11.6348 9.5436 11.6656C9.57678 11.6963 9.62077 11.7126 9.66597 11.711C9.7122 11.7114 9.75686 11.6942 9.79097 11.663L15.791 6.11402C15.8074 6.09947 15.8205 6.08161 15.8295 6.06162C15.8385 6.04162 15.8432 6.01994 15.8432 5.99802C15.8432 5.97609 15.8385 5.95441 15.8295 5.93441C15.8205 5.91442 15.8074 5.89656 15.791 5.88202L9.79097 0.333016C9.75769 0.304163 9.715 0.288509 9.67096 0.289016Z" fill="#576AA9"/>
<path d="M15.667 6.30305H0.33298C0.29099 6.30544 0.248953 6.29923 0.209445 6.28481C0.169937 6.27039 0.13379 6.24805 0.103216 6.21917C0.0726424 6.19029 0.0482868 6.15547 0.0316407 6.11684C0.0149947 6.07822 0.00640869 6.0366 0.00640869 5.99455C0.00640869 5.95249 0.0149947 5.91087 0.0316407 5.87225C0.0482868 5.83363 0.0726424 5.79881 0.103216 5.76992C0.13379 5.74104 0.169937 5.71871 0.209445 5.70428C0.248953 5.68986 0.29099 5.68366 0.33298 5.68605H15.667C15.709 5.68366 15.751 5.68986 15.7905 5.70428C15.83 5.71871 15.8662 5.74104 15.8967 5.76992C15.9273 5.79881 15.9517 5.83363 15.9683 5.87225C15.985 5.91087 15.9936 5.95249 15.9936 5.99455C15.9936 6.0366 15.985 6.07822 15.9683 6.11684C15.9517 6.15547 15.9273 6.19029 15.8967 6.21917C15.8662 6.24805 15.83 6.27039 15.7905 6.28481C15.751 6.29923 15.709 6.30544 15.667 6.30305Z" fill="#576AA9"/>
<path d="M15.667 6.45107H0.332993C0.270973 6.45519 0.208767 6.44653 0.150229 6.42564C0.0916903 6.40474 0.038067 6.37204 -0.00731906 6.32957C-0.0527051 6.2871 -0.0888871 6.23577 -0.113623 6.17874C-0.13836 6.12172 -0.151123 6.06022 -0.151123 5.99807C-0.151123 5.93591 -0.13836 5.87442 -0.113623 5.81739C-0.0888871 5.76037 -0.0527051 5.70903 -0.00731906 5.66656C0.038067 5.6241 0.0916903 5.5914 0.150229 5.5705C0.208767 5.5496 0.270973 5.54094 0.332993 5.54507H15.667C15.729 5.54094 15.7912 5.5496 15.8498 5.5705C15.9083 5.5914 15.9619 5.6241 16.0073 5.66656C16.0527 5.70903 16.0889 5.76037 16.1136 5.81739C16.1383 5.87442 16.1511 5.93591 16.1511 5.99807C16.1511 6.06022 16.1383 6.12172 16.1136 6.17874C16.0889 6.23577 16.0527 6.2871 16.0073 6.32957C15.9619 6.37204 15.9083 6.40474 15.8498 6.42564C15.7912 6.44653 15.729 6.45519 15.667 6.45107ZM0.332993 5.83407C0.289498 5.83407 0.247784 5.85135 0.217028 5.8821C0.186272 5.91286 0.168993 5.95457 0.168993 5.99807C0.168993 6.04156 0.186272 6.08328 0.217028 6.11403C0.247784 6.14479 0.289498 6.16207 0.332993 6.16207H15.667C15.7105 6.16207 15.7522 6.14479 15.783 6.11403C15.8137 6.08328 15.831 6.04156 15.831 5.99807C15.831 5.95457 15.8137 5.91286 15.783 5.8821C15.7522 5.85135 15.7105 5.83407 15.667 5.83407H0.332993Z" fill="#576AA9"/>
</g>
<path d="M9.66602 12C9.54112 12.0043 9.41953 11.9591 9.32776 11.8743C9.23599 11.7894 9.18149 11.672 9.17603 11.5471C9.17683 11.4866 9.18996 11.4268 9.21472 11.3716C9.23949 11.3164 9.27529 11.2669 9.31995 11.2261L14.484 6.45093H0.332031C0.210153 6.4516 0.0920415 6.40883 -0.000976562 6.33008V5.66699C0.0922714 5.58875 0.21031 5.54635 0.332031 5.54712H14.484L9.31995 0.770996C9.27517 0.730041 9.23961 0.679989 9.21558 0.624268C9.19154 0.568546 9.1796 0.50843 9.18054 0.447754C9.18149 0.387078 9.19531 0.327407 9.22107 0.272461C9.24683 0.217515 9.28392 0.168446 9.32996 0.128906C9.42424 0.0468819 9.54508 0.00170898 9.67004 0.00170898C9.79501 0.00170898 9.91573 0.0468819 10.01 0.128906L16 5.66797V6.33105L10.012 11.8689C9.91719 11.9546 9.7938 12.0008 9.66602 12Z" fill="white"/>
</svg>
