<svg width="17" height="12" viewBox="0 0 17 12" fill="none" xmlns="http://www.w3.org/2000/svg">
<path d="M5.95104 11.9999C5.91773 12.0017 5.88435 12.0017 5.85104 11.9999C5.66931 11.9872 5.49235 11.936 5.33185 11.8499C5.17136 11.7637 5.031 11.6444 4.92004 11.4999L0.25104 5.28489C0.152259 5.15401 0.0808755 5.00456 0.0411555 4.84547C0.00143554 4.68638 -0.00580604 4.52091 0.0198638 4.35896C0.0455336 4.197 0.103588 4.04189 0.190558 3.90288C0.277528 3.76387 0.391627 3.64381 0.52604 3.54989C0.800068 3.35596 1.1385 3.27555 1.47047 3.32551C1.80244 3.37546 2.10222 3.5519 2.30704 3.81789L6.10704 8.85789L14.831 0.362894C15.0731 0.130653 15.3956 0.000976562 15.731 0.000976562C16.0665 0.000976562 16.389 0.130653 16.631 0.362894C16.7491 0.476616 16.843 0.612985 16.9072 0.763845C16.9714 0.914706 17.0044 1.07696 17.0044 1.24089C17.0044 1.40483 16.9714 1.56708 16.9072 1.71794C16.843 1.8688 16.7491 2.00517 16.631 2.11889L6.85104 11.6369C6.6088 11.869 6.28653 11.999 5.95104 11.9999Z" fill="#5A77D0"/>
<path d="M5.85301 12C5.67112 11.9868 5.49405 11.9353 5.33331 11.8491C5.17257 11.763 5.03176 11.6441 4.92001 11.5L0.246015 5.29199C0.147147 5.16132 0.0756746 5.01198 0.0359014 4.85303C-0.00387188 4.69407 -0.0111258 4.52902 0.0145543 4.36719C0.0402344 4.20536 0.0983333 4.04997 0.185361 3.91113C0.272389 3.7723 0.386547 3.65272 0.521009 3.55908C0.794917 3.36504 1.13327 3.28422 1.46524 3.33398C1.7972 3.38375 2.09705 3.56034 2.30201 3.82617L6.10202 8.86621L14.827 0.37207C15.0691 0.13983 15.3916 0.0102539 15.727 0.0102539C16.0625 0.0102539 16.3849 0.13983 16.627 0.37207C16.7451 0.485792 16.839 0.622089 16.9032 0.772949C16.9673 0.92381 17.0004 1.08606 17.0004 1.25C17.0004 1.41394 16.9673 1.57619 16.9032 1.72705C16.839 1.87791 16.7451 2.01421 16.627 2.12793L6.85301 11.647C6.61023 11.878 6.28815 12.007 5.95302 12.0078C5.91702 11.9998 5.88401 12 5.85301 12Z" fill="#94A8F9"/>
</svg>
