<svg width="17" height="12" viewBox="0 0 17 12" fill="none" xmlns="http://www.w3.org/2000/svg">
<path d="M5.95104 11.9999C5.91773 12.0017 5.88435 12.0017 5.85104 11.9999C5.66931 11.9872 5.49235 11.936 5.33185 11.8499C5.17136 11.7637 5.031 11.6444 4.92004 11.4999L0.25104 5.28489C0.152259 5.15401 0.0808755 5.00456 0.0411555 4.84547C0.00143554 4.68638 -0.00580604 4.52091 0.0198638 4.35896C0.0455336 4.197 0.103588 4.04189 0.190558 3.90288C0.277528 3.76387 0.391627 3.64381 0.52604 3.54989C0.800068 3.35596 1.1385 3.27555 1.47047 3.32551C1.80244 3.37546 2.10222 3.5519 2.30704 3.81789L6.10704 8.85789L14.831 0.362894C15.0731 0.130653 15.3956 0.000976562 15.731 0.000976562C16.0665 0.000976562 16.389 0.130653 16.631 0.362894C16.7491 0.476616 16.843 0.612985 16.9072 0.763845C16.9714 0.914706 17.0044 1.07696 17.0044 1.24089C17.0044 1.40483 16.9714 1.56708 16.9072 1.71794C16.843 1.8688 16.7491 2.00517 16.631 2.11889L6.85104 11.6369C6.6088 11.869 6.28653 11.999 5.95104 11.9999Z" fill="#5A77D0"/>
<path d="M5.85203 12C5.67024 11.9875 5.49318 11.9363 5.33265 11.8501C5.17212 11.7639 5.0318 11.6447 4.92103 11.5L0.247015 5.29199C0.148172 5.16118 0.0767616 5.01161 0.0370537 4.85254C-0.00265415 4.69347 -0.00983661 4.52813 0.0159356 4.36621C0.0417077 4.20429 0.0998986 4.04953 0.187032 3.91064C0.274166 3.77176 0.388445 3.65176 0.523016 3.55811C0.796968 3.36448 1.13517 3.28404 1.46691 3.33398C1.79864 3.38393 2.09822 3.56046 2.30301 3.82617L6.10302 8.86621L14.827 0.37207C15.0691 0.13983 15.3916 0.0102539 15.727 0.0102539C16.0625 0.0102539 16.385 0.13983 16.627 0.37207C16.7448 0.485937 16.8386 0.622108 16.9025 0.772949C16.9665 0.92379 16.9995 1.08615 16.9995 1.25C16.9995 1.41385 16.9665 1.57621 16.9025 1.72705C16.8386 1.87789 16.7448 2.01406 16.627 2.12793L6.85203 11.646C6.60946 11.8775 6.28731 12.0069 5.95202 12.0078C5.91856 12.0069 5.88519 12.0045 5.85203 12Z" fill="#94A8F9"/>
</svg>
