<svg width="17" height="12" viewBox="0 0 17 12" fill="none" xmlns="http://www.w3.org/2000/svg">
<path d="M5.95098 11.9999C5.91767 12.0017 5.88429 12.0017 5.85098 11.9999C5.66925 11.9872 5.49229 11.936 5.33179 11.8499C5.1713 11.7637 5.03094 11.6444 4.91998 11.4999L0.250979 5.28489C0.152198 5.15401 0.0808144 5.00456 0.0410945 4.84547C0.0013745 4.68638 -0.00586707 4.52091 0.0198027 4.35896C0.0454725 4.197 0.103527 4.04189 0.190497 3.90288C0.277467 3.76387 0.391566 3.64381 0.525979 3.54989C0.800007 3.35596 1.13843 3.27555 1.47041 3.32551C1.80238 3.37546 2.10216 3.5519 2.30698 3.81789L6.10698 8.85789L14.831 0.362894C15.073 0.130653 15.3955 0.000976562 15.731 0.000976562C16.0664 0.000976562 16.3889 0.130653 16.631 0.362894C16.7491 0.476616 16.843 0.612985 16.9071 0.763845C16.9713 0.914706 17.0044 1.07696 17.0044 1.24089C17.0044 1.40483 16.9713 1.56708 16.9071 1.71794C16.843 1.8688 16.7491 2.00517 16.631 2.11889L6.85098 11.6369C6.60874 11.869 6.28647 11.999 5.95098 11.9999Z" fill="#5A77D0"/>
<path d="M5.85199 12C5.6703 11.9877 5.49333 11.9368 5.33294 11.8506C5.17255 11.7644 5.03244 11.6448 4.92199 11.5L0.247005 5.29297C0.148409 5.1622 0.0771506 5.01292 0.0375324 4.854C-0.00208579 4.69509 -0.00925324 4.52992 0.0164142 4.36816C0.0420817 4.20641 0.10008 4.05144 0.186946 3.9126C0.273813 3.77376 0.387732 3.65388 0.521968 3.56006C0.795876 3.36602 1.13428 3.28519 1.46624 3.33496C1.79821 3.38473 2.09801 3.56132 2.30297 3.82715L6.10302 8.86816L14.827 0.368164C15.0691 0.135923 15.3915 0.00585937 15.727 0.00585938C16.0624 0.00585937 16.3849 0.135923 16.627 0.368164C16.7451 0.481973 16.839 0.618099 16.9032 0.769043C16.9674 0.919986 17.0004 1.08257 17.0004 1.24658C17.0004 1.4106 16.9674 1.57269 16.9032 1.72363C16.839 1.87458 16.7451 2.01119 16.627 2.125L6.85199 11.6431C6.60969 11.8751 6.28749 12.0048 5.95202 12.0059C5.91859 12.0061 5.88514 12.0043 5.85199 12Z" fill="#94A8F9"/>
</svg>
