<svg width="17" height="12" viewBox="0 0 17 12" fill="none" xmlns="http://www.w3.org/2000/svg">
<path d="M5.95098 11.9999C5.91767 12.0017 5.88429 12.0017 5.85098 11.9999C5.66925 11.9872 5.49229 11.936 5.33179 11.8499C5.1713 11.7637 5.03094 11.6444 4.91998 11.4999L0.250979 5.28489C0.152198 5.15401 0.0808144 5.00456 0.0410945 4.84547C0.0013745 4.68638 -0.00586707 4.52091 0.0198027 4.35896C0.0454725 4.197 0.103527 4.04189 0.190497 3.90288C0.277467 3.76387 0.391566 3.64381 0.525979 3.54989C0.800007 3.35596 1.13843 3.27555 1.47041 3.32551C1.80238 3.37546 2.10216 3.5519 2.30698 3.81789L6.10698 8.85789L14.831 0.362894C15.073 0.130653 15.3955 0.000976562 15.731 0.000976562C16.0664 0.000976562 16.3889 0.130653 16.631 0.362894C16.7491 0.476616 16.843 0.612985 16.9071 0.763845C16.9713 0.914706 17.0044 1.07696 17.0044 1.24089C17.0044 1.40483 16.9713 1.56708 16.9071 1.71794C16.843 1.8688 16.7491 2.00517 16.631 2.11889L6.85098 11.6369C6.60874 11.869 6.28647 11.999 5.95098 11.9999Z" fill="#5A77D0"/>
<path d="M5.85201 12C5.67022 11.9875 5.49319 11.9363 5.33266 11.8501C5.17214 11.7639 5.03182 11.6447 4.92104 11.5L0.247032 5.29199C0.148325 5.16113 0.0770063 5.01159 0.037376 4.85254C-0.0022543 4.69349 -0.00938593 4.52809 0.0163799 4.36621C0.0421457 4.20433 0.100286 4.04953 0.187339 3.91064C0.274392 3.77176 0.388575 3.65186 0.523033 3.55811C0.796985 3.36448 1.13515 3.28404 1.46688 3.33398C1.79862 3.38393 2.09821 3.56046 2.303 3.82617L6.10305 8.86621L14.828 0.37207C15.0701 0.13983 15.3926 0.0102539 15.7281 0.0102539C16.0635 0.0102539 16.3859 0.13983 16.628 0.37207C16.7461 0.485792 16.84 0.622089 16.9042 0.772949C16.9684 0.92381 17.0014 1.08606 17.0014 1.25C17.0014 1.41394 16.9684 1.57619 16.9042 1.72705C16.84 1.87791 16.7461 2.01421 16.628 2.12793L6.85305 11.646C6.6106 11.8776 6.28836 12.0071 5.95303 12.0078C5.91924 12.0069 5.88551 12.0045 5.85201 12Z" fill="#94A8F9"/>
</svg>
