<svg width="27" height="28" viewBox="0 0 27 28" fill="none" xmlns="http://www.w3.org/2000/svg">
<mask id="mask0_1_2532" style="mask-type:luminance" maskUnits="userSpaceOnUse" x="0" y="0" width="27" height="28">
<path d="M27 0H0V28H27V0Z" fill="white"/>
</mask>
<g mask="url(#mask0_1_2532)">
<path d="M26.305 1.761H23.263C23.2743 1.41433 23.28 1.06567 23.28 0.715C23.2813 0.622416 23.2644 0.530477 23.2302 0.444436C23.196 0.358395 23.1451 0.279936 23.0806 0.21354C23.0161 0.147145 22.9391 0.0941125 22.854 0.057473C22.769 0.0208334 22.6776 0.00130394 22.585 0L7.7 0C7.60742 0.00130394 7.516 0.0208334 7.43096 0.057473C7.34592 0.0941125 7.26894 0.147145 7.2044 0.21354C7.13986 0.279936 7.08903 0.358395 7.05482 0.444436C7.02061 0.530477 7.00368 0.622416 7.005 0.715C7.005 1.06567 7.01067 1.41433 7.022 1.761H3.983C3.89022 1.76164 3.7985 1.78072 3.71316 1.81713C3.62782 1.85354 3.55056 1.90655 3.4859 1.97308C3.42123 2.03961 3.37043 2.11833 3.33645 2.20467C3.30248 2.29101 3.28601 2.38324 3.288 2.476C3.23089 5.47232 4.02534 8.42332 5.579 10.986C6.13735 11.9936 6.9283 12.8532 7.88602 13.4933C8.84373 14.1334 9.94049 14.5354 11.085 14.666C11.5224 15.1667 12.0272 15.6042 12.585 15.966V19.143H11.424C10.7372 19.1548 10.083 19.438 9.6043 19.9306C9.12558 20.4232 8.86124 21.0852 8.869 21.772V22.972H8.82C8.63037 22.972 8.44851 23.0473 8.31442 23.1814C8.18033 23.3155 8.105 23.4974 8.105 23.687C8.105 23.8766 8.18033 24.0585 8.31442 24.1926C8.44851 24.3267 8.63037 24.402 8.82 24.402H21.469C21.6586 24.402 21.8405 24.3267 21.9746 24.1926C22.1087 24.0585 22.184 23.8766 22.184 23.687C22.184 23.4974 22.1087 23.3155 21.9746 23.1814C21.8405 23.0473 21.6586 22.972 21.469 22.972H21.42V21.772C21.4278 21.0852 21.1634 20.4232 20.6847 19.9306C20.206 19.438 19.5518 19.1548 18.865 19.143H17.7V15.966C18.2578 15.6042 18.7626 15.1667 19.2 14.666C20.3445 14.5354 21.4412 14.1333 22.3989 13.4932C23.3566 12.8531 24.1476 11.9935 24.706 10.986C26.2608 8.42366 27.0563 5.47262 27 2.476C27.002 2.38324 26.9855 2.29101 26.9515 2.20467C26.9176 2.11833 26.8668 2.03961 26.8021 1.97308C26.7374 1.90655 26.6602 1.85354 26.5748 1.81713C26.4895 1.78072 26.3978 1.76164 26.305 1.761ZM6.736 10.194C5.45151 8.08082 4.74683 5.66635 4.693 3.194H7.1C7.28026 6.19305 8.01182 9.13317 9.258 11.867C9.44334 12.2483 9.63667 12.6087 9.838 12.948C8.53982 12.3799 7.45321 11.4178 6.732 10.198M20.03 21.773V22.973H10.259V21.773C10.2547 21.4593 10.3751 21.1568 10.5937 20.9318C10.8124 20.7068 11.1113 20.5777 11.425 20.573H18.866C19.1797 20.5777 19.4787 20.7068 19.6973 20.9318C19.9159 21.1568 20.0363 21.4593 20.032 21.773M16.312 19.144H13.979V16.587C14.7419 16.7966 15.5471 16.7966 16.31 16.587L16.312 19.144ZM16.742 14.887C16.7108 14.9003 16.6808 14.916 16.652 14.934C16.1897 15.1842 15.6722 15.3153 15.1465 15.3153C14.6208 15.3153 14.1034 15.1842 13.641 14.934C13.6119 14.9158 13.5815 14.8997 13.55 14.886C12.9492 14.5423 12.417 14.0908 11.98 13.554C11.9541 13.5159 11.9247 13.4804 11.892 13.448C11.3434 12.7631 10.8762 12.0168 10.5 11.224C9.12398 8.14172 8.40863 4.80547 8.4 1.43H21.882C21.8732 4.80545 21.1579 8.14167 19.782 11.224C19.4088 12.0159 18.945 12.7619 18.4 13.447C18.3668 13.4796 18.337 13.5154 18.311 13.554C17.874 14.0907 17.3417 14.5422 16.741 14.886M23.554 10.194C22.8328 11.4138 21.7462 12.3759 20.448 12.944C20.648 12.6047 20.8413 12.2443 21.028 11.863C22.2741 9.12915 23.0057 6.18904 23.186 3.19H25.6C25.5462 5.66235 24.8415 8.07682 23.557 10.19" fill="white"/>
</g>
</svg>
