<svg width="40" height="40" viewBox="0 0 40 40" fill="none" xmlns="http://www.w3.org/2000/svg">
<path d="M19.769 31.7761C19.548 31.7762 19.3359 31.6889 19.179 31.5331L8.46704 20.8211C8.31659 20.6705 8.22938 20.468 8.22325 20.2552C8.21711 20.0423 8.29252 19.8352 8.43404 19.6761L16.462 10.6821C22.074 4.11713 31.212 -0.131875 39.181 0.00312546C39.3951 0.00796144 39.5991 0.095169 39.7506 0.2466C39.902 0.398032 39.9892 0.602024 39.994 0.816125C40.179 8.79013 35.882 17.9231 29.3 23.5471L20.321 31.5641C20.1696 31.7006 19.9729 31.7761 19.769 31.7761ZM10.2 20.1981L19.8 29.7981L28.205 22.2981C34.215 17.1611 38.205 8.97413 38.33 1.67213C31.03 1.79413 22.843 5.78613 17.716 11.7821L10.2 20.1981Z" fill="#FD8983"/>
<path d="M22.9611 37.8762C22.8803 37.8764 22.8 37.8639 22.7231 37.8392C22.5744 37.798 22.4403 37.7159 22.3359 37.6022C22.2316 37.4885 22.1613 37.3479 22.1331 37.1962L20.9891 29.2182C20.9735 29.1099 20.9794 28.9995 21.0065 28.8935C21.0336 28.7874 21.0813 28.6877 21.1469 28.6001C21.2125 28.5125 21.2947 28.4387 21.3889 28.3829C21.483 28.327 21.5872 28.2903 21.6956 28.2747C21.8039 28.2591 21.9142 28.2651 22.0203 28.2922C22.1263 28.3192 22.226 28.3669 22.3136 28.4326C22.4012 28.4982 22.4751 28.5804 22.5309 28.6745C22.5867 28.7687 22.6235 28.8729 22.6391 28.9812L23.5321 35.2152C26.4525 31.7294 28.0599 27.3307 28.0751 22.7832C28.0751 22.6738 28.0966 22.5654 28.1385 22.4642C28.1804 22.3631 28.2418 22.2712 28.3192 22.1938C28.3966 22.1164 28.4885 22.055 28.5896 22.0132C28.6907 21.9713 28.7991 21.9497 28.9086 21.9497C29.018 21.9497 29.1264 21.9713 29.2275 22.0132C29.3286 22.055 29.4205 22.1164 29.4979 22.1938C29.5753 22.2712 29.6367 22.3631 29.6786 22.4642C29.7205 22.5654 29.7421 22.6738 29.7421 22.7832C29.7279 28.3399 27.5231 33.6669 23.6061 37.6082C23.4336 37.7773 23.2026 37.8733 22.9611 37.8762Z" fill="#FD8983"/>
<path d="M10.9001 19.0191C10.8606 19.0197 10.8211 19.017 10.7821 19.0111L2.80506 17.8671C2.65139 17.8452 2.5069 17.7807 2.38789 17.6811C2.26888 17.5814 2.18008 17.4504 2.13153 17.303C2.08297 17.1556 2.07657 16.9975 2.11307 16.8466C2.14956 16.6957 2.22749 16.558 2.33806 16.4491C6.28667 12.5024 11.6353 10.2767 17.2181 10.2571C17.4391 10.2571 17.6511 10.3449 17.8074 10.5012C17.9637 10.6575 18.0516 10.8695 18.0516 11.0906C18.0516 11.3116 17.9637 11.5236 17.8074 11.68C17.6511 11.8363 17.4391 11.9241 17.2181 11.9241C12.6678 11.9366 8.26594 13.5438 4.77806 16.4661L11.0201 17.3661C11.2292 17.3953 11.4195 17.5028 11.5524 17.6669C11.6852 17.8311 11.7508 18.0396 11.7358 18.2502C11.7208 18.4609 11.6264 18.658 11.4716 18.8016C11.3168 18.9453 11.1132 19.0248 10.9021 19.0241L10.9001 19.0191Z" fill="#FD8983"/>
<path d="M28.5561 15.6091C27.5924 15.6091 26.6586 15.275 25.9136 14.6637C25.1687 14.0523 24.6588 13.2016 24.4709 12.2564C24.2829 11.3113 24.4285 10.3302 24.8828 9.48038C25.3372 8.63054 26.0721 7.96455 26.9625 7.59589C27.8528 7.22723 28.8435 7.17871 29.7656 7.45861C30.6877 7.7385 31.4842 8.32949 32.0195 9.13086C32.5547 9.93223 32.7954 10.8944 32.7007 11.8534C32.606 12.8124 32.1817 13.7089 31.5001 14.3901C31.1138 14.777 30.6548 15.0839 30.1496 15.2931C29.6444 15.5023 29.1029 15.6097 28.5561 15.6091ZM28.5561 8.94505C27.9777 8.94562 27.4173 9.14675 26.9706 9.51415C26.5238 9.88155 26.2183 10.3925 26.1061 10.9599C25.9938 11.5273 26.0818 12.1161 26.355 12.6259C26.6282 13.1358 27.0698 13.5351 27.6044 13.7558C28.1391 13.9766 28.7337 14.0051 29.287 13.8366C29.8403 13.668 30.3181 13.3128 30.6389 12.8315C30.9597 12.3502 31.1036 11.7725 31.0462 11.197C30.9888 10.6214 30.7336 10.0835 30.3241 9.67505C30.0919 9.44306 29.8162 9.25916 29.5128 9.1339C29.2094 9.00863 28.8843 8.94446 28.5561 8.94505Z" fill="#FD8983"/>
<path d="M0.83305 39.9981C0.702982 39.9986 0.574601 39.9686 0.458216 39.9105C0.34183 39.8525 0.240681 39.7679 0.162888 39.6637C0.0850959 39.5594 0.0328272 39.4384 0.0102784 39.3103C-0.0122704 39.1822 -0.00447122 39.0506 0.0330499 38.9261C0.30605 38.0141 2.75505 29.9571 4.53805 28.1741C5.5041 27.208 6.81435 26.6653 8.18055 26.6653C9.54675 26.6653 10.857 27.208 11.823 28.1741C12.7891 29.1401 13.3318 30.4504 13.3318 31.8166C13.3318 33.1828 12.7891 34.493 11.823 35.4591C10.04 37.2421 1.98305 39.6911 1.07105 39.9641C0.99356 39.9858 0.913534 39.9973 0.83305 39.9981ZM8.18305 28.3321C7.72541 28.3313 7.27212 28.4208 6.84913 28.5955C6.42614 28.7702 6.04178 29.0266 5.71805 29.3501C4.75705 30.3161 3.15705 34.6181 2.10005 37.8981C5.38005 36.8411 9.68405 35.2411 10.6451 34.2801C11.1325 33.7931 11.4646 33.1724 11.5992 32.4967C11.7338 31.8209 11.665 31.1204 11.4015 30.4838C11.1379 29.8471 10.6914 29.303 10.1185 28.9202C9.54566 28.5373 8.87208 28.332 8.18305 28.3321Z" fill="#FD8983"/>
<path d="M0.243042 39.7569C0.13699 39.6504 0.0616833 39.5173 0.0250701 39.3715C-0.011543 39.2258 -0.00809452 39.0729 0.0350494 38.9289C0.309049 38.0159 2.75704 29.96 4.54004 28.176C5.51017 27.2291 6.81442 26.7026 8.17004 26.7109C9.52567 26.7191 10.8234 27.2614 11.7819 28.22C12.7405 29.1787 13.2825 30.4765 13.2906 31.8321C13.2987 33.1877 12.7721 34.492 11.825 35.462C10.042 37.244 1.98505 39.694 1.07405 39.962C0.995884 39.9838 0.915189 39.9951 0.834045 39.9959C0.613335 39.9968 0.401104 39.911 0.243042 39.7569ZM5.71904 29.357C4.75704 30.322 3.15705 34.623 2.10005 37.905C5.38105 36.848 9.68404 35.247 10.646 34.286C11.2839 33.6293 11.6377 32.7482 11.6312 31.8328C11.6246 30.9175 11.2582 30.0414 10.611 29.394C9.96387 28.7466 9.08799 28.3798 8.17262 28.3729C7.25726 28.3659 6.37591 28.7195 5.71904 29.357ZM22.719 37.8449C22.5705 37.8034 22.4366 37.7212 22.3323 37.6076C22.2281 37.494 22.1577 37.3535 22.129 37.202L21.208 30.775L20.319 31.5699C20.167 31.7059 19.9701 31.7811 19.7661 31.781C19.5452 31.781 19.3333 31.694 19.176 31.5389L8.46405 20.8249C8.31316 20.6745 8.22564 20.472 8.2195 20.259C8.21336 20.046 8.28907 19.8389 8.43105 19.68L9.22404 18.7929L2.80304 17.8719C2.64957 17.8496 2.50535 17.7851 2.38658 17.6854C2.26781 17.5857 2.1792 17.4547 2.13069 17.3074C2.08218 17.1601 2.07569 17.0023 2.11197 16.8515C2.14824 16.7007 2.22585 16.563 2.33604 16.4539C6.18985 12.6031 11.3804 10.387 16.827 10.2669C22.466 3.94092 31.382 -0.123019 39.179 0.00898139C39.3933 0.0135635 39.5976 0.100565 39.7492 0.252023C39.9009 0.403481 39.9882 0.607699 39.993 0.82197C40.174 8.62197 36.0711 17.522 29.7381 23.171C29.6253 28.5945 27.4291 33.7664 23.605 37.614C23.4329 37.7829 23.2022 37.8789 22.961 37.8819C22.88 37.8801 22.7998 37.866 22.7231 37.8399L22.719 37.8449ZM22.701 29.4449L23.5291 35.223C26.0178 32.2469 27.5642 28.5972 27.971 24.739L22.701 29.4449ZM17.901 11.5649C17.8633 11.6195 17.8197 11.6698 17.771 11.7149L17.7101 11.786L11.61 18.623C11.5575 18.71 11.4898 18.7869 11.41 18.8499L10.2 20.206L19.8 29.806L21.16 28.5909C21.2205 28.5147 21.2935 28.4494 21.3761 28.3979L28.206 22.2979L28.306 22.2139C28.3438 22.1743 28.3853 22.1385 28.43 22.107C34.316 16.96 38.211 8.88395 38.33 1.67195C31.12 1.78895 23.047 5.68396 17.909 11.557L17.901 11.5649ZM4.77005 16.473L10.551 17.3029L15.2511 12.034C11.3971 12.4368 7.75083 13.9795 4.77805 16.4649L4.77005 16.473ZM25.601 14.3979C24.9175 13.7158 24.4916 12.8178 24.396 11.8569C24.3005 10.896 24.5411 9.93171 25.077 9.12837C25.6129 8.32502 26.4107 7.73227 27.3346 7.45136C28.2585 7.17045 29.2513 7.21873 30.1436 7.58784C31.036 7.95695 31.7727 8.62405 32.2281 9.47553C32.6836 10.327 32.8297 11.3101 32.6415 12.2573C32.4533 13.2044 31.9424 14.057 31.196 14.6696C30.4495 15.2823 29.5137 15.617 28.548 15.6169C27.4448 15.6122 26.3882 15.1711 25.609 14.39L25.601 14.3979ZM26.78 9.68293C26.369 10.0921 26.1126 10.6313 26.0546 11.2084C25.9966 11.7856 26.1406 12.3649 26.462 12.8477C26.7835 13.3305 27.2624 13.6869 27.8172 13.856C28.372 14.0252 28.9683 13.9966 29.5045 13.7752C30.0406 13.5539 30.4833 13.1535 30.7572 12.6422C31.031 12.1309 31.119 11.5403 31.0062 10.9714C30.8933 10.4024 30.5866 9.89037 30.1384 9.52229C29.6901 9.1542 29.1281 8.95295 28.548 8.95295C27.8893 8.95294 27.257 9.21236 26.788 9.675L26.78 9.68293Z" fill="#FD8983"/>
</svg>
