<svg width="39" height="39" viewBox="0 0 39 39" fill="none" xmlns="http://www.w3.org/2000/svg">
<path d="M31.051 39C30.9137 38.9999 30.7786 38.9656 30.658 38.9L19.5 32.727L8.343 38.9C8.20926 38.9747 8.05717 39.0101 7.9042 39.0022C7.75124 38.9943 7.6036 38.9434 7.47827 38.8554C7.35293 38.7673 7.25498 38.6457 7.19567 38.5045C7.13637 38.3633 7.11811 38.2082 7.143 38.057L9.283 24.927L0.231 15.633C0.127045 15.5261 0.054513 15.3926 0.0213407 15.2472C-0.0118315 15.1018 -0.00436521 14.95 0.0429225 14.8086C0.0902103 14.6671 0.175497 14.5414 0.289449 14.4452C0.403401 14.349 0.541628 14.286 0.689 14.263L13.175 12.353L18.765 0.430024C18.8384 0.299552 18.9453 0.190963 19.0745 0.115395C19.2038 0.0398266 19.3508 0 19.5005 0C19.6502 0 19.7972 0.0398266 19.9265 0.115395C20.0557 0.190963 20.1626 0.299552 20.236 0.430024L25.826 12.353L38.311 14.263C38.4586 14.2858 38.597 14.3488 38.7111 14.4451C38.8253 14.5414 38.9107 14.6673 38.958 14.8089C39.0053 14.9505 39.0127 15.1024 38.9794 15.248C38.946 15.3935 38.8732 15.5271 38.769 15.634L29.711 24.927L31.851 38.057C31.8766 38.2084 31.8587 38.364 31.7994 38.5056C31.7401 38.6472 31.6418 38.7691 31.516 38.857C31.3802 38.9545 31.2172 39.0069 31.05 39.007L31.051 39ZM19.5 30.983C19.6373 30.983 19.7724 31.0174 19.893 31.083L29.981 36.663L28.044 24.783C28.0237 24.6572 28.0331 24.5284 28.0715 24.4068C28.1098 24.2853 28.1761 24.1744 28.265 24.083L36.5 15.63L25.15 13.895C25.018 13.8748 24.8929 13.8224 24.786 13.7423C24.6791 13.6623 24.5935 13.5571 24.537 13.436L19.5 2.69102L14.462 13.437C14.4056 13.558 14.3201 13.6631 14.2131 13.7428C14.1061 13.8226 13.981 13.8746 13.849 13.894L2.5 15.63L10.739 24.083C10.8279 24.1744 10.8942 24.2853 10.9325 24.4068C10.9709 24.5284 10.9803 24.6572 10.96 24.783L9.023 36.663L19.11 31.082C19.2301 31.0162 19.365 30.9818 19.502 30.982L19.5 30.983Z" fill="#FDD750"/>
<path d="M7.48199 38.8521C7.35763 38.7639 7.26036 38.6427 7.20117 38.5022C7.14198 38.3617 7.12319 38.2076 7.14697 38.057L9.28698 24.927L0.229977 15.6331C0.125724 15.5261 0.0529957 15.3923 0.0197113 15.2467C-0.0135732 15.1011 -0.00610624 14.9491 0.0413177 14.8075C0.0887417 14.6658 0.174255 14.54 0.28851 14.4437C0.402765 14.3475 0.54137 14.2846 0.689023 14.262L13.174 12.3521L18.765 0.430054C18.8384 0.299581 18.9453 0.190925 19.0745 0.115356C19.2038 0.0397884 19.3508 0 19.5005 0C19.6502 0 19.7973 0.0397884 19.9265 0.115356C20.0558 0.190925 20.1626 0.299581 20.236 0.430054L25.826 12.3521L38.312 14.262C38.4598 14.2844 38.5985 14.3472 38.7128 14.4435C38.8272 14.5397 38.9127 14.6657 38.9601 14.8075C39.0074 14.9493 39.0148 15.1013 38.9813 15.2469C38.9477 15.3926 38.8746 15.5263 38.77 15.6331L29.712 24.926L31.852 38.056C31.8774 38.2074 31.8594 38.3628 31.8001 38.5044C31.7408 38.646 31.6427 38.7678 31.517 38.856C31.3811 38.9531 31.2181 39.0052 31.051 39.005C30.9137 39.005 30.7786 38.9707 30.658 38.905L19.502 32.7321L8.34399 38.905C8.21056 38.979 8.0589 39.0137 7.90655 39.0052C7.7542 38.9968 7.60735 38.9454 7.48297 38.8571L7.48199 38.8521ZM19.895 31.084L29.981 36.665L28.044 24.782C28.0236 24.6562 28.033 24.5273 28.0713 24.4058C28.1097 24.2842 28.1761 24.1733 28.265 24.082L36.504 15.629L25.155 13.8929C25.023 13.873 24.898 13.8209 24.791 13.741C24.6841 13.6611 24.5985 13.556 24.542 13.4351L19.501 2.68994L14.461 13.437C14.405 13.558 14.3198 13.663 14.2129 13.7427C14.106 13.8223 13.9809 13.8739 13.849 13.8929L2.49902 15.629L10.738 24.082C10.8268 24.1734 10.8931 24.2842 10.9315 24.4058C10.9698 24.5273 10.9792 24.6562 10.959 24.782L9.02197 36.665L19.109 31.084C19.2291 31.018 19.364 30.9836 19.501 30.984C19.6383 30.9841 19.7734 31.0184 19.894 31.084H19.895Z" fill="#FD8983"/>
</svg>
