<svg width="9" height="6" viewBox="0 0 9 6" fill="none" xmlns="http://www.w3.org/2000/svg">
<path d="M8.88 0.146213C8.84666 0.100743 8.80307 0.0637674 8.75277 0.0382802C8.70248 0.0127931 8.64688 -0.000488281 8.5905 -0.000488281C8.53411 -0.000488281 8.47852 0.0127931 8.42822 0.0382802C8.37793 0.0637674 8.33434 0.100743 8.301 0.146213L4.5 4.79321L0.699999 0.146213C0.666655 0.100743 0.623069 0.0637674 0.572773 0.0382802C0.522477 0.0127931 0.466884 -0.000488281 0.410499 -0.000488281C0.354114 -0.000488281 0.298521 0.0127931 0.248225 0.0382802C0.197929 0.0637674 0.154343 0.100743 0.120999 0.146213C0.0433909 0.247717 0.00134277 0.371939 0.00134277 0.499713C0.00134277 0.627486 0.0433909 0.751709 0.120999 0.853213L4.212 5.85321C4.24534 5.89868 4.28893 5.93566 4.33922 5.96115C4.38952 5.98663 4.44511 5.99991 4.5015 5.99991C4.55788 5.99991 4.61348 5.98663 4.66377 5.96115C4.71407 5.93566 4.75765 5.89868 4.791 5.85321L8.882 0.853213C8.95948 0.751558 9.00128 0.62719 9.00092 0.499374C9.00055 0.371558 8.95805 0.247428 8.88 0.146213Z" fill="#001027"></path>
<path d="M4.211 5.854L0.119995 0.853996C0.0419067 0.7527 -0.000427246 0.628397 -0.000427246 0.500496C-0.000427246 0.372594 0.0419067 0.248292 0.119995 0.146996C0.153361 0.101719 0.196932 0.0649182 0.247131 0.0395546C0.29733 0.0141909 0.352754 0.000976562 0.408997 0.000976562C0.465239 0.000976562 0.520724 0.0141909 0.570923 0.0395546C0.621122 0.0649182 0.664632 0.101719 0.697998 0.146996L4.49799 4.79399L8.29797 0.147995C8.33134 0.102719 8.37491 0.0659177 8.42511 0.040554C8.47531 0.0151904 8.53073 0.00197601 8.58698 0.00197601C8.64322 0.00197601 8.6987 0.0151904 8.7489 0.040554C8.7991 0.0659177 8.84261 0.102719 8.87598 0.147995C8.95374 0.24943 8.99591 0.37368 8.99591 0.501495C8.99591 0.629311 8.95374 0.75356 8.87598 0.854996L4.78497 5.855C4.7515 5.90028 4.70787 5.93708 4.65759 5.96244C4.60731 5.9878 4.5518 6.00101 4.49548 6.00101C4.43917 6.00101 4.38365 5.9878 4.33337 5.96244C4.28309 5.93708 4.23947 5.90028 4.20599 5.855L4.211 5.854Z" fill="#373144"></path>
</svg>
