<svg width="26" height="26" viewBox="0 0 26 26" fill="none" xmlns="http://www.w3.org/2000/svg">
<path d="M11.917 21.4001C11.8963 21.4012 11.8757 21.4012 11.855 21.4001C11.7382 21.391 11.6248 21.3568 11.5225 21.2999C11.4201 21.2429 11.3313 21.1646 11.262 21.0701L8.282 17.0001C8.21896 16.9141 8.1735 16.8164 8.14821 16.7128C8.12291 16.6091 8.11828 16.5015 8.13458 16.396C8.15088 16.2906 8.18778 16.1894 8.24319 16.0982C8.29859 16.0071 8.37142 15.9277 8.4575 15.8646C8.54358 15.8016 8.64123 15.7561 8.74489 15.7309C8.84854 15.7056 8.95615 15.7009 9.0616 15.7172C9.16704 15.7335 9.26824 15.7704 9.35941 15.8258C9.45059 15.8812 9.52996 15.9541 9.593 16.0401L12.012 19.3401L17.572 13.7801C17.6469 13.7021 17.7367 13.6397 17.836 13.5968C17.9353 13.5538 18.0422 13.5312 18.1504 13.5301C18.2586 13.529 18.3659 13.5495 18.4661 13.5904C18.5663 13.6313 18.6573 13.6919 18.7338 13.7684C18.8102 13.8449 18.8707 13.936 18.9115 14.0362C18.9523 14.1364 18.9728 14.2438 18.9716 14.352C18.9704 14.4602 18.9476 14.567 18.9046 14.6663C18.8616 14.7656 18.7991 14.8553 18.721 14.9301L12.492 21.1591C12.3395 21.312 12.1329 21.3985 11.917 21.4001Z" fill="#5A77D0"></path>
<path d="M23.021 26H2.979C2.18916 25.9992 1.4319 25.6851 0.873406 25.1266C0.314907 24.5681 0.000794205 23.8108 0 23.021L0 5.14599C0.000794205 4.35616 0.314907 3.5989 0.873406 3.0404C1.4319 2.4819 2.18916 2.16779 2.979 2.16699H23.021C23.8108 2.16779 24.5681 2.4819 25.1266 3.0404C25.6851 3.5989 25.9992 4.35616 26 5.14599V23.021C25.9992 23.8108 25.6851 24.5681 25.1266 25.1266C24.5681 25.6851 23.8108 25.9992 23.021 26ZM2.979 3.79199C2.62006 3.79252 2.27597 3.93534 2.02216 4.18915C1.76835 4.44296 1.62553 4.78705 1.625 5.14599V23.021C1.62553 23.3799 1.76835 23.724 2.02216 23.9778C2.27597 24.2316 2.62006 24.3745 2.979 24.375H23.021C23.3799 24.3745 23.724 24.2316 23.9778 23.9778C24.2316 23.724 24.3745 23.3799 24.375 23.021V5.14599C24.3745 4.78705 24.2316 4.44296 23.9778 4.18915C23.724 3.93534 23.3799 3.79252 23.021 3.79199H2.979Z" fill="#5A77D0"></path>
<path d="M25.188 10.292H0.813C0.602445 10.2846 0.40298 10.1958 0.256639 10.0442C0.110297 9.89263 0.0285091 9.69018 0.0285091 9.47949C0.0285091 9.26881 0.110297 9.06635 0.256639 8.91478C0.40298 8.76322 0.602445 8.67438 0.813 8.66699H25.188C25.3986 8.67438 25.598 8.76322 25.7444 8.91478C25.8907 9.06635 25.9725 9.26881 25.9725 9.47949C25.9725 9.69018 25.8907 9.89263 25.7444 10.0442C25.598 10.1958 25.3986 10.2846 25.188 10.292Z" fill="#5A77D0"></path>
<path d="M6.229 6.50006C6.01373 6.49979 5.80734 6.41416 5.65512 6.26193C5.5029 6.10971 5.41726 5.90333 5.417 5.68806V0.813056C5.42439 0.6025 5.51323 0.403035 5.66479 0.256694C5.81636 0.110353 6.01882 0.0285645 6.2295 0.0285645C6.44018 0.0285645 6.64264 0.110353 6.79421 0.256694C6.94577 0.403035 7.03461 0.6025 7.042 0.813056V5.68806C7.04173 5.9035 6.95596 6.11004 6.80352 6.26229C6.65109 6.41454 6.44445 6.50006 6.229 6.50006Z" fill="#5A77D0"></path>
<path d="M19.771 6.50006C19.5557 6.49979 19.3493 6.41416 19.1971 6.26193C19.0449 6.10971 18.9593 5.90333 18.959 5.68806V0.813056C18.9664 0.6025 19.0552 0.403035 19.2068 0.256694C19.3584 0.110353 19.5608 0.0285645 19.7715 0.0285645C19.9822 0.0285645 20.1846 0.110353 20.3362 0.256694C20.4878 0.403035 20.5766 0.6025 20.584 0.813056V5.68806C20.5837 5.9035 20.498 6.11004 20.3455 6.26229C20.1931 6.41454 19.9864 6.50006 19.771 6.50006Z" fill="#5A77D0"></path>
<path d="M2.979 26C2.18909 25.9995 1.43166 25.6854 0.873108 25.1268C0.314552 24.5683 0.000529791 23.8109 0 23.021V5.146C0.000529453 4.35599 0.314519 3.59851 0.873047 3.03979C1.43157 2.48108 2.18899 2.16681 2.979 2.16602H5.41699V0.812012C5.41699 0.596523 5.50259 0.3898 5.65497 0.237427C5.80734 0.0850534 6.014 -0.000488281 6.22949 -0.000488281C6.44498 -0.000488281 6.65164 0.0850534 6.80402 0.237427C6.95639 0.3898 7.04199 0.596523 7.04199 0.812012V2.16602H18.959V0.812012C18.959 0.596523 19.0446 0.3898 19.197 0.237427C19.3493 0.0850534 19.556 -0.000488281 19.7715 -0.000488281C19.987 -0.000488281 20.1936 0.0850534 20.346 0.237427C20.4984 0.3898 20.584 0.596523 20.584 0.812012V2.16602H23.022C23.812 2.16681 24.5694 2.48108 25.1279 3.03979C25.6865 3.59851 26.0004 4.35599 26.001 5.146V23.021C26.0004 23.8109 25.6864 24.5683 25.1279 25.1268C24.5693 25.6854 23.8119 25.9995 23.022 26H2.979ZM1.625 23.021C1.62526 23.38 1.76798 23.7243 2.02185 23.9781C2.27572 24.232 2.61998 24.3747 2.979 24.375H23.021C23.38 24.3747 23.7243 24.232 23.9781 23.9781C24.232 23.7243 24.3747 23.38 24.375 23.021V10.291H1.625V23.021ZM1.625 5.146V8.66699H24.374V5.146C24.3735 4.78706 24.2307 4.44302 23.9769 4.18921C23.7231 3.9354 23.379 3.79252 23.02 3.79199H20.582V5.69202C20.582 5.90751 20.4964 6.11411 20.344 6.26648C20.1916 6.41885 19.985 6.50452 19.7695 6.50452C19.554 6.50452 19.3473 6.41885 19.1949 6.26648C19.0426 6.11411 18.957 5.90751 18.957 5.69202V3.79199H7.04102V5.69202C7.04102 5.90751 6.95541 6.11411 6.80304 6.26648C6.65067 6.41885 6.444 6.50452 6.22852 6.50452C6.01303 6.50452 5.80637 6.41885 5.65399 6.26648C5.50162 6.11411 5.41602 5.90751 5.41602 5.69202V3.79199H2.97803C2.61926 3.79279 2.27538 3.93579 2.02179 4.18958C1.7682 4.44336 1.62553 4.78723 1.625 5.146ZM11.854 21.394C11.7373 21.3848 11.6239 21.3505 11.5215 21.2936C11.4192 21.2366 11.3304 21.1583 11.261 21.064L8.28101 17.001C8.16298 16.8267 8.11712 16.6135 8.15308 16.4061C8.18903 16.1988 8.30401 16.0135 8.47382 15.8892C8.64362 15.7648 8.85499 15.7112 9.06354 15.7395C9.27208 15.7678 9.4615 15.8759 9.59198 16.041L12.011 19.3409L17.57 13.781C17.7242 13.6376 17.9279 13.5597 18.1384 13.5635C18.3489 13.5673 18.5497 13.6527 18.6985 13.8015C18.8474 13.9504 18.9327 14.1511 18.9365 14.3616C18.9403 14.5721 18.8624 14.7759 18.719 14.9301L12.49 21.1591C12.337 21.3109 12.1305 21.3963 11.915 21.397C11.9 21.4 11.874 21.4 11.854 21.394Z" fill="#FD8983"></path>
</svg>
