<svg width="20" height="21" viewBox="0 0 20 21" fill="none" xmlns="http://www.w3.org/2000/svg">
<mask id="mask0_1_1202" style="mask-type: luminance" maskUnits="userSpaceOnUse" x="1" y="0" width="19" height="21">
<path d="M20 0H1V21H20V0Z" fill="white"></path>
</mask>
<g mask="url('#mask0_1_1202')">
<path d="M7.41501 17.2002C6.82277 17.2408 6.26805 17.5048 5.86291 17.9387C5.45778 18.3726 5.23245 18.9441 5.23245 19.5377C5.23245 20.1313 5.45778 20.7028 5.86291 21.1367C6.26805 21.5706 6.82277 21.8345 7.41501 21.8752C8.00724 21.8345 8.56197 21.5706 8.9671 21.1367C9.37223 20.7028 9.59756 20.1313 9.59756 19.5377C9.59756 18.9441 9.37223 18.3726 8.9671 17.9387C8.56197 17.5048 8.00724 17.2408 7.41501 17.2002Z" fill="#001027"></path>
<path d="M16.606 17.2002C16.0138 17.2408 15.4591 17.5048 15.0539 17.9387C14.6488 18.3726 14.4235 18.9441 14.4235 19.5377C14.4235 20.1313 14.6488 20.7028 15.0539 21.1367C15.4591 21.5706 16.0138 21.8345 16.606 21.8752C17.1983 21.8345 17.753 21.5706 18.1581 21.1367C18.5632 20.7028 18.7886 20.1313 18.7886 19.5377C18.7886 18.9441 18.5632 18.3726 18.1581 17.9387C17.753 17.5048 17.1983 17.2408 16.606 17.2002Z" fill="#001027"></path>
<path d="M19.919 4.496C19.881 4.43837 19.8293 4.39099 19.7686 4.35803C19.7079 4.32507 19.6401 4.30754 19.571 4.307H5.02201L4.70301 2.301C4.6239 1.67692 4.32397 1.10178 3.8575 0.679702C3.39104 0.257627 2.78887 0.0165094 2.16001 0H1.42901C1.31105 0.00417368 1.19956 0.0549324 1.11896 0.141155C1.03837 0.227377 0.995229 0.342033 0.999008 0.46C0.995229 0.577967 1.03837 0.692623 1.11896 0.778845C1.19956 0.865068 1.31105 0.915826 1.42901 0.92H2.15901C2.57832 0.929786 2.98013 1.09002 3.29112 1.37145C3.60211 1.65288 3.80153 2.03675 3.85301 2.453L5.57601 13.325C5.65536 13.9491 5.95553 14.5241 6.42219 14.946C6.88884 15.3679 7.49112 15.6088 8.12001 15.625H17.926C18.0428 15.6173 18.1522 15.5655 18.2322 15.4801C18.3122 15.3946 18.3567 15.282 18.3567 15.165C18.3567 15.048 18.3122 14.9354 18.2322 14.8499C18.1522 14.7645 18.0428 14.7127 17.926 14.705H8.12601C7.70702 14.695 7.30557 14.5348 6.99482 14.2536C6.68406 13.9724 6.48468 13.5889 6.43301 13.173L6.29101 12.29H15.92C16.4839 12.278 17.0287 12.083 17.4721 11.7343C17.9155 11.3856 18.2334 10.9022 18.378 10.357L19.978 4.904C19.9986 4.83582 20.004 4.76394 19.9938 4.69345C19.9836 4.62295 19.9581 4.55555 19.919 4.496Z" fill="#001027"></path>
</g>
<path d="M14.9 21C14.5854 20.5774 14.4165 20.0639 14.4189 19.537C14.3977 19.2374 14.4384 18.9366 14.5385 18.6533C14.6385 18.3701 14.7957 18.1105 15.0005 17.8907C15.2052 17.6708 15.4531 17.4956 15.7285 17.3757C16.004 17.2558 16.301 17.194 16.6014 17.194C16.9018 17.194 17.199 17.2558 17.4745 17.3757C17.7499 17.4956 17.9978 17.6708 18.2025 17.8907C18.4073 18.1105 18.5645 18.3701 18.6646 18.6533C18.7646 18.9366 18.8053 19.2374 18.7841 19.537C18.7868 20.0638 18.6182 20.5772 18.304 21H14.9ZM5.70801 21C5.39336 20.5774 5.2246 20.0639 5.22705 19.537C5.2068 19.2379 5.24822 18.9378 5.34875 18.6554C5.44929 18.373 5.60671 18.1142 5.8114 17.8952C6.0161 17.6762 6.26371 17.5016 6.5387 17.3822C6.81368 17.2628 7.11025 17.2012 7.41003 17.2012C7.70982 17.2012 8.00638 17.2628 8.28137 17.3822C8.55636 17.5016 8.80385 17.6762 9.00854 17.8952C9.21324 18.1142 9.37078 18.373 9.47131 18.6554C9.57185 18.9378 9.61327 19.2379 9.59302 19.537C9.5954 20.0638 9.427 20.5771 9.11304 21H5.70801ZM8.11499 15.626C7.48617 15.6096 6.88397 15.3686 6.41736 14.9468C5.95075 14.5249 5.65059 13.95 5.57104 13.326L3.84802 2.45202C3.79635 2.03612 3.59689 1.65262 3.28613 1.37141C2.97537 1.09021 2.57401 0.930013 2.15503 0.920023H1.42395C1.30553 0.914503 1.19379 0.863575 1.11194 0.777819C1.03009 0.692063 0.984497 0.578071 0.984497 0.459522C0.984497 0.340974 1.03009 0.226982 1.11194 0.141226C1.19379 0.0554699 1.30553 0.0045433 1.42395 -0.000976562H2.15503C2.78374 0.0154984 3.38573 0.256474 3.85217 0.678347C4.31862 1.10022 4.61867 1.67512 4.698 2.29902L5.01697 4.30502H19.5649C19.6339 4.30537 19.7019 4.3227 19.7626 4.35549C19.8233 4.38828 19.8749 4.43552 19.913 4.49302C19.9522 4.55286 19.978 4.62056 19.9884 4.69138C19.9988 4.76221 19.9935 4.83444 19.973 4.90302L18.373 10.356C18.2292 10.9015 17.9113 11.3853 17.4678 11.7339C17.0242 12.0826 16.4791 12.2771 15.915 12.288H6.28601L6.42798 13.172C6.47925 13.5881 6.67854 13.9718 6.98938 14.2531C7.30022 14.5344 7.70186 14.6944 8.12097 14.704H17.921C18.0394 14.7095 18.1512 14.7605 18.233 14.8462C18.3149 14.932 18.3606 15.046 18.3606 15.1645C18.3606 15.2831 18.3149 15.3971 18.233 15.4828C18.1512 15.5686 18.0394 15.6195 17.921 15.625L8.11499 15.626Z" fill="#37343A"></path>
</svg>
