<svg width="285" height="170" viewBox="0 0 285 170" fill="none" xmlns="http://www.w3.org/2000/svg">
<mask id="mask0_1_1827" style="mask-type: luminance" maskUnits="userSpaceOnUse" x="-38" y="-30" width="351" height="232">
<path d="M313 -30H-38V202H313V-30Z" fill="white"></path>
</mask>
<g mask="url('#mask0_1_1827')">
<path d="M21.492 17.7999C21.2724 17.7985 21.0581 17.7321 20.8761 17.6091C20.6942 17.4861 20.5527 17.3119 20.4696 17.1086C20.3866 16.9053 20.3655 16.682 20.4092 16.4667C20.4529 16.2515 20.5594 16.054 20.7152 15.8992C20.871 15.7443 21.0691 15.6391 21.2846 15.5968C21.5001 15.5544 21.7234 15.5769 21.9261 15.6612C22.1289 15.7456 22.3022 15.8881 22.4241 16.0708C22.5459 16.2536 22.611 16.4683 22.611 16.6879C22.6106 16.8344 22.5813 16.9794 22.5249 17.1146C22.4684 17.2498 22.3859 17.3725 22.2819 17.4758C22.178 17.5791 22.0548 17.6609 21.9192 17.7165C21.7837 17.7721 21.6385 17.8004 21.492 17.7999Z" fill="#0D0B3F"></path>
<path d="M17.427 17.7999C17.2074 17.7985 16.9931 17.7321 16.8111 17.6091C16.6292 17.4861 16.4877 17.3119 16.4046 17.1086C16.3216 16.9053 16.3005 16.682 16.3442 16.4667C16.3879 16.2515 16.4944 16.054 16.6502 15.8992C16.806 15.7443 17.0041 15.6391 17.2196 15.5968C17.4351 15.5544 17.6584 15.5769 17.8611 15.6612C18.0639 15.7456 18.2372 15.8881 18.3591 16.0708C18.4809 16.2536 18.546 16.4683 18.546 16.6879C18.5449 16.9837 18.4265 17.267 18.2167 17.4755C18.0068 17.684 17.7228 17.8007 17.427 17.7999Z" fill="#0D0B3F"></path>
<path d="M20.578 14.671C20.5794 14.8926 20.5149 15.1097 20.3927 15.2946C20.2706 15.4796 20.0963 15.6241 19.8919 15.7099C19.6875 15.7956 19.4622 15.8187 19.2446 15.7762C19.0271 15.7338 18.827 15.6277 18.6699 15.4713C18.5127 15.315 18.4055 15.1156 18.3619 14.8982C18.3183 14.6809 18.3402 14.4555 18.4248 14.2507C18.5094 14.0458 18.653 13.8707 18.8373 13.7476C19.0216 13.6244 19.2383 13.5588 19.46 13.559C19.6064 13.5586 19.7515 13.587 19.8869 13.6427C20.0223 13.6984 20.1455 13.7802 20.2493 13.8834C20.3531 13.9867 20.4356 14.1094 20.492 14.2445C20.5484 14.3796 20.5776 14.5245 20.578 14.671Z" fill="#0D0B3F"></path>
<path d="M20.578 18.713C20.5792 18.9346 20.5145 19.1516 20.3923 19.3364C20.27 19.5212 20.0956 19.6656 19.8912 19.7512C19.6867 19.8368 19.4615 19.8597 19.244 19.8171C19.0265 19.7746 18.8266 19.6684 18.6695 19.512C18.5125 19.3557 18.4054 19.1562 18.3618 18.9389C18.3183 18.7216 18.3402 18.4963 18.4249 18.2915C18.5096 18.0867 18.6531 17.9116 18.8374 17.7885C19.0217 17.6654 19.2384 17.5998 19.46 17.6C19.6064 17.5996 19.7515 17.628 19.8869 17.6837C20.0223 17.7394 20.1455 17.8212 20.2493 17.9244C20.3531 18.0277 20.4356 18.1504 20.492 18.2855C20.5484 18.4206 20.5776 18.5666 20.578 18.713Z" fill="#0D0B3F"></path>
</g>
</svg>
