<svg width="188" height="170" viewBox="0 0 188 170" fill="none" xmlns="http://www.w3.org/2000/svg">
<mask id="mask0_1_2070" style="mask-type: luminance" maskUnits="userSpaceOnUse" x="-150" y="-27" width="338" height="226">
<path d="M187.68 -27H-149.32V199H187.68V-27Z" fill="white"></path>
</mask>
<g mask="url('#mask0_1_2070')">
<path d="M31.046 110.614L30.466 110.314C30.482 110.283 32.066 107.166 31.289 105.222C31.1648 104.91 30.9714 104.629 30.7234 104.402C30.4754 104.175 30.1792 104.007 29.857 103.911C29.4848 103.769 29.0873 103.707 28.6896 103.726C28.2919 103.746 27.9025 103.847 27.546 104.025C25.613 104.986 24.636 107.91 24.626 107.939L24.006 107.739C24.049 107.608 25.076 104.527 27.255 103.439C27.6886 103.221 28.1627 103.096 28.6472 103.071C29.1317 103.046 29.6162 103.121 30.07 103.293C30.4814 103.42 30.859 103.637 31.1749 103.93C31.4908 104.222 31.7369 104.582 31.895 104.982C32.777 107.205 31.116 110.482 31.045 110.618" fill="#004383"></path>
<path d="M32.381 111.159L31.801 110.859C31.817 110.828 33.401 107.711 32.624 105.768C32.4999 105.455 32.3066 105.175 32.0586 104.948C31.8106 104.72 31.5143 104.552 31.192 104.456C30.82 104.315 30.4226 104.252 30.0251 104.271C29.6275 104.291 29.2383 104.393 28.882 104.57C26.949 105.531 25.972 108.455 25.962 108.484L25.342 108.284C25.385 108.153 26.412 105.073 28.591 103.984C29.0248 103.766 29.499 103.641 29.9837 103.616C30.4684 103.591 30.953 103.666 31.407 103.838C31.8182 103.965 32.1956 104.183 32.5113 104.475C32.827 104.767 33.073 105.127 33.231 105.527C34.113 107.75 32.452 111.027 32.381 111.163" fill="#004383"></path>
<path d="M29.585 138.3L34.573 119.954C30.481 125.027 20.873 134.044 7.099 129.115L6.877 129.545C6.82992 129.636 6.80231 129.736 6.79591 129.838C6.7895 129.941 6.80446 130.043 6.83981 130.14C6.87517 130.236 6.93016 130.324 7.00129 130.398C7.07242 130.472 7.15813 130.53 7.253 130.569L28.06 139.059C28.2093 139.12 28.3698 139.148 28.5309 139.142C28.6919 139.136 28.8498 139.095 28.9941 139.024C29.1384 138.952 29.2658 138.85 29.3679 138.725C29.4699 138.601 29.5433 138.456 29.585 138.3Z" fill="#F04D20"></path>
<path d="M34.572 119.949L36.319 113.526C36.3726 113.33 36.3527 113.121 36.263 112.938C36.1733 112.756 36.02 112.612 35.832 112.535L19.767 105.98C19.5984 105.911 19.4102 105.909 19.2395 105.972C19.0689 106.035 18.9281 106.16 18.845 106.322L7.10001 129.11C20.878 134.039 30.482 125.022 34.574 119.949" fill="#FC5E2C"></path>
<path d="M37.407 100.123L37.187 100.218C37.187 100.207 36.671 99.031 35.944 98.799C35.8273 98.7619 35.7038 98.7516 35.5826 98.7689C35.4614 98.7862 35.3456 98.8307 35.244 98.899C35.1172 98.9726 35.0069 99.0715 34.9198 99.1895C34.8328 99.3075 34.7709 99.4421 34.738 99.585C34.6841 100.197 34.8327 100.809 35.161 101.328L34.961 101.457C34.5956 100.885 34.4355 100.206 34.507 99.531C34.5465 99.357 34.6214 99.1929 34.727 99.0491C34.8326 98.9053 34.9668 98.7848 35.121 98.695C35.2517 98.6074 35.4006 98.5504 35.5565 98.5284C35.7123 98.5064 35.8711 98.52 36.021 98.568C36.853 98.834 37.388 100.068 37.411 100.121" fill="#004383"></path>
<path d="M37.871 99.87L37.651 99.965C37.651 99.953 37.136 98.778 36.409 98.545C36.2924 98.5076 36.1688 98.4972 36.0475 98.5145C35.9263 98.5319 35.8105 98.5765 35.709 98.645C35.5823 98.7185 35.472 98.8172 35.385 98.935C35.298 99.0528 35.236 99.1873 35.203 99.33C35.1491 99.9421 35.2981 100.555 35.627 101.074L35.427 101.202C35.0615 100.63 34.9014 99.9509 34.973 99.276C35.0125 99.1019 35.0874 98.9379 35.193 98.7941C35.2987 98.6503 35.4328 98.5297 35.587 98.44C35.7177 98.3522 35.8666 98.2952 36.0224 98.2732C36.1783 98.2512 36.3371 98.2648 36.487 98.313C37.318 98.579 37.854 99.813 37.877 99.867" fill="#004383"></path>
<path d="M44.864 106.981L40.857 101.29C41.334 103.637 41.638 108.472 37.044 111.252L37.113 111.416C37.1275 111.451 37.1491 111.482 37.1764 111.508C37.2037 111.534 37.2361 111.553 37.2716 111.566C37.3071 111.578 37.3447 111.583 37.3822 111.58C37.4196 111.577 37.456 111.566 37.489 111.548L44.723 107.593C44.7748 107.564 44.8201 107.525 44.8557 107.478C44.8914 107.431 44.9167 107.376 44.93 107.318C44.9433 107.261 44.9443 107.201 44.9329 107.143C44.9216 107.085 44.8981 107.03 44.864 106.981Z" fill="#003968"></path>
<path d="M40.857 101.291L39.457 99.2991C39.4147 99.2376 39.351 99.1941 39.2783 99.1771C39.2056 99.1601 39.1292 99.1708 39.064 99.2071L33.479 102.26C33.4203 102.292 33.3756 102.345 33.3538 102.409C33.332 102.472 33.3346 102.541 33.361 102.603L37.046 111.254C41.641 108.474 41.337 103.639 40.859 101.292" fill="#004383"></path>
<path d="M12.574 144.2L7.26001 119.038L48.383 119.021L41.722 144.19L12.574 144.2ZM8.48101 120.032L13.375 143.205L40.96 143.193L47.1 120.018L8.48101 120.032Z" fill="#004383"></path>
<path d="M46.304 124.427L9.06799 124.725L9.07596 125.721L46.312 125.423L46.304 124.427Z" fill="#004383"></path>
<path d="M44.591 130.914L10.832 131.117L10.838 132.113L44.597 131.91L44.591 130.914Z" fill="#004383"></path>
<path d="M42.474 137.818H11.838V138.814H42.474V137.818Z" fill="#004383"></path>
<path d="M53.344 116.458H48.405C48.2946 116.46 48.1876 116.497 48.0999 116.564C48.0122 116.631 47.9484 116.725 47.918 116.831C47.7067 117.615 47.4957 118.399 47.285 119.184C46.7623 121.13 46.2393 123.076 45.716 125.021L43.688 132.568C43.0147 135.072 42.3417 137.576 41.669 140.08L40.153 145.718C40.011 146.244 39.8693 146.77 39.728 147.296C39.6368 147.697 39.511 148.089 39.352 148.468C38.9828 149.269 38.3934 149.949 37.6527 150.428C36.9119 150.907 36.0502 151.166 35.168 151.174C34.831 151.174 34.494 151.174 34.157 151.174H28.029H20.229H15.291H15.049C14.918 151.18 14.7944 151.236 14.7038 151.331C14.6131 151.425 14.5626 151.551 14.5626 151.683C14.5626 151.814 14.6131 151.94 14.7038 152.034C14.7944 152.129 14.918 152.185 15.049 152.191H18.641H26.241H33.189H34.965C36.1123 152.217 37.2417 151.904 38.212 151.291C39.385 150.515 40.2325 149.336 40.594 147.977C40.6813 147.654 40.7683 147.33 40.855 147.007C41.2897 145.392 41.723 143.777 42.155 142.161C42.8037 139.747 43.4527 137.333 44.102 134.918C44.7973 132.331 45.4927 129.743 46.188 127.156L47.932 120.666C48.2373 119.533 48.5423 118.399 48.847 117.266L48.889 117.11L48.402 117.483H53.341C53.4757 117.483 53.6049 117.429 53.7002 117.334C53.7955 117.239 53.849 117.11 53.849 116.975C53.849 116.84 53.7955 116.711 53.7002 116.616C53.6049 116.521 53.4757 116.467 53.341 116.467" fill="#004383"></path>
<path d="M21.823 154.477C21.8202 154.998 21.6633 155.506 21.3719 155.938C21.0805 156.37 20.6677 156.706 20.1857 156.903C19.7037 157.101 19.174 157.151 18.6634 157.048C18.1528 156.944 17.6843 156.692 17.3168 156.323C16.9494 155.954 16.6996 155.484 16.5988 154.973C16.4981 154.462 16.551 153.932 16.7508 153.451C16.9507 152.97 17.2885 152.559 17.7217 152.27C18.1549 151.981 18.6641 151.826 19.185 151.826C19.8863 151.828 20.5582 152.108 21.0529 152.605C21.5476 153.102 21.8246 153.776 21.823 154.477Z" fill="#004383"></path>
<path d="M19.987 154.478C19.986 154.636 19.9383 154.79 19.8498 154.921C19.7613 155.052 19.636 155.154 19.4897 155.214C19.3434 155.273 19.1827 155.288 19.0279 155.257C18.873 155.226 18.731 155.149 18.6196 155.037C18.5082 154.925 18.4325 154.782 18.402 154.627C18.3716 154.472 18.3877 154.312 18.4484 154.166C18.5091 154.02 18.6116 153.895 18.7431 153.807C18.8745 153.72 19.029 153.673 19.187 153.673C19.2925 153.673 19.3969 153.694 19.4943 153.734C19.5917 153.775 19.6801 153.834 19.7545 153.909C19.8288 153.984 19.8876 154.073 19.9276 154.17C19.9675 154.268 19.9877 154.372 19.987 154.478Z" fill="#FFFCFF"></path>
<path d="M36.24 154.471C36.2372 154.992 36.0803 155.5 35.789 155.932C35.4977 156.364 35.0851 156.7 34.6032 156.897C34.1212 157.095 33.5916 157.145 33.0811 157.042C32.5706 156.939 32.102 156.687 31.7345 156.318C31.367 155.949 31.117 155.479 31.0161 154.968C30.9151 154.457 30.9677 153.928 31.1672 153.447C31.3668 152.966 31.7043 152.554 32.1372 152.265C32.5702 151.975 33.0792 151.821 33.6 151.82C33.9473 151.821 34.291 151.89 34.6116 152.024C34.9321 152.157 35.2232 152.353 35.4682 152.599C35.7132 152.845 35.9072 153.137 36.0393 153.458C36.1714 153.78 36.2389 154.124 36.238 154.471" fill="#004383"></path>
<path d="M34.46 154.471C34.46 154.629 34.4131 154.784 34.3252 154.915C34.2373 155.047 34.1123 155.15 33.9661 155.21C33.82 155.271 33.6591 155.287 33.5039 155.256C33.3487 155.225 33.2062 155.149 33.0943 155.037C32.9824 154.925 32.9062 154.782 32.8754 154.627C32.8445 154.472 32.8603 154.311 32.9209 154.165C32.9814 154.019 33.084 153.894 33.2155 153.806C33.3471 153.718 33.5018 153.671 33.66 153.671C33.8722 153.671 34.0756 153.755 34.2257 153.905C34.3757 154.055 34.46 154.259 34.46 154.471Z" fill="#FFFCFF"></path>
<path d="M18.0631 119.482L17.078 119.582L19.4826 143.75L20.4677 143.65L18.0631 119.482Z" fill="#004383"></path>
<path d="M36.3074 119.479L33.927 143.648L34.9121 143.746L37.2925 119.577L36.3074 119.479Z" fill="#004383"></path>
<path d="M27.648 119.528H26.658V143.698H27.648V119.528Z" fill="#004383"></path>
<path d="M90.97 144.782C91.2638 143.92 91.6589 143.097 92.147 142.328L92.547 142.442C92.8575 141.853 93.1091 141.234 93.298 140.595C94.7321 140.788 96.1869 140.767 97.615 140.534C99.0317 140.133 100.401 139.579 101.698 138.883C104.904 137.42 108.371 136.615 111.893 136.515C112.152 136.533 112.412 136.477 112.64 136.352C113.04 136.079 113.021 135.492 112.931 135.017C112.657 133.573 112.103 132.197 111.301 130.966L115.701 126.993C116.819 129.879 116.59 130.261 117.126 132.653C117.213 133.045 117.589 135.216 117.633 135.617C117.807 137.223 117.506 138.695 115.459 139.398C108.471 141.798 102.026 141.598 95.251 143.228C94.3255 143.546 93.481 144.063 92.7769 144.743C92.0728 145.423 91.5264 146.248 91.176 147.162C90.9569 146.809 90.8245 146.409 90.7897 145.996C90.755 145.582 90.8188 145.165 90.976 144.781" fill="#FDA893"></path>
<path d="M94.275 140.545C93.8655 140.316 93.3864 140.245 92.928 140.345C92.8245 140.357 92.7234 140.385 92.628 140.427L89.928 141.016L89.914 141.416C90.6971 141.131 91.5316 141.014 92.363 141.072C92.0654 141.664 91.7369 142.24 91.379 142.798C90.9128 143.42 90.4875 144.071 90.106 144.748C89.9699 145.105 89.887 145.479 89.86 145.86C89.7351 147.055 89.7883 148.261 90.018 149.44C90.0215 149.488 90.0421 149.533 90.076 149.567C90.142 149.618 90.24 149.575 90.307 149.524C90.5964 149.253 90.7998 148.902 90.892 148.516L91.319 147.267C91.3558 147.175 91.3777 147.078 91.384 146.979C91.3702 146.84 91.3326 146.705 91.273 146.579C91.0928 145.853 91.1831 145.087 91.527 144.423C92.127 142.968 93.371 141.844 94.278 140.548" fill="#2D2014"></path>
<path d="M110.78 154.726C110.305 151.411 108.58 148.274 108.747 144.926C108.863 143.749 109.052 142.58 109.313 141.426C109.86 138.34 109.768 135.175 109.044 132.126L114.29 130.981C114.658 138.34 112.656 141.859 113.036 149.218C113.116 151.223 113.307 153.223 113.609 155.207C113.747 155.914 113.954 156.605 114.229 157.27C114.252 157.322 114.276 157.37 114.298 157.429C114.949 158.958 115.723 160.432 116.613 161.836C116.076 162.008 115.51 162.067 114.949 162.01C114.127 161.894 111.907 159.825 111.449 159.002C111.189 158.509 110.964 157.999 110.775 157.475C110.624 157.361 110.475 157.248 110.318 157.136C110.569 156.792 110.741 156.397 110.821 155.978C110.901 155.56 110.887 155.129 110.78 154.717" fill="#F29785"></path>
<path d="M119.253 163.659C119.035 163.268 118.708 162.949 118.311 162.742L117.056 161.925C116.965 161.858 116.864 161.807 116.756 161.772C116.597 161.745 116.435 161.745 116.276 161.772C115.423 161.755 114.604 161.436 113.964 160.872C112.532 159.813 111.664 158.155 110.496 156.813C110.123 157.179 109.902 157.671 109.875 158.192C109.856 158.308 109.856 158.425 109.875 158.541L109.719 161.592L110.156 161.722C110.074 160.803 110.194 159.877 110.507 159.009C111.073 159.497 111.613 160.015 112.125 160.559C112.675 161.238 113.269 161.881 113.903 162.483C114.259 162.733 114.649 162.93 115.061 163.068C116.35 163.548 117.702 163.841 119.074 163.937C119.128 163.947 119.184 163.938 119.232 163.911C119.308 163.855 119.29 163.739 119.254 163.652" fill="#2D2014"></path>
<path d="M108.34 81.987C109.788 80.734 111.897 81.634 112.849 82.487C113.841 83.32 114.505 84.4781 114.723 85.755C114.97 87.692 113.823 89.593 114.011 91.537C114.146 92.964 114.973 94.215 115.492 95.55C116.175 97.3223 116.32 99.257 115.907 101.111C115.714 102.238 115.143 103.266 114.287 104.024C113.798 104.372 113.242 104.616 112.655 104.741C112.067 104.866 111.461 104.87 110.872 104.752C110.025 104.653 109.23 104.291 108.6 103.717C107.969 103.143 107.534 102.386 107.356 101.552C107.127 100.612 107.044 99.6431 107.108 98.678" fill="#49270B"></path>
<path d="M111.815 86.412C111.575 87.0014 111.459 87.6336 111.471 88.2697C111.484 88.9059 111.627 89.5327 111.89 90.112C112.342 91.296 113.034 92.377 113.49 93.561C114.094 95.1436 114.259 96.8603 113.967 98.529C113.877 99.2537 113.591 99.9402 113.141 100.515C112.592 101.033 111.886 101.354 111.134 101.425C110.383 101.496 109.629 101.315 108.992 100.909C107.734 100.059 106.729 98.8842 106.085 97.509" fill="#351905"></path>
<path d="M111.617 88.7521C111.646 89.049 111.626 89.3487 111.557 89.6391C111.22 92.2225 111.441 94.8481 112.204 97.3391C111.893 97.4891 111.538 97.5228 111.204 97.4341C109.484 96.5989 107.827 95.6408 106.245 94.5671C106.209 94.5454 106.178 94.5164 106.154 94.4821C106.086 94.3681 106.193 94.2331 106.288 94.1421C107.229 93.1854 107.887 91.9867 108.188 90.6791C108.488 89.3753 108.619 88.0383 108.577 86.701" fill="white"></path>
<path d="M111.768 95.314C110.118 95.19 108.994 93.56 107.445 92.974C107.291 92.9013 107.118 92.8786 106.951 92.909C106.733 93.0015 106.558 93.1745 106.464 93.392C105.808 94.5126 105.199 95.6596 104.637 96.833C104.225 97.6357 103.906 98.4824 103.684 99.357C103.419 100.86 103.46 102.401 103.805 103.887C104.096 105.438 104.502 106.966 105.019 108.457C105.052 108.667 105.155 108.859 105.31 109.004C105.465 109.149 105.664 109.238 105.876 109.257C108.233 109.834 110.627 110.24 113.042 110.474C113.149 110.493 113.258 110.486 113.361 110.453C113.556 110.374 113.631 110.142 113.683 109.939L115.045 104.649C115.259 103.946 115.38 103.218 115.406 102.483C115.287 101.563 114.913 100.694 114.326 99.975C113.38 98.4759 112.525 96.9215 111.766 95.32" fill="white"></path>
<path d="M112.317 109.45C113.439 112.535 114.866 115.5 116.577 118.301C117.326 119.44 118.167 120.514 118.925 121.645C120.719 124.328 122.026 127.307 122.783 130.445C121.24 130.162 119.65 130.274 118.161 130.769C116.672 131.264 115.333 132.127 114.266 133.278C113.432 134.426 112.488 135.49 111.447 136.455C109.948 137.384 108.21 137.855 106.447 137.81C104.076 137.934 101.699 137.884 99.335 137.66C100.935 135.504 101.26 132.65 101.187 129.96C101.114 127.27 100.704 124.56 101.07 121.897C101.356 120.173 101.819 118.482 102.449 116.852C103.394 114.185 104.409 111.546 105.495 108.935" fill="white"></path>
<g opacity="0.52">
<mask id="mask1_1_2070" style="mask-type: luminance" maskUnits="userSpaceOnUse" x="103" y="117" width="5" height="18">
<path d="M107.913 117.438H103.968V134.059H107.913V117.438Z" fill="white"></path>
</mask>
<g mask="url('#mask1_1_2070')">
<path d="M105.464 134.057C106.475 134.109 107.345 133.119 107.691 131.88C107.991 130.56 107.983 129.189 107.668 127.872C107.397 126.536 106.963 125.255 106.637 123.936C106.112 121.811 105.869 119.625 105.914 117.436C105.501 118.527 105.229 119.667 105.104 120.827C104.671 123.666 104.237 126.51 104.027 129.417C103.91 131.047 103.797 133.797 105.464 134.055" fill="white"></path>
</g>
</g>
<g opacity="0.52">
<mask id="mask2_1_2070" style="mask-type: luminance" maskUnits="userSpaceOnUse" x="111" y="110" width="7" height="18">
<path d="M117.143 110.95H111.979V127.23H117.143V110.95Z" fill="white"></path>
</mask>
<g mask="url('#mask2_1_2070')">
<path d="M115.472 127.225C116.472 127.041 117.087 125.876 117.139 124.589C117.129 123.236 116.806 121.903 116.196 120.695C115.626 119.458 114.91 118.312 114.29 117.104C113.291 115.158 112.554 113.088 112.097 110.949C111.945 112.106 111.942 113.279 112.086 114.437C112.315 117.3 112.546 120.168 113.008 123.044C113.268 124.657 113.789 127.359 115.471 127.224" fill="white"></path>
</g>
</g>
<g opacity="0.52">
<mask id="mask3_1_2070" style="mask-type: luminance" maskUnits="userSpaceOnUse" x="106" y="97" width="9" height="13">
<path d="M114.56 97.767H106.121V109.555H114.56V97.767Z" fill="white"></path>
</mask>
<g mask="url('#mask3_1_2070')">
<path d="M106.507 98.928C105.847 101.636 106.037 104.482 107.051 107.078C107.275 107.763 107.675 108.379 108.209 108.863C109.165 109.453 110.295 109.695 111.409 109.549C111.627 109.568 111.846 109.515 112.031 109.398C112.154 109.283 112.242 109.136 112.288 108.974C112.588 108.157 118.388 104.704 110.204 97.767" fill="white"></path>
</g>
</g>
<path d="M111.761 95.3C111.801 96.3225 111.944 97.3383 112.188 98.332C112.223 98.474 112.21 98.69 112.064 98.693C112.02 98.6899 111.978 98.6747 111.942 98.649L108.232 96.498C107.808 96.2641 107.399 96.0033 107.008 95.717C106.933 95.6706 106.875 95.6001 106.845 95.517C106.841 95.4628 106.847 95.4084 106.865 95.3569C106.882 95.3053 106.909 95.2578 106.945 95.217L107.805 93.906C107.855 93.8151 107.926 93.7381 108.013 93.682C108.228 93.569 108.476 93.736 108.667 93.882C109.547 94.5644 110.574 95.0324 111.667 95.249" fill="white"></path>
<path d="M105.339 109.025C105.339 109.025 112.725 110.117 113.782 109.554L113.927 110.62C113.927 110.62 108.027 111.185 104.985 110.188L105.339 109.025Z" fill="white"></path>
<path d="M114.839 108.993C115.476 108.757 113.563 104.067 112.693 101.665C112.057 99.9153 110.973 98.3635 109.548 97.165C109.191 96.8244 108.748 96.5869 108.267 96.478C107.764 96.4579 107.27 96.618 106.874 96.9297C106.479 97.2414 106.207 97.684 106.109 98.178C105.939 99.1776 106.054 100.205 106.441 101.142C107.502 104.36 109.164 107.346 111.341 109.942C111.415 110.049 111.52 110.131 111.641 110.179C111.795 110.204 111.954 110.175 112.089 110.096C113.06 109.666 113.873 109.428 114.844 108.996" fill="white"></path>
<path d="M106.006 87.53C106.796 89.2856 108.201 90.6918 109.956 91.484C110.721 91.9009 111.605 92.0468 112.463 91.898C113.111 91.651 113.421 90.682 113.663 90.032C113.943 89.3274 114.093 88.5774 114.103 87.819C114.035 85.982 113.82 84.706 112.551 83.384C111.192 81.969 108.675 83.428 106.877 83.101" fill="#FDA893"></path>
<path d="M114.576 85.538C114.067 85.246 114.355 85.053 113.135 85.302C112.991 85.3339 112.852 85.3864 112.723 85.458C112.702 85.494 112.695 85.5365 112.704 85.5773C112.712 85.6181 112.735 85.6543 112.769 85.679C112.845 85.7278 112.934 85.7496 113.024 85.741C113.289 85.7107 113.549 85.6434 113.795 85.541C113.919 85.4892 114.052 85.4626 114.186 85.4626C114.32 85.4626 114.453 85.4892 114.577 85.541" fill="#49270B"></path>
<path d="M109.736 86.4001C110.121 85.9411 109.771 85.8681 111.045 85.6481C111.196 85.6247 111.35 85.6227 111.502 85.6421C111.535 85.6674 111.558 85.7044 111.565 85.7457C111.571 85.787 111.562 85.8293 111.539 85.8641C111.483 85.9377 111.404 85.991 111.315 86.0161C111.046 86.0847 110.769 86.1163 110.492 86.1101C110.212 86.1051 109.941 86.2087 109.735 86.3991" fill="#351905"></path>
<path d="M113.531 89.292C112.791 89.4568 112.041 89.574 111.286 89.643C111.458 89.8708 111.672 90.0636 111.917 90.211C112.039 90.2839 112.175 90.3319 112.316 90.3521C112.457 90.3724 112.6 90.3645 112.738 90.329C112.949 90.2397 113.133 90.097 113.272 89.915C113.411 89.733 113.5 89.519 113.531 89.292Z" fill="white"></path>
<path d="M112.908 86.653C113.027 86.5285 113.171 86.4298 113.33 86.363C113.458 86.311 113.647 86.269 113.725 86.408C113.74 86.4346 113.766 86.4539 113.795 86.4618C113.825 86.4696 113.856 86.4654 113.883 86.45C113.91 86.4346 113.929 86.4094 113.937 86.3797C113.945 86.3501 113.94 86.3186 113.925 86.292C113.861 86.198 113.765 86.1295 113.656 86.0984C113.546 86.0673 113.429 86.0757 113.325 86.122C113.107 86.1981 112.911 86.3237 112.75 86.489C112.65 86.595 112.809 86.759 112.913 86.652" fill="#F29785"></path>
<path d="M110.828 87.021C110.837 86.9895 110.85 86.959 110.865 86.93C110.873 86.9151 110.881 86.9008 110.891 86.887C110.91 86.859 110.884 86.894 110.897 86.88L110.916 86.859C110.924 86.85 110.934 86.8422 110.945 86.836C110.964 86.8233 110.984 86.812 111.005 86.802C111.051 86.7798 111.1 86.7649 111.151 86.758C111.197 86.7524 111.244 86.7524 111.29 86.758C111.267 86.758 111.29 86.758 111.298 86.758L111.329 86.763L111.39 86.777C111.482 86.7991 111.571 86.8295 111.657 86.868C111.684 86.8833 111.715 86.8874 111.745 86.8794C111.774 86.8714 111.799 86.852 111.814 86.8255C111.83 86.799 111.834 86.7675 111.826 86.738C111.818 86.7084 111.799 86.6833 111.772 86.668C111.558 86.5521 111.313 86.506 111.072 86.536C110.953 86.5571 110.842 86.612 110.753 86.694C110.684 86.7693 110.634 86.8598 110.607 86.958C110.602 86.9729 110.599 86.9888 110.6 87.0047C110.601 87.0205 110.606 87.036 110.613 87.0501C110.62 87.0642 110.63 87.0767 110.643 87.0867C110.655 87.0967 110.669 87.104 110.684 87.1082C110.7 87.1125 110.716 87.1135 110.731 87.1112C110.747 87.1089 110.762 87.1034 110.776 87.0951C110.789 87.0867 110.801 87.0756 110.81 87.0625C110.819 87.0494 110.825 87.0346 110.828 87.019" fill="#F29785"></path>
<g opacity="0.34">
<mask id="mask4_1_2070" style="mask-type: luminance" maskUnits="userSpaceOnUse" x="110" y="87" width="2" height="2">
<path d="M111.842 87.5551H110.007V88.9541H111.842V87.5551Z" fill="white"></path>
</mask>
<g mask="url('#mask4_1_2070')">
<path d="M111.842 88.2541C111.895 88.4461 111.886 88.6499 111.817 88.8367C111.748 89.0234 111.622 89.1838 111.456 89.2952C111.291 89.4066 111.096 89.4634 110.896 89.4577C110.697 89.4519 110.505 89.3839 110.347 89.2631C110.188 89.1423 110.072 88.9749 110.014 88.7845C109.955 88.594 109.958 88.3901 110.022 88.2014C110.086 88.0127 110.207 87.8488 110.369 87.7326C110.531 87.6165 110.725 87.5541 110.924 87.5541C111.138 87.5288 111.353 87.5877 111.525 87.7183C111.696 87.849 111.81 88.0411 111.842 88.2541Z" fill="#F04D20"></path>
</g>
</g>
<g opacity="0.34">
<mask id="mask5_1_2070" style="mask-type: luminance" maskUnits="userSpaceOnUse" x="113" y="87" width="2" height="2">
<path d="M114.121 87.234H113.192V88.626H114.121V87.234Z" fill="white"></path>
</mask>
<g mask="url('#mask5_1_2070')">
<path d="M114.089 87.234C113.878 87.2124 113.666 87.2731 113.499 87.4035C113.331 87.5339 113.22 87.7239 113.189 87.934C113.217 88.1381 113.322 88.3239 113.482 88.4538C113.642 88.5837 113.845 88.6481 114.051 88.634C114.125 88.1733 114.136 87.7048 114.085 87.241" fill="#F04D20"></path>
</g>
</g>
<path d="M112.211 86.4C112.241 86.7639 112.353 87.1163 112.539 87.4304C112.726 87.7446 112.981 88.0122 113.286 88.213C113.272 88.161 113.259 88.108 113.245 88.055C113.111 88.2296 112.951 88.3827 112.77 88.509C112.65 88.594 112.764 88.793 112.885 88.709C113.097 88.5596 113.285 88.3784 113.442 88.172C113.457 88.1455 113.461 88.1141 113.454 88.0846C113.446 88.0551 113.427 88.0298 113.401 88.014C113.129 87.8345 112.902 87.5961 112.735 87.3165C112.569 87.0368 112.467 86.7232 112.439 86.399C112.427 86.252 112.198 86.251 112.21 86.399" fill="#F29785"></path>
<path d="M98.879 103.349C100.901 103.142 102.504 101.605 103.935 100.149C105.119 99.1514 105.997 97.8382 106.465 96.362C106.588 95.4599 106.608 94.5467 106.524 93.64C106.481 91.0877 107.194 88.5796 108.574 86.432C109.287 85.332 110.174 84.332 110.787 83.176C111.017 82.7466 111.197 82.2919 111.322 81.821C111.496 82.0226 111.638 82.2495 111.744 82.494C112.198 85.188 110.05 87.711 110.108 90.443C110.216 91.5216 110.42 92.5883 110.72 93.63C111.128 95.2534 110.932 96.97 110.167 98.459C109.503 99.598 108.393 100.442 107.829 101.634C107.165 103.041 107.361 104.712 106.861 106.186C106.507 107.234 105.806 108.129 104.873 108.722C104.319 109.06 103.71 109.297 103.073 109.422C102.071 109.633 101.032 109.602 100.045 109.33C99.0571 109.058 98.1489 108.554 97.396 107.859C96.6994 107.183 96.1858 106.342 95.9033 105.414C95.6208 104.485 95.5787 103.5 95.781 102.551C96.6943 103.16 97.7869 103.442 98.881 103.351" fill="#351905"></path>
<path d="M98.919 96.356C99.28 94.599 98.608 92.637 99.433 91.045C100.077 89.803 101.477 89.13 102.233 87.953C102.623 87.2446 102.915 86.4862 103.1 85.699C103.446 84.4261 104.051 83.2383 104.877 82.21C105.292 81.7003 105.805 81.2796 106.386 80.9732C106.967 80.6668 107.604 80.481 108.259 80.427C108.839 80.4319 109.412 80.5592 109.94 80.8004C110.468 81.0416 110.939 81.3914 111.323 81.827C111.198 82.2979 111.018 82.7526 110.788 83.182C110.171 84.342 109.288 85.335 108.575 86.439C107.195 88.5865 106.482 91.0946 106.525 93.647C106.609 94.5536 106.589 95.4669 106.466 96.369C105.998 97.8452 105.121 99.1583 103.936 100.156C102.504 101.608 100.902 103.145 98.88 103.356C97.786 103.447 96.6933 103.165 95.78 102.556C95.806 102.444 95.834 102.334 95.869 102.223C96.523 100.104 98.469 98.531 98.915 96.359" fill="#49270B"></path>
<path d="M122.216 127.16L121.743 127.116C121.743 127.091 121.962 124.554 120.913 123.456C120.744 123.28 120.537 123.144 120.308 123.059C120.079 122.974 119.834 122.942 119.591 122.966C119.301 122.973 119.015 123.04 118.753 123.163C118.49 123.286 118.255 123.461 118.063 123.679C117.394 124.698 117.078 125.907 117.163 127.123L116.689 127.155C116.59 125.812 116.95 124.474 117.711 123.363C117.944 123.097 118.229 122.882 118.549 122.732C118.869 122.582 119.217 122.5 119.57 122.49C119.881 122.462 120.195 122.505 120.488 122.615C120.78 122.725 121.044 122.9 121.26 123.126C122.46 124.383 122.23 127.048 122.22 127.161" fill="#004383"></path>
<path d="M123.264 127.16L122.791 127.116C122.791 127.091 123.01 124.554 121.961 123.456C121.792 123.28 121.586 123.144 121.357 123.059C121.128 122.974 120.883 122.942 120.64 122.966C120.35 122.973 120.064 123.04 119.802 123.163C119.539 123.286 119.304 123.461 119.112 123.679C118.443 124.698 118.127 125.907 118.212 127.123L117.738 127.155C117.639 125.812 117.999 124.474 118.76 123.363C118.993 123.097 119.278 122.882 119.598 122.732C119.918 122.582 120.266 122.5 120.619 122.49C120.93 122.462 121.244 122.505 121.537 122.615C121.829 122.725 122.093 122.9 122.309 123.126C123.509 124.383 123.279 127.048 123.269 127.161" fill="#004383"></path>
<path d="M128.758 146.231L127.133 132.486C125.753 137.033 121.728 145.757 111.095 146.225L111.062 146.577C111.055 146.651 111.064 146.726 111.087 146.797C111.111 146.867 111.149 146.932 111.199 146.988C111.249 147.043 111.31 147.087 111.378 147.117C111.446 147.148 111.52 147.164 111.594 147.164H127.936C128.053 147.164 128.169 147.138 128.276 147.09C128.383 147.041 128.479 146.971 128.556 146.883C128.634 146.795 128.692 146.691 128.727 146.579C128.762 146.467 128.772 146.348 128.758 146.231Z" fill="#F04D20"></path>
<path d="M127.133 132.485L126.564 127.672C126.548 127.525 126.477 127.388 126.367 127.29C126.256 127.191 126.112 127.137 125.964 127.138H113.349C113.216 127.138 113.088 127.188 112.99 127.278C112.892 127.368 112.832 127.491 112.82 127.623L111.095 146.223C121.728 145.756 125.753 137.031 127.133 132.484" fill="#FC5E2C"></path>
<path d="M124.847 125.1L124.41 125.289C124.4 125.265 123.387 122.932 121.944 122.471C121.712 122.396 121.465 122.376 121.223 122.41C120.982 122.445 120.751 122.534 120.549 122.671C120.298 122.817 120.08 123.013 119.908 123.247C119.736 123.481 119.614 123.748 119.549 124.031C119.442 125.245 119.738 126.461 120.389 127.491L119.989 127.747C119.264 126.612 118.947 125.263 119.089 123.924C119.167 123.578 119.315 123.252 119.525 122.967C119.735 122.681 120.001 122.441 120.307 122.263C120.567 122.089 120.862 121.976 121.172 121.932C121.481 121.889 121.796 121.915 122.094 122.011C123.744 122.538 124.808 124.991 124.853 125.095" fill="#004383"></path>
<path d="M125.769 124.6L125.332 124.788C125.323 124.765 124.309 122.432 122.866 121.971C122.633 121.895 122.386 121.874 122.143 121.909C121.9 121.943 121.669 122.033 121.466 122.171C121.215 122.317 120.997 122.513 120.825 122.747C120.653 122.981 120.531 123.248 120.466 123.531C120.36 124.745 120.655 125.961 121.306 126.991L120.906 127.247C120.181 126.112 119.863 124.764 120.006 123.424C120.084 123.078 120.232 122.752 120.442 122.467C120.652 122.181 120.918 121.941 121.224 121.763C121.484 121.589 121.779 121.476 122.089 121.432C122.398 121.388 122.713 121.415 123.011 121.51C124.661 122.038 125.725 124.49 125.77 124.594" fill="#004383"></path>
<path d="M139.649 138.717L131.696 127.417C132.642 132.075 133.246 141.674 124.127 147.192L124.265 147.517C124.294 147.586 124.337 147.647 124.391 147.698C124.446 147.749 124.51 147.788 124.58 147.812C124.651 147.837 124.725 147.846 124.799 147.84C124.874 147.834 124.946 147.813 125.011 147.777L139.369 139.927C139.472 139.87 139.562 139.793 139.633 139.699C139.704 139.605 139.754 139.497 139.781 139.383C139.807 139.268 139.809 139.149 139.786 139.034C139.764 138.918 139.717 138.809 139.649 138.713" fill="#003968"></path>
<path d="M131.7 127.42L128.915 123.465C128.83 123.344 128.704 123.259 128.561 123.226C128.417 123.192 128.266 123.212 128.137 123.283L117.051 129.343C116.935 129.407 116.846 129.512 116.803 129.638C116.759 129.763 116.764 129.901 116.816 130.023L124.131 147.195C133.251 141.677 132.646 132.078 131.7 127.42Z" fill="#004383"></path>
<path d="M114.839 108.993C115.604 110.753 116.005 111.923 116.775 113.68L119.067 118.915C119.217 119.324 119.441 119.702 119.728 120.03C119.961 120.24 120.214 120.427 120.482 120.59C120.971 120.929 121.402 121.344 121.76 121.819C121.864 121.93 121.922 122.076 121.922 122.228C121.876 122.611 121.222 122.647 121.145 123.028C121.073 123.357 121.493 123.589 121.551 123.92C121.624 124.33 121.145 124.599 120.751 124.732L119.42 125.182C119.207 125.271 118.976 125.313 118.745 125.305C118.194 125.245 117.863 124.64 117.793 124.086C117.702 123.36 117.893 122.622 117.828 121.892C117.677 120.974 117.323 120.1 116.793 119.335C114.602 115.635 113.17 113.335 112.082 110.097" fill="#FDA893"></path>
</g>
</svg>
