<svg width="55" height="31" viewBox="0 0 55 31" fill="none" xmlns="http://www.w3.org/2000/svg">
<g opacity="0.87">
<mask id="mask0_1_1998" style="mask-type: luminance" maskUnits="userSpaceOnUse" x="0" y="0" width="55" height="31">
<path d="M54.951 0.355957H0.604004V30.549H54.951V0.355957Z" fill="white"></path>
</mask>
<g mask="url('#mask0_1_1998')">
<path d="M54.836 20.466L46.816 0.35498H9.80001L0.731012 20.466C0.64615 21.0622 0.603704 21.6637 0.604006 22.266C0.604006 26.841 2.98301 30.55 5.91901 30.55C8.31901 30.55 10.347 28.069 11.006 24.663C11.006 24.682 11.016 24.699 11.02 24.718C11.803 28.096 14.156 30.551 16.94 30.551C19.882 30.551 22.34 27.812 22.978 24.139V24.125C23.541 27.805 25.741 30.552 28.37 30.552C30.849 30.552 32.947 28.111 33.651 24.752C33.677 24.862 33.709 24.969 33.739 25.077C34.599 28.271 36.882 30.556 39.567 30.556C42.422 30.556 44.825 27.976 45.544 24.468C45.544 24.478 45.544 24.487 45.549 24.496C46.111 27.99 47.961 30.556 50.16 30.556C52.803 30.556 54.946 26.847 54.946 22.272C54.9459 21.6701 54.9075 21.0689 54.831 20.472" fill="#D0D3DB"></path>
</g>
</g>
</svg>
