<svg width="48" height="47" viewBox="0 0 48 47" fill="none" xmlns="http://www.w3.org/2000/svg">
<path opacity="0.102" d="M5.79999 0H42.434C43.0873 0.00327481 43.7336 0.135136 44.3359 0.388184C44.9383 0.641231 45.4849 1.01056 45.9446 1.47485C46.4042 1.93915 46.7679 2.48938 47.0149 3.09424C47.2619 3.69909 47.3873 4.34667 47.384 5V42C47.3873 42.6533 47.2619 43.3009 47.0149 43.9058C46.7679 44.5106 46.4042 45.0609 45.9446 45.5251C45.4849 45.9894 44.9383 46.3588 44.3359 46.6118C43.7336 46.8649 43.0873 46.9967 42.434 47H5.79999C5.14658 46.9969 4.50023 46.865 3.89777 46.6121C3.29531 46.3591 2.74858 45.9899 2.28882 45.5256C1.82906 45.0613 1.46525 44.5109 1.2182 43.906C0.971159 43.3011 0.84571 42.6534 0.849001 42V5C0.84262 3.68045 1.36066 2.41251 2.28913 1.47485C3.21759 0.537197 4.48044 0.00661422 5.79999 0Z" fill="#FD8983"></path>
<mask id="mask0_1_2517" style="mask-type: luminance" maskUnits="userSpaceOnUse" x="15" y="10" width="19" height="27">
<path d="M34 10H15V37H34V10Z" fill="white"></path>
</mask>
<g mask="url('#mask0_1_2517')">
<path d="M33.945 33.852V36.5C33.9394 36.62 33.8879 36.7332 33.801 36.8162C33.7141 36.8991 33.5986 36.9454 33.4785 36.9454C33.3584 36.9454 33.2429 36.8991 33.156 36.8162C33.0691 36.7332 33.0175 36.62 33.012 36.5V33.852C33.0021 33.3522 32.8938 32.8592 32.6934 32.4012C32.4929 31.9432 32.2042 31.5292 31.8437 31.1828C31.4832 30.8364 31.058 30.5644 30.5924 30.3824C30.1268 30.2004 29.6298 30.1119 29.13 30.122C28.6403 30.1273 28.1574 30.0081 27.7264 29.7756C27.2954 29.5432 26.9305 29.2051 26.666 28.793C26.6342 28.7427 26.613 28.6865 26.6037 28.6278C26.5944 28.5691 26.5971 28.5091 26.6117 28.4515C26.6263 28.3939 26.6524 28.3398 26.6886 28.2926C26.7248 28.2454 26.7701 28.2061 26.822 28.177C26.9276 28.1149 27.0532 28.0958 27.1725 28.1237C27.2919 28.1516 27.3959 28.2244 27.463 28.327C27.6419 28.6059 27.8887 28.8349 28.1803 28.9923C28.4718 29.1497 28.7986 29.2305 29.13 29.227C29.7499 29.2145 30.3661 29.3243 30.9436 29.5501C31.521 29.7758 32.0483 30.1131 32.4953 30.5427C32.9424 30.9723 33.3004 31.4857 33.549 32.0537C33.7975 32.6217 33.9318 33.2331 33.944 33.853L33.945 33.852ZM25.805 29.359C25.8173 29.4174 25.8179 29.4777 25.8066 29.5364C25.7953 29.595 25.7724 29.6508 25.7392 29.7005C25.706 29.7501 25.6633 29.7926 25.6134 29.8255C25.5636 29.8584 25.5077 29.881 25.449 29.892C24.8561 30.0165 24.2445 30.0231 23.6491 29.9112C23.0537 29.7993 22.4862 29.5712 21.979 29.24C21.7054 29.5224 21.3773 29.7461 21.0146 29.8978C20.6519 30.0494 20.2621 30.1257 19.869 30.122C19.3692 30.1119 18.8722 30.2004 18.4066 30.3824C17.941 30.5644 17.5158 30.8364 17.1553 31.1828C16.7948 31.5292 16.506 31.9432 16.3056 32.4012C16.1051 32.8592 15.9969 33.3522 15.987 33.852V36.5C15.9844 36.6211 15.9339 36.7363 15.8465 36.8202C15.7592 36.9042 15.6421 36.9501 15.521 36.948C15.3999 36.9501 15.2828 36.9042 15.1955 36.8202C15.1081 36.7363 15.0576 36.6211 15.055 36.5V33.852C15.0672 33.2321 15.2014 32.6207 15.45 32.0527C15.6986 31.4847 16.0566 30.9713 16.5036 30.5417C16.9507 30.1121 17.478 29.7748 18.0554 29.5491C18.6329 29.3233 19.2491 29.2135 19.869 29.226C20.1197 29.2314 20.3689 29.1874 20.6026 29.0965C20.8362 29.0055 21.0496 28.8694 21.2306 28.6959C21.4116 28.5224 21.5567 28.315 21.6575 28.0854C21.7582 27.8558 21.8128 27.6087 21.818 27.358V27.24C20.8037 26.7883 19.9346 26.064 19.3075 25.1477C18.6804 24.2314 18.3199 23.159 18.266 22.05C17.8572 21.9641 17.4896 21.742 17.2233 21.4202C16.957 21.0983 16.8078 20.6957 16.8 20.278V17.955C16.7523 16.8512 16.9333 15.7495 17.3317 14.7191C17.7301 13.6886 18.3372 12.7516 19.115 11.967C21.784 9.495 26.064 9.652 29.215 11.108C29.2843 11.1383 29.3447 11.1859 29.3903 11.2463C29.4359 11.3067 29.4651 11.3778 29.4751 11.4528C29.4852 11.5278 29.4757 11.6041 29.4477 11.6744C29.4196 11.7447 29.3739 11.8065 29.315 11.854C30.8939 12.2128 32.2736 13.1666 33.167 14.517C33.2478 14.6156 33.2863 14.7421 33.274 14.869C33.2652 14.9768 33.2176 15.0777 33.14 15.153C32.8614 15.4204 32.6397 15.7414 32.4882 16.0965C32.3366 16.4517 32.2583 16.8338 32.258 17.22V20.277C32.2524 20.397 32.2009 20.5102 32.114 20.5932C32.0271 20.6761 31.9116 20.7224 31.7915 20.7224C31.6714 20.7224 31.5559 20.6761 31.469 20.5932C31.3821 20.5102 31.3305 20.397 31.325 20.277V17.221C31.3247 16.3266 31.6463 15.4619 32.231 14.785C31.7763 14.1684 31.1964 13.655 30.5292 13.2784C29.8621 12.9018 29.1228 12.6706 28.36 12.6L27.54 12.516C27.4387 12.5092 27.3428 12.4679 27.2682 12.399C27.1936 12.3302 27.1448 12.2379 27.1298 12.1375C27.1149 12.0371 27.1347 11.9346 27.186 11.847C27.2374 11.7594 27.3171 11.692 27.412 11.656L27.785 11.508C22.93 9.884 17.737 11.692 17.737 17.95V20.278C17.7393 20.45 17.7896 20.618 17.8824 20.7629C17.9752 20.9079 18.1067 21.0239 18.262 21.098V18.193C18.2801 17.3445 18.6338 16.5378 19.2456 15.9496C19.8574 15.3614 20.6774 15.0397 21.526 15.055H27.473C28.3215 15.0394 29.1417 15.3609 29.7537 15.9489C30.3656 16.5369 30.7196 17.3435 30.738 18.192V21.862C30.7041 22.8114 30.4526 23.7403 30.003 24.5772C29.5534 25.4141 28.9176 26.1365 28.1447 26.6889C27.3717 27.2413 26.4823 27.6088 25.5449 27.7631C24.6075 27.9174 23.6472 27.8544 22.738 27.579C22.7121 27.8962 22.6295 28.2061 22.494 28.494C22.896 28.7582 23.3462 28.9404 23.8189 29.03C24.2915 29.1196 24.7772 29.1148 25.248 29.016C25.3674 28.9885 25.4928 29.0091 25.5972 29.0733C25.7016 29.1374 25.7756 29.2401 25.805 29.359ZM24.5 26.926C25.8794 26.9515 27.2126 26.4289 28.2072 25.4728C29.2019 24.5168 29.7768 23.2053 29.806 21.826V18.192C29.7931 17.5858 29.5404 17.0095 29.1032 16.5894C28.6661 16.1693 28.0802 15.9397 27.474 15.951H21.526C20.9197 15.94 20.3338 16.1698 19.8967 16.5901C19.4596 17.0103 19.2069 17.5868 19.194 18.193V21.828C19.2237 23.207 19.7988 24.5179 20.7934 25.4735C21.788 26.4291 23.1209 26.9515 24.5 26.926ZM29.223 34.65H27.823C27.7036 34.65 27.5892 34.6974 27.5048 34.7818C27.4204 34.8662 27.373 34.9806 27.373 35.1C27.373 35.2193 27.4204 35.3338 27.5048 35.4182C27.5892 35.5026 27.7036 35.55 27.823 35.55H29.223C29.3423 35.55 29.4568 35.5026 29.5412 35.4182C29.6256 35.3338 29.673 35.2193 29.673 35.1C29.673 34.9806 29.6256 34.8662 29.5412 34.7818C29.4568 34.6974 29.3423 34.65 29.223 34.65Z" fill="#494949"></path>
<path d="M33.479 37C33.3437 37.0024 33.213 36.9512 33.1153 36.8575C33.0177 36.7638 32.9611 36.6353 32.958 36.5V33.852C32.9578 33.3653 32.8583 32.8837 32.6658 32.4366C32.4732 31.9896 32.1915 31.5865 31.838 31.252C31.1095 30.5555 30.1388 30.1697 29.131 30.176C28.6319 30.1812 28.1396 30.0595 27.7004 29.8223C27.2611 29.5851 26.8894 29.2402 26.62 28.82C26.5844 28.7644 26.5606 28.702 26.5501 28.6368C26.5396 28.5716 26.5427 28.505 26.559 28.441C26.5756 28.3764 26.6049 28.3158 26.6453 28.2628C26.6856 28.2097 26.7362 28.1652 26.794 28.132C26.9128 28.0623 27.054 28.0412 27.188 28.073C27.3209 28.1029 27.4366 28.1842 27.51 28.299C27.6839 28.5701 27.924 28.7926 28.2075 28.9455C28.4911 29.0984 28.8089 29.1767 29.131 29.173C30.4132 29.165 31.6482 29.6559 32.575 30.542C33.025 30.9679 33.3835 31.4811 33.6285 32.0502C33.8735 32.6193 33.9999 33.2324 34 33.852V36.5C33.9969 36.6353 33.9403 36.7638 33.8427 36.8575C33.745 36.9512 33.6143 37.0024 33.479 37ZM27.065 28.164C26.9901 28.164 26.9166 28.1841 26.852 28.222C26.8062 28.2483 26.7661 28.2835 26.7341 28.3256C26.7021 28.3677 26.679 28.4158 26.666 28.467C26.6529 28.5176 26.6505 28.5704 26.6587 28.622C26.667 28.6736 26.6858 28.723 26.714 28.767C26.9739 29.1705 27.332 29.5015 27.7548 29.7288C28.1775 29.9562 28.651 30.0725 29.131 30.067C30.1675 30.0607 31.1659 30.4576 31.915 31.174C32.2787 31.5182 32.5684 31.9329 32.7665 32.3928C32.9646 32.8528 33.0668 33.3482 33.067 33.849V36.5C33.067 36.6093 33.1104 36.7141 33.1877 36.7913C33.2649 36.8686 33.3697 36.912 33.479 36.912C33.5883 36.912 33.6931 36.8686 33.7703 36.7913C33.8476 36.7141 33.891 36.6093 33.891 36.5V33.852C33.8911 33.2466 33.7678 32.6475 33.5286 32.0913C33.2895 31.5351 32.9395 31.0334 32.5 30.617C31.5943 29.7507 30.3873 29.2705 29.134 29.278C28.7934 29.2817 28.4575 29.1989 28.1577 29.0373C27.8579 28.8757 27.6041 28.6405 27.42 28.354C27.3623 28.2632 27.271 28.1988 27.166 28.175C27.1332 28.1674 27.0996 28.1637 27.066 28.164M15.521 37C15.3857 37.0024 15.255 36.9512 15.1573 36.8575C15.0597 36.7638 15.0031 36.6353 15 36.5V33.852C15.0273 32.5866 15.5551 31.3837 16.4678 30.5068C17.3805 29.63 18.6036 29.1507 19.869 29.174C20.3606 29.1836 20.836 28.998 21.191 28.6578C21.546 28.3176 21.7517 27.8506 21.763 27.359V27.274C20.7523 26.8197 19.8864 26.0958 19.2601 25.1816C18.6339 24.2675 18.2716 23.1985 18.213 22.092C17.8013 21.9972 17.4333 21.767 17.1679 21.4383C16.9025 21.1096 16.755 20.7014 16.749 20.279V17.955C16.701 16.8443 16.8831 15.7356 17.2839 14.6987C17.6847 13.6617 18.2955 12.7187 19.078 11.929C20.4332 10.7287 22.171 10.0493 23.981 10.012C25.7906 9.94015 27.5914 10.2993 29.235 11.06C29.3123 11.0948 29.3794 11.1487 29.4301 11.2165C29.4809 11.2844 29.5135 11.364 29.525 11.448C29.5339 11.515 29.5287 11.5832 29.5098 11.6481C29.4908 11.713 29.4586 11.7733 29.415 11.825C30.971 12.2015 32.3266 13.1533 33.209 14.489L33.219 14.504C33.3007 14.6094 33.3384 14.7424 33.324 14.875C33.3137 14.9945 33.2608 15.1063 33.175 15.19C32.9015 15.4527 32.6838 15.7679 32.535 16.1167C32.3862 16.4655 32.3093 16.8408 32.309 17.22V20.277C32.3008 20.4096 32.2423 20.5341 32.1455 20.625C32.0487 20.716 31.9209 20.7667 31.788 20.7667C31.6551 20.7667 31.5273 20.716 31.4305 20.625C31.3337 20.5341 31.2752 20.4096 31.267 20.277V17.221C31.2643 16.3277 31.5806 15.4628 32.159 14.782C31.7077 14.1834 31.1368 13.6852 30.4826 13.319C29.8284 12.9528 29.1052 12.7267 28.359 12.655L27.539 12.571C27.4253 12.5628 27.3178 12.516 27.2343 12.4384C27.1508 12.3607 27.0964 12.2568 27.08 12.144C27.062 12.0321 27.0837 11.9174 27.1414 11.8198C27.1992 11.7223 27.2892 11.648 27.396 11.61L27.634 11.516C26.4668 11.0756 25.2156 10.9025 23.9727 11.0097C22.7297 11.1168 21.5267 11.5013 20.452 12.135C19.5551 12.8021 18.841 13.6848 18.3759 14.7013C17.9107 15.7177 17.7096 16.8351 17.791 17.95V20.278C17.7923 20.4248 17.8311 20.5689 17.9037 20.6964C17.9764 20.824 18.0804 20.9309 18.206 21.007V18.193C18.2236 17.3296 18.5831 16.5084 19.2055 15.9098C19.828 15.3111 20.6625 14.9839 21.526 15H27.473C28.3359 14.9839 29.1701 15.3107 29.7924 15.9087C30.4148 16.5067 30.7746 17.3271 30.793 18.19V21.86C30.7879 22.8055 30.5552 23.736 30.1147 24.5727C29.6742 25.4093 29.0387 26.1277 28.262 26.667C27.4811 27.2292 26.584 27.6091 25.6368 27.7785C24.6896 27.9479 23.7164 27.9027 22.789 27.646C22.7589 27.9322 22.6833 28.2117 22.565 28.474C23.3587 28.979 24.318 29.1544 25.239 28.963C25.3719 28.9336 25.5109 28.9572 25.6267 29.0287C25.7424 29.1002 25.8258 29.214 25.859 29.346C25.8735 29.4117 25.8746 29.4798 25.8622 29.546C25.8498 29.6121 25.8242 29.6751 25.7868 29.7312C25.7494 29.7872 25.7011 29.8351 25.6448 29.872C25.5885 29.909 25.5253 29.9341 25.459 29.946C24.2625 30.194 23.0164 29.9662 21.985 29.311C21.7056 29.5925 21.3719 29.8144 21.0043 29.9633C20.6366 30.1121 20.2426 30.1848 19.846 30.177C18.8454 30.176 17.8832 30.5615 17.16 31.253C16.8065 31.5875 16.5248 31.9906 16.3322 32.4376C16.1397 32.8847 16.0402 33.3663 16.04 33.853V36.5C16.0369 36.6353 15.9803 36.7638 15.8827 36.8575C15.785 36.9512 15.6543 37.0024 15.519 37M24.456 10.1C22.511 10.036 20.6148 10.7154 19.153 12C18.3806 12.7806 17.7781 13.7125 17.3831 14.7371C16.9882 15.7617 16.8094 16.857 16.858 17.954V20.279C16.864 20.6846 17.0081 21.0761 17.2664 21.389C17.5247 21.7018 17.8818 21.9173 18.279 22L18.319 22.009V22.049C18.37 23.149 18.7265 24.2131 19.3484 25.1218C19.9703 26.0306 20.8331 26.7481 21.84 27.194L21.871 27.208V27.359C21.8592 27.8785 21.6422 28.3722 21.2674 28.7322C20.8926 29.0922 20.3906 29.2891 19.871 29.28C18.6339 29.2572 17.4383 29.7257 16.5461 30.5829C15.6538 31.4401 15.1378 32.616 15.111 33.853V36.5C15.111 36.5535 15.1217 36.6066 15.1426 36.6559C15.1634 36.7052 15.1939 36.7499 15.2324 36.7872C15.2708 36.8245 15.3163 36.8537 15.3662 36.8731C15.4162 36.8924 15.4695 36.9016 15.523 36.9C15.5765 36.9016 15.6298 36.8924 15.6798 36.8731C15.7297 36.8537 15.7752 36.8245 15.8136 36.7872C15.8521 36.7499 15.8826 36.7052 15.9034 36.6559C15.9243 36.6066 15.935 36.5535 15.935 36.5V33.852C15.9352 33.3512 16.0374 32.8558 16.2355 32.3958C16.4336 31.9359 16.7233 31.5212 17.087 31.177C17.8356 30.4611 18.8332 30.0642 19.869 30.07C20.2544 30.0696 20.6359 29.9926 20.9913 29.8435C21.3467 29.6943 21.6688 29.4759 21.939 29.201L21.971 29.168L22.01 29.193C23.023 29.8514 24.2551 30.0829 25.438 29.837C25.4897 29.8268 25.5388 29.8066 25.5826 29.7774C25.6264 29.7482 25.664 29.7106 25.6933 29.6669C25.7225 29.6231 25.7429 29.574 25.7531 29.5224C25.7634 29.4708 25.7633 29.4176 25.753 29.366C25.7262 29.2622 25.6602 29.1728 25.5687 29.1168C25.4773 29.0608 25.3676 29.0426 25.263 29.066C24.7843 29.1658 24.2907 29.1704 23.8103 29.0795C23.3299 28.9886 22.872 28.8039 22.463 28.536L22.425 28.511L22.444 28.471C22.5772 28.1878 22.6581 27.8829 22.683 27.571L22.688 27.506L22.753 27.524C23.6721 27.7884 24.6392 27.8408 25.5815 27.6772C26.5238 27.5137 27.4167 27.1386 28.193 26.58C28.9562 26.0501 29.5806 25.3444 30.0135 24.5223C30.4463 23.7002 30.675 22.786 30.68 21.857V18.192C30.6621 17.3576 30.3142 16.5644 29.7125 15.9861C29.1108 15.4079 28.3044 15.0917 27.47 15.107H21.526C20.6916 15.0917 19.8852 15.4079 19.2835 15.9861C18.6818 16.5644 18.3339 17.3576 18.316 18.192V21.184L18.236 21.144C18.0718 21.0658 17.9328 20.9431 17.8349 20.7898C17.7369 20.6365 17.684 20.4589 17.682 20.277V17.95C17.5996 16.8188 17.8038 15.6852 18.2757 14.6539C18.7476 13.6226 19.4721 12.727 20.382 12.05C21.4121 11.3738 22.6027 10.9822 23.833 10.915C25.1793 10.8366 26.5279 11.0221 27.803 11.461L27.939 11.507L27.433 11.707C27.3485 11.737 27.2773 11.7956 27.2316 11.8727C27.1859 11.9498 27.1687 12.0405 27.183 12.129C27.1956 12.2184 27.2386 12.3007 27.3046 12.3623C27.3707 12.4238 27.4559 12.4608 27.546 12.467L28.366 12.551C29.1348 12.6237 29.8798 12.8571 30.5527 13.236C31.2256 13.615 31.8113 14.1312 32.272 14.751L32.296 14.784L32.27 14.815C31.6919 15.4807 31.3743 16.3333 31.376 17.215V20.272C31.376 20.3813 31.4194 20.4861 31.4967 20.5633C31.5739 20.6406 31.6787 20.684 31.788 20.684C31.8973 20.684 32.0021 20.6406 32.0793 20.5633C32.1566 20.4861 32.2 20.3813 32.2 20.272V17.221C32.2012 16.8284 32.2814 16.4401 32.4361 16.0793C32.5907 15.7185 32.8165 15.3926 33.1 15.121C33.1691 15.0536 33.2111 14.9632 33.218 14.867C33.2287 14.7592 33.1968 14.6515 33.129 14.567L33.118 14.551C32.234 13.2098 30.8662 12.2618 29.3 11.905L29.2 11.88L29.282 11.813C29.334 11.7711 29.3744 11.7166 29.3992 11.6546C29.424 11.5926 29.4325 11.5252 29.4238 11.459C29.415 11.3928 29.3894 11.33 29.3493 11.2766C29.3093 11.2231 29.2561 11.1809 29.195 11.154C27.7083 10.4694 26.0927 10.1101 24.456 10.1ZM29.223 35.6H27.823C27.6904 35.6 27.5632 35.5473 27.4694 35.4535C27.3757 35.3598 27.323 35.2326 27.323 35.1C27.323 34.9674 27.3757 34.8402 27.4694 34.7464C27.5632 34.6527 27.6904 34.6 27.823 34.6H29.223C29.3556 34.6 29.4828 34.6527 29.5766 34.7464C29.6703 34.8402 29.723 34.9674 29.723 35.1C29.723 35.2326 29.6703 35.3598 29.5766 35.4535C29.4828 35.5473 29.3556 35.6 29.223 35.6ZM27.823 34.7C27.7661 34.6914 27.7079 34.6952 27.6526 34.7111C27.5972 34.727 27.546 34.7547 27.5023 34.7922C27.4587 34.8298 27.4236 34.8763 27.3996 34.9287C27.3756 34.981 27.3632 35.0379 27.3632 35.0955C27.3632 35.1531 27.3756 35.21 27.3996 35.2623C27.4236 35.3147 27.4587 35.3612 27.5023 35.3987C27.546 35.4363 27.5972 35.464 27.6526 35.4799C27.7079 35.4958 27.7661 35.4996 27.823 35.491H29.223C29.2799 35.4996 29.3381 35.4958 29.3934 35.4799C29.4488 35.464 29.5 35.4363 29.5437 35.3987C29.5873 35.3612 29.6224 35.3147 29.6464 35.2623C29.6704 35.21 29.6828 35.1531 29.6828 35.0955C29.6828 35.0379 29.6704 34.981 29.6464 34.9287C29.6224 34.8763 29.5873 34.8298 29.5437 34.7922C29.5 34.7547 29.4488 34.727 29.3934 34.7111C29.3381 34.6952 29.2799 34.6914 29.223 34.7H27.823ZM24.5 26.979C23.1068 27.0045 21.7603 26.4766 20.7556 25.5111C19.7509 24.5455 19.1699 23.2211 19.14 21.828V18.193C19.1534 17.5729 19.412 16.9833 19.8593 16.5535C20.3065 16.1237 20.9058 15.8887 21.526 15.9H27.473C28.0932 15.8885 28.6926 16.1232 29.14 16.5528C29.5875 16.9824 29.8463 17.5719 29.86 18.192V21.828C29.8301 23.2211 29.2491 24.5455 28.2444 25.5111C27.2397 26.4766 25.8932 27.0045 24.5 26.979ZM21.526 16C20.9334 15.9893 20.3607 16.2142 19.9338 16.6254C19.5068 17.0366 19.2606 17.6004 19.249 18.193V21.828C19.2782 23.1928 19.8473 24.4904 20.8316 25.4363C21.8159 26.3822 23.1351 26.8992 24.5 26.874C25.8649 26.8992 27.1841 26.3822 28.1684 25.4363C29.1527 24.4904 29.7218 23.1928 29.751 21.828V18.192C29.7392 17.5995 29.4928 17.036 29.0659 16.625C28.639 16.2141 28.0665 15.9893 27.474 16H21.526Z" fill="white"></path>
<path d="M27.065 28.164C26.9901 28.164 26.9166 28.1841 26.852 28.222C26.8062 28.2483 26.7661 28.2835 26.7341 28.3256C26.7021 28.3677 26.679 28.4158 26.666 28.467C26.6529 28.5176 26.6505 28.5704 26.6587 28.622C26.667 28.6736 26.6858 28.723 26.714 28.767C26.9739 29.1705 27.332 29.5015 27.7548 29.7288C28.1775 29.9562 28.651 30.0725 29.131 30.067C30.1675 30.0607 31.1659 30.4576 31.915 31.174C32.2787 31.5182 32.5684 31.9329 32.7665 32.3928C32.9646 32.8528 33.0668 33.3482 33.067 33.849V36.5C33.067 36.6093 33.1104 36.7141 33.1877 36.7913C33.2649 36.8686 33.3697 36.912 33.479 36.912C33.5883 36.912 33.6931 36.8686 33.7703 36.7913C33.8476 36.7141 33.891 36.6093 33.891 36.5V33.852C33.8911 33.2466 33.7678 32.6475 33.5286 32.0913C33.2895 31.5351 32.9395 31.0334 32.5 30.617C31.5943 29.7507 30.3873 29.2705 29.134 29.278C28.7934 29.2817 28.4575 29.1989 28.1577 29.0373C27.8579 28.8757 27.6041 28.6405 27.42 28.354C27.3623 28.2632 27.271 28.1988 27.166 28.175C27.1332 28.1674 27.0996 28.1637 27.066 28.164M15.521 37C15.3857 37.0024 15.255 36.9512 15.1573 36.8575C15.0597 36.7638 15.0031 36.6353 15 36.5V33.852C15.0273 32.5866 15.5551 31.3837 16.4678 30.5068C17.3805 29.63 18.6036 29.1507 19.869 29.174C20.3606 29.1836 20.836 28.998 21.191 28.6578C21.546 28.3176 21.7517 27.8506 21.763 27.359V27.274C20.7523 26.8197 19.8864 26.0958 19.2601 25.1816C18.6339 24.2675 18.2716 23.1985 18.213 22.092C17.8013 21.9972 17.4333 21.767 17.1679 21.4383C16.9025 21.1096 16.755 20.7014 16.749 20.279V17.955C16.701 16.8443 16.8831 15.7356 17.2839 14.6987C17.6847 13.6617 18.2955 12.7187 19.078 11.929C20.4332 10.7287 22.171 10.0493 23.981 10.012C25.7906 9.94015 27.5914 10.2993 29.235 11.06C29.3123 11.0948 29.3794 11.1487 29.4301 11.2165C29.4809 11.2844 29.5135 11.364 29.525 11.448C29.5339 11.515 29.5287 11.5832 29.5098 11.6481C29.4908 11.713 29.4586 11.7733 29.415 11.825C30.971 12.2015 32.3266 13.1533 33.209 14.489L33.219 14.504C33.3007 14.6094 33.3384 14.7424 33.324 14.875C33.3137 14.9945 33.2608 15.1063 33.175 15.19C32.9015 15.4527 32.6838 15.7679 32.535 16.1167C32.3862 16.4655 32.3093 16.8408 32.309 17.22V20.277C32.3008 20.4096 32.2423 20.5341 32.1455 20.625C32.0487 20.716 31.9209 20.7667 31.788 20.7667C31.6551 20.7667 31.5273 20.716 31.4305 20.625C31.3337 20.5341 31.2752 20.4096 31.267 20.277V17.221C31.2643 16.3277 31.5806 15.4628 32.159 14.782C31.7077 14.1834 31.1368 13.6852 30.4826 13.319C29.8284 12.9528 29.1052 12.7267 28.359 12.655L27.539 12.571C27.4253 12.5628 27.3178 12.516 27.2343 12.4384C27.1508 12.3607 27.0964 12.2568 27.08 12.144C27.062 12.0321 27.0837 11.9174 27.1414 11.8198C27.1992 11.7223 27.2892 11.648 27.396 11.61L27.634 11.516C26.4668 11.0756 25.2156 10.9025 23.9727 11.0097C22.7297 11.1168 21.5267 11.5013 20.452 12.135C19.5551 12.8021 18.841 13.6848 18.3759 14.7013C17.9107 15.7177 17.7096 16.8351 17.791 17.95V20.278C17.7923 20.4248 17.8311 20.5689 17.9037 20.6964C17.9764 20.824 18.0804 20.9309 18.206 21.007V18.193C18.2236 17.3296 18.5831 16.5084 19.2055 15.9098C19.828 15.3111 20.6625 14.9839 21.526 15H27.473C28.3359 14.9839 29.1701 15.3107 29.7924 15.9087C30.4148 16.5067 30.7746 17.3271 30.793 18.19V21.86C30.7879 22.8055 30.5552 23.736 30.1147 24.5727C29.6742 25.4093 29.0387 26.1277 28.262 26.667C27.4811 27.2292 26.584 27.6091 25.6368 27.7785C24.6896 27.9479 23.7164 27.9027 22.789 27.646C22.7589 27.9322 22.6833 28.2117 22.565 28.474C23.3587 28.979 24.318 29.1544 25.239 28.963C25.3719 28.9336 25.5109 28.9572 25.6267 29.0287C25.7424 29.1002 25.8258 29.214 25.859 29.346C25.8735 29.4117 25.8746 29.4798 25.8622 29.546C25.8498 29.6121 25.8242 29.6751 25.7868 29.7312C25.7494 29.7872 25.7011 29.8351 25.6448 29.872C25.5885 29.909 25.5253 29.9341 25.459 29.946C24.2625 30.194 23.0164 29.9662 21.985 29.311C21.7056 29.5925 21.3719 29.8144 21.0043 29.9633C20.6366 30.1121 20.2426 30.1848 19.846 30.177C18.8454 30.176 17.8832 30.5615 17.16 31.253C16.8065 31.5875 16.5248 31.9906 16.3322 32.4376C16.1397 32.8847 16.0402 33.3663 16.04 33.853V36.5C16.0369 36.6353 15.9803 36.7638 15.8827 36.8575C15.785 36.9512 15.6543 37.0024 15.519 37M33.479 37C33.3437 37.0024 33.213 36.9512 33.1153 36.8575C33.0177 36.7638 32.9611 36.6353 32.958 36.5V33.852C32.9578 33.3653 32.8583 32.8837 32.6658 32.4366C32.4732 31.9896 32.1915 31.5865 31.838 31.252C31.1095 30.5555 30.1388 30.1697 29.131 30.176C28.6319 30.1812 28.1396 30.0595 27.7004 29.8223C27.2611 29.5851 26.8894 29.2402 26.62 28.82C26.5844 28.7644 26.5606 28.702 26.5501 28.6368C26.5396 28.5716 26.5427 28.505 26.559 28.441C26.5756 28.3764 26.6049 28.3158 26.6453 28.2628C26.6856 28.2097 26.7362 28.1652 26.794 28.132C26.9128 28.0623 27.054 28.0412 27.188 28.073C27.3209 28.1029 27.4366 28.1842 27.51 28.299C27.6839 28.5701 27.924 28.7926 28.2075 28.9455C28.4911 29.0984 28.8089 29.1767 29.131 29.173C30.4132 29.165 31.6482 29.6559 32.575 30.542C33.025 30.9679 33.3835 31.4811 33.6285 32.0502C33.8735 32.6193 33.9999 33.2324 34 33.852V36.5C33.9969 36.6353 33.9403 36.7638 33.8427 36.8575C33.745 36.9512 33.6143 37.0024 33.479 37ZM24.456 10.1C22.511 10.036 20.6148 10.7154 19.153 12C18.3806 12.7806 17.7781 13.7125 17.3831 14.7371C16.9882 15.7617 16.8094 16.857 16.858 17.954V20.279C16.864 20.6846 17.0081 21.0761 17.2664 21.389C17.5247 21.7018 17.8818 21.9173 18.279 22L18.319 22.009V22.049C18.37 23.149 18.7265 24.2131 19.3484 25.1218C19.9703 26.0306 20.8331 26.7481 21.84 27.194L21.871 27.208V27.359C21.8592 27.8785 21.6422 28.3722 21.2674 28.7322C20.8926 29.0922 20.3906 29.2891 19.871 29.28C18.6339 29.2572 17.4383 29.7257 16.5461 30.5829C15.6538 31.4401 15.1378 32.616 15.111 33.853V36.5C15.111 36.5535 15.1217 36.6066 15.1426 36.6559C15.1634 36.7052 15.1939 36.7499 15.2324 36.7872C15.2708 36.8245 15.3163 36.8537 15.3662 36.8731C15.4162 36.8924 15.4695 36.9016 15.523 36.9C15.5765 36.9016 15.6298 36.8924 15.6798 36.8731C15.7297 36.8537 15.7752 36.8245 15.8136 36.7872C15.8521 36.7499 15.8826 36.7052 15.9034 36.6559C15.9243 36.6066 15.935 36.5535 15.935 36.5V33.852C15.9352 33.3512 16.0374 32.8558 16.2355 32.3958C16.4336 31.9359 16.7233 31.5212 17.087 31.177C17.8356 30.4611 18.8332 30.0642 19.869 30.07C20.2544 30.0696 20.6359 29.9926 20.9913 29.8435C21.3467 29.6943 21.6688 29.4759 21.939 29.201L21.971 29.168L22.01 29.193C23.023 29.8514 24.2551 30.0829 25.438 29.837C25.4897 29.8268 25.5388 29.8066 25.5826 29.7774C25.6264 29.7482 25.664 29.7106 25.6933 29.6669C25.7225 29.6231 25.7429 29.574 25.7531 29.5224C25.7634 29.4708 25.7633 29.4176 25.753 29.366C25.7262 29.2622 25.6602 29.1728 25.5687 29.1168C25.4773 29.0608 25.3676 29.0426 25.263 29.066C24.7843 29.1658 24.2907 29.1704 23.8103 29.0795C23.3299 28.9886 22.872 28.8039 22.463 28.536L22.425 28.511L22.444 28.471C22.5772 28.1878 22.6581 27.8829 22.683 27.571L22.688 27.506L22.753 27.524C23.6721 27.7884 24.6392 27.8408 25.5815 27.6772C26.5238 27.5137 27.4167 27.1386 28.193 26.58C28.9562 26.0501 29.5806 25.3444 30.0135 24.5223C30.4463 23.7002 30.675 22.786 30.68 21.857V18.192C30.6621 17.3576 30.3142 16.5644 29.7125 15.9861C29.1108 15.4079 28.3044 15.0917 27.47 15.107H21.526C20.6916 15.0917 19.8852 15.4079 19.2835 15.9861C18.6818 16.5644 18.3339 17.3576 18.316 18.192V21.184L18.236 21.144C18.0718 21.0658 17.9328 20.9431 17.8349 20.7898C17.7369 20.6365 17.684 20.4589 17.682 20.277V17.95C17.5996 16.8188 17.8038 15.6852 18.2757 14.6539C18.7476 13.6226 19.4721 12.727 20.382 12.05C21.4121 11.3738 22.6027 10.9822 23.833 10.915C25.1793 10.8366 26.5279 11.0221 27.803 11.461L27.939 11.507L27.433 11.707C27.3485 11.737 27.2773 11.7956 27.2316 11.8727C27.1859 11.9498 27.1687 12.0405 27.183 12.129C27.1956 12.2184 27.2386 12.3007 27.3046 12.3623C27.3707 12.4238 27.4559 12.4608 27.546 12.467L28.366 12.551C29.1348 12.6237 29.8798 12.8571 30.5527 13.236C31.2256 13.615 31.8113 14.1312 32.272 14.751L32.296 14.784L32.27 14.815C31.6919 15.4807 31.3743 16.3333 31.376 17.215V20.272C31.376 20.3813 31.4194 20.4861 31.4967 20.5633C31.5739 20.6406 31.6787 20.684 31.788 20.684C31.8973 20.684 32.0021 20.6406 32.0793 20.5633C32.1566 20.4861 32.2 20.3813 32.2 20.272V17.221C32.2012 16.8284 32.2814 16.4401 32.4361 16.0793C32.5907 15.7185 32.8165 15.3926 33.1 15.121C33.1691 15.0536 33.2111 14.9632 33.218 14.867C33.2287 14.7592 33.1968 14.6515 33.129 14.567L33.118 14.551C32.234 13.2098 30.8662 12.2618 29.3 11.905L29.2 11.88L29.282 11.813C29.334 11.7711 29.3744 11.7166 29.3992 11.6546C29.424 11.5926 29.4325 11.5252 29.4238 11.459C29.415 11.3928 29.3894 11.33 29.3493 11.2766C29.3093 11.2231 29.2561 11.1809 29.195 11.154C27.7083 10.4694 26.0927 10.1101 24.456 10.1ZM29.223 35.6H27.823C27.6904 35.6 27.5632 35.5473 27.4694 35.4535C27.3757 35.3598 27.323 35.2326 27.323 35.1C27.323 34.9674 27.3757 34.8402 27.4694 34.7464C27.5632 34.6527 27.6904 34.6 27.823 34.6H29.223C29.3556 34.6 29.4828 34.6527 29.5766 34.7464C29.6703 34.8402 29.723 34.9674 29.723 35.1C29.723 35.2326 29.6703 35.3598 29.5766 35.4535C29.4828 35.5473 29.3556 35.6 29.223 35.6ZM27.823 34.7C27.7661 34.6914 27.7079 34.6952 27.6526 34.7111C27.5972 34.727 27.546 34.7547 27.5023 34.7922C27.4587 34.8298 27.4236 34.8763 27.3996 34.9287C27.3756 34.981 27.3632 35.0379 27.3632 35.0955C27.3632 35.1531 27.3756 35.21 27.3996 35.2623C27.4236 35.3147 27.4587 35.3612 27.5023 35.3987C27.546 35.4363 27.5972 35.464 27.6526 35.4799C27.7079 35.4958 27.7661 35.4996 27.823 35.491H29.223C29.2799 35.4996 29.3381 35.4958 29.3934 35.4799C29.4488 35.464 29.5 35.4363 29.5437 35.3987C29.5873 35.3612 29.6224 35.3147 29.6464 35.2623C29.6704 35.21 29.6828 35.1531 29.6828 35.0955C29.6828 35.0379 29.6704 34.981 29.6464 34.9287C29.6224 34.8763 29.5873 34.8298 29.5437 34.7922C29.5 34.7547 29.4488 34.727 29.3934 34.7111C29.3381 34.6952 29.2799 34.6914 29.223 34.7H27.823ZM24.5 26.979C23.1068 27.0045 21.7603 26.4766 20.7556 25.5111C19.7509 24.5455 19.1699 23.2211 19.14 21.828V18.193C19.1534 17.5729 19.412 16.9833 19.8593 16.5535C20.3065 16.1237 20.9058 15.8887 21.526 15.9H27.473C28.0932 15.8885 28.6926 16.1232 29.14 16.5528C29.5875 16.9824 29.8463 17.5719 29.86 18.192V21.828C29.8301 23.2211 29.2491 24.5455 28.2444 25.5111C27.2397 26.4766 25.8932 27.0045 24.5 26.979ZM21.526 16C20.9334 15.9893 20.3607 16.2142 19.9338 16.6254C19.5068 17.0366 19.2606 17.6004 19.249 18.193V21.828C19.2782 23.1928 19.8473 24.4904 20.8316 25.4363C21.8159 26.3822 23.1351 26.8992 24.5 26.874C25.8649 26.8992 27.1841 26.3822 28.1684 25.4363C29.1527 24.4904 29.7218 23.1928 29.751 21.828V18.192C29.7392 17.5995 29.4928 17.036 29.0659 16.625C28.639 16.2141 28.0665 15.9893 27.474 16H21.526Z" stroke="black" stroke-width="0.161" stroke-miterlimit="10"></path>
</g>
<path d="M15 37V10H34V37H15Z" fill="url('#paint0_linear_1_2517')"></path>
<defs>
<linearGradient id="paint0_linear_1_2517" x1="15" y1="36.568" x2="40.1387" y2="19.4439" gradientUnits="userSpaceOnUse">
<stop stop-color="#FD8983"></stop>
<stop offset="1" stop-color="#FB7069"></stop>
</linearGradient>
</defs>
</svg>
