<svg width="62" height="34" viewBox="0 0 62 34" fill="none" xmlns="http://www.w3.org/2000/svg">
<path d="M45 1H17C8.16344 1 1 8.16344 1 17C1 25.8366 8.16344 33 17 33H45C53.8366 33 61 25.8366 61 17C61 8.16344 53.8366 1 45 1Z" fill="#488BD2"></path>
<path d="M45 0.5H17C7.8873 0.5 0.5 7.8873 0.5 17C0.5 26.1127 7.8873 33.5 17 33.5H45C54.1127 33.5 61.5 26.1127 61.5 17C61.5 7.8873 54.1127 0.5 45 0.5Z" stroke="white" stroke-linejoin="round"></path>
<path d="M17 31C24.732 31 31 24.732 31 17C31 9.26801 24.732 3 17 3C9.26801 3 3 9.26801 3 17C3 24.732 9.26801 31 17 31Z" fill="white"></path>
</svg>
