<svg width="457" height="267" viewBox="0 0 457 267" fill="none" xmlns="http://www.w3.org/2000/svg">
<mask id="mask0_1_2323" style="mask-type: luminance" maskUnits="userSpaceOnUse" x="-14" y="-12" width="484" height="299">
<path d="M470 -12H-14V287H470V-12Z" fill="white"></path>
</mask>
<g mask="url('#mask0_1_2323')">
<g opacity="0.05">
<mask id="mask1_1_2323" style="mask-type: luminance" maskUnits="userSpaceOnUse" x="-4" y="-2" width="238" height="267">
<path d="M233.867 -1.54895H-3.586V264.192H233.867V-1.54895Z" fill="white"></path>
</mask>
<g mask="url('#mask1_1_2323')">
<path d="M233.867 264.191H7.857C4.81584 264.184 1.90185 262.97 -0.244077 260.815C-2.39 258.66 -3.59211 255.741 -3.586 252.7V9.94405C-3.58942 8.43801 -3.29613 6.94605 -2.72289 5.55337C-2.14965 4.16069 -1.30769 2.89458 -0.245079 1.82733C0.817529 0.760076 2.07996 -0.0874016 3.47013 -0.666708C4.8603 -1.24601 6.35096 -1.5458 7.857 -1.54895H176.788C181.972 10.115 183.329 24.0581 181.468 36.8241C180.394 43.792 178.735 50.657 176.507 57.3461C171.791 71.8551 165.168 85.8721 160.044 100.29C152.544 121.379 148.424 145.505 158.183 165.633C168.5 186.9 191.419 198.365 208.461 214.7C209.684 215.876 210.886 217.09 212.043 218.324C220.786 227.585 227.794 238.564 231.413 250.757C232.708 255.133 233.531 259.635 233.868 264.186" fill="#7B8CEB"></path>
</g>
</g>
<path d="M349.009 206.532H294.334C292.291 206.532 290.331 205.72 288.886 204.275C287.441 202.831 286.629 200.871 286.629 198.828C286.629 196.784 287.441 194.825 288.886 193.38C290.331 191.935 292.291 191.123 294.334 191.123H349.009C351.052 191.123 353.012 191.935 354.457 193.38C355.902 194.825 356.714 196.784 356.714 198.828C356.714 200.871 355.902 202.831 354.457 204.275C353.012 205.72 351.052 206.532 349.009 206.532Z" fill="#7B8CEB"></path>
</g>
</svg>
