<svg width="285" height="170" viewBox="0 0 285 170" fill="none" xmlns="http://www.w3.org/2000/svg">
<mask id="mask0_1_1812" style="mask-type: luminance" maskUnits="userSpaceOnUse" x="-38" y="-30" width="351" height="232">
<path d="M313 -30H-38V202H313V-30Z" fill="white"></path>
</mask>
<g mask="url('#mask0_1_1812')">
<path d="M202.2 130.438H178.4C177.226 130.438 176.1 130.904 175.27 131.734C174.44 132.564 173.974 133.69 173.974 134.864C173.974 136.038 174.44 137.164 175.27 137.994C176.1 138.824 177.226 139.29 178.4 139.29H202.2C203.374 139.29 204.5 138.824 205.33 137.994C206.16 137.164 206.626 136.038 206.626 134.864C206.626 133.69 206.16 132.564 205.33 131.734C204.5 130.904 203.374 130.438 202.2 130.438Z" fill="#9686F6"></path>
</g>
</svg>
