<svg width="285" height="170" viewBox="0 0 285 170" fill="none" xmlns="http://www.w3.org/2000/svg">
<mask id="mask0_1_1924" style="mask-type: luminance" maskUnits="userSpaceOnUse" x="-28" y="-27" width="337" height="226">
<path d="M309 -27H-28V199H309V-27Z" fill="white"></path>
</mask>
<g mask="url('#mask0_1_1924')">
<g opacity="0.09">
<mask id="mask1_1_1924" style="mask-type: luminance" maskUnits="userSpaceOnUse" x="245" y="10" width="25" height="4">
<path d="M269.356 10.463H245.269V13.967H269.356V10.463Z" fill="white"></path>
</mask>
<g mask="url('#mask1_1_1924')">
<path d="M267.614 13.967H247.014C246.564 13.9455 246.14 13.7518 245.83 13.4259C245.519 13.1001 245.346 12.6672 245.346 12.217C245.346 11.7669 245.519 11.334 245.83 11.0081C246.14 10.6823 246.564 10.4885 247.014 10.467H267.614C268.064 10.4885 268.488 10.6823 268.798 11.0081C269.109 11.334 269.282 11.7669 269.282 12.217C269.282 12.6672 269.109 13.1001 268.798 13.4259C268.488 13.7518 268.064 13.9455 267.614 13.967Z" fill="#004383"></path>
</g>
</g>
<path d="M267.867 11.7151C267.866 11.5985 267.831 11.4847 267.766 11.3881C267.701 11.2915 267.609 11.2163 267.501 11.1721C267.393 11.1279 267.274 11.1167 267.16 11.1398C267.046 11.1629 266.941 11.2193 266.859 11.3019C266.777 11.3845 266.721 11.4897 266.698 11.604C266.676 11.7184 266.687 11.8369 266.732 11.9445C266.777 12.0522 266.853 12.1441 266.95 12.2088C267.046 12.2735 267.16 12.308 267.277 12.3081C267.311 12.3077 267.344 12.3044 267.377 12.2981L267.603 13.1401L267.781 13.0921L267.552 12.239C267.648 12.1893 267.729 12.1142 267.785 12.0218C267.842 11.9294 267.872 11.8233 267.872 11.7151M266.872 11.7151C266.873 11.6351 266.897 11.5571 266.942 11.4909C266.987 11.4247 267.05 11.3732 267.124 11.343C267.198 11.3128 267.279 11.3052 267.358 11.3212C267.436 11.3372 267.508 11.376 267.564 11.4327C267.621 11.4895 267.659 11.5617 267.674 11.6401C267.69 11.7186 267.682 11.7999 267.651 11.8737C267.62 11.9476 267.568 12.0106 267.502 12.055C267.435 12.0994 267.357 12.1231 267.277 12.1231C267.169 12.1225 267.066 12.0793 266.99 12.0028C266.914 11.9263 266.872 11.8228 266.872 11.7151Z" fill="white"></path>
</g>
</svg>
