<svg width="27" height="27" viewBox="0 0 27 27" fill="none" xmlns="http://www.w3.org/2000/svg">
<path d="M11.571 27.0001C8.50206 27.0001 5.5588 25.7809 3.38873 23.6109C1.21865 21.4408 -0.000488281 18.4975 -0.000488281 15.4286C-0.000488281 12.3596 1.21865 9.41637 3.38873 7.24629C5.5588 5.07621 8.50206 3.85708 11.571 3.85708C13.0953 3.8446 14.607 4.13353 16.0192 4.70724C17.4314 5.28095 18.7163 6.12813 19.8 7.20008C20.7984 8.21596 21.6236 9.38847 22.243 10.6711C22.3001 10.8291 22.306 11.001 22.2599 11.1626C22.2137 11.3241 22.1179 11.467 21.986 11.5711C21.828 11.6282 21.656 11.6341 21.4945 11.5879C21.333 11.5418 21.19 11.446 21.086 11.3141C20.5523 10.1919 19.8595 9.15249 19.029 8.22808C17.0393 6.26876 14.3644 5.1618 11.572 5.14208C10.2128 5.12867 8.86435 5.38482 7.60469 5.8957C6.34504 6.40659 5.19914 7.16208 4.23324 8.11851C3.26733 9.07494 2.50058 10.2133 1.9773 11.4679C1.45402 12.7224 1.18459 14.0683 1.18459 15.4276C1.18459 16.7869 1.45402 18.1327 1.9773 19.3873C2.50058 20.6418 3.26733 21.7802 4.23324 22.7366C5.19914 23.6931 6.34504 24.4486 7.60469 24.9594C8.86435 25.4703 10.2128 25.7265 11.572 25.7131C11.7425 25.7131 11.9061 25.7808 12.0267 25.9014C12.1473 26.022 12.215 26.1855 12.215 26.3561C12.215 26.5266 12.1473 26.6902 12.0267 26.8107C11.9061 26.9313 11.7425 26.9991 11.572 26.9991L11.571 27.0001Z" fill="#576AA9"></path>
<path d="M10.929 22.5002C9.16245 22.3515 7.5176 21.5397 6.32499 20.228C5.13238 18.9163 4.48039 17.2019 4.50002 15.4292C4.51646 13.5589 5.26672 11.7699 6.58924 10.4474C7.91176 9.12486 9.70076 8.3746 11.571 8.35815C13.4437 8.37819 15.2378 9.1142 16.585 10.4152C17.0314 10.881 17.4199 11.3991 17.742 11.9582C17.8227 12.1112 17.8402 12.2898 17.7908 12.4556C17.7414 12.6214 17.6291 12.7613 17.4779 12.8453C17.3267 12.9294 17.1486 12.9509 16.9817 12.9053C16.8148 12.8596 16.6724 12.7505 16.585 12.6012C16.3606 12.1243 16.0562 11.6893 15.685 11.3152C14.5674 10.2687 13.1018 9.67338 11.571 9.64415C10.0881 9.66 8.66762 10.2433 7.60147 11.2741C6.53532 12.3049 5.90451 13.7049 5.8387 15.1864C5.77289 16.668 6.27707 18.1184 7.24762 19.2397C8.21818 20.361 9.58137 21.0679 11.057 21.2152C11.2098 21.2337 11.3492 21.3115 11.4453 21.4317C11.5414 21.5519 11.5865 21.705 11.571 21.8582C11.5761 21.9438 11.563 22.0295 11.5325 22.1097C11.5021 22.1899 11.455 22.2628 11.3943 22.3234C11.3336 22.3841 11.2608 22.4312 11.1806 22.4617C11.1004 22.4921 11.0147 22.5053 10.929 22.5002Z" fill="#576AA9"></path>
<path d="M11.571 16.0711C11.3898 16.09 11.2078 16.0443 11.057 15.9421C10.996 15.884 10.9475 15.8142 10.9143 15.7369C10.8811 15.6595 10.864 15.5762 10.864 15.4921C10.864 15.4079 10.8811 15.3246 10.9143 15.2472C10.9475 15.1699 10.996 15.1001 11.057 15.0421L19.414 6.68505C19.5334 6.56571 19.6952 6.49866 19.864 6.49866C20.0328 6.49866 20.1947 6.56571 20.314 6.68505C20.4334 6.8044 20.5004 6.96627 20.5004 7.13505C20.5004 7.30384 20.4334 7.46571 20.314 7.58505L11.957 15.9421C11.957 16.0711 11.7 16.0711 11.571 16.0711Z" fill="#576AA9"></path>
<path d="M23.143 7.7141H19.929C19.8432 7.71936 19.7573 7.70633 19.6769 7.67588C19.5965 7.64542 19.5235 7.59824 19.4627 7.53745C19.4019 7.47666 19.3547 7.40365 19.3242 7.32325C19.2938 7.24285 19.2808 7.15691 19.286 7.0711V3.8571C19.286 3.7281 19.415 3.4711 19.415 3.3431L22.629 0.129097C22.8718 0.0242337 23.1364 -0.0200378 23.4 9.69013e-05C23.5182 0.0602858 23.617 0.152497 23.6853 0.266198C23.7536 0.379899 23.7885 0.510504 23.786 0.643097V3.2141H26.357C26.4896 3.21166 26.6202 3.24656 26.7339 3.31481C26.8476 3.38307 26.9398 3.48193 27 3.6001C27.0202 3.86375 26.9759 4.12835 26.871 4.3711L23.657 7.5861C23.529 7.5861 23.271 7.7141 23.143 7.7141ZM20.571 6.4291H22.885L24.814 4.5001H23.143C23.0572 4.50536 22.9713 4.49233 22.8909 4.46188C22.8105 4.43142 22.7375 4.38424 22.6767 4.32345C22.6159 4.26266 22.5687 4.18965 22.5382 4.10925C22.5078 4.02885 22.4948 3.94291 22.5 3.8571V2.1861L20.571 4.1141V6.4291Z" fill="#576AA9"></path>
<path d="M11.571 18.0002C11.0625 18.0002 10.5654 17.8494 10.1426 17.5669C9.71985 17.2844 9.39031 16.8828 9.19572 16.413C9.00113 15.9432 8.95022 15.4263 9.04942 14.9276C9.14862 14.4289 9.39348 13.9707 9.75305 13.6112C10.1126 13.2516 10.5707 13.0068 11.0694 12.9076C11.5682 12.8084 12.0851 12.8593 12.5549 13.0539C13.0247 13.2485 13.4262 13.578 13.7087 14.0008C13.9912 14.4236 14.142 14.9207 14.142 15.4292C14.1399 16.1104 13.8684 16.7631 13.3867 17.2448C12.905 17.7265 12.2522 17.998 11.571 18.0002ZM11.571 14.1432C11.2363 14.1525 10.9184 14.292 10.6849 14.5321C10.4515 14.7721 10.3209 15.0938 10.3209 15.4287C10.3209 15.7635 10.4515 16.0852 10.6849 16.3252C10.9184 16.5653 11.2363 16.7048 11.571 16.7142C11.9057 16.7048 12.2236 16.5653 12.4571 16.3252C12.6905 16.0852 12.8212 15.7635 12.8212 15.4287C12.8212 15.0938 12.6905 14.7721 12.4571 14.5321C12.2236 14.292 11.9057 14.1525 11.571 14.1432Z" fill="#576AA9"></path>
<path d="M-2.16411e-05 15.4279C0.0137509 13.1999 0.6665 11.0228 1.88072 9.15471C3.09493 7.28665 4.81959 5.8062 6.85008 4.88908C8.88056 3.97196 11.1316 3.65664 13.3359 3.98064C15.5402 4.30463 17.6053 5.25436 19.286 6.71696V3.85686C19.286 3.72786 19.414 3.47096 19.414 3.34196L22.629 0.127853C22.8717 0.0228343 23.1363 -0.0213499 23.4 -0.00105364C23.5181 0.0592282 23.6169 0.15138 23.6851 0.26506C23.7533 0.378739 23.7883 0.509443 23.786 0.642013V3.21281H26.357C26.4896 3.21037 26.6202 3.24539 26.7339 3.31364C26.8476 3.3819 26.9398 3.48087 27 3.59904C27.0202 3.86271 26.9759 4.12733 26.871 4.37004L23.657 7.58488C23.528 7.58488 23.271 7.71281 23.142 7.71281H20.283C21.0636 8.6077 21.7224 9.60204 22.242 10.6698C22.2865 10.7459 22.3155 10.8302 22.327 10.9176C22.3386 11.0051 22.3325 11.0941 22.3092 11.1791C22.286 11.2642 22.2459 11.3436 22.1915 11.413C22.1371 11.4824 22.0693 11.5401 21.9922 11.5829C21.9151 11.6258 21.8303 11.6529 21.7427 11.6625C21.655 11.6721 21.5663 11.664 21.4818 11.6388C21.3973 11.6137 21.3186 11.572 21.2505 11.516C21.1823 11.4601 21.1261 11.3909 21.085 11.3129C20.622 10.3262 20.0286 9.40587 19.321 8.57683L17.009 10.8888C17.2772 11.2275 17.5221 11.5841 17.742 11.956C17.7865 12.0321 17.8155 12.1164 17.827 12.2038C17.8386 12.2912 17.8325 12.38 17.8092 12.465C17.786 12.5501 17.7459 12.6295 17.6915 12.6989C17.6371 12.7683 17.5693 12.8262 17.4922 12.8691C17.4151 12.9119 17.3303 12.9388 17.2427 12.9484C17.155 12.958 17.0663 12.9501 16.9818 12.925C16.8973 12.8998 16.8186 12.8579 16.7505 12.8019C16.6823 12.746 16.6261 12.6771 16.585 12.599C16.4477 12.319 16.2865 12.0512 16.103 11.799L13.781 14.121C14.1016 14.6609 14.214 15.2992 14.0972 15.9162C13.9804 16.5331 13.6423 17.0863 13.1465 17.4716C12.6507 17.8569 12.0312 18.0479 11.4045 18.0087C10.7778 17.9696 10.187 17.703 9.74296 17.259C9.29895 16.8149 9.03235 16.224 8.9932 15.5973C8.95406 14.9706 9.14507 14.3512 9.53037 13.8554C9.91568 13.3596 10.4688 13.0215 11.0857 12.9047C11.7027 12.7879 12.3411 12.9003 12.881 13.2209L15.189 10.912C14.1529 10.1067 12.8821 9.66176 11.57 9.64494C10.0871 9.66079 8.66659 10.244 7.60044 11.2748C6.53429 12.3056 5.9035 13.7057 5.83769 15.1872C5.77187 16.6687 6.27601 18.1191 7.24656 19.2404C8.21711 20.3617 9.58036 21.0687 11.056 21.216C11.2087 21.2348 11.3479 21.3126 11.4439 21.4328C11.54 21.5529 11.5852 21.7057 11.57 21.8588C11.5752 21.9446 11.5622 22.0306 11.5318 22.111C11.5013 22.1914 11.4541 22.2646 11.3933 22.3254C11.3326 22.3862 11.2595 22.4333 11.1791 22.4638C11.0987 22.4942 11.0128 22.5071 10.927 22.5019C9.16041 22.3532 7.51559 21.5416 6.32298 20.2299C5.13037 18.9182 4.47833 17.2035 4.49796 15.4308C4.49627 14.0857 4.87851 12.768 5.59971 11.6325C6.32091 10.497 7.35115 9.59097 8.56944 9.02067C9.78772 8.45038 11.1435 8.23955 12.4774 8.41301C13.8113 8.58647 15.068 9.13702 16.1 9.99992L18.415 7.68498C16.5076 6.05282 14.0824 5.15157 11.572 5.14201C8.86168 5.16874 6.27146 6.26411 4.36436 8.19011C2.45725 10.1161 1.38737 12.717 1.38737 15.4274C1.38737 18.1379 2.45725 20.7387 4.36436 22.6647C6.27146 24.5907 8.86168 25.6861 11.572 25.7128C11.7425 25.7128 11.9061 25.7807 12.0267 25.9013C12.1472 26.0219 12.215 26.1853 12.215 26.3559C12.215 26.5264 12.1472 26.6901 12.0267 26.8107C11.9061 26.9313 11.7425 26.9989 11.572 26.9989C10.0506 27.0054 8.54299 26.7105 7.13615 26.1313C5.72931 25.5521 4.45106 24.7002 3.37522 23.6244C2.29938 22.5487 1.44721 21.2705 0.867898 19.8637C0.288588 18.4569 -0.00637298 16.9493 -2.16411e-05 15.4279ZM10.286 15.4279C10.2953 15.7626 10.4348 16.0804 10.6749 16.3139C10.915 16.5473 11.2366 16.6781 11.5715 16.6781C11.9063 16.6781 12.228 16.5473 12.4681 16.3139C12.7081 16.0804 12.8476 15.7626 12.857 15.4279C12.8571 15.3109 12.8443 15.1943 12.8189 15.08L11.9569 15.9418C11.9569 16.0708 11.7 16.071 11.571 16.071C11.3898 16.09 11.2077 16.0441 11.057 15.9418C10.996 15.8838 10.9474 15.8141 10.9142 15.7367C10.881 15.6594 10.8639 15.576 10.8639 15.4919C10.8639 15.4077 10.881 15.3244 10.9142 15.247C10.9474 15.1696 10.996 15.0999 11.057 15.0419L11.919 14.1799C11.8047 14.1546 11.688 14.142 11.571 14.142C11.3995 14.1318 11.2278 14.1579 11.0672 14.2189C10.9066 14.2799 10.7608 14.3745 10.6393 14.496C10.5179 14.6175 10.4236 14.7634 10.3627 14.924C10.3018 15.0846 10.2756 15.2564 10.286 15.4279ZM20.571 4.11296V6.4279H22.886L24.814 4.49895H23.143C23.0572 4.50421 22.9712 4.49107 22.8908 4.46062C22.8105 4.43016 22.7374 4.38298 22.6766 4.32219C22.6158 4.2614 22.5686 4.18847 22.5382 4.10808C22.5077 4.02768 22.4947 3.94169 22.5 3.85588V2.18498L20.571 4.11296Z" fill="#FD8983"></path>
</svg>
