<svg width="44" height="1" viewBox="0 0 44 1" fill="none" xmlns="http://www.w3.org/2000/svg">
<path d="M0.499985 0.600057H41.486C42.035 0.600057 42.597 0.634057 43.145 0.600057C43.168 0.600057 43.192 0.600057 43.216 0.600057C43.2497 0.600057 43.282 0.586673 43.3058 0.562856C43.3296 0.539039 43.343 0.50674 43.343 0.473058C43.343 0.439375 43.3296 0.407062 43.3058 0.383245C43.282 0.359428 43.2497 0.346044 43.216 0.346044H2.22698C1.67698 0.346044 1.11599 0.312044 0.566986 0.346044C0.543986 0.346044 0.519987 0.346044 0.495987 0.346044C0.462304 0.346044 0.429998 0.359428 0.406181 0.383245C0.382364 0.407062 0.368988 0.439375 0.368988 0.473058C0.368988 0.50674 0.382364 0.539039 0.406181 0.562856C0.429998 0.586673 0.462304 0.600057 0.495987 0.600057" fill="white"></path>
</svg>
