<svg width="15" height="16" viewBox="0 0 15 16" fill="none" xmlns="http://www.w3.org/2000/svg">
<path d="M14.581 8.12101C14.5725 9.54693 14.1419 10.9384 13.3435 12.1199C12.5452 13.3014 11.4148 14.22 10.0949 14.7598C8.7751 15.2996 7.32498 15.4364 5.92747 15.153C4.52997 14.8696 3.24769 14.1787 2.24239 13.1674C1.23709 12.1561 0.553808 10.8698 0.278729 9.47063C0.00364988 8.07146 0.149099 6.62217 0.696728 5.30557C1.24436 3.98898 2.16964 2.86406 3.35585 2.07271C4.54206 1.28136 5.93606 0.859034 7.362 0.859009C8.31286 0.861762 9.25386 1.05179 10.1313 1.41824C11.0087 1.7847 11.8053 2.3204 12.4757 2.99475C13.146 3.6691 13.677 4.4689 14.0382 5.34847C14.3995 6.22804 14.5839 7.17015 14.581 8.12101Z" fill="#EDEDED"></path>
</svg>
