<svg width="59" height="122" viewBox="0 0 59 122" fill="none" xmlns="http://www.w3.org/2000/svg">
<path d="M50.405 121.224H8.457C6.354 121.218 4.33965 120.376 2.85702 118.885C1.37438 117.393 0.544893 115.374 0.551002 113.271V8.41698C0.547714 7.31979 0.760562 6.23269 1.17741 5.21776C1.59425 4.20282 2.20692 3.27993 2.98043 2.50178C3.75394 1.72362 4.67316 1.10544 5.68558 0.682526C6.698 0.259616 7.7838 0.0402654 8.881 0.0369873H49.133C50.3899 0.0406586 51.6338 0.291894 52.7936 0.776352C53.9534 1.26081 55.0064 1.969 55.8925 2.86047C56.7786 3.75194 57.4804 4.80923 57.9578 5.97195C58.4352 7.13468 58.6789 8.38007 58.675 9.63699V112.907C58.6801 115.106 57.8119 117.218 56.2613 118.778C54.7107 120.337 52.6044 121.218 50.405 121.226" fill="#EDEDED"></path>
</svg>
