<svg width="9" height="8" viewBox="0 0 9 8" fill="none" xmlns="http://www.w3.org/2000/svg">
<path d="M8.28399 3.73802C8.27965 4.46288 8.06075 5.17022 7.6549 5.77083C7.24904 6.37143 6.67442 6.83841 6.0035 7.11284C5.33258 7.38727 4.59542 7.45687 3.88499 7.31287C3.17456 7.16886 2.52269 6.8177 2.01159 6.30368C1.50049 5.78966 1.15306 5.1358 1.01311 4.42456C0.873164 3.71332 0.946968 2.97656 1.22522 2.30722C1.50348 1.63788 1.97372 1.06593 2.57663 0.663513C3.17954 0.261093 3.88812 0.046231 4.61299 0.0460205C5.58935 0.0489338 6.52457 0.43951 7.21299 1.13187C7.90141 1.82422 8.28665 2.76167 8.28399 3.73802Z" fill="#032644"></path>
</svg>
