<svg width="12" height="6" viewBox="0 0 12 6" fill="none" xmlns="http://www.w3.org/2000/svg">
<path d="M0.469991 2.16305C1.429 2.54252 2.33834 3.03715 3.17799 3.63605C3.9352 4.22124 4.73026 4.75574 5.55799 5.23605C6.00031 5.41255 6.46576 5.52437 6.93999 5.56805C8.43656 5.75379 9.95205 5.72347 11.44 5.47804C11.5005 5.47537 11.5581 5.45168 11.603 5.41105C11.67 5.33205 11.621 5.21104 11.561 5.13004C11.2307 4.76752 10.8013 4.50988 10.326 4.38905L8.78199 3.83504C8.66777 3.78679 8.54657 3.75709 8.42299 3.74705C8.24661 3.75961 8.07357 3.80151 7.91099 3.87105C6.99817 4.07084 6.04406 3.9397 5.21899 3.50105C3.42499 2.73305 2.07999 1.18705 0.500989 0.0500488C0.194926 0.534143 0.0814591 1.11539 0.182989 1.67905C0.192675 1.80689 0.222374 1.93242 0.270994 2.05105C0.323298 2.10947 0.393748 2.14857 0.470991 2.16205" fill="#2D2014"></path>
</svg>
