<svg width="44" height="2" viewBox="0 0 44 2" fill="none" xmlns="http://www.w3.org/2000/svg">
<path d="M0.499985 1.00495H41.486C42.035 1.00495 42.597 1.03895 43.145 1.00495C43.168 1.00495 43.192 1.00495 43.216 1.00495C43.2497 1.00495 43.282 0.991565 43.3058 0.967748C43.3296 0.943931 43.343 0.911632 43.343 0.87795C43.343 0.844267 43.3296 0.811954 43.3058 0.788137C43.282 0.76432 43.2497 0.750951 43.216 0.750951H2.22698C1.67698 0.750951 1.11599 0.716951 0.566986 0.750951C0.543986 0.750951 0.519987 0.750951 0.495987 0.750951C0.462304 0.750951 0.429998 0.76432 0.406181 0.788137C0.382364 0.811954 0.368988 0.844267 0.368988 0.87795C0.368988 0.911632 0.382364 0.943931 0.406181 0.967748C0.429998 0.991565 0.462304 1.00495 0.495987 1.00495" fill="white"></path>
</svg>
