<svg width="26" height="26" viewBox="0 0 26 26" fill="none" xmlns="http://www.w3.org/2000/svg">
<path d="M25.043 5.93796C24.4948 5.39723 23.7551 5.09496 22.985 5.09696H20.596L20.92 4.77196C21.18 4.52542 21.3878 4.2293 21.5314 3.90109C21.675 3.57288 21.7514 3.21923 21.756 2.86101C21.7607 2.5028 21.6936 2.14728 21.5586 1.81544C21.4236 1.48361 21.2234 1.18218 20.97 0.92896C20.4533 0.411125 19.7545 0.116067 19.023 0.106909C18.2916 0.0977517 17.5855 0.375223 17.056 0.87996L17.014 0.92096L13.072 4.77596L10.18 1.92596C9.65907 1.41175 8.95603 1.12421 8.22404 1.12596H8.21904C7.49118 1.11983 6.79069 1.40304 6.27162 1.91331C5.75254 2.42357 5.45738 3.11911 5.45104 3.84696C5.45272 4.272 5.55556 4.69053 5.75104 5.06796H3.03704H3.03204C2.26747 5.06076 1.53129 5.35726 0.985135 5.89235C0.438978 6.42745 0.127482 7.15741 0.119038 7.92196L0.113037 11.071C0.114359 11.2408 0.183025 11.4032 0.303958 11.5224C0.424891 11.6416 0.588205 11.708 0.758038 11.707H1.71604V23.034C1.72396 23.7984 2.0344 24.5285 2.57942 25.0645C3.12444 25.6005 3.85962 25.8988 4.62404 25.894H21.376C22.1411 25.9001 22.8775 25.6026 23.4235 25.0666C23.9696 24.5307 24.2809 23.8001 24.289 23.035V11.7H25.24C25.4099 11.7016 25.5734 11.6357 25.6947 11.5168C25.816 11.3979 25.8852 11.2358 25.887 11.066L25.893 7.96596C25.8947 7.58819 25.8203 7.21394 25.6742 6.86553C25.5282 6.51712 25.3136 6.20166 25.043 5.93796ZM17.925 1.81596C18.2054 1.54523 18.5804 1.39475 18.9701 1.39662C19.3598 1.39849 19.7333 1.55256 20.011 1.82596C20.1472 1.95978 20.2551 2.11953 20.3285 2.29577C20.4019 2.47201 20.4393 2.66117 20.4383 2.85207C20.4374 3.04298 20.3982 3.23176 20.3231 3.40727C20.248 3.58279 20.1385 3.74147 20.001 3.87396L18.801 5.08196H14.587L17.925 1.81596ZM7.17604 2.81596C7.45404 2.54387 7.82804 2.39225 8.21704 2.39396C8.60692 2.39317 8.98137 2.54625 9.25904 2.81996L11.55 5.07796L7.35004 5.04096L7.17104 4.86396C7.03424 4.7308 6.92551 4.57159 6.85126 4.39571C6.77702 4.21984 6.73876 4.03086 6.73876 3.83996C6.73876 3.64905 6.77702 3.46009 6.85126 3.28421C6.92551 3.10833 7.03424 2.94912 7.17104 2.81596H7.17604ZM9.54204 24.624H4.62404C4.19817 24.628 3.78813 24.4627 3.484 24.1646C3.17987 23.8665 3.00652 23.4598 3.00204 23.034V11.7H9.54604L9.54204 24.624ZM9.55004 10.43H1.40204V7.91696C1.40373 7.70633 1.447 7.49811 1.52936 7.30425C1.61172 7.11038 1.73154 6.93469 1.88196 6.78724C2.03238 6.63979 2.21044 6.5235 2.40591 6.44503C2.60138 6.36656 2.81042 6.32745 3.02104 6.32996L9.54304 6.34196L9.55004 10.43ZM15.302 24.624H10.835L10.842 11.7H15.31L15.302 24.624ZM15.309 10.43H10.843V6.34396L15.311 6.35196L15.309 10.43ZM22.994 23.03C22.9895 23.4553 22.8166 23.8615 22.5131 24.1595C22.2097 24.4576 21.8004 24.6232 21.375 24.62H16.595L16.602 11.7H22.994V23.03ZM24.594 10.43H16.602V6.35396L22.978 6.36596C23.1896 6.36279 23.3996 6.40159 23.5961 6.48014C23.7925 6.55869 23.9714 6.67541 24.1225 6.82356C24.2735 6.97171 24.3937 7.14834 24.476 7.34323C24.5583 7.53812 24.6011 7.7474 24.602 7.95896L24.594 10.43Z" fill="#5A77D0"></path>
<path d="M21.376 26.0001H4.62403C3.8306 26.0059 3.06716 25.6973 2.50079 25.1416C1.93443 24.5859 1.61126 23.8285 1.60203 23.0351V11.8061H0.753026C0.553233 11.8067 0.361283 11.7284 0.219026 11.5881C0.149138 11.5199 0.093653 11.4384 0.0558617 11.3484C0.0180703 11.2584 -0.00125683 11.1617 -0.000973492 11.0641L0.00502607 7.91507C0.0155712 7.1229 0.339038 6.36706 0.90483 5.8125C1.47062 5.25795 2.2328 4.94972 3.02503 4.95507H5.57603C5.34819 4.43618 5.28414 3.86011 5.39243 3.30384C5.50071 2.74758 5.77618 2.23761 6.18203 1.84207C6.7242 1.30836 7.45524 1.01041 8.21603 1.01307C8.977 1.01294 9.70766 1.31131 10.251 1.84407L13.067 4.61907L16.975 0.79607C17.526 0.27327 18.2592 -0.0139993 19.0187 -0.00466212C19.7782 0.00467506 20.5041 0.309882 21.042 0.84607C21.3051 1.10919 21.5129 1.42232 21.653 1.76702C21.7932 2.11171 21.8629 2.48097 21.858 2.85304C21.8532 3.2251 21.7739 3.59243 21.6248 3.93335C21.4757 4.27428 21.2599 4.5819 20.99 4.83807L20.846 4.98207H22.979C23.7765 4.98305 24.5419 5.29645 25.111 5.85507C25.3902 6.12886 25.612 6.45563 25.7633 6.81624C25.9146 7.17684 25.9923 7.56402 25.992 7.95507L25.986 11.0551C25.9834 11.2528 25.9026 11.4416 25.7614 11.58C25.6201 11.7185 25.4298 11.7954 25.232 11.7941H24.389V23.0341C24.3801 23.8261 24.0582 24.5824 23.4938 25.138C22.9294 25.6937 22.1681 26.0036 21.376 26.0001ZM3.03103 5.16707C2.29427 5.16039 1.5849 5.44594 1.05823 5.96117C0.531561 6.47641 0.23052 7.17935 0.221027 7.91607L0.215026 11.0651C0.21486 11.1347 0.228668 11.2037 0.255635 11.268C0.282602 11.3322 0.32218 11.3904 0.372027 11.4391C0.473443 11.5393 0.610409 11.5954 0.753026 11.5951H1.81803V23.0341C1.82673 23.7706 2.12667 24.4738 2.65229 24.9898C3.1779 25.5059 3.88644 25.7929 4.62303 25.7881H21.376C22.1117 25.7916 22.819 25.504 23.3435 24.9881C23.8681 24.4721 24.1673 23.7698 24.176 23.0341V11.5941H25.235C25.3764 11.5951 25.5125 11.5402 25.6135 11.4413C25.7145 11.3423 25.7722 11.2074 25.774 11.0661L25.78 7.96607C25.7802 7.60312 25.708 7.24377 25.5675 6.90909C25.4271 6.57442 25.2212 6.27115 24.962 6.01707C24.4337 5.49865 23.7232 5.20787 22.983 5.20707H20.338L20.838 4.70707C21.0881 4.4702 21.2883 4.18561 21.4265 3.8701C21.5648 3.55459 21.6385 3.21457 21.6431 2.87013C21.6478 2.52568 21.5834 2.18379 21.4537 1.86466C21.324 1.54552 21.1316 1.25562 20.888 1.01207C20.3903 0.516401 19.719 0.234228 19.0166 0.225453C18.3142 0.216678 17.636 0.48199 17.126 0.965069L13.066 4.93607L10.102 1.99407C9.60082 1.50254 8.92703 1.22685 8.22503 1.22607C7.51947 1.22277 6.8412 1.49846 6.33803 1.99307C5.94338 2.37778 5.68253 2.87893 5.59379 3.42287C5.50506 3.96681 5.59311 4.52488 5.84503 5.01507L5.92403 5.16907L3.03103 5.16707ZM21.376 24.7301H16.489V24.6241L16.496 11.5941H23.102V23.0341C23.0967 23.4874 22.9123 23.9203 22.5889 24.2381C22.2655 24.5559 21.8294 24.7327 21.376 24.7301ZM16.702 24.5181H21.374C21.7712 24.5213 22.1534 24.3668 22.4368 24.0886C22.7203 23.8104 22.8818 23.4312 22.886 23.0341V11.8061H16.711L16.702 24.5181ZM15.408 24.7301H10.727L10.734 11.5941H15.418V11.7001L15.408 24.7301ZM10.94 24.5181H15.193L15.202 11.8061H10.95L10.94 24.5181ZM9.64703 24.7301H4.62403C4.16977 24.733 3.73289 24.5557 3.40915 24.237C3.08542 23.9183 2.90125 23.4843 2.89703 23.0301V11.5941H9.65703L9.64703 24.7301ZM3.11203 11.8061V23.0341C3.11625 23.4312 3.2778 23.8104 3.56124 24.0886C3.84468 24.3668 4.22688 24.5213 4.62403 24.5181H9.43403L9.44103 11.8061H3.11203ZM24.702 10.5361H16.496V6.24907L22.98 6.26107C23.434 6.25814 23.8706 6.43554 24.1938 6.7543C24.5171 7.07306 24.7006 7.5071 24.704 7.96107L24.702 10.5361ZM16.712 10.3241H24.487V7.95807C24.4836 7.56094 24.3228 7.18138 24.0399 6.90262C23.757 6.62387 23.3752 6.46867 22.978 6.47107L16.71 6.46007L16.712 10.3241ZM15.418 10.5361H10.735V6.23607L15.419 6.24507L15.418 10.5361ZM10.95 10.3241H15.202V6.45707L10.95 6.44907V10.3241ZM9.65703 10.5361H1.29403V7.91707C1.29957 7.46388 1.48438 7.03133 1.80803 6.71405C2.13167 6.39677 2.56781 6.2206 3.02103 6.22407L9.65403 6.23607L9.65703 10.5361ZM1.51003 10.3241H9.44203V6.44707L3.02703 6.43507C2.62988 6.43107 2.24736 6.58473 1.96335 6.86237C1.67934 7.14 1.51704 7.51894 1.51203 7.91607L1.51003 10.3241ZM18.844 5.18607H14.326L17.849 1.74007C18.1501 1.45026 18.5522 1.28918 18.9701 1.29105C19.3879 1.29292 19.7886 1.45758 20.087 1.75007C20.2333 1.89377 20.3494 2.06533 20.4283 2.25463C20.5072 2.44392 20.5473 2.6471 20.5464 2.85218C20.5455 3.05726 20.5035 3.26007 20.4228 3.44864C20.3422 3.6372 20.2246 3.8077 20.077 3.95007L18.844 5.18607ZM14.844 4.97407H18.744L19.915 3.79807C20.0424 3.67511 20.144 3.52791 20.2136 3.36511C20.2832 3.20232 20.3196 3.02724 20.3205 2.85018C20.3215 2.67312 20.2869 2.49766 20.219 2.33415C20.1511 2.17063 20.0511 2.02236 19.925 1.89807C19.6688 1.64261 19.3219 1.49883 18.96 1.49807H18.953C18.5939 1.49642 18.2485 1.63574 17.991 1.88607L14.844 4.97407ZM11.811 5.18307L7.30203 5.14307L7.09203 4.93607C6.94519 4.79296 6.82849 4.62191 6.74881 4.43299C6.66913 4.24407 6.62808 4.04111 6.62808 3.83607C6.62808 3.63103 6.66913 3.42807 6.74881 3.23915C6.82849 3.05023 6.94519 2.87917 7.09203 2.73607C7.39008 2.4462 7.78926 2.28373 8.20503 2.28307H8.21103C8.62978 2.28297 9.03188 2.44704 9.33103 2.74007L11.811 5.18307ZM7.39303 4.93207L11.287 4.96607L9.18603 2.89407C8.92839 2.64127 8.58197 2.49947 8.22103 2.49907C7.86101 2.49877 7.51511 2.63907 7.25703 2.89007C7.13002 3.01355 7.02907 3.16125 6.96013 3.32442C6.89119 3.48759 6.85567 3.66293 6.85567 3.84007C6.85567 4.01721 6.89119 4.19255 6.96013 4.35572C7.02907 4.51889 7.13002 4.66659 7.25703 4.79007L7.39303 4.93207Z" fill="#5A77D0"></path>
<path d="M4.62399 26.0001C3.83091 26.0054 3.06799 25.6965 2.50206 25.1408C1.93613 24.5852 1.61324 23.8282 1.604 23.0351V11.8071H0.755005C0.655877 11.8077 0.557592 11.7887 0.46579 11.7513C0.373989 11.7139 0.290469 11.6588 0.220002 11.5891C0.149949 11.5208 0.0942947 11.4391 0.056336 11.349C0.0183772 11.2588 -0.00112395 11.1619 -0.00100655 11.0641L0.00500541 7.91514C0.0158123 7.12314 0.339388 6.36755 0.905152 5.81321C1.47092 5.25887 2.23294 4.9508 3.02499 4.95615H5.576C5.34815 4.43719 5.28418 3.86097 5.39265 3.30466C5.50113 2.74836 5.77687 2.23846 6.183 1.84312C6.72495 1.30895 7.45605 1.01053 8.217 1.01304C8.97813 1.01307 9.70886 1.31185 10.252 1.84507L13.068 4.62009L16.976 0.797096C17.5271 0.274532 18.2602 -0.0125334 19.0197 -0.00319717C19.7791 0.00613908 20.5049 0.31119 21.043 0.847145C21.306 1.11026 21.5138 1.42328 21.6539 1.76792C21.7941 2.11257 21.8638 2.48183 21.8591 2.85386C21.8543 3.22588 21.7752 3.59323 21.6263 3.93418C21.4773 4.27513 21.2617 4.58277 20.992 4.83909L20.848 4.98411H22.982C23.7793 4.98482 24.5447 5.2978 25.114 5.85606C25.393 6.12996 25.6145 6.45677 25.7656 6.81736C25.9167 7.17795 25.9944 7.56518 25.994 7.95615L25.989 11.0611C25.9864 11.2589 25.9056 11.4476 25.7643 11.586C25.6231 11.7245 25.4328 11.8015 25.235 11.8001H24.4V23.0281C24.3908 23.8211 24.0679 24.5783 23.502 25.1339C22.936 25.6895 22.1731 25.9985 21.38 25.9931L4.62399 26.0001ZM16.705 24.5201H21.377C21.774 24.5231 22.1559 24.3685 22.4391 24.0903C22.7224 23.8121 22.8838 23.4331 22.888 23.0361V11.8081H16.711L16.705 24.5201ZM10.943 24.5201H15.2L15.207 11.8071H10.95L10.943 24.5201ZM3.112 23.0361C3.11622 23.4332 3.27778 23.8125 3.56122 24.0907C3.84466 24.3689 4.22685 24.5233 4.62399 24.5201H9.435L9.441 11.8071H3.112V23.0361ZM16.712 10.3261H24.487V7.96116C24.4836 7.56403 24.3228 7.18437 24.0399 6.90562C23.757 6.62686 23.3751 6.4717 22.978 6.4741L16.71 6.46213L16.712 10.3261ZM10.951 10.3261H15.2V6.46006L10.947 6.45213L10.951 10.3261ZM1.515 7.91904V10.3261H9.44701V6.44907L3.032 6.43711C2.63434 6.43231 2.25104 6.58566 1.96639 6.86338C1.68173 7.1411 1.51902 7.52041 1.51401 7.91807L1.515 7.91904ZM18 1.89207L14.846 4.97507H18.751L19.923 3.80015C20.0504 3.67719 20.1519 3.52996 20.2216 3.36716C20.2912 3.20437 20.3276 3.02921 20.3285 2.85215C20.3294 2.67509 20.2949 2.49967 20.227 2.33616C20.1591 2.17264 20.0591 2.02441 19.933 1.90012C19.6767 1.64476 19.3298 1.50097 18.968 1.5001H18.962C18.6023 1.49952 18.2568 1.64027 18 1.89207ZM7.25101 2.89207C7.124 3.01555 7.02304 3.16322 6.9541 3.32639C6.88517 3.48957 6.84966 3.665 6.84966 3.84214C6.84966 4.01928 6.88517 4.19459 6.9541 4.35776C7.02304 4.52094 7.124 4.66861 7.25101 4.79209L7.399 4.93809L11.299 4.97214L9.19299 2.89805C8.93623 2.64333 8.58967 2.49977 8.228 2.49815C7.86386 2.49527 7.51337 2.63649 7.25301 2.89109L7.25101 2.89207Z" fill="#FD8983"></path>
</svg>
