<svg width="26" height="26" viewBox="0 0 26 26" fill="none" xmlns="http://www.w3.org/2000/svg">
<mask id="mask0_1_2243" style="mask-type: luminance" maskUnits="userSpaceOnUse" x="0" y="0" width="26" height="26">
<path d="M26 0H0V26H26V0Z" fill="white"></path>
</mask>
<g mask="url('#mask0_1_2243')">
<path d="M25.847 10.069C25.8489 9.25422 25.6887 8.44717 25.3758 7.69486C25.0628 6.94256 24.6033 6.26003 24.024 5.68703L20.136 1.81503C19.5582 1.23745 18.8719 0.779772 18.1166 0.468291C17.3614 0.156811 16.552 -0.00232647 15.735 2.56989e-05H6.72299C6.40638 -0.000631592 6.09273 0.0610801 5.79996 0.181637C5.50719 0.302195 5.24104 0.479236 5.01669 0.702654C4.79235 0.926072 4.6142 1.19149 4.49243 1.48376C4.37066 1.77602 4.30765 2.08941 4.30699 2.40603V7.74203C3.28045 7.92886 2.33497 8.4234 1.59599 9.16003C-0.175007 10.923 -0.688007 14.303 2.21899 16.96C2.53399 17.18 2.68599 16.912 2.74199 16.402C0.059993 14.032 0.614993 10.938 2.44199 9.42203C3.28789 8.72589 4.36224 8.36887 5.45655 8.42024C6.55085 8.47161 7.58703 8.92771 8.36399 9.70003C8.89974 10.2289 9.28896 10.8879 9.49352 11.6123C9.69809 12.3368 9.711 13.102 9.53099 13.833C9.51039 13.9169 9.51897 14.0053 9.55532 14.0836C9.59168 14.162 9.65364 14.2256 9.73099 14.264L10.984 14.88L11.284 16.465C11.2966 16.5311 11.3265 16.5926 11.3706 16.6433C11.4146 16.6941 11.4714 16.7323 11.535 16.754L13.565 17.454L14.332 19.546C14.3495 19.5933 14.3762 19.6366 14.4105 19.6735C14.4448 19.7104 14.4861 19.7402 14.532 19.761L15.554 20.234L14.554 22.796L7.07699 15.343C7.00506 15.2716 6.90783 15.2316 6.80649 15.2316C6.70515 15.2316 6.60792 15.2716 6.53599 15.343C6.50047 15.3783 6.47227 15.4203 6.45303 15.4666C6.4338 15.5128 6.42389 15.5624 6.42389 15.6125C6.42389 15.6626 6.4338 15.7122 6.45303 15.7585C6.47227 15.8047 6.50047 15.8467 6.53599 15.882L13.807 23.122L12.67 23.158L6.64799 17.158C6.60152 17.112 6.54403 17.0787 6.48101 17.0611C6.418 17.0436 6.35154 17.0426 6.28799 17.058C5.68388 17.2037 5.05585 17.2203 4.44486 17.107C3.83387 16.9936 3.25364 16.7527 2.74199 16.4C2.67411 16.3409 2.58826 16.3064 2.49833 16.3021C2.40841 16.2978 2.31966 16.3239 2.24644 16.3763C2.17323 16.4287 2.11983 16.5043 2.09489 16.5908C2.06994 16.6773 2.07491 16.7697 2.10899 16.853C2.75064 17.3674 3.51067 17.7132 4.31999 17.859L4.35999 23.642C4.36006 24.1256 4.50841 24.5975 4.78503 24.9941C5.06165 25.3907 5.45324 25.6929 5.90699 25.86C6.16797 25.9529 6.44297 26.0003 6.71999 26H23.431C24.0703 26.0008 24.6837 25.7479 25.1367 25.2968C25.5897 24.8457 25.8451 24.2333 25.847 23.594V10.069ZM19.595 2.35403L23.483 6.22603C24.0958 6.83362 24.5542 7.57905 24.82 8.40003C24.4783 8.04638 24.0689 7.76521 23.6162 7.57329C23.1635 7.38138 22.6767 7.28266 22.185 7.28303H20.185C19.7479 7.2825 19.3289 7.10856 19.0199 6.7994C18.7109 6.49024 18.5373 6.07111 18.537 5.63403V3.64703C18.5371 3.1566 18.4379 2.67122 18.2452 2.22023C18.0525 1.76923 17.7705 1.36196 17.416 1.02303C18.2377 1.28747 18.9846 1.74371 19.595 2.35403ZM23.431 25.239H6.72299C6.53363 25.2377 6.3459 25.2039 6.16799 25.139C5.86183 25.0253 5.59779 24.8207 5.41135 24.5525C5.2249 24.2844 5.12498 23.9656 5.12499 23.639L5.08599 17.939C5.47852 17.9499 5.87101 17.9163 6.25599 17.839L12.247 23.804C12.3186 23.8756 12.4157 23.9159 12.517 23.916H12.529L14.714 23.846C14.7888 23.8437 14.8613 23.8194 14.9225 23.7762C14.9837 23.733 15.0308 23.6728 15.058 23.603L16.398 20.164C16.4328 20.0732 16.4315 19.9725 16.3942 19.8827C16.357 19.7928 16.2868 19.7207 16.198 19.681L14.998 19.124L14.223 17.009C14.2033 16.9558 14.172 16.9076 14.1313 16.868C14.0907 16.8284 14.0417 16.7983 13.988 16.78L11.997 16.1L11.707 14.55C11.6959 14.4919 11.6714 14.4371 11.6355 14.3901C11.5996 14.343 11.5532 14.305 11.5 14.279L10.342 13.71C10.4919 12.8921 10.4395 12.0499 10.1893 11.2569C9.93923 10.4638 9.499 9.74398 8.90699 9.16003C8.405 8.66067 7.80571 8.26983 7.14634 8.0118C6.48696 7.75376 5.78158 7.63402 5.07399 7.66003V2.40603C5.07532 1.96955 5.24963 1.5514 5.55874 1.24324C5.86784 0.935071 6.28652 0.762024 6.72299 0.762026H14.875C15.6415 0.762015 16.3769 1.06549 16.9203 1.60611C17.4637 2.14672 17.771 2.8805 17.775 3.64703V5.63403C17.7771 6.2727 18.0322 6.8845 18.4845 7.33546C18.9368 7.78641 19.5493 8.03976 20.188 8.04003H22.188C22.9533 8.03842 23.6881 8.34001 24.2315 8.87881C24.775 9.41761 25.083 10.1497 25.088 10.915V23.594C25.0867 24.0308 24.9121 24.4493 24.6025 24.7575C24.293 25.0657 23.8738 25.2386 23.437 25.238L23.431 25.239Z" fill="#5A77D0"></path>
<path d="M23.431 26.051H6.723C6.44018 26.0513 6.15942 26.0029 5.893 25.908C5.42886 25.7384 5.02794 25.4304 4.74433 25.0258C4.46072 24.6211 4.30808 24.1392 4.307 23.645L4.269 17.9C3.5238 17.7525 2.81852 17.4481 2.2 17.007L2.19 17H2.185L2.152 16.97L2.107 16.929C1.50779 16.4119 1.02112 15.7773 0.677097 15.0645C0.333077 14.3517 0.13904 13.5758 0.106999 12.785C0.0909803 12.1083 0.211773 11.4353 0.462136 10.8064C0.712498 10.1775 1.08728 9.60558 1.564 9.125C2.29862 8.39146 3.23634 7.89508 4.256 7.7V2.406C4.25785 1.7532 4.51868 1.12782 4.98122 0.667157C5.44376 0.206494 6.0702 -0.0517928 6.723 -0.0509953H15.735C16.5587 -0.0535504 17.3748 0.10682 18.1363 0.420886C18.8977 0.734952 19.5896 1.19651 20.172 1.779L24.06 5.651C24.6441 6.2287 25.1074 6.91683 25.4229 7.67532C25.7385 8.43381 25.9 9.2475 25.898 10.069V23.594C25.8961 24.2468 25.6353 24.8722 25.1728 25.3329C24.7102 25.7935 24.0838 26.0518 23.431 26.051ZM2.475 17.083C3.04548 17.4326 3.67306 17.679 4.329 17.811L4.371 17.819L4.411 23.644C4.41148 24.1172 4.55708 24.5789 4.82817 24.9667C5.09926 25.3546 5.48278 25.65 5.927 25.813C6.18379 25.9044 6.45443 25.9507 6.727 25.95H23.431C24.0567 25.9505 24.657 25.7029 25.1004 25.2614C25.5437 24.82 25.7939 24.2207 25.796 23.595V10.069C25.7979 9.2609 25.639 8.46048 25.3286 7.71436C25.0182 6.96824 24.5625 6.29132 23.988 5.723L20.1 1.851C19.527 1.27804 18.8464 0.824033 18.0972 0.515117C17.3481 0.206201 16.5453 0.0484715 15.735 0.0510047H6.723C6.09733 0.0504715 5.49699 0.298097 5.05364 0.739574C4.61028 1.18105 4.36012 1.78034 4.358 2.406V7.784L4.316 7.792C3.29907 7.97778 2.36286 8.46891 1.632 9.2C1.16577 9.67074 0.799274 10.2307 0.554427 10.8463C0.309581 11.462 0.191415 12.1206 0.206999 12.783C0.236525 13.5278 0.41367 14.2594 0.728156 14.9352C1.04264 15.6111 1.48821 16.2177 2.039 16.72C2.0345 16.6484 2.04852 16.5768 2.07969 16.5122C2.11087 16.4476 2.15815 16.3921 2.217 16.351C2.30864 16.291 2.41802 16.2642 2.527 16.275C2.00284 15.8231 1.58179 15.2639 1.29231 14.6352C1.00283 14.0066 0.851651 13.3231 0.848999 12.631C0.858503 12.0093 1.00271 11.3971 1.27169 10.8365C1.54066 10.276 1.928 9.78041 2.407 9.384C3.26243 8.67937 4.34917 8.31773 5.45625 8.36929C6.56333 8.42084 7.61175 8.88192 8.398 9.663C8.93966 10.1982 9.33315 10.8649 9.53999 11.5977C9.74682 12.3306 9.75992 13.1046 9.578 13.844C9.56023 13.9169 9.56801 13.9937 9.60004 14.0616C9.63207 14.1295 9.68641 14.1844 9.754 14.217L11.03 14.844L11.335 16.453C11.346 16.5104 11.3719 16.5638 11.4102 16.6079C11.4485 16.6519 11.4978 16.6851 11.553 16.704L13.605 17.404L14.381 19.519C14.396 19.5598 14.4189 19.5973 14.4484 19.6292C14.4779 19.6611 14.5135 19.6869 14.553 19.705L15.619 20.198L14.577 22.882L7.041 15.382C7.01058 15.3501 6.9741 15.3247 6.93371 15.3071C6.89332 15.2895 6.84982 15.2802 6.80577 15.2796C6.76172 15.279 6.71801 15.2873 6.67718 15.3038C6.63636 15.3204 6.59925 15.3449 6.56803 15.376C6.53682 15.4071 6.51212 15.4441 6.49539 15.4849C6.47866 15.5256 6.47023 15.5693 6.4706 15.6133C6.47097 15.6574 6.48013 15.7009 6.49754 15.7414C6.51495 15.7819 6.54027 15.8184 6.572 15.849L13.926 23.171L12.649 23.212L12.633 23.196L6.607 17.2C6.56664 17.1602 6.51683 17.1314 6.46225 17.1162C6.40767 17.1009 6.35011 17.0999 6.295 17.113C5.6976 17.2571 5.07692 17.2766 4.47165 17.1703C3.86638 17.064 3.28951 16.8341 2.777 16.495C2.732 16.823 2.644 17.012 2.51 17.072C2.49864 17.0766 2.48693 17.0803 2.475 17.083ZM6.376 17C6.49127 16.9997 6.60197 17.045 6.684 17.126L12.69 23.106L13.69 23.074L6.5 15.917C6.42604 15.8344 6.38659 15.7265 6.38979 15.6157C6.39299 15.5049 6.43859 15.3995 6.51719 15.3213C6.59578 15.2431 6.7014 15.198 6.81225 15.1953C6.9231 15.1927 7.03075 15.2326 7.113 15.307L14.538 22.7L15.49 20.255L14.507 19.8C14.4553 19.7764 14.4088 19.7427 14.3702 19.701C14.3315 19.6593 14.3016 19.6104 14.282 19.557L13.523 17.487L11.522 16.8C11.4498 16.7753 11.3854 16.7319 11.3354 16.6743C11.2853 16.6167 11.2514 16.5469 11.237 16.472L10.937 14.912L9.707 14.312C9.61861 14.2693 9.54755 14.1975 9.50569 14.1087C9.46383 14.0199 9.4537 13.9194 9.477 13.824C9.63514 13.1685 9.63839 12.4851 9.4865 11.8281C9.3346 11.1712 9.03174 10.5586 8.60192 10.039C8.17211 9.5194 7.62715 9.10709 7.01027 8.83475C6.39339 8.56241 5.72154 8.43753 5.048 8.47001C4.10537 8.51309 3.20215 8.86084 2.474 9.46101C2.00597 9.84802 1.62745 10.3319 1.36452 10.8794C1.10158 11.4268 0.960503 12.0248 0.950999 12.632C0.95668 13.3504 1.1233 14.0583 1.4386 14.7038C1.75391 15.3493 2.20988 15.9159 2.773 16.362C3.27822 16.7097 3.85094 16.9471 4.45394 17.0589C5.05694 17.1707 5.67672 17.1544 6.273 17.011C6.30676 17.0032 6.34135 16.9995 6.376 17ZM2.261 16.929C2.28936 16.9543 2.3237 16.972 2.36079 16.9804C2.39788 16.9888 2.43649 16.9877 2.473 16.977C2.545 16.944 2.64 16.822 2.687 16.429C2.62415 16.3927 2.55261 16.3741 2.48003 16.3754C2.40745 16.3766 2.33657 16.3976 2.275 16.436C2.21492 16.4811 2.17086 16.5443 2.14927 16.6163C2.12768 16.6883 2.12969 16.7653 2.155 16.836L2.18 16.861L2.22 16.898L2.261 16.929ZM23.43 25.29H6.723C6.52801 25.2897 6.33452 25.2559 6.151 25.19C5.83427 25.0726 5.56118 24.8608 5.36859 24.5833C5.17601 24.3057 5.07318 23.9758 5.074 23.638L5.035 17.888H5.088C5.47575 17.9022 5.86385 17.8726 6.245 17.8L6.272 17.795L6.291 17.814L12.282 23.779C12.3124 23.8103 12.3488 23.8353 12.389 23.8525C12.4291 23.8696 12.4723 23.8787 12.516 23.879H12.526L14.712 23.809C14.7772 23.8073 14.8405 23.7864 14.8939 23.7489C14.9473 23.7113 14.9884 23.6588 15.012 23.598L16.352 20.159C16.3824 20.0808 16.3818 19.9939 16.3504 19.916C16.3191 19.8382 16.2592 19.7753 16.183 19.74L14.96 19.175L14.177 17.041C14.1606 16.9949 14.1342 16.953 14.0996 16.9184C14.065 16.8838 14.0231 16.8574 13.977 16.841L11.957 16.148L11.657 14.565C11.6473 14.5147 11.6261 14.4673 11.5951 14.4265C11.564 14.3857 11.5239 14.3527 11.478 14.33L10.286 13.744L10.293 13.706C10.4384 12.8958 10.3848 12.0623 10.1367 11.2774C9.88867 10.4925 9.45362 9.77954 8.869 9.2C8.37034 8.70638 7.77601 8.31992 7.12254 8.06437C6.46906 7.80883 5.77024 7.6896 5.069 7.714H5.016V2.406C5.016 1.95514 5.19511 1.52273 5.51392 1.20392C5.83273 0.885111 6.26513 0.706005 6.716 0.706005H14.868C15.6481 0.705206 16.3967 1.01386 16.9495 1.56427C17.5024 2.11468 17.8144 2.86189 17.817 3.642V5.634C17.8179 5.9444 17.88 6.25158 17.9996 6.53799C18.1193 6.82439 18.2942 7.08442 18.5144 7.30321C18.7346 7.52199 18.9957 7.69526 19.2829 7.8131C19.57 7.93094 19.8776 7.99106 20.188 7.99H22.188C22.9661 7.98998 23.7126 8.29755 24.2648 8.84566C24.817 9.39377 25.1302 10.138 25.136 10.916V23.594C25.1353 23.8173 25.0907 24.0382 25.0047 24.2442C24.9186 24.4502 24.7929 24.6372 24.6345 24.7946C24.4762 24.952 24.2884 25.0767 24.0819 25.1615C23.8754 25.2463 23.6542 25.2897 23.431 25.289L23.43 25.29ZM5.137 17.994L5.176 23.638C5.17391 23.9558 5.26961 24.2665 5.4501 24.528C5.6306 24.7895 5.88716 24.9892 6.185 25.1C6.35774 25.1613 6.53972 25.1924 6.723 25.192H23.431C23.8541 25.192 24.26 25.0244 24.5599 24.7259C24.8598 24.4273 25.0291 24.0221 25.031 23.599V10.916C25.0255 10.1649 24.7231 9.44653 24.19 8.9175C23.6568 8.38846 22.9361 8.09172 22.185 8.092H20.185C19.5323 8.09254 18.906 7.83417 18.4435 7.37356C17.981 6.91295 17.7201 6.28772 17.718 5.635V3.647C17.7154 2.89446 17.4146 2.17365 16.8815 1.64245C16.3484 1.11126 15.6265 0.813 14.874 0.813005H6.723C6.29969 0.813002 5.89363 0.980749 5.59374 1.27951C5.29386 1.57827 5.12459 1.9837 5.123 2.407V7.607C5.82871 7.59008 6.53058 7.71571 7.18661 7.97637C7.84264 8.23703 8.43934 8.62736 8.941 9.124C9.53164 9.71089 9.97215 10.4315 10.2253 11.2247C10.4784 12.0179 10.5366 12.8605 10.395 13.681L11.519 14.233C11.579 14.2627 11.6314 14.3058 11.672 14.3591C11.7126 14.4123 11.7403 14.4742 11.753 14.54L12.042 16.065L14.006 16.739C14.0669 16.7597 14.1225 16.7938 14.1685 16.8388C14.2145 16.8838 14.2499 16.9386 14.272 16.999L15.04 19.094L16.224 19.642C16.3237 19.688 16.4022 19.7703 16.4434 19.8721C16.4847 19.9739 16.4856 20.0876 16.446 20.19L15.107 23.629C15.0761 23.708 15.0226 23.7762 14.9533 23.8251C14.884 23.874 14.8018 23.9014 14.717 23.904L12.532 23.974H12.517C12.46 23.9743 12.4036 23.9633 12.3509 23.9417C12.2982 23.92 12.2503 23.8882 12.21 23.848L6.238 17.9C5.8753 17.9698 5.50628 18.0013 5.137 17.994ZM24.937 8.58801L24.784 8.43001C24.4475 8.08041 24.0436 7.80269 23.5967 7.61363C23.1498 7.42456 22.6692 7.32807 22.184 7.33H20.184C19.734 7.33001 19.3024 7.15159 18.9837 6.83386C18.665 6.51612 18.4853 6.08501 18.484 5.635V3.647C18.4851 3.16327 18.3876 2.68437 18.1975 2.23957C18.0073 1.79478 17.7285 1.39342 17.378 1.06L17.222 0.907005L17.431 0.974005C18.2611 1.23943 19.0155 1.69996 19.631 2.317L23.519 6.189C24.1378 6.80021 24.6005 7.55135 24.868 8.379L24.937 8.58801ZM17.607 1.141C18.2424 1.82044 18.5947 2.71672 18.592 3.647V5.634C18.5939 6.05714 18.7632 6.46231 19.0631 6.76085C19.363 7.0594 19.7689 7.22701 20.192 7.22701H22.192C23.1249 7.2238 24.0243 7.57435 24.709 8.208C24.4366 7.47412 24.0057 6.80933 23.447 6.261L19.559 2.39C19.0073 1.83613 18.3411 1.40981 17.607 1.141Z" fill="#5A77D0"></path>
<path d="M23.431 26.0999H6.723C6.43445 26.1004 6.14795 26.0514 5.876 25.9549C5.40228 25.7817 4.99308 25.4673 4.70359 25.0543C4.41409 24.6412 4.25822 24.1493 4.257 23.6449L4.218 17.9449C3.47917 17.7899 2.78048 17.4835 2.166 17.0449H2.161L2.151 17.0369L2.127 17.0149L2.073 16.9649C1.46825 16.4439 0.97692 15.8042 0.629454 15.0855C0.281989 14.3669 0.0857856 13.5845 0.0529981 12.7869C0.036456 12.1028 0.158319 11.4225 0.41127 10.7867C0.664222 10.1508 1.04305 9.5727 1.525 9.08693C2.25818 8.35608 3.19145 7.85882 4.207 7.65793V2.40593C4.20938 1.7403 4.47554 1.10276 4.94715 0.633021C5.41877 0.163283 6.05736 -0.100337 6.723 -0.100068H15.735C16.5651 -0.102627 17.3875 0.0588754 18.1549 0.375159C18.9224 0.691442 19.6198 1.15627 20.207 1.74293L24.095 5.61493C24.6838 6.19735 25.1509 6.89109 25.469 7.65575C25.7871 8.42042 25.95 9.24073 25.948 10.0689V23.5939C25.9456 24.2597 25.6793 24.8974 25.2075 25.3672C24.7357 25.837 24.0968 26.1005 23.431 26.0999ZM2.581 17.0899C3.12551 17.4093 3.71924 17.636 4.338 17.7609L4.421 17.7759L4.461 23.6429C4.46154 24.1057 4.60401 24.5572 4.8692 24.9365C5.13438 25.3157 5.50952 25.6046 5.944 25.7639C6.19375 25.8528 6.45691 25.8981 6.722 25.8979H23.431C24.0425 25.8985 24.6292 25.6568 25.0629 25.2257C25.4966 24.7947 25.7418 24.2094 25.745 23.5979V10.0689C25.7469 9.26752 25.5894 8.47372 25.2815 7.73378C24.9737 6.99384 24.5218 6.32252 23.952 5.75893L20.064 1.88693C19.4957 1.31857 18.8207 0.868102 18.0778 0.561429C17.3349 0.254756 16.5387 0.0979193 15.735 0.0999323H6.723C6.11016 0.09887 5.52198 0.341163 5.0877 0.773565C4.65342 1.20597 4.40859 1.7931 4.407 2.40593V7.82593L4.323 7.84093C3.31678 8.02384 2.39005 8.50865 1.666 9.23093C1.20378 9.69713 0.840462 10.2519 0.597831 10.8619C0.3552 11.4719 0.238251 12.1246 0.253998 12.7809C0.31124 14.2351 0.937148 15.6086 1.997 16.6059C2.00667 16.5455 2.02861 16.4878 2.06145 16.4362C2.0943 16.3846 2.13737 16.3403 2.188 16.3059C2.25253 16.2627 2.32605 16.2346 2.403 16.2239C1.89835 15.7696 1.49465 15.2145 1.21801 14.5943C0.941371 13.9742 0.797942 13.303 0.796998 12.6239C0.808058 11.9958 0.954908 11.3775 1.22747 10.8115C1.50002 10.2455 1.89183 9.74522 2.376 9.34493C3.24122 8.63205 4.34048 8.26615 5.46034 8.31826C6.58019 8.37037 7.64072 8.83678 8.436 9.62693C8.98417 10.1681 9.3824 10.8424 9.5917 11.5837C9.80101 12.325 9.8142 13.108 9.63 13.8559C9.61477 13.9177 9.62126 13.9828 9.6484 14.0404C9.67553 14.0979 9.72165 14.1444 9.779 14.1719L11.079 14.8099L11.389 16.4439C11.3983 16.4923 11.4202 16.5374 11.4525 16.5747C11.4848 16.6119 11.5264 16.6399 11.573 16.6559L13.648 17.3679L14.432 19.5059C14.4446 19.5404 14.4639 19.572 14.4888 19.5989C14.5137 19.6259 14.5437 19.6476 14.577 19.6629L15.686 20.1759L14.597 22.9759L7.007 15.4139C6.98106 15.3877 6.95021 15.3668 6.91619 15.3524C6.88218 15.3381 6.84568 15.3306 6.80877 15.3304C6.77185 15.3301 6.73526 15.3372 6.70107 15.3511C6.66688 15.365 6.63576 15.3855 6.6095 15.4114C6.58323 15.4374 6.56233 15.4682 6.548 15.5022C6.53366 15.5362 6.52616 15.5728 6.52592 15.6097C6.52569 15.6466 6.53273 15.6832 6.54664 15.7174C6.56055 15.7516 6.58106 15.7827 6.607 15.8089L14.045 23.2139L12.628 23.2589L6.576 17.2329C6.54192 17.1992 6.49979 17.1746 6.4536 17.1617C6.4074 17.1487 6.35866 17.1478 6.312 17.1589C5.72084 17.3014 5.10706 17.3232 4.50727 17.2232C3.90748 17.1232 3.33398 16.9034 2.821 16.5769C2.81219 16.773 2.72586 16.9575 2.581 17.0899ZM6.381 16.9479C6.50976 16.9478 6.63337 16.9985 6.725 17.0889L12.707 23.0539L13.565 23.0259L6.465 15.9519C6.37456 15.8611 6.32391 15.7381 6.32419 15.6099C6.32447 15.4817 6.37566 15.3589 6.4665 15.2684C6.55734 15.178 6.68038 15.1273 6.80856 15.1276C6.93674 15.1279 7.05956 15.1791 7.15 15.2699L14.52 22.6079L15.427 20.2799L14.491 19.8469C14.4332 19.8205 14.3813 19.7828 14.3382 19.7361C14.2951 19.6894 14.2618 19.6346 14.24 19.5749L13.489 17.5279L11.507 16.8479C11.4265 16.8203 11.3547 16.7719 11.2989 16.7076C11.243 16.6434 11.2051 16.5655 11.189 16.4819L10.898 14.9469L9.691 14.3539C9.59204 14.3062 9.5125 14.2259 9.4657 14.1265C9.41891 14.0271 9.40772 13.9146 9.434 13.8079C9.58973 13.1598 9.59229 12.4843 9.44146 11.835C9.29064 11.1857 8.99058 10.5804 8.56509 10.0673C8.1396 9.55419 7.60039 9.14727 6.99024 8.87885C6.38008 8.61043 5.71577 8.48788 5.05 8.52093C4.11875 8.56359 3.22645 8.90711 2.507 9.49993C2.04552 9.88282 1.67247 10.3611 1.41353 10.902C1.15459 11.4428 1.0159 12.0334 1.007 12.6329C1.01258 13.3432 1.17715 14.0432 1.48863 14.6816C1.80011 15.3199 2.25059 15.8804 2.807 16.3219C3.30649 16.6651 3.87259 16.8993 4.46852 17.0094C5.06445 17.1195 5.67687 17.103 6.266 16.9609C6.30204 16.9524 6.33895 16.948 6.376 16.9479H6.381ZM2.295 16.8859C2.345 16.9189 2.41 16.9499 2.457 16.9289C2.504 16.9079 2.588 16.8289 2.637 16.4559C2.58487 16.4315 2.52743 16.4205 2.46995 16.424C2.41246 16.4275 2.35678 16.4453 2.308 16.4759C2.25981 16.5138 2.2244 16.5656 2.20652 16.6242C2.18864 16.6829 2.18915 16.7456 2.208 16.8039L2.22 16.8159L2.264 16.8569L2.295 16.8859ZM23.435 25.3389H6.723C6.52206 25.3396 6.32249 25.3058 6.133 25.2389C5.80617 25.1182 5.52433 24.9 5.32562 24.6138C5.1269 24.3277 5.02091 23.9873 5.022 23.6389L4.982 17.8389H5.088C5.47262 17.8513 5.8574 17.8201 6.235 17.7459L6.288 17.7349L6.326 17.7729L12.317 23.7379C12.3432 23.7642 12.3744 23.785 12.4087 23.7991C12.4431 23.8132 12.4799 23.8203 12.517 23.8199H12.526L14.712 23.7499C14.7668 23.7482 14.8199 23.7304 14.8647 23.6988C14.9095 23.6671 14.944 23.623 14.964 23.5719L16.304 20.1329C16.3296 20.0668 16.3291 19.9934 16.3025 19.9276C16.276 19.8619 16.2254 19.8087 16.161 19.7789L14.919 19.2049L14.129 17.0509C14.1147 17.0119 14.0918 16.9765 14.062 16.9475C14.0323 16.9184 13.9964 16.8963 13.957 16.8829L11.907 16.1809L11.607 14.5689C11.5989 14.5261 11.581 14.4857 11.5546 14.451C11.5282 14.4163 11.4941 14.3882 11.455 14.3689L10.228 13.7689L10.242 13.6939C10.3928 12.8927 10.344 12.0667 10.0998 11.2888C9.85567 10.511 9.42367 9.80521 8.842 9.23393C8.34795 8.74421 7.75883 8.36086 7.11096 8.10752C6.46309 7.85419 5.7702 7.73623 5.075 7.76093H4.97V2.40593C4.97132 1.94206 5.15666 1.49767 5.48533 1.17031C5.81399 0.84296 6.25912 0.659401 6.723 0.659932H14.875C15.6684 0.659925 16.4295 0.97421 16.9917 1.53401C17.554 2.09381 17.8716 2.85354 17.875 3.64693V5.63393C17.8782 6.24538 18.1234 6.83067 18.5571 7.26172C18.9908 7.69277 19.5775 7.93447 20.189 7.93393H22.189C22.9805 7.93391 23.74 8.24668 24.3019 8.80411C24.8638 9.36154 25.1827 10.1184 25.189 10.9099V23.5939C25.1883 23.824 25.1423 24.0518 25.0536 24.2641C24.9649 24.4764 24.8352 24.6692 24.6719 24.8313C24.5086 24.9935 24.315 25.1219 24.1021 25.2091C23.8891 25.2964 23.6611 25.3409 23.431 25.3399L23.435 25.3389ZM5.188 18.0459L5.226 23.6379C5.22521 23.9442 5.31821 24.2435 5.49252 24.4953C5.66682 24.7472 5.91406 24.9397 6.201 25.0469C6.36829 25.1062 6.54452 25.1363 6.722 25.1359H23.431C23.8408 25.1365 24.234 24.9744 24.5244 24.6853C24.8148 24.3962 24.9787 24.0037 24.98 23.5939V10.9159C24.9747 10.1773 24.6772 9.4709 24.1525 8.95108C23.6278 8.43125 22.9186 8.14033 22.18 8.14193H20.18C19.5139 8.14247 18.8748 7.87886 18.4028 7.4089C17.9308 6.93895 17.6644 6.301 17.662 5.63493V3.64693C17.6593 2.9067 17.363 2.1978 16.8379 1.67597C16.3129 1.15414 15.6022 0.862072 14.862 0.863932H6.723C6.31331 0.863665 5.92022 1.02582 5.62987 1.31485C5.33952 1.60389 5.17559 1.99624 5.174 2.40593V7.55493C5.87744 7.54547 6.57572 7.67615 7.22814 7.93935C7.88055 8.20254 8.47404 8.593 8.974 9.08793C9.5659 9.67599 10.0086 10.3971 10.2652 11.191C10.5218 11.9849 10.5848 12.8287 10.449 13.6519L11.539 14.1869C11.6062 14.22 11.6648 14.2682 11.7103 14.3277C11.7557 14.3872 11.7868 14.4564 11.801 14.5299L12.085 16.0299L14.021 16.6939C14.0896 16.7168 14.1522 16.7548 14.2042 16.8052C14.2561 16.8556 14.296 16.917 14.321 16.9849L15.082 19.0599L16.247 19.5989C16.3585 19.6502 16.4462 19.7421 16.4923 19.8558C16.5383 19.9695 16.5393 20.0965 16.495 20.2109L15.155 23.6499C15.1205 23.7384 15.0608 23.8147 14.9833 23.8695C14.9058 23.9242 14.8139 23.955 14.719 23.9579L12.534 24.0279H12.517C12.4533 24.0282 12.3903 24.0159 12.3314 23.9917C12.2725 23.9675 12.219 23.9319 12.174 23.8869L6.221 17.9569C5.8804 18.0203 5.53441 18.0501 5.188 18.0459ZM25.052 8.78093L24.747 8.46593C24.4155 8.12114 24.0176 7.84714 23.5772 7.66048C23.1369 7.47382 22.6633 7.37838 22.185 7.37993H20.185C19.7211 7.38046 19.276 7.1969 18.9473 6.86955C18.6187 6.5422 18.4333 6.09781 18.432 5.63393V3.64693C18.4331 3.17085 18.3373 2.69951 18.1505 2.26163C17.9636 1.82375 17.6895 1.4285 17.345 1.09993L17.028 0.799932L17.447 0.933932C18.2848 1.20191 19.0461 1.66692 19.667 2.28993L23.555 6.16193C24.1787 6.77636 24.6458 7.53151 24.917 8.36393L25.052 8.78093ZM17.778 1.26293C18.3367 1.93144 18.6416 2.77568 18.639 3.64693V5.63393C18.6403 6.04379 18.8041 6.4364 19.0945 6.72566C19.3849 7.01491 19.7781 7.1772 20.188 7.17693H22.188C23.0617 7.17389 23.9087 7.47714 24.582 8.03393C24.31 7.38332 23.9104 6.79373 23.407 6.29993L19.523 2.42493C19.0244 1.92546 18.4311 1.53043 17.778 1.26293Z" fill="#5A77D0"></path>
<path d="M23.431 26.1519H6.72299C6.42841 26.1512 6.13615 26.0997 5.85899 25.9999C5.37601 25.8232 4.95877 25.5027 4.66341 25.0817C4.36806 24.6606 4.20877 24.1592 4.20699 23.6449L4.16799 17.9859C3.4356 17.8281 2.74334 17.5218 2.13399 17.0859L2.10699 17.0679L2.08799 17.0509L2.03599 16.9999C1.42658 16.4743 0.931533 15.8292 0.581496 15.1045C0.23146 14.3798 0.0338822 13.591 0.00099343 12.7869C-0.0152586 12.0965 0.108071 11.4099 0.363588 10.7682C0.619105 10.1266 1.00155 9.54318 1.48799 9.05293C2.21797 8.32481 3.14447 7.82542 4.15399 7.61593V2.40593C4.15611 1.72625 4.4278 1.07518 4.90944 0.595603C5.39108 0.116027 6.04331 -0.152869 6.72299 -0.152071H15.735C16.5721 -0.154593 17.4014 0.00844356 18.1752 0.327657C18.9491 0.64687 19.6521 1.11596 20.244 1.70793L24.132 5.57993C24.7256 6.16704 25.1965 6.86638 25.5172 7.63723C25.8379 8.40808 26.002 9.23503 26 10.0699V23.5939C25.9979 24.2736 25.7262 24.9247 25.2445 25.4043C24.7629 25.8838 24.1107 26.1527 23.431 26.1519ZM6.72299 -0.0510708C6.07019 -0.0518682 5.44375 0.206419 4.98121 0.667081C4.51868 1.12774 4.25785 1.75313 4.25599 2.40593V7.69993L4.21499 7.70793C3.20966 7.90763 2.28589 8.4003 1.55999 9.12393C1.08387 9.60495 0.709758 10.1771 0.460085 10.8062C0.210412 11.4353 0.0903153 12.1083 0.106993 12.7849C0.139305 13.5754 0.333472 14.3509 0.677482 15.0633C1.02149 15.7758 1.50803 16.4101 2.10699 16.9269L2.15999 16.9759L2.19799 17.0089C2.80705 17.4398 3.49792 17.7413 4.22799 17.8949L4.26799 17.9029L4.30699 23.6449C4.30779 24.1391 4.46019 24.6212 4.74363 25.0261C5.02706 25.4309 5.42789 25.7391 5.89199 25.9089C6.15842 26.0038 6.43918 26.0522 6.72199 26.0519H23.431C24.0836 26.0527 24.7099 25.7946 25.1724 25.3341C25.6349 24.8737 25.8959 24.2486 25.898 23.5959V10.0689C25.9 9.24742 25.7385 8.43373 25.4229 7.67524C25.1074 6.91675 24.6441 6.22862 24.06 5.65093L20.172 1.77893C19.5896 1.19644 18.8977 0.734877 18.1363 0.420811C17.3748 0.106745 16.5587 -0.0536259 15.735 -0.0510708H6.72299ZM23.431 25.9489H6.72299C6.45043 25.9497 6.17978 25.9033 5.92299 25.8119C5.47893 25.6489 5.09552 25.3537 4.82445 24.9661C4.55338 24.5784 4.40768 24.117 4.40699 23.6439L4.36699 17.8189L4.32499 17.8109C3.6998 17.6855 3.0999 17.4567 2.54999 17.1339L2.48199 17.0929L2.54799 17.0489C2.6802 16.9237 2.7584 16.7519 2.76599 16.5699L2.77899 16.4939L2.84399 16.5359C3.35169 16.8578 3.91879 17.0745 4.51172 17.1733C5.10466 17.272 5.71139 17.2508 6.29599 17.1109C6.35113 17.0982 6.40859 17.0997 6.46299 17.1153C6.51739 17.1308 6.56694 17.16 6.60699 17.1999L12.645 23.2109L13.922 23.1699L6.57199 15.8449C6.51221 15.7823 6.47934 15.6987 6.48043 15.6122C6.48153 15.5256 6.5165 15.4429 6.57786 15.3818C6.63921 15.3207 6.72205 15.2861 6.80863 15.2854C6.89521 15.2846 6.97863 15.3179 7.04099 15.3779L14.577 22.8779L15.62 20.1999L14.554 19.7069C14.5145 19.6888 14.4789 19.6631 14.4494 19.6311C14.4199 19.5992 14.3969 19.5618 14.382 19.5209L13.607 17.4089L11.555 16.7089C11.4997 16.69 11.4505 16.6569 11.4122 16.6128C11.3739 16.5687 11.348 16.5153 11.337 16.4579L11.032 14.8489L9.75599 14.2219C9.68841 14.1893 9.63406 14.1344 9.60203 14.0666C9.57 13.9987 9.56222 13.9219 9.57999 13.8489C9.742 13.1777 9.74531 12.4779 9.58965 11.8051C9.434 11.1323 9.12367 10.5051 8.6833 9.97319C8.24292 9.44128 7.68463 9.01935 7.05272 8.74087C6.42082 8.4624 5.73271 8.33505 5.04299 8.36893C4.07761 8.41295 3.1526 8.76913 2.40699 9.38393C1.92763 9.78014 1.53991 10.2756 1.27059 10.8362C1.00126 11.3968 0.856743 12.0091 0.846993 12.6309C0.84884 13.3025 0.991369 13.9663 1.2654 14.5795C1.53942 15.1926 1.93887 15.7416 2.43799 16.1909L2.51099 16.2629L2.41099 16.2779C2.34158 16.2877 2.27526 16.313 2.21699 16.3519C2.17231 16.3822 2.13422 16.4212 2.10501 16.4666C2.07579 16.5119 2.05606 16.5627 2.04699 16.6159L2.02899 16.7159L1.95999 16.6459C0.8923 15.6375 0.262868 14.2505 0.206993 12.7829C0.19141 12.1206 0.309575 11.4619 0.554422 10.8462C0.799268 10.2306 1.16577 9.67067 1.63199 9.19993C2.36394 8.47181 3.30003 7.98354 4.31599 7.79993L4.35799 7.79193V2.40593C4.36011 1.78026 4.61028 1.18098 5.05363 0.739499C5.49698 0.298022 6.09732 0.0503961 6.72299 0.0509292H15.735C16.5453 0.048396 17.3481 0.206125 18.0972 0.515041C18.8464 0.823957 19.527 1.27796 20.1 1.85093L23.988 5.72293C24.5571 6.28576 25.0096 6.95521 25.3199 7.69303C25.6301 8.43084 25.7919 9.22256 25.796 10.0229H25.847V10.1229H25.796V23.5939C25.7939 24.2196 25.5437 24.8189 25.1004 25.2604C24.657 25.7018 24.0567 25.9495 23.431 25.9489ZM2.66899 17.0829C3.19173 17.3802 3.75851 17.5922 4.34799 17.7109L4.47299 17.7339L4.51399 23.6429C4.51445 24.0953 4.65361 24.5367 4.9127 24.9075C5.1718 25.2784 5.53837 25.5609 5.96299 25.7169C6.20729 25.8038 6.4647 25.8481 6.72399 25.8479H23.431C24.0296 25.8485 24.604 25.6116 25.0282 25.1892C25.4525 24.7669 25.6919 24.1935 25.694 23.5949V10.0689C25.6959 9.27421 25.5396 8.48706 25.2344 7.7533C24.9291 7.01954 24.481 6.35383 23.916 5.79493L20.028 1.92293C19.4645 1.35926 18.7951 0.912599 18.0584 0.608657C17.3216 0.304715 16.532 0.149494 15.735 0.151929H6.72299C6.1242 0.151397 5.54965 0.388413 5.1254 0.810978C4.70115 1.23354 4.46185 1.80714 4.45999 2.40593V7.86893L4.33499 7.89193C3.33972 8.07347 2.42318 8.55336 1.70699 9.26793C1.24922 9.72892 0.88925 10.2776 0.64868 10.8811C0.40811 11.4846 0.291892 12.1304 0.306993 12.7799C0.361461 14.1901 0.957449 15.525 1.97099 16.5069C2.00679 16.4091 2.07259 16.3251 2.15899 16.2669C2.20477 16.2375 2.25464 16.2149 2.30699 16.1999C1.81575 15.7437 1.42372 15.1912 1.15533 14.5768C0.88694 13.9624 0.747941 13.2994 0.746993 12.6289C0.75721 11.9921 0.905567 11.3651 1.18181 10.7912C1.45806 10.2172 1.85561 9.71016 2.34699 9.30493C3.22199 8.58381 4.33378 8.21363 5.46642 8.2663C6.59905 8.31897 7.67169 8.79072 8.47599 9.58993C9.03034 10.1373 9.43309 10.8192 9.64484 11.5689C9.85659 12.3186 9.87008 13.1104 9.68399 13.8669C9.67175 13.9174 9.67718 13.9705 9.69938 14.0175C9.72158 14.0645 9.75921 14.1024 9.80599 14.1249L11.127 14.7739L11.442 16.4329C11.4495 16.4727 11.4675 16.5097 11.494 16.5403C11.5205 16.5709 11.5547 16.5939 11.593 16.6069L13.693 17.3269L14.485 19.4879C14.4953 19.5163 14.5111 19.5422 14.5315 19.5644C14.552 19.5865 14.5766 19.6044 14.604 19.6169L15.756 20.1499L14.621 23.0629L6.96899 15.4499C6.92616 15.4068 6.86796 15.3825 6.8072 15.3823C6.74644 15.3821 6.68809 15.4061 6.64499 15.4489C6.6019 15.4918 6.57758 15.55 6.57739 15.6107C6.5772 15.6715 6.60116 15.7298 6.64399 15.7729L14.165 23.2609L12.608 23.3109L12.592 23.2949L6.53999 17.2689C6.51214 17.2412 6.47769 17.2211 6.4399 17.2104C6.40211 17.1998 6.36221 17.1989 6.32399 17.2079C5.14132 17.4907 3.8948 17.2937 2.85699 16.6599C2.83609 16.816 2.77084 16.9628 2.66899 17.0829ZM23.431 25.3899H6.72299C6.51642 25.3917 6.31109 25.3578 6.11599 25.2899C5.77908 25.1653 5.48857 24.9403 5.28378 24.6452C5.07899 24.35 4.9698 23.9991 4.97099 23.6399L4.93099 17.7849L5.08999 17.7899C5.47051 17.8027 5.85125 17.7725 6.22499 17.6999L6.30499 17.6839L12.354 23.6999C12.3753 23.7212 12.4005 23.7381 12.4283 23.7495C12.4561 23.761 12.4859 23.7669 12.516 23.7669H12.524L14.707 23.6999C14.752 23.6987 14.7957 23.6841 14.8325 23.6582C14.8693 23.6322 14.8977 23.5959 14.914 23.5539L16.254 20.1149C16.2749 20.0608 16.2744 20.0007 16.2527 19.9468C16.231 19.893 16.1896 19.8494 16.137 19.8249L14.876 19.2419L14.076 17.0679C14.0643 17.0358 14.0456 17.0068 14.0212 16.9829C13.9968 16.959 13.9673 16.9409 13.935 16.9299L11.859 16.2179L11.548 14.5769C11.5412 14.5422 11.5264 14.5095 11.5049 14.4814C11.4834 14.4533 11.4557 14.4306 11.424 14.4149L10.167 13.7999L10.188 13.6869C10.3374 12.8928 10.2886 12.074 10.0459 11.3032C9.8033 10.5324 9.37432 9.83335 8.79699 9.26793C8.30894 8.78439 7.7272 8.40573 7.08749 8.15517C6.44779 7.90462 5.76362 7.78748 5.07699 7.81093L4.91899 7.81593V2.40593C4.91899 1.92854 5.10864 1.4707 5.4462 1.13314C5.78377 0.795572 6.2416 0.605929 6.71899 0.605929H14.871C15.6781 0.604865 16.4526 0.924046 17.0246 1.49342C17.5966 2.0628 17.9193 2.83586 17.922 3.64293V5.63393C17.9238 6.23272 18.1632 6.80632 18.5874 7.22888C19.0117 7.65145 19.5862 7.88846 20.185 7.88793H22.185C22.99 7.88764 23.7625 8.20574 24.3339 8.77282C24.9053 9.33989 25.2292 10.1099 25.235 10.9149V23.5939C25.2346 23.8304 25.1876 24.0645 25.0967 24.2828C25.0059 24.5011 24.8728 24.6993 24.7053 24.8662C24.5378 25.0331 24.339 25.1653 24.1204 25.2553C23.9017 25.3454 23.6675 25.3915 23.431 25.3909V25.3899ZM5.03099 17.8899L5.06999 23.6399C5.06918 23.9777 5.172 24.3077 5.36459 24.5852C5.55718 24.8627 5.83026 25.0745 6.14699 25.1919C6.33051 25.2578 6.524 25.2916 6.71899 25.2919H23.431C23.881 25.2919 24.3126 25.1135 24.6313 24.7958C24.95 24.478 25.1297 24.0469 25.131 23.5969V10.9149C25.1252 10.1373 24.8123 9.39354 24.2605 8.84564C23.7086 8.29775 22.9626 7.99017 22.185 7.98993H20.185C19.5593 7.99046 18.959 7.74284 18.5156 7.30136C18.0723 6.85988 17.8221 6.2606 17.82 5.63493V3.64693C17.8173 2.86734 17.5058 2.12058 16.9536 1.57025C16.4014 1.01993 15.6536 0.710925 14.874 0.710929H6.72299C6.27213 0.710929 5.83972 0.890036 5.52091 1.20885C5.2021 1.52766 5.02299 1.96006 5.02299 2.41093V7.71193H5.07599C5.77623 7.68857 6.47386 7.80851 7.1261 8.06438C7.77833 8.32025 8.37142 8.70667 8.86899 9.19993C9.45662 9.77597 9.89344 10.4878 10.1409 11.2726C10.3884 12.0574 10.4389 12.891 10.288 13.6999L10.281 13.7379L11.473 14.3239C11.5189 14.3466 11.559 14.3797 11.5901 14.4204C11.6211 14.4612 11.6423 14.5086 11.652 14.5589L11.952 16.1419L13.972 16.8349C14.0181 16.8514 14.0599 16.8778 14.0945 16.9124C14.1291 16.947 14.1556 16.9889 14.172 17.0349L14.955 19.1689L16.178 19.7339C16.2542 19.7692 16.314 19.8321 16.3454 19.91C16.3768 19.9878 16.3774 20.0747 16.347 20.1529L15.007 23.5929C14.9832 23.6536 14.942 23.7058 14.8887 23.7432C14.8353 23.7805 14.7721 23.8013 14.707 23.8029L12.507 23.8729C12.4632 23.8727 12.4198 23.8637 12.3795 23.8465C12.3391 23.8293 12.3026 23.8043 12.272 23.7729L6.26199 17.7889L6.23499 17.7939C5.85376 17.8688 5.4653 17.9003 5.07699 17.8879L5.03099 17.8899ZM23.431 25.1899H6.72299C6.53971 25.1903 6.35773 25.1592 6.18499 25.0979C5.88796 24.9875 5.63196 24.7885 5.45153 24.528C5.27111 24.2675 5.17494 23.9578 5.17599 23.6409L5.13699 17.9949H5.18899C5.53038 17.9988 5.87133 17.9693 6.20699 17.9069H6.23299L6.25199 17.9259L12.207 23.8479C12.2473 23.8881 12.2952 23.92 12.3479 23.9416C12.4006 23.9632 12.457 23.9742 12.514 23.9739H12.527L14.713 23.9039C14.7978 23.9013 14.88 23.8739 14.9493 23.825C15.0186 23.7761 15.0721 23.7079 15.103 23.6289L16.443 20.1899C16.4826 20.0875 16.4817 19.9738 16.4404 19.872C16.3992 19.7702 16.3207 19.6879 16.221 19.6419L15.037 19.0939L14.272 16.9999C14.2499 16.9395 14.2145 16.8847 14.1685 16.8398C14.1225 16.7948 14.0669 16.7607 14.006 16.7399L12.042 16.0659L11.753 14.5409C11.7403 14.4752 11.7126 14.4132 11.672 14.36C11.6314 14.3067 11.579 14.2636 11.519 14.2339L10.396 13.6819L10.402 13.6449C10.5358 12.8297 10.4731 11.9943 10.2192 11.2082C9.96526 10.422 9.5274 9.70785 8.94199 9.12493C8.44622 8.63455 7.85784 8.24771 7.21112 7.98692C6.5644 7.72614 5.87225 7.59663 5.17499 7.60593H5.12299V2.40593C5.12484 1.9828 5.29423 1.57763 5.59409 1.27908C5.89395 0.980535 6.29986 0.812925 6.72299 0.812929H14.875C15.6281 0.81213 16.3507 1.11004 16.8844 1.64132C17.4181 2.1726 17.7193 2.89387 17.722 3.64693V5.63393C17.7241 6.28665 17.985 6.91188 18.4475 7.37248C18.91 7.83309 19.5363 8.09146 20.189 8.09093H22.189C22.9401 8.09064 23.6608 8.38738 24.194 8.91642C24.7271 9.44546 25.0295 10.1639 25.035 10.9149V23.5939C25.0334 24.0179 24.8636 24.424 24.5628 24.7228C24.2621 25.0217 23.855 25.189 23.431 25.1879V25.1899ZM5.23899 18.0999L5.27699 23.6409C5.27638 23.9366 5.36634 24.2253 5.53475 24.4682C5.70316 24.7112 5.94195 24.8968 6.21899 24.9999C6.37957 25.0568 6.54865 25.0859 6.71899 25.0859H23.431C23.8273 25.0859 24.2074 24.9291 24.4885 24.6498C24.7695 24.3704 24.9286 23.9912 24.931 23.5949V10.9159C24.9257 10.1917 24.6343 9.49902 24.1202 8.9889C23.6061 8.47878 22.9112 8.19265 22.187 8.19293H20.187C19.5074 8.19346 18.8553 7.92448 18.3737 7.44496C17.8922 6.96545 17.6204 6.31453 17.618 5.63493V3.64693C17.6156 2.92092 17.3254 2.22549 16.811 1.71315C16.2966 1.20081 15.6 0.913396 14.874 0.913929H6.72299C6.32655 0.913924 5.94623 1.07086 5.66515 1.35044C5.38408 1.63001 5.22511 2.00949 5.22299 2.40593V7.49993H5.24699C6.65772 7.50213 8.01078 8.06009 9.01299 9.05293C9.60525 9.64276 10.0494 10.3645 10.3091 11.159C10.5688 11.9535 10.6366 12.7982 10.507 13.6239L11.563 14.1429C11.6371 14.1795 11.7018 14.2328 11.7519 14.2985C11.8021 14.3643 11.8363 14.4407 11.852 14.5219L12.13 15.9889L14.038 16.6439C14.1133 16.6695 14.1819 16.7116 14.2389 16.7671C14.2958 16.8227 14.3396 16.8903 14.367 16.9649L15.121 19.0199L16.267 19.5499C16.39 19.6067 16.4868 19.7081 16.5377 19.8337C16.5886 19.9593 16.5898 20.0995 16.541 20.2259L15.201 23.6649C15.1629 23.7627 15.0969 23.8471 15.0112 23.9075C14.9255 23.968 14.8238 24.0019 14.719 24.0049L12.534 24.0749H12.517C12.4467 24.0752 12.3769 24.0616 12.3119 24.0348C12.2469 24.008 12.1877 23.9687 12.138 23.9189L6.20699 18.0119C5.88767 18.0706 5.56366 18.1001 5.23899 18.0999ZM12.69 23.1089L12.674 23.0929L6.68399 17.1249C6.63097 17.0733 6.56583 17.0358 6.49454 17.0159C6.42325 16.9959 6.34811 16.9942 6.27599 17.0109C5.67986 17.1547 5.06014 17.1714 4.45714 17.0599C3.85413 16.9484 3.28134 16.7113 2.77599 16.3639C2.21345 15.9179 1.75798 15.3515 1.44303 14.7064C1.12808 14.0613 0.961661 13.3538 0.955993 12.6359C0.964454 12.0286 1.10455 11.4303 1.36662 10.8823C1.62869 10.3344 2.0065 9.84975 2.47399 9.46193C3.30993 8.7735 4.37184 8.42022 5.45359 8.47067C6.53533 8.52111 7.55975 8.97169 8.32799 9.73493C8.85715 10.2579 9.24157 10.9092 9.44366 11.6252C9.64576 12.3413 9.65862 13.0975 9.48099 13.8199C9.4577 13.9153 9.46783 14.0158 9.50969 14.1046C9.55155 14.1934 9.6226 14.2652 9.71099 14.3079L10.941 14.9079L11.241 16.4679C11.2554 16.5429 11.2893 16.6127 11.3394 16.6703C11.3894 16.7279 11.4538 16.7712 11.526 16.7959L13.533 17.4849L14.292 19.5549C14.3115 19.6083 14.3415 19.6573 14.3801 19.699C14.4187 19.7407 14.4653 19.7744 14.517 19.7979L15.496 20.2509L14.538 22.6999L7.11299 15.3069C7.07378 15.2631 7.02607 15.2278 6.97275 15.203C6.91943 15.1783 6.86163 15.1646 6.80287 15.1629C6.74411 15.1612 6.68562 15.1715 6.63096 15.1932C6.5763 15.2148 6.52663 15.2473 6.48496 15.2888C6.44329 15.3303 6.4105 15.3798 6.38859 15.4343C6.36667 15.4889 6.3561 15.5473 6.35751 15.6061C6.35891 15.6649 6.37227 15.7227 6.39677 15.7762C6.42127 15.8296 6.45639 15.8775 6.49999 15.9169L13.688 23.0739L12.69 23.1089ZM6.37599 16.8999C6.51822 16.9001 6.6547 16.9561 6.75599 17.0559L12.731 22.9999L13.449 22.9769L6.42799 15.9889C6.32801 15.8885 6.27199 15.7526 6.27227 15.6109C6.27256 15.4692 6.32911 15.3334 6.42949 15.2334C6.52988 15.1334 6.66587 15.0774 6.80755 15.0777C6.94924 15.078 7.08501 15.1345 7.18499 15.2349L14.499 22.5179L15.36 20.3069L14.468 19.8939C14.4041 19.8648 14.3467 19.8233 14.299 19.7718C14.2512 19.7203 14.2142 19.6598 14.19 19.5939L13.448 17.5699L11.488 16.8999C11.3989 16.8694 11.3194 16.8159 11.2575 16.7448C11.1957 16.6736 11.1538 16.5875 11.136 16.4949L10.849 14.9849L9.66599 14.3999C9.55741 14.3472 9.47007 14.259 9.41842 14.1499C9.36678 14.0408 9.35393 13.9173 9.38199 13.7999C9.53628 13.1595 9.53922 12.4919 9.39058 11.8502C9.24194 11.2084 8.9458 10.6101 8.52567 10.1027C8.10553 9.59532 7.57295 9.19281 6.97016 8.9271C6.36737 8.66138 5.71096 8.53978 5.05299 8.57193C4.13265 8.61416 3.25084 8.95383 2.53999 9.53993C2.08344 9.91764 1.71418 10.3898 1.45764 10.9239C1.20111 11.4581 1.0634 12.0415 1.05399 12.6339C1.06008 13.3365 1.22338 14.0288 1.53191 14.6601C1.84044 15.2913 2.28637 15.8455 2.83699 16.2819C3.33043 16.6205 3.88953 16.8515 4.47802 16.9601C5.06651 17.0686 5.67125 17.0522 6.25299 16.9119C6.29339 16.9032 6.33467 16.8991 6.37599 16.8999ZM2.41799 16.9899C2.36156 16.9857 2.30748 16.9656 2.26199 16.9319L2.22499 16.8999L2.17999 16.8579L2.15499 16.8329V16.8179C2.134 16.7496 2.13454 16.6765 2.15655 16.6085C2.17856 16.5405 2.22096 16.481 2.27799 16.4379C2.33394 16.4022 2.39802 16.3811 2.46428 16.3767C2.53054 16.3724 2.59683 16.3848 2.65699 16.4129L2.69099 16.4289V16.4659C2.64299 16.8329 2.54999 16.9479 2.48099 16.9789C2.46127 16.9865 2.44 16.9893 2.41899 16.9869L2.41799 16.9899ZM2.31799 16.8479C2.37599 16.8859 2.41799 16.8929 2.42799 16.8859C2.43799 16.8789 2.52199 16.8339 2.57299 16.4919C2.53268 16.4786 2.48993 16.4743 2.44777 16.4793C2.40561 16.4843 2.36506 16.4985 2.32899 16.5209C2.29097 16.5516 2.26283 16.5929 2.24807 16.6394C2.23331 16.686 2.23259 16.7359 2.24599 16.7829L2.28899 16.8229L2.31799 16.8479ZM25.168 8.97393L24.707 8.49993C24.3802 8.16023 23.988 7.89027 23.5541 7.70637C23.1201 7.52246 22.6533 7.42842 22.182 7.42993H20.182C19.9456 7.42993 19.7116 7.38337 19.4932 7.29291C19.2748 7.20245 19.0763 7.06987 18.9092 6.90272C18.7421 6.73558 18.6095 6.53715 18.519 6.31876C18.4286 6.10037 18.382 5.86631 18.382 5.62993V3.64693C18.3831 3.17682 18.2884 2.71142 18.1035 2.27917C17.9187 1.84692 17.6477 1.45689 17.307 1.13293L16.834 0.675929L17.462 0.875929C18.2895 1.14155 19.0431 1.5978 19.662 2.20793L23.586 6.11593C24.2164 6.73854 24.6877 7.50377 24.96 8.34693L25.168 8.97393ZM17.222 0.906929L17.38 1.05893C17.7305 1.39234 18.0093 1.7937 18.1995 2.2385C18.3896 2.6833 18.4871 3.16219 18.486 3.64593V5.63393C18.4873 6.08393 18.667 6.51505 18.9857 6.83278C19.3043 7.15051 19.736 7.32893 20.186 7.32893H22.186C22.6712 7.327 23.1518 7.42348 23.5987 7.61255C24.0456 7.80162 24.4495 8.07934 24.786 8.42893L24.939 8.58693L24.872 8.37893C24.6046 7.55126 24.1419 6.80011 23.523 6.18893L19.667 2.35393L19.631 2.38993L19.559 2.31793L19.595 2.28193C18.9861 1.68264 18.2448 1.23493 17.431 0.974929L17.222 0.906929ZM24.707 8.19993L24.55 8.06993C23.8868 7.51948 23.0509 7.2203 22.189 7.22493H20.189C19.7659 7.22493 19.3599 7.05732 19.0601 6.75878C18.7602 6.46023 18.5908 6.05506 18.589 5.63193V3.64693C18.5919 2.78873 18.2908 1.95723 17.739 1.29993L17.607 1.13893L17.796 1.21593C18.4558 1.48626 19.0552 1.88537 19.559 2.38993L23.447 6.26093C23.9525 6.76101 24.353 7.357 24.625 8.01393L24.707 8.19993ZM17.943 1.38993C18.4316 2.04058 18.694 2.83323 18.69 3.64693V5.63393C18.6921 6.03037 18.8511 6.40984 19.1322 6.68942C19.4132 6.969 19.7936 7.12593 20.19 7.12593H22.19C23.0063 7.1216 23.802 7.38271 24.457 7.86993C24.1934 7.2972 23.829 6.77657 23.381 6.33293L19.487 2.46093C19.0405 2.01447 18.5176 1.65172 17.943 1.38993Z" fill="#5A77D0"></path>
<path d="M13.615 6.21279C13.6149 6.16262 13.6048 6.11298 13.5855 6.06668C13.5662 6.02038 13.538 5.97835 13.5024 5.94297C13.4668 5.90759 13.4246 5.87956 13.3783 5.86048C13.3319 5.84141 13.2822 5.83166 13.232 5.83179H8.12299C8.07296 5.83179 8.02341 5.84164 7.97719 5.86079C7.93096 5.87994 7.88896 5.908 7.85358 5.94338C7.8182 5.97876 7.79014 6.02076 7.77099 6.06699C7.75184 6.11321 7.74199 6.16275 7.74199 6.21279C7.74199 6.26282 7.75184 6.31237 7.77099 6.35859C7.79014 6.40482 7.8182 6.44682 7.85358 6.4822C7.88896 6.51758 7.93096 6.54564 7.97719 6.56479C8.02341 6.58393 8.07296 6.59379 8.12299 6.59379H13.232C13.2822 6.59392 13.3319 6.58417 13.3783 6.56509C13.4246 6.54602 13.4668 6.51799 13.5024 6.48261C13.538 6.44723 13.5662 6.40519 13.5855 6.3589C13.6048 6.3126 13.6149 6.26295 13.615 6.21279Z" fill="#5A77D0" stroke="#5A77D0" stroke-width="0.102" stroke-miterlimit="10"></path>
<path d="M13.232 6.69986H8.12299C7.99502 6.69986 7.8723 6.64903 7.78181 6.55854C7.69132 6.46806 7.64049 6.34533 7.64049 6.21736C7.64049 6.0894 7.69132 5.96667 7.78181 5.87618C7.8723 5.7857 7.99502 5.73486 8.12299 5.73486H13.232C13.36 5.73486 13.4827 5.7857 13.5732 5.87618C13.6637 5.96667 13.7145 6.0894 13.7145 6.21736C13.7145 6.34533 13.6637 6.46806 13.5732 6.55854C13.4827 6.64903 13.36 6.69986 13.232 6.69986ZM8.12299 5.93386C8.04886 5.93386 7.97777 5.96331 7.92535 6.01573C7.87294 6.06814 7.84349 6.13924 7.84349 6.21336C7.84349 6.28749 7.87294 6.35858 7.92535 6.411C7.97777 6.46342 8.04886 6.49286 8.12299 6.49286H13.232C13.3061 6.49286 13.3772 6.46342 13.4296 6.411C13.482 6.35858 13.5115 6.28749 13.5115 6.21336C13.5115 6.13924 13.482 6.06814 13.4296 6.01573C13.3772 5.96331 13.3061 5.93386 13.232 5.93386H8.12299Z" fill="#5A77D0" stroke="#5A77D0" stroke-width="0.102" stroke-miterlimit="10"></path>
<path d="M4.19799 13.8201C4.67747 13.8191 5.14178 13.6519 5.51184 13.347C5.8819 13.0421 6.13482 12.6183 6.22753 12.1479C6.32025 11.6775 6.24701 11.1894 6.02031 10.7669C5.7936 10.3444 5.42744 10.0136 4.9842 9.83073C4.54095 9.64788 4.04802 9.62433 3.58936 9.76411C3.1307 9.90388 2.73467 10.1983 2.46873 10.5973C2.20279 10.9963 2.08338 11.4751 2.13083 11.9522C2.17829 12.4294 2.38967 12.8753 2.72899 13.2141C2.92179 13.407 3.15084 13.5598 3.40296 13.6638C3.65507 13.7678 3.92526 13.8209 4.19799 13.8201ZM5.50699 11.7511C5.50719 11.9228 5.47336 12.0929 5.40745 12.2515C5.34154 12.4101 5.24486 12.5541 5.12299 12.6751C5.10499 12.6931 5.08699 12.7091 5.06899 12.7261V10.7761C5.08799 10.7921 5.10599 10.8091 5.12299 10.8271C5.24486 10.9481 5.34154 11.092 5.40745 11.2506C5.47336 11.4092 5.50719 11.5793 5.50699 11.7511ZM3.26699 10.8271C3.38879 10.7052 3.53348 10.6086 3.69275 10.5429C3.85201 10.4772 4.02269 10.4436 4.19499 10.4441C4.23099 10.4441 4.26799 10.4441 4.30299 10.4441V13.0441C4.26699 13.0441 4.23099 13.0441 4.19499 13.0441C3.93577 13.0458 3.68193 12.9702 3.46582 12.8271C3.24971 12.6839 3.08113 12.4796 2.98158 12.2403C2.88202 12.0009 2.856 11.7374 2.90683 11.4832C2.95766 11.229 3.08304 10.9957 3.26699 10.8131V10.8271Z" fill="#5A77D0" stroke="#5A77D0" stroke-width="0.102" stroke-miterlimit="10"></path>
<path d="M4.19799 13.921C3.69491 13.9201 3.2077 13.7448 2.81937 13.425C2.43103 13.1051 2.16557 12.6606 2.0682 12.167C1.97083 11.6734 2.04757 11.1614 2.28536 10.718C2.52314 10.2747 2.90727 9.92748 3.3723 9.73555C3.83734 9.54362 4.35453 9.51883 4.83579 9.66541C5.31704 9.81199 5.73261 10.1209 6.0117 10.5394C6.29079 10.958 6.41615 11.4604 6.36642 11.961C6.3167 12.4616 6.09497 12.9295 5.73899 13.285C5.53674 13.4874 5.29647 13.6478 5.032 13.7569C4.76754 13.8661 4.48409 13.9219 4.19799 13.921ZM4.19799 13.721C4.65374 13.7193 5.0948 13.5597 5.4461 13.2693C5.79739 12.979 6.03721 12.5758 6.12473 12.1286C6.21226 11.6813 6.14207 11.2175 5.92613 10.8162C5.71019 10.4148 5.36183 10.1007 4.94035 9.9273C4.51888 9.75389 4.05033 9.73191 3.61447 9.86508C3.17861 9.99826 2.80237 10.2784 2.54979 10.6577C2.29721 11.0371 2.18391 11.4923 2.22916 11.9458C2.27441 12.3993 2.47543 12.8231 2.79799 13.145C2.98174 13.3288 3.20006 13.4743 3.44036 13.5731C3.68065 13.672 3.93815 13.7223 4.19799 13.721ZM4.19799 13.162C3.91967 13.1627 3.64741 13.0808 3.41565 12.9266C3.1839 12.7725 3.00306 12.5531 2.89601 12.2962C2.78896 12.0393 2.76052 11.7564 2.81427 11.4833C2.86802 11.2102 3.00156 10.9592 3.19799 10.762C3.32929 10.6308 3.48523 10.5269 3.65685 10.4562C3.82847 10.3855 4.01238 10.3494 4.19799 10.35C4.23499 10.35 4.27299 10.35 4.31499 10.355L4.40899 10.363V13.154L4.31499 13.161C4.27299 13.158 4.23499 13.159 4.19799 13.159V13.162ZM3.34299 10.9C3.17425 11.0688 3.05942 11.2839 3.01306 11.518C2.96671 11.7521 2.99091 11.9947 3.0826 12.215C3.17429 12.4353 3.32933 12.6235 3.52809 12.7556C3.72684 12.8877 3.96034 12.9578 4.19899 12.957H4.20699V10.547H4.19799C4.03908 10.5465 3.88164 10.5775 3.73473 10.638C3.58782 10.6986 3.45435 10.7877 3.34199 10.9H3.34299ZM4.96999 12.954V10.554L5.13999 10.705C5.15999 10.723 5.17899 10.741 5.19799 10.76C5.32991 10.8909 5.43445 11.0467 5.50553 11.2184C5.57661 11.3901 5.6128 11.5742 5.61199 11.76C5.6128 11.9459 5.57661 12.13 5.50553 12.3017C5.43445 12.4734 5.32991 12.6292 5.19799 12.76C5.17899 12.779 5.15899 12.797 5.13999 12.815L4.96999 12.954ZM5.16999 11.038V12.465C5.32328 12.2586 5.40571 12.0082 5.40499 11.751C5.40658 11.4947 5.32559 11.2447 5.17399 11.038H5.16999Z" fill="#5A77D0" stroke="#5A77D0" stroke-width="0.102" stroke-miterlimit="10"></path>
</g>
<path d="M5.849 26C5.3677 25.8218 4.95238 25.5008 4.65872 25.0798C4.36506 24.6589 4.20709 24.1583 4.20599 23.645L4.16699 17.986C3.43449 17.8285 2.74218 17.5222 2.133 17.0861L2.10999 17.068L2.091 17.051L2.03601 17C1.4266 16.4744 0.931549 15.8293 0.581512 15.1046C0.231476 14.3799 0.0338958 13.5911 0.00100708 12.787C0.00100708 12.767 0.00100708 12.7461 0.00100708 12.7271V12.635C0.00874023 11.2919 0.543011 10.0054 1.48901 9.052C2.21912 8.32425 3.14559 7.82518 4.155 7.61597V2.40503C4.15636 1.8778 4.32036 1.36382 4.6246 0.933228C4.92884 0.502638 5.35852 0.17641 5.85501 -0.000976562H17.137C18.3154 0.260855 19.3949 0.852991 20.249 1.70605L24.137 5.578C24.7304 6.16504 25.201 6.86421 25.5215 7.63489C25.842 8.40556 26.0061 9.23235 26.004 10.067V23.593C26.0027 24.1202 25.8387 24.6342 25.5344 25.0648C25.2302 25.4954 24.8005 25.8216 24.304 25.999L5.849 26ZM5.27701 23.637C5.27571 23.933 5.36521 24.2223 5.53348 24.4658C5.70174 24.7094 5.94065 24.8955 6.21799 24.999C6.37853 25.056 6.54764 25.085 6.71799 25.085H23.426C23.8223 25.085 24.2025 24.9282 24.4835 24.6488C24.7646 24.3694 24.9236 23.9903 24.926 23.594V10.915C24.9205 10.191 24.6289 9.49856 24.1149 8.98865C23.6008 8.47874 22.906 8.19271 22.182 8.19299H20.182C19.5022 8.19353 18.85 7.92444 18.3684 7.4447C17.8868 6.96497 17.6151 6.3138 17.613 5.63403V3.64697C17.6104 2.92096 17.3199 2.22565 16.8053 1.7135C16.2907 1.20135 15.594 0.91424 14.868 0.915039H6.71701C6.32074 0.915032 5.94056 1.07184 5.65952 1.3512C5.37847 1.63056 5.21939 2.00974 5.21701 2.40601V7.50598H5.23901C6.64909 7.50754 8.0019 8.06405 9.005 9.05505C9.59712 9.64522 10.0412 10.367 10.3011 11.1616C10.5609 11.9562 10.6291 12.801 10.5 13.627L11.556 14.145C11.6303 14.1817 11.6951 14.2351 11.7452 14.301C11.7954 14.367 11.8295 14.4436 11.845 14.525L12.124 15.9919L14.031 16.646C14.1061 16.6718 14.1745 16.7139 14.2312 16.7694C14.288 16.8249 14.3316 16.8925 14.359 16.967L15.113 19.0229L16.259 19.552C16.3821 19.6089 16.479 19.7106 16.5298 19.8363C16.5807 19.962 16.5818 20.1025 16.533 20.229L15.194 23.668C15.1558 23.7656 15.0898 23.85 15.0041 23.9104C14.9184 23.9708 14.8168 24.0049 14.712 24.0081L12.527 24.078H12.51C12.4396 24.0782 12.3698 24.0644 12.3048 24.0375C12.2397 24.0105 12.1807 23.9709 12.131 23.921L6.19601 18.0129C5.87792 18.0704 5.55524 18.099 5.23199 18.098L5.27701 23.637ZM6.75601 17.054L12.731 23.0031L13.449 22.98L6.42801 15.989C6.37815 15.9398 6.33854 15.8812 6.31152 15.8165C6.2845 15.7519 6.2706 15.6826 6.2706 15.6125C6.2706 15.5425 6.2845 15.4731 6.31152 15.4084C6.33854 15.3438 6.37815 15.2852 6.42801 15.236C6.52849 15.1358 6.66458 15.0795 6.80649 15.0795C6.94839 15.0795 7.08452 15.1358 7.185 15.236L14.499 22.519L15.36 20.308L14.468 19.896C14.4042 19.8667 14.3468 19.8252 14.2991 19.7737C14.2514 19.7222 14.2144 19.6618 14.19 19.5959L13.448 17.571L11.487 16.899C11.3981 16.8682 11.3188 16.8145 11.257 16.7434C11.1953 16.6724 11.1532 16.5864 11.135 16.494L10.849 14.984L9.66501 14.402C9.5563 14.3494 9.46884 14.2612 9.41718 14.1521C9.36551 14.043 9.35276 13.9194 9.38101 13.802C9.53478 13.1617 9.53728 12.4944 9.38834 11.8529C9.23939 11.2115 8.94308 10.6135 8.52289 10.1064C8.1027 9.59941 7.57019 9.19724 6.96756 8.93176C6.36493 8.66628 5.70873 8.54484 5.05099 8.57703C4.13053 8.61954 3.24871 8.95956 2.53799 9.54602C2.08126 9.92363 1.71182 10.3958 1.45511 10.9299C1.1984 11.4641 1.06052 12.0475 1.05099 12.64C1.05734 13.3428 1.22085 14.0352 1.52954 14.6666C1.83823 15.298 2.28427 15.8523 2.83499 16.2889C3.32835 16.6273 3.88733 16.8582 4.47565 16.9666C5.06396 17.0749 5.66848 17.0583 6.25 16.918C6.29071 16.9088 6.33228 16.9042 6.37399 16.9041C6.51614 16.9016 6.6535 16.9554 6.75601 17.054ZM18.69 3.64697V5.63403C18.6921 6.03047 18.8511 6.40988 19.1322 6.68945C19.4132 6.96903 19.7936 7.12598 20.19 7.12598H22.19C23.0062 7.12157 23.8017 7.38236 24.457 7.86902C24.1934 7.2966 23.8289 6.77629 23.381 6.33301L19.492 2.46106C19.0458 2.01405 18.5228 1.65092 17.948 1.38904C18.4353 2.04049 18.6959 2.83348 18.69 3.64697ZM2.65701 13.286C2.29797 12.9294 2.07376 12.4593 2.02264 11.9558C1.97152 11.4524 2.09664 10.9468 2.37668 10.5253C2.65671 10.1038 3.07431 9.7925 3.55823 9.64453C4.04215 9.49656 4.56243 9.52107 5.0303 9.71387C5.49818 9.90666 5.88465 10.2558 6.12384 10.7018C6.36303 11.1477 6.4401 11.6628 6.34189 12.1592C6.24368 12.6556 5.97629 13.1027 5.58533 13.424C5.19436 13.7452 4.70404 13.9209 4.198 13.921C3.91183 13.9229 3.62815 13.8677 3.36356 13.7587C3.09896 13.6496 2.85878 13.489 2.65701 13.286ZM3.34201 10.899C3.17327 11.0678 3.05844 11.2829 3.01208 11.517C2.96573 11.7511 2.98991 11.9937 3.0816 12.214C3.17329 12.4343 3.32835 12.6224 3.5271 12.7545C3.72585 12.8866 3.95935 12.9568 4.198 12.9561H4.20401V10.546H4.20001C4.04066 10.5451 3.88269 10.5759 3.73538 10.6367C3.58807 10.6975 3.45436 10.786 3.34201 10.899ZM5.173 12.465C5.32574 12.2584 5.40817 12.0083 5.40817 11.7515C5.40817 11.4946 5.32574 11.2445 5.173 11.038V12.465ZM8.12201 6.69495C7.99404 6.69495 7.87131 6.6442 7.78082 6.55371C7.69034 6.46322 7.6395 6.34049 7.6395 6.21252C7.6395 6.08456 7.69034 5.96182 7.78082 5.87134C7.87131 5.78085 7.99404 5.72998 8.12201 5.72998H13.231C13.359 5.72998 13.4817 5.78085 13.5722 5.87134C13.6627 5.96182 13.7135 6.08456 13.7135 6.21252C13.7135 6.34049 13.6627 6.46322 13.5722 6.55371C13.4817 6.6442 13.359 6.69495 13.231 6.69495H8.12201Z" fill="#FD8983"></path>
</svg>
