<svg width="287" height="172" viewBox="0 0 287 172" fill="none" xmlns="http://www.w3.org/2000/svg">
<path d="M13.667 1H273.334C280.334 1 286.001 6.24912 286.001 12.7241V159.276C286.001 165.751 280.33 171 273.334 171H13.667C6.66699 171 1 165.751 1 159.276V12.7209C1 6.24595 6.67099 1 13.667 1Z" fill="#E2E9F5"></path>
<path d="M13.6666 0.99707C6.67102 0.99707 0.999878 6.24634 0.999878 12.7214V159.273C0.999878 165.748 6.67102 170.997 13.6666 170.997H273.333C280.329 170.997 286 165.748 286 159.273V12.7214C286 6.24634 280.329 0.99707 273.333 0.99707H13.6666ZM13.6666 -0.00292969H273.333C276.969 -0.00292969 280.391 1.31104 282.969 3.69727C285.568 6.10303 287 9.30786 287 12.7214V159.273C287 162.687 285.568 165.891 282.969 168.297C280.391 170.683 276.969 171.997 273.333 171.997H13.6666C10.0306 171.997 6.6084 170.683 4.03064 168.297C1.4314 165.891 -0.00012207 162.687 -0.00012207 159.273V12.7214C-0.00012207 9.30786 1.4314 6.10303 4.03064 3.69727C6.60852 1.31104 10.0306 -0.00292969 13.6666 -0.00292969Z" fill="black"></path>
</svg>
