<svg width="26" height="26" viewBox="0 0 26 26" fill="none" xmlns="http://www.w3.org/2000/svg">
<path d="M24.375 20.313C24.3751 20.8465 24.2701 21.3748 24.0661 21.8678C23.862 22.3607 23.5628 22.8086 23.1856 23.1859C22.8084 23.5632 22.3606 23.8625 21.8677 24.0667C21.3748 24.2709 20.8465 24.376 20.313 24.376H5.68797C4.61066 24.376 3.57747 23.948 2.8157 23.1863C2.05393 22.4245 1.62597 21.3913 1.62597 20.314V5.688C1.62584 5.15449 1.73081 4.62617 1.93488 4.13323C2.13896 3.64029 2.43814 3.19238 2.81535 2.81509C3.19255 2.43779 3.64039 2.13849 4.13328 1.9343C4.62617 1.7301 5.15446 1.625 5.68797 1.625H13.813V8.79434e-08H5.68797C4.94097 -0.000131275 4.20127 0.146904 3.51111 0.432706C2.82095 0.718508 2.19386 1.13748 1.66565 1.66568C1.13745 2.19389 0.718477 2.82098 0.432675 3.51114C0.146873 4.2013 -0.000161793 4.941 -3.04296e-05 5.688V20.313C-3.04412e-05 21.0599 0.147101 21.7995 0.432962 22.4896C0.718823 23.1796 1.13781 23.8066 1.66601 24.3347C2.1942 24.8628 2.82125 25.2817 3.51134 25.5674C4.20144 25.8531 4.94106 26.0001 5.68797 26H20.313C21.8213 26 23.2678 25.4008 24.3343 24.3343C25.4008 23.2678 26 21.8213 26 20.313V12.188H24.375V20.313Z" fill="#5A77D0"></path>
<path d="M20.313 11.375C21.438 11.3752 22.5379 11.0418 23.4734 10.4168C24.409 9.79191 25.1382 8.90358 25.5688 7.86419C25.9994 6.8248 26.1122 5.68105 25.8927 4.5776C25.6733 3.47414 25.1315 2.46054 24.336 1.665C23.5405 0.869461 22.5269 0.327711 21.4234 0.108271C20.3199 -0.11117 19.1762 0.00155535 18.1368 0.432191C17.0974 0.862826 16.2091 1.59203 15.5842 2.52757C14.9592 3.46311 14.6258 4.56296 14.626 5.68803C14.626 7.19631 15.2251 8.64282 16.2917 9.70934C17.3582 10.7759 18.8047 11.375 20.313 11.375ZM20.313 1.62503C21.1166 1.62503 21.9021 1.86332 22.5703 2.30976C23.2384 2.75621 23.7592 3.39077 24.0667 4.13318C24.3742 4.8756 24.4547 5.69253 24.2979 6.48068C24.1411 7.26882 23.7542 7.99278 23.186 8.561C22.6177 9.12922 21.8938 9.51618 21.1056 9.67296C20.3175 9.82973 19.5006 9.74927 18.7581 9.44175C18.0157 9.13423 17.3812 8.61346 16.9347 7.94531C16.4883 7.27715 16.25 6.49161 16.25 5.68803C16.2498 5.15443 16.3548 4.62603 16.559 4.13303C16.7631 3.64002 17.0624 3.19207 17.4397 2.81476C17.817 2.43745 18.265 2.13817 18.758 1.93404C19.251 1.7299 19.7794 1.62489 20.313 1.62503Z" fill="#5A77D0"></path>
<path d="M17.266 14.0161H6.80496V15.5901H17.266V14.0161Z" fill="#5A77D0"></path>
<path d="M12.822 20.033V9.57202H11.248V20.033H12.822Z" fill="#5A77D0"></path>
<path d="M5.68698 26C4.94007 26 4.20045 25.8529 3.51041 25.567C2.82036 25.2812 2.19341 24.8622 1.66531 24.334C1.13721 23.8058 0.718326 23.1787 0.432587 22.4886C0.146847 21.7986 -0.000161766 21.0589 -3.04297e-05 20.312V5.68701C-3.04297e-05 4.17873 0.599161 2.73217 1.66568 1.66565C2.7322 0.599131 4.1787 4.50527e-07 5.68698 4.50527e-07H13.812V1.625H5.68698C5.15351 1.62487 4.62524 1.72987 4.13235 1.93396C3.63947 2.13805 3.19164 2.43724 2.81442 2.81445C2.4372 3.19167 2.13802 3.63944 1.93393 4.13232C1.72984 4.62521 1.62484 5.15355 1.62497 5.68701V20.312C1.62484 20.8455 1.72979 21.3739 1.93387 21.8668C2.13794 22.3598 2.43716 22.8076 2.81436 23.1849C3.19157 23.5622 3.6394 23.8615 4.13229 24.0657C4.62518 24.2699 5.15347 24.375 5.68698 24.375H20.312C21.3894 24.375 22.4227 23.947 23.1846 23.1853C23.9465 22.4236 24.3747 21.3904 24.375 20.313V12.189H26V20.313C26.0001 21.06 25.8531 21.7997 25.5673 22.4899C25.2815 23.18 24.8625 23.8071 24.3343 24.3353C23.8061 24.8635 23.179 25.2824 22.4888 25.5682C21.7986 25.854 21.059 26.0011 20.312 26.001L5.68698 26ZM11.248 20.033V15.59H6.80496V14.016H11.248V9.573H12.822V14.016H17.265V15.59H12.822V20.033H11.248ZM14.625 5.68701C14.625 4.56199 14.9586 3.46226 15.5836 2.52686C16.2087 1.59145 17.0971 0.862367 18.1365 0.431885C19.1759 0.00140336 20.3196 -0.111155 21.423 0.108399C22.5264 0.327953 23.5399 0.869703 24.3354 1.66528C25.1308 2.46086 25.6725 3.47445 25.8918 4.57788C26.1112 5.68131 25.9984 6.82505 25.5677 7.86438C25.1371 8.90371 24.4078 9.79198 23.4723 10.4169C22.5368 11.0418 21.437 11.3752 20.312 11.375C19.5651 11.375 18.8255 11.2279 18.1354 10.942C17.4454 10.6562 16.8184 10.2372 16.2903 9.70898C15.7622 9.18079 15.3433 8.55374 15.0576 7.86365C14.7718 7.17355 14.6248 6.43392 14.625 5.68701ZM16.25 5.68701C16.25 6.4904 16.4882 7.27573 16.9345 7.94373C17.3809 8.61172 18.0153 9.13238 18.7575 9.43982C19.4998 9.74726 20.3164 9.82763 21.1044 9.6709C21.8924 9.51417 22.6162 9.12741 23.1842 8.55933C23.7523 7.99125 24.1392 7.26744 24.2959 6.47949C24.4527 5.69154 24.3722 4.8748 24.0648 4.13257C23.7573 3.39034 23.2367 2.75591 22.5687 2.30957C21.9007 1.86323 21.1154 1.625 20.312 1.625C19.2348 1.62527 18.2019 2.05332 17.4403 2.81506C16.6788 3.57681 16.25 4.60988 16.25 5.68701Z" fill="#FD8983"></path>
</svg>
