<svg width="130" height="130" viewBox="0 0 130 130" fill="none" xmlns="http://www.w3.org/2000/svg">
<path d="M118.048 61.3422C118.107 32.0512 94.4091 8.25867 65.1181 8.20009C35.8272 8.14151 12.0347 31.839 11.9761 61.13C11.9175 90.421 35.615 114.214 64.906 114.272C94.197 114.331 117.989 90.6331 118.048 61.3422Z" fill="white" stroke="black" stroke-width="0.296" stroke-miterlimit="10"></path>
<path d="M121.285 32.372C115.609 22.5502 107.451 14.3928 97.629 8.71696C87.7374 2.92297 76.4633 -0.0889547 65 -4.00043e-05C53.5381 -0.0882822 42.2655 2.92362 32.375 8.71696C22.5522 14.392 14.3939 22.5496 8.71801 32.372C2.92371 42.2631 -0.0885736 53.5369 6.64988e-06 65C-0.0876971 76.4626 2.92453 87.7358 8.71801 97.627C14.3942 107.449 22.552 115.606 32.374 121.282C42.2648 127.075 53.5377 130.088 65 130C76.4629 130.088 87.7365 127.076 97.628 121.283C107.45 115.608 115.608 107.45 121.283 97.628C127.076 87.7364 130.088 76.4628 130 65C130.088 53.5373 127.077 42.2639 121.285 32.372ZM75.836 105.625C75.8498 105.984 75.7892 106.342 75.658 106.677C75.5268 107.011 75.3279 107.315 75.0737 107.569C74.8195 107.823 74.5156 108.022 74.1809 108.153C73.8463 108.284 73.4881 108.345 73.129 108.331H56.878C56.5187 108.345 56.1603 108.285 55.8253 108.154C55.4903 108.023 55.1861 107.825 54.9316 107.57C54.6772 107.316 54.4781 107.012 54.3469 106.677C54.2156 106.343 54.1551 105.984 54.169 105.625V89.373C54.1541 89.0134 54.2141 88.6547 54.345 88.3195C54.4759 87.9844 54.675 87.68 54.9297 87.4257C55.1843 87.1715 55.489 86.9729 55.8243 86.8424C56.1597 86.712 56.5185 86.6526 56.878 86.668H73.13C73.4891 86.6538 73.8473 86.714 74.182 86.8449C74.5168 86.9758 74.8208 87.1745 75.075 87.4285C75.3292 87.6826 75.5282 87.9865 75.6593 88.3211C75.7904 88.6557 75.8509 89.0138 75.837 89.373L75.836 105.625ZM96.444 55.6C95.8733 57.4001 95.0769 59.1208 94.074 60.721C93.0168 62.2463 91.7485 63.6139 90.307 64.783C89.0791 65.8598 87.778 66.8502 86.413 67.747C85.455 68.3383 84.0733 69.1423 82.268 70.159C80.4408 71.1984 78.8662 72.6293 77.657 74.349C76.6589 75.5401 76.0268 76.9946 75.837 78.537C75.8512 78.8964 75.7909 79.255 75.6599 79.59C75.5288 79.925 75.3299 80.2293 75.0755 80.4837C74.8212 80.7382 74.517 80.9372 74.182 81.0684C73.847 81.1996 73.4885 81.26 73.129 81.246H56.879C56.5192 81.2613 56.1602 81.2016 55.8246 81.0709C55.4891 80.9401 55.1844 80.7411 54.9298 80.4864C54.6752 80.2318 54.4763 79.927 54.3457 79.5914C54.2151 79.2558 54.1556 78.8967 54.171 78.537V75.494C54.2492 71.5175 55.8377 67.7199 58.614 64.872C61.3157 61.7647 64.6483 59.2686 68.39 57.55C70.5465 56.6842 72.5043 55.3886 74.144 53.742C75.327 52.2893 75.9304 50.4501 75.838 48.579C75.838 46.7163 74.7797 45.0513 72.663 43.584C70.5391 42.1146 68.0093 41.3455 65.427 41.384C62.8477 41.2819 60.3015 41.9927 58.148 43.416C56.2853 44.7693 53.859 47.3643 50.869 51.201C50.6265 51.5308 50.3068 51.796 49.9378 51.9733C49.5689 52.1506 49.162 52.2346 48.753 52.218C48.1732 52.2497 47.6017 52.0695 47.145 51.711L35.973 43.248C35.6792 43.0729 35.4258 42.8376 35.2296 42.5575C35.0334 42.2774 34.8988 41.9588 34.8348 41.6229C34.7707 41.287 34.7786 40.9412 34.8579 40.6086C34.9373 40.2759 35.0862 39.9638 35.295 39.693C42.5183 27.675 52.9867 21.666 66.7 21.666C71.7816 21.7186 76.7822 22.9454 81.3112 25.2505C85.8402 27.5556 89.7749 30.8765 92.808 34.954C95.8475 38.9131 97.4992 43.7627 97.508 48.754C97.5262 51.0785 97.1669 53.3906 96.444 55.6Z" fill="url('#paint0_linear_1_3671')"></path>
<defs>
<linearGradient id="paint0_linear_1_3671" x1="93.4708" y1="123.502" x2="36.5292" y2="6.49823" gradientUnits="userSpaceOnUse">
<stop stop-color="#488BD2"></stop>
<stop offset="1" stop-color="#9CC4EF"></stop>
</linearGradient>
</defs>
</svg>
