<svg width="17" height="12" viewBox="0 0 17 12" fill="none" xmlns="http://www.w3.org/2000/svg">
<path d="M5.95104 11.9999C5.91773 12.0017 5.88435 12.0017 5.85104 11.9999C5.66931 11.9872 5.49235 11.936 5.33185 11.8499C5.17136 11.7637 5.031 11.6444 4.92004 11.4999L0.25104 5.28489C0.152259 5.15401 0.0808755 5.00456 0.0411555 4.84547C0.00143554 4.68638 -0.00580604 4.52091 0.0198638 4.35896C0.0455336 4.197 0.103588 4.04189 0.190558 3.90288C0.277528 3.76387 0.391627 3.64381 0.52604 3.54989C0.800068 3.35596 1.1385 3.27555 1.47047 3.32551C1.80244 3.37546 2.10222 3.5519 2.30704 3.81789L6.10704 8.85789L14.831 0.362894C15.0731 0.130653 15.3956 0.000976562 15.731 0.000976562C16.0665 0.000976562 16.389 0.130653 16.631 0.362894C16.7491 0.476616 16.843 0.612985 16.9072 0.763845C16.9714 0.914706 17.0044 1.07696 17.0044 1.24089C17.0044 1.40483 16.9714 1.56708 16.9072 1.71794C16.843 1.8688 16.7491 2.00517 16.631 2.11889L6.85104 11.6369C6.6088 11.869 6.28653 11.999 5.95104 11.9999Z" fill="#5A77D0"></path>
<path d="M5.85301 12C5.67127 11.9874 5.49429 11.9363 5.33379 11.8501C5.17329 11.7639 5.03293 11.6445 4.92201 11.5L0.247011 5.29199C0.148305 5.16113 0.0770163 5.01159 0.0373861 4.85254C-0.00224425 4.69349 -0.00939113 4.52809 0.0163747 4.36621C0.0421405 4.20433 0.100281 4.04953 0.187334 3.91064C0.274387 3.77176 0.388554 3.65186 0.523012 3.55811C0.797115 3.36387 1.13578 3.28305 1.46799 3.33301C1.8002 3.38297 2.10016 3.5599 2.30501 3.82617L6.10501 8.86719L14.828 0.367188C15.0701 0.134947 15.3926 0.00488281 15.728 0.00488281C16.0635 0.00488281 16.386 0.134947 16.628 0.367188C16.7458 0.481054 16.8395 0.617225 16.9035 0.768066C16.9675 0.918907 17.0005 1.08126 17.0005 1.24512C17.0005 1.40897 16.9675 1.57084 16.9035 1.72168C16.8395 1.87252 16.7458 2.00918 16.628 2.12305L6.85301 11.6411C6.61072 11.8731 6.28849 12.0029 5.95302 12.0039C5.91963 12.0049 5.88621 12.0037 5.85301 12Z" fill="#94A8F9"></path>
</svg>
