<svg width="17" height="12" viewBox="0 0 17 12" fill="none" xmlns="http://www.w3.org/2000/svg">
<path d="M5.95098 11.9999C5.91767 12.0017 5.88429 12.0017 5.85098 11.9999C5.66925 11.9872 5.49229 11.936 5.33179 11.8499C5.1713 11.7637 5.03094 11.6444 4.91998 11.4999L0.250979 5.28489C0.152198 5.15401 0.0808144 5.00456 0.0410945 4.84547C0.0013745 4.68638 -0.00586707 4.52091 0.0198027 4.35896C0.0454725 4.197 0.103527 4.04189 0.190497 3.90288C0.277467 3.76387 0.391566 3.64381 0.525979 3.54989C0.800007 3.35596 1.13843 3.27555 1.47041 3.32551C1.80238 3.37546 2.10216 3.5519 2.30698 3.81789L6.10698 8.85789L14.831 0.362894C15.073 0.130653 15.3955 0.000976562 15.731 0.000976562C16.0664 0.000976562 16.3889 0.130653 16.631 0.362894C16.7491 0.476616 16.843 0.612985 16.9071 0.763845C16.9713 0.914706 17.0044 1.07696 17.0044 1.24089C17.0044 1.40483 16.9713 1.56708 16.9071 1.71794C16.843 1.8688 16.7491 2.00517 16.631 2.11889L6.85098 11.6369C6.60874 11.869 6.28647 11.999 5.95098 11.9999Z" fill="#5A77D0"></path>
<path d="M5.85308 12C5.67109 11.9878 5.49379 11.9368 5.33306 11.8506C5.17234 11.7644 5.03187 11.6449 4.92108 11.5L0.246028 5.29297C0.147432 5.1622 0.076174 5.01292 0.0365558 4.854C-0.00306236 4.69509 -0.0102298 4.52992 0.0154377 4.36816C0.0411051 4.20641 0.0991032 4.05144 0.18597 3.9126C0.272837 3.77376 0.386817 3.65388 0.521053 3.56006C0.794961 3.36602 1.1333 3.28519 1.46527 3.33496C1.79723 3.38473 2.09709 3.56132 2.30206 3.82715L6.10211 8.86816L14.8271 0.368164C15.0692 0.135923 15.3916 0.00585938 15.7271 0.00585938C16.0626 0.00585937 16.3849 0.135923 16.627 0.368164C16.7451 0.481973 16.8391 0.618099 16.9033 0.769043C16.9674 0.919986 17.0005 1.08257 17.0005 1.24658C17.0005 1.4106 16.9674 1.57269 16.9033 1.72363C16.8391 1.87458 16.7451 2.01119 16.627 2.125L6.85308 11.6431C6.61039 11.8745 6.28839 12.0041 5.95306 12.0059C5.91963 12.0063 5.88623 12.0044 5.85308 12Z" fill="#94A8F9"></path>
</svg>
