<svg width="32" height="38" viewBox="0 0 32 38" fill="none" xmlns="http://www.w3.org/2000/svg">
<path d="M16 38L15.67 37.857C11.0415 35.8884 7.09096 32.6072 4.3062 28.4187C1.52143 24.2301 0.0244236 19.3177 3.05176e-05 14.288V6.514L16 0L32 6.514V14.288C31.9758 19.3177 30.4788 24.2302 27.694 28.4188C24.9092 32.6073 20.9586 35.8885 16.33 37.857L16 38ZM1.63903 7.587V14.287C1.66054 18.9416 3.0277 23.4906 5.57575 27.3859C8.12379 31.2812 11.744 34.3564 16 36.241C20.2559 34.3565 23.876 31.2814 26.424 27.3863C28.9721 23.4912 30.3393 18.9424 30.361 14.288V7.588L16 1.74L1.63903 7.587Z" fill="white"></path>
<path d="M14.704 20.6801L21.947 13.2481C22.0593 13.1339 22.2102 13.0658 22.3701 13.0573C22.53 13.0488 22.6873 13.1004 22.811 13.2021L24.028 14.2021C24.0936 14.2558 24.1473 14.3225 24.1857 14.398C24.2241 14.4736 24.2464 14.5563 24.2512 14.6409C24.256 14.7255 24.2432 14.8102 24.2136 14.8895C24.1839 14.9689 24.1381 15.0413 24.079 15.1021L14.779 24.6801C14.6139 24.8486 14.3886 24.9448 14.1526 24.9476C13.9167 24.9504 13.6892 24.8596 13.52 24.6951L7.91904 19.2091C7.81008 19.1032 7.74761 18.9584 7.74536 18.8066C7.74311 18.6547 7.80127 18.5081 7.90704 18.3991C8.20704 18.0891 8.62304 17.6721 8.92804 17.3671C9.03708 17.2587 9.18355 17.1963 9.33725 17.1927C9.49095 17.1892 9.64014 17.2448 9.75404 17.3481L13.47 20.7171C13.6408 20.8712 13.8645 20.9534 14.0945 20.9465C14.3244 20.9396 14.5428 20.8442 14.704 20.6801Z" fill="white"></path>
<path d="M15.669 37.8571C11.0406 35.8885 7.09006 32.6073 4.30545 28.4187C1.52084 24.2301 0.024083 19.3176 3.05176e-05 14.288V6.51501L16 0L32 6.51404V14.287C31.9759 19.3168 30.479 24.2293 27.6942 28.4178C24.9094 32.6064 20.9587 35.8875 16.33 37.856L16 38L15.669 37.8571ZM1.63803 7.58704V14.287C1.65968 18.9418 3.02701 23.4911 5.57523 27.3865C8.12344 31.2819 11.7438 34.3572 16 36.2419C20.2561 34.3573 23.8763 31.2821 26.4243 27.3868C28.9724 23.4916 30.3395 18.9425 30.361 14.288V7.58801L16 1.73999L1.63803 7.58704ZM13.516 24.696L7.91602 19.209C7.80706 19.1031 7.74459 18.9584 7.74234 18.8065C7.74009 18.6546 7.79825 18.5081 7.90402 18.399C8.20402 18.088 8.61902 17.6709 8.92502 17.3669C9.034 17.2588 9.18028 17.1966 9.33374 17.1931C9.4872 17.1896 9.63619 17.2451 9.75003 17.348L13.465 20.718C13.6359 20.872 13.8597 20.9541 14.0897 20.947C14.3196 20.9399 14.5379 20.8443 14.699 20.6801L21.942 13.243C22.0544 13.1288 22.2055 13.0606 22.3656 13.0521C22.5257 13.0436 22.6831 13.0953 22.807 13.197L24.024 14.197C24.0895 14.2508 24.1431 14.3176 24.1815 14.3932C24.2198 14.4688 24.242 14.5514 24.2467 14.636C24.2514 14.7206 24.2385 14.8053 24.2088 14.8846C24.179 14.964 24.1332 15.0363 24.074 15.097L14.774 24.675C14.609 24.8438 14.3837 24.9402 14.1476 24.943C13.9116 24.9458 13.6841 24.8547 13.515 24.6899L13.516 24.696Z" fill="#FD8983"></path>
</svg>
