<svg width="17" height="12" viewBox="0 0 17 12" fill="none" xmlns="http://www.w3.org/2000/svg">
<path d="M5.95101 11.9999C5.9177 12.0017 5.88432 12.0017 5.85101 11.9999C5.66928 11.9872 5.49232 11.936 5.33182 11.8499C5.17133 11.7637 5.03097 11.6444 4.92001 11.4999L0.25101 5.28489C0.152228 5.15401 0.0808449 5.00456 0.041125 4.84547C0.00140502 4.68638 -0.00583656 4.52091 0.0198333 4.35896C0.0455031 4.197 0.103558 4.04189 0.190528 3.90288C0.277497 3.76387 0.391597 3.64381 0.526009 3.54989C0.800037 3.35596 1.13847 3.27555 1.47044 3.32551C1.80241 3.37546 2.10219 3.5519 2.30701 3.81789L6.10701 8.85789L14.831 0.362894C15.0731 0.130653 15.3956 0.000976562 15.731 0.000976562C16.0665 0.000976562 16.3889 0.130653 16.631 0.362894C16.7491 0.476616 16.843 0.612985 16.9072 0.763845C16.9713 0.914706 17.0044 1.07696 17.0044 1.24089C17.0044 1.40483 16.9713 1.56708 16.9072 1.71794C16.843 1.8688 16.7491 2.00517 16.631 2.11889L6.85101 11.6369C6.60877 11.869 6.2865 11.999 5.95101 11.9999Z" fill="#5A77D0"></path>
<path d="M5.853 12C5.67128 11.9872 5.49435 11.9363 5.33386 11.8501C5.17338 11.7639 5.033 11.6444 4.922 11.5L0.246995 5.29199C0.148239 5.16119 0.0768796 5.01204 0.0371718 4.85303C-0.00253596 4.69401 -0.00977074 4.52857 0.0159011 4.3667C0.0415728 4.20483 0.0996275 4.04957 0.186586 3.91064C0.273544 3.77172 0.387624 3.65193 0.522005 3.55811C0.796153 3.36428 1.13465 3.28384 1.46663 3.33398C1.79861 3.38413 2.09832 3.561 2.303 3.82715L6.103 8.86621L14.828 0.37207C15.0701 0.13983 15.3925 0.0102539 15.728 0.0102539C16.0635 0.0102539 16.3859 0.13983 16.628 0.37207C16.7462 0.48572 16.8402 0.622079 16.9045 0.772949C16.9687 0.92382 17.0018 1.08602 17.0018 1.25C17.0018 1.41398 16.9687 1.57618 16.9045 1.72705C16.8402 1.87792 16.7462 2.01428 16.628 2.12793L6.853 11.646C6.6106 11.8777 6.28835 12.0072 5.953 12.0078C5.917 11.9998 5.884 12 5.853 12Z" fill="#94A8F9"></path>
</svg>
