<svg width="17" height="12" viewBox="0 0 17 12" fill="none" xmlns="http://www.w3.org/2000/svg">
<path d="M5.95101 11.9999C5.9177 12.0017 5.88432 12.0017 5.85101 11.9999C5.66928 11.9872 5.49232 11.936 5.33182 11.8499C5.17133 11.7637 5.03097 11.6444 4.92001 11.4999L0.25101 5.28489C0.152228 5.15401 0.0808449 5.00456 0.041125 4.84547C0.00140502 4.68638 -0.00583656 4.52091 0.0198333 4.35896C0.0455031 4.197 0.103558 4.04189 0.190528 3.90288C0.277497 3.76387 0.391597 3.64381 0.526009 3.54989C0.800037 3.35596 1.13847 3.27555 1.47044 3.32551C1.80241 3.37546 2.10219 3.5519 2.30701 3.81789L6.10701 8.85789L14.831 0.362894C15.0731 0.130653 15.3956 0.000976562 15.731 0.000976562C16.0665 0.000976562 16.3889 0.130653 16.631 0.362894C16.7491 0.476616 16.843 0.612985 16.9072 0.763845C16.9713 0.914706 17.0044 1.07696 17.0044 1.24089C17.0044 1.40483 16.9713 1.56708 16.9072 1.71794C16.843 1.8688 16.7491 2.00517 16.631 2.11889L6.85101 11.6369C6.60877 11.869 6.2865 11.999 5.95101 11.9999Z" fill="#5A77D0"></path>
<path d="M5.85201 12C5.67022 11.9875 5.49316 11.9363 5.33263 11.8501C5.1721 11.7639 5.03179 11.6447 4.92101 11.5L0.246999 5.29199C0.148056 5.16131 0.0765191 5.01202 0.0366563 4.85303C-0.00320651 4.69403 -0.0105647 4.52861 0.0150194 4.3667C0.0406034 4.20479 0.0986072 4.0496 0.185552 3.91064C0.272496 3.77169 0.386584 3.65192 0.521001 3.55811C0.795104 3.36387 1.13377 3.28305 1.46598 3.33301C1.79819 3.38297 2.09815 3.5599 2.303 3.82617L6.103 8.86621L14.828 0.37207C15.0701 0.13983 15.3925 0.0102539 15.728 0.0102539C16.0635 0.0102539 16.3859 0.13983 16.628 0.37207C16.7461 0.485792 16.84 0.622089 16.9042 0.772949C16.9683 0.92381 17.0014 1.08606 17.0014 1.25C17.0014 1.41394 16.9683 1.57619 16.9042 1.72705C16.84 1.87791 16.7461 2.01421 16.628 2.12793L6.85401 11.646C6.6115 11.8776 6.28931 12.007 5.954 12.0078C5.91984 12.0078 5.88575 12.0054 5.85201 12Z" fill="#94A8F9"></path>
</svg>
