<svg width="17" height="12" viewBox="0 0 17 12" fill="none" xmlns="http://www.w3.org/2000/svg">
<path d="M5.95098 11.9999C5.91767 12.0017 5.88429 12.0017 5.85098 11.9999C5.66925 11.9872 5.49229 11.936 5.33179 11.8499C5.1713 11.7637 5.03094 11.6444 4.91998 11.4999L0.250979 5.28489C0.152198 5.15401 0.0808144 5.00456 0.0410945 4.84547C0.0013745 4.68638 -0.00586707 4.52091 0.0198027 4.35896C0.0454725 4.197 0.103527 4.04189 0.190497 3.90288C0.277467 3.76387 0.391566 3.64381 0.525979 3.54989C0.800007 3.35596 1.13843 3.27555 1.47041 3.32551C1.80238 3.37546 2.10216 3.5519 2.30698 3.81789L6.10698 8.85789L14.831 0.362894C15.073 0.130653 15.3955 0.000976562 15.731 0.000976562C16.0664 0.000976562 16.3889 0.130653 16.631 0.362894C16.7491 0.476616 16.843 0.612985 16.9071 0.763845C16.9713 0.914706 17.0044 1.07696 17.0044 1.24089C17.0044 1.40483 16.9713 1.56708 16.9071 1.71794C16.843 1.8688 16.7491 2.00517 16.631 2.11889L6.85098 11.6369C6.60874 11.869 6.28647 11.999 5.95098 11.9999Z" fill="#5A77D0"></path>
<path d="M5.85201 12C5.67031 11.9872 5.49338 11.9358 5.33291 11.8496C5.17243 11.7634 5.03209 11.6444 4.92104 11.5L0.245994 5.29199C0.147288 5.16113 0.0760297 5.01159 0.0363994 4.85254C-0.00323086 4.69349 -0.0103625 4.52809 0.0154033 4.36621C0.0411692 4.20433 0.0993097 4.04953 0.186363 3.91064C0.273416 3.77176 0.387537 3.65186 0.521995 3.55811C0.796023 3.36417 1.13448 3.28354 1.46645 3.3335C1.79843 3.38345 2.09818 3.56018 2.303 3.82617L6.10305 8.86621L14.827 0.373047C15.0691 0.140806 15.3916 0.0112305 15.727 0.0112305C16.0625 0.0112305 16.385 0.140806 16.627 0.373047C16.7452 0.486696 16.8393 0.623055 16.9035 0.773926C16.9678 0.924796 17.0008 1.087 17.0008 1.25098C17.0008 1.41495 16.9678 1.57716 16.9035 1.72803C16.8393 1.8789 16.7452 2.01526 16.627 2.12891L6.85305 11.646C6.61115 11.8786 6.28863 12.0085 5.95303 12.0088C5.91803 11.9998 5.88401 12 5.85201 12Z" fill="#94A8F9"></path>
</svg>
