<svg width="16" height="12" viewBox="0 0 16 12" fill="none" xmlns="http://www.w3.org/2000/svg">
<mask id="mask0_1_3689" style="mask-type: luminance" maskUnits="userSpaceOnUse" x="0" y="0" width="16" height="13">
<path d="M16 0.000976562H0V12.001H16V0.000976562Z" fill="white"></path>
</mask>
<g mask="url('#mask0_1_3689')">
<path d="M9.66701 11.855C9.58192 11.8583 9.49902 11.8277 9.43643 11.77C9.37383 11.7123 9.33665 11.6321 9.33301 11.547C9.33365 11.5056 9.34286 11.4648 9.36008 11.4271C9.37729 11.3894 9.40212 11.3557 9.43301 11.328L15.2 6.00304L9.43101 0.667041C9.40076 0.639089 9.37678 0.605055 9.36062 0.567174C9.34446 0.529294 9.3365 0.488424 9.33725 0.447248C9.33801 0.406072 9.34746 0.365521 9.365 0.328259C9.38254 0.290997 9.40776 0.257866 9.43901 0.231042C9.50323 0.175252 9.58544 0.144531 9.67051 0.144531C9.75558 0.144531 9.83779 0.175252 9.90201 0.231042L15.902 5.78004C15.9327 5.80743 15.9573 5.84102 15.9742 5.87859C15.991 5.91616 15.9997 5.95687 15.9997 5.99804C15.9997 6.03922 15.991 6.07992 15.9742 6.11749C15.9573 6.15506 15.9327 6.18865 15.902 6.21604L9.90201 11.765C9.8377 11.8234 9.75384 11.8555 9.66701 11.855Z" fill="#576AA9"></path>
<path d="M9.666 12.0035C9.54119 12.0081 9.41963 11.9632 9.32783 11.8785C9.23604 11.7938 9.18145 11.6763 9.17599 11.5515C9.17656 11.491 9.18965 11.4312 9.21443 11.3759C9.23921 11.3207 9.27515 11.2712 9.31999 11.2305L14.974 6.0035L9.31999 0.770504C9.27522 0.729549 9.23963 0.67956 9.2156 0.623839C9.19157 0.568117 9.17963 0.507931 9.18057 0.447254C9.18152 0.386578 9.19533 0.326793 9.22108 0.271846C9.24684 0.2169 9.28396 0.168044 9.33 0.128504C9.42418 0.0462823 9.54497 0.000976562 9.67 0.000976562C9.79502 0.000976562 9.91581 0.0462823 10.01 0.128504L16.01 5.6795C16.0549 5.71983 16.0909 5.76917 16.1155 5.8243C16.1401 5.87944 16.1528 5.93913 16.1528 5.9995C16.1528 6.05988 16.1401 6.11957 16.1155 6.17471C16.0909 6.22984 16.0549 6.27918 16.01 6.3195L10.01 11.8685C9.91569 11.9543 9.7925 12.0015 9.665 12.0005L9.666 12.0035ZM9.67099 0.289504C9.62542 0.289128 9.5813 0.305497 9.547 0.335504C9.53059 0.350047 9.51745 0.367907 9.50845 0.387903C9.49945 0.407899 9.4948 0.429577 9.4948 0.451504C9.4948 0.473431 9.49945 0.495109 9.50845 0.515105C9.51745 0.535101 9.53059 0.55296 9.547 0.567504L15.416 6.0035L9.541 11.4315C9.52472 11.4461 9.51168 11.464 9.50273 11.484C9.49377 11.504 9.4891 11.5256 9.489 11.5475C9.49082 11.5927 9.51046 11.6353 9.54364 11.666C9.57681 11.6968 9.6208 11.7131 9.666 11.7115C9.71223 11.7119 9.75689 11.6947 9.791 11.6635L15.791 6.1145C15.8074 6.09996 15.8205 6.0821 15.8295 6.0621C15.8385 6.04211 15.8432 6.02043 15.8432 5.9985C15.8432 5.97658 15.8385 5.9549 15.8295 5.9349C15.8205 5.91491 15.8074 5.89705 15.791 5.8825L9.791 0.333504C9.75772 0.304651 9.71503 0.288997 9.67099 0.289504Z" fill="#576AA9"></path>
<path d="M15.667 6.30305H0.33298C0.29099 6.30544 0.248953 6.29923 0.209445 6.28481C0.169937 6.27039 0.13379 6.24805 0.103216 6.21917C0.0726424 6.19029 0.0482868 6.15547 0.0316407 6.11684C0.0149947 6.07822 0.00640869 6.0366 0.00640869 5.99455C0.00640869 5.95249 0.0149947 5.91087 0.0316407 5.87225C0.0482868 5.83363 0.0726424 5.79881 0.103216 5.76992C0.13379 5.74104 0.169937 5.71871 0.209445 5.70428C0.248953 5.68986 0.29099 5.68366 0.33298 5.68605H15.667C15.709 5.68366 15.751 5.68986 15.7905 5.70428C15.83 5.71871 15.8662 5.74104 15.8967 5.76992C15.9273 5.79881 15.9517 5.83363 15.9683 5.87225C15.985 5.91087 15.9936 5.95249 15.9936 5.99455C15.9936 6.0366 15.985 6.07822 15.9683 6.11684C15.9517 6.15547 15.9273 6.19029 15.8967 6.21917C15.8662 6.24805 15.83 6.27039 15.7905 6.28481C15.751 6.29923 15.709 6.30544 15.667 6.30305Z" fill="#576AA9"></path>
<path d="M15.667 6.45192H0.332993C0.270973 6.45605 0.208767 6.44739 0.150229 6.42649C0.0916903 6.40559 0.038067 6.37289 -0.00731906 6.33043C-0.0527051 6.28796 -0.0888871 6.23662 -0.113623 6.1796C-0.13836 6.12257 -0.151123 6.06108 -0.151123 5.99892C-0.151123 5.93676 -0.13836 5.87527 -0.113623 5.81825C-0.0888871 5.76122 -0.0527051 5.70989 -0.00731906 5.66742C0.038067 5.62495 0.0916903 5.59225 0.150229 5.57135C0.208767 5.55045 0.270973 5.5418 0.332993 5.54592H15.667C15.729 5.5418 15.7912 5.55045 15.8498 5.57135C15.9083 5.59225 15.9619 5.62495 16.0073 5.66742C16.0527 5.70989 16.0889 5.76122 16.1136 5.81825C16.1383 5.87527 16.1511 5.93676 16.1511 5.99892C16.1511 6.06108 16.1383 6.12257 16.1136 6.1796C16.0889 6.23662 16.0527 6.28796 16.0073 6.33043C15.9619 6.37289 15.9083 6.40559 15.8498 6.42649C15.7912 6.44739 15.729 6.45605 15.667 6.45192ZM0.332993 5.83492C0.289498 5.83492 0.247784 5.8522 0.217028 5.88296C0.186272 5.91371 0.168993 5.95543 0.168993 5.99892C0.168993 6.04242 0.186272 6.08413 0.217028 6.11489C0.247784 6.14564 0.289498 6.16292 0.332993 6.16292H15.667C15.7105 6.16292 15.7522 6.14564 15.783 6.11489C15.8137 6.08413 15.831 6.04242 15.831 5.99892C15.831 5.95543 15.8137 5.91371 15.783 5.88296C15.7522 5.8522 15.7105 5.83492 15.667 5.83492H0.332993Z" fill="#576AA9"></path>
</g>
<path d="M9.177 11.5469C9.17777 11.4865 9.19092 11.4271 9.2157 11.3721C9.24047 11.317 9.27631 11.2672 9.32098 11.2266L14.486 6.45215H0.333008C0.211114 6.45291 0.092973 6.40989 0 6.33105V5.66699C0.0931145 5.58852 0.211241 5.54584 0.333008 5.54688H14.486L9.32098 0.772461C9.27623 0.731084 9.24067 0.680003 9.21655 0.624023C9.19244 0.568044 9.18035 0.508214 9.18103 0.447266C9.18217 0.387017 9.19588 0.327063 9.22137 0.272461C9.24687 0.217859 9.28352 0.169439 9.32898 0.129883C9.42342 0.0477846 9.54436 0.00292969 9.66949 0.00292969C9.79463 0.00292969 9.91557 0.0477846 10.01 0.129883L16 5.66797V6.33203L10.012 11.8711C9.91705 11.9564 9.79365 12.0029 9.66602 12.002C9.60402 12.0042 9.54215 11.9943 9.48401 11.9727C9.42587 11.951 9.37263 11.9182 9.32721 11.876C9.28179 11.8337 9.24513 11.783 9.21936 11.7266C9.19359 11.6701 9.17919 11.6089 9.177 11.5469Z" fill="white"></path>
</svg>
