<svg width="16" height="12" viewBox="0 0 16 12" fill="none" xmlns="http://www.w3.org/2000/svg">
<mask id="mask0_1_1113" style="mask-type: luminance" maskUnits="userSpaceOnUse" x="0" y="0" width="16" height="12">
<path d="M16 0H0V12H16V0Z" fill="white"></path>
</mask>
<g mask="url('#mask0_1_1113')">
<path d="M9.66699 11.855C9.58191 11.8583 9.499 11.8277 9.43641 11.77C9.37382 11.7123 9.33663 11.6321 9.33299 11.547C9.33363 11.5056 9.34285 11.4648 9.36006 11.4271C9.37727 11.3894 9.4021 11.3557 9.43299 11.328L15.2 6.00304L9.43099 0.667041C9.40075 0.639089 9.37676 0.605055 9.3606 0.567174C9.34444 0.529294 9.33648 0.488424 9.33724 0.447248C9.33799 0.406072 9.34745 0.365521 9.36499 0.328259C9.38252 0.290997 9.40774 0.257866 9.43899 0.231042C9.50321 0.175252 9.58542 0.144531 9.67049 0.144531C9.75556 0.144531 9.83777 0.175252 9.90199 0.231042L15.902 5.78004C15.9327 5.80743 15.9573 5.84102 15.9742 5.87859C15.991 5.91616 15.9997 5.95687 15.9997 5.99804C15.9997 6.03922 15.991 6.07992 15.9742 6.11749C15.9573 6.15506 15.9327 6.18865 15.902 6.21604L9.90199 11.765C9.83768 11.8234 9.75383 11.8555 9.66699 11.855Z" fill="#576AA9"></path>
<path d="M9.666 12.003C9.54119 12.0076 9.41963 11.9627 9.32783 11.878C9.23604 11.7933 9.18145 11.6758 9.17599 11.551C9.17656 11.4905 9.18965 11.4307 9.21443 11.3755C9.23921 11.3202 9.27515 11.2707 9.31999 11.23L14.974 6.00302L9.31999 0.770016C9.27522 0.729061 9.23963 0.679072 9.2156 0.623351C9.19157 0.567629 9.17963 0.507442 9.18057 0.446766C9.18152 0.38609 9.19533 0.326304 9.22108 0.271358C9.24684 0.216412 9.28396 0.167556 9.33 0.128016C9.42418 0.045794 9.54497 0.000488281 9.67 0.000488281C9.79502 0.000488281 9.91581 0.045794 10.01 0.128016L16.01 5.67902C16.0549 5.71934 16.0909 5.76868 16.1155 5.82381C16.1401 5.87895 16.1528 5.93864 16.1528 5.99902C16.1528 6.05939 16.1401 6.11908 16.1155 6.17422C16.0909 6.22935 16.0549 6.27869 16.01 6.31902L10.01 11.868C9.91569 11.9538 9.7925 12.001 9.665 12L9.666 12.003ZM9.67099 0.289016C9.62542 0.28864 9.5813 0.305008 9.547 0.335016C9.53059 0.349559 9.51745 0.367419 9.50845 0.387415C9.49945 0.407411 9.4948 0.429089 9.4948 0.451016C9.4948 0.472943 9.49945 0.49462 9.50845 0.514616C9.51745 0.534613 9.53059 0.552472 9.547 0.567016L15.416 6.00302L9.541 11.431C9.52472 11.4457 9.51168 11.4635 9.50273 11.4835C9.49377 11.5035 9.4891 11.5251 9.489 11.547C9.49082 11.5922 9.51046 11.6348 9.54364 11.6656C9.57681 11.6963 9.6208 11.7126 9.666 11.711C9.71223 11.7114 9.75689 11.6942 9.791 11.663L15.791 6.11402C15.8074 6.09947 15.8205 6.08161 15.8295 6.06162C15.8385 6.04162 15.8432 6.01994 15.8432 5.99802C15.8432 5.97609 15.8385 5.95441 15.8295 5.93441C15.8205 5.91442 15.8074 5.89656 15.791 5.88202L9.791 0.333016C9.75772 0.304163 9.71503 0.288509 9.67099 0.289016Z" fill="#576AA9"></path>
<path d="M15.667 6.30305H0.332995C0.291005 6.30544 0.248969 6.29923 0.209461 6.28481C0.169953 6.27039 0.133805 6.24805 0.103231 6.21917C0.0726577 6.19029 0.048302 6.15547 0.031656 6.11684C0.0150099 6.07822 0.00642395 6.0366 0.00642395 5.99455C0.00642395 5.95249 0.0150099 5.91087 0.031656 5.87225C0.048302 5.83363 0.0726577 5.79881 0.103231 5.76992C0.133805 5.74104 0.169953 5.71871 0.209461 5.70428C0.248969 5.68986 0.291005 5.68366 0.332995 5.68605H15.667C15.709 5.68366 15.751 5.68986 15.7905 5.70428C15.83 5.71871 15.8662 5.74104 15.8968 5.76992C15.9273 5.79881 15.9517 5.83363 15.9683 5.87225C15.985 5.91087 15.9936 5.95249 15.9936 5.99455C15.9936 6.0366 15.985 6.07822 15.9683 6.11684C15.9517 6.15547 15.9273 6.19029 15.8968 6.21917C15.8662 6.24805 15.83 6.27039 15.7905 6.28481C15.751 6.29923 15.709 6.30544 15.667 6.30305Z" fill="#576AA9"></path>
<path d="M15.667 6.45095H0.332993C0.270973 6.45507 0.208767 6.44641 0.150229 6.42551C0.0916903 6.40461 0.038067 6.37192 -0.00731906 6.32945C-0.0527051 6.28698 -0.0888871 6.23564 -0.113623 6.17862C-0.13836 6.1216 -0.151123 6.0601 -0.151123 5.99795C-0.151123 5.93579 -0.13836 5.87429 -0.113623 5.81727C-0.0888871 5.76025 -0.0527051 5.70891 -0.00731906 5.66644C0.038067 5.62397 0.0916903 5.59128 0.150229 5.57038C0.208767 5.54948 0.270973 5.54082 0.332993 5.54495H15.667C15.729 5.54082 15.7912 5.54948 15.8498 5.57038C15.9083 5.59128 15.9619 5.62397 16.0073 5.66644C16.0527 5.70891 16.0889 5.76025 16.1136 5.81727C16.1383 5.87429 16.1511 5.93579 16.1511 5.99795C16.1511 6.0601 16.1383 6.1216 16.1136 6.17862C16.0889 6.23564 16.0527 6.28698 16.0073 6.32945C15.9619 6.37192 15.9083 6.40461 15.8498 6.42551C15.7912 6.44641 15.729 6.45507 15.667 6.45095ZM0.332993 5.83395C0.289498 5.83395 0.247784 5.85122 0.217028 5.88198C0.186272 5.91274 0.168993 5.95445 0.168993 5.99795C0.168993 6.04144 0.186272 6.08315 0.217028 6.11391C0.247784 6.14467 0.289498 6.16195 0.332993 6.16195H15.667C15.7105 6.16195 15.7522 6.14467 15.783 6.11391C15.8137 6.08315 15.831 6.04144 15.831 5.99795C15.831 5.95445 15.8137 5.91274 15.783 5.88198C15.7522 5.85122 15.7105 5.83395 15.667 5.83395H0.332993Z" fill="#576AA9"></path>
</g>
<path d="M9.66602 12.0001C9.54121 12.0047 9.41962 11.9598 9.32782 11.8751C9.23602 11.7904 9.18149 11.6729 9.17603 11.5481C9.17659 11.4876 9.18964 11.4278 9.21442 11.3726C9.2392 11.3173 9.27517 11.2679 9.32001 11.2272L14.484 6.45215H0.333008C0.21094 6.4529 0.0926936 6.40951 0 6.33008V5.66711C0.093018 5.58836 0.21113 5.54547 0.333008 5.54614H14.485L9.32098 0.770142C9.2762 0.729187 9.24065 0.679135 9.21661 0.623413C9.19258 0.567691 9.18063 0.507576 9.18158 0.446899C9.18252 0.386223 9.19635 0.32643 9.22211 0.271484C9.24786 0.216538 9.28496 0.167714 9.33099 0.128174C9.42527 0.0461495 9.54605 0.000976562 9.67102 0.000976562C9.79599 0.000976562 9.91671 0.0461495 10.011 0.128174L16.001 5.66711V6.33118L10.013 11.8682C9.91849 11.9543 9.79389 12.0014 9.66602 12.0001Z" fill="#444444"></path>
</svg>
