<svg width="24" height="24" viewBox="0 0 24 24" fill="none" xmlns="http://www.w3.org/2000/svg">
<path d="M4.96898 24H2.15598C1.97033 24 1.79228 23.9262 1.661 23.795C1.52973 23.6637 1.45598 23.4856 1.45598 23.3V18.141C1.45624 17.8302 1.57981 17.5323 1.79954 17.3126C2.01928 17.0928 2.31723 16.9693 2.62798 16.969H4.49998C4.81073 16.9693 5.10868 17.0928 5.32842 17.3126C5.54815 17.5323 5.67171 17.8302 5.67198 18.141V23.3C5.67198 23.3922 5.65377 23.4834 5.61841 23.5686C5.58304 23.6537 5.53121 23.731 5.46589 23.796C5.40057 23.8611 5.32305 23.9126 5.23778 23.9476C5.1525 23.9826 5.06116 24.0004 4.96898 24ZM2.85898 22.594H4.26598V18.375H2.85898V22.594Z" fill="#576AA9"></path>
<path d="M10.594 24H7.78098C7.59533 24 7.41728 23.9263 7.286 23.795C7.15473 23.6637 7.08098 23.4857 7.08098 23.3V16.453C7.08124 16.1428 7.20439 15.8453 7.42348 15.6256C7.64257 15.406 7.93975 15.2821 8.24998 15.281H10.125C10.2791 15.2807 10.4318 15.3109 10.5742 15.3696C10.7167 15.4284 10.8462 15.5147 10.9554 15.6235C11.0645 15.7324 11.1511 15.8616 11.2102 16.004C11.2693 16.1463 11.2998 16.2989 11.3 16.453V23.3C11.3 23.3924 11.2817 23.484 11.2461 23.5693C11.2106 23.6546 11.1585 23.732 11.0928 23.7971C11.0272 23.8622 10.9493 23.9136 10.8637 23.9485C10.7781 23.9833 10.6864 24.0008 10.594 24ZM8.48398 22.594H9.89098V16.688H8.48398V22.594Z" fill="#576AA9"></path>
<path d="M16.219 24H13.406C13.2203 24 13.0423 23.9262 12.911 23.7949C12.7797 23.6637 12.706 23.4856 12.706 23.3V13.875C12.7054 13.5642 12.8282 13.2659 13.0474 13.0456C13.2666 12.8253 13.5642 12.701 13.875 12.7H15.75C16.0607 12.7002 16.3587 12.8238 16.5784 13.0435C16.7981 13.2632 16.9217 13.5612 16.922 13.872V23.3C16.922 23.3921 16.9038 23.4834 16.8684 23.5685C16.833 23.6536 16.7812 23.7309 16.7159 23.796C16.6506 23.861 16.573 23.9125 16.4878 23.9475C16.4025 23.9825 16.3111 24.0003 16.219 24ZM14.11 22.594H15.516V14.109H14.109L14.11 22.594Z" fill="#576AA9"></path>
<path d="M21.844 24.0001H19.031C18.8453 24.0001 18.6673 23.9264 18.536 23.7951C18.4047 23.6638 18.331 23.4858 18.331 23.3001V9.18811C18.3312 8.87788 18.4544 8.58038 18.6735 8.36073C18.8926 8.14108 19.1897 8.01717 19.5 8.01611H21.375C21.6857 8.01638 21.9837 8.13994 22.2034 8.35968C22.4231 8.57941 22.5467 8.87736 22.547 9.18811V23.3001C22.547 23.3923 22.5288 23.4836 22.4934 23.5687C22.458 23.6538 22.4062 23.7311 22.3409 23.7962C22.2756 23.8612 22.198 23.9127 22.1128 23.9477C22.0275 23.9827 21.9361 24.0005 21.844 24.0001ZM19.735 22.5941H21.14V9.42211H19.734L19.735 22.5941Z" fill="#576AA9"></path>
<path d="M0.699972 15.108C0.513259 15.108 0.334194 15.0338 0.202168 14.9018C0.0701429 14.7698 -0.00402832 14.5907 -0.00402832 14.404C-0.00402832 14.2173 0.0701429 14.0382 0.202168 13.9062C0.334194 13.7742 0.513259 13.7 0.699972 13.7C5.25023 13.5634 9.6593 12.0887 13.376 9.45999C16.8445 7.22667 19.6501 4.10336 21.5 0.415986C21.5761 0.245717 21.7167 0.11266 21.8909 0.0460842C22.0652 -0.0204912 22.2587 -0.0151308 22.429 0.0609864C22.5992 0.137104 22.7323 0.277742 22.7989 0.451963C22.8654 0.626185 22.8601 0.819717 22.784 0.989986C20.8262 4.91648 17.849 8.24457 14.164 10.626C10.2145 13.4118 5.53113 14.9709 0.699972 15.108Z" fill="#576AA9"></path>
<path d="M23.3 5.70003C23.1451 5.70053 22.9944 5.64966 22.8716 5.55538C22.7487 5.46111 22.6606 5.32875 22.621 5.17903L21.652 1.56103L18.034 2.53003C17.8539 2.5783 17.662 2.55305 17.5005 2.45985C17.3391 2.36664 17.2212 2.21311 17.173 2.03303C17.1247 1.85294 17.1499 1.66106 17.2432 1.49959C17.3364 1.33813 17.4899 1.2203 17.67 1.17203L21.97 0.0210268C22.0593 -0.00323213 22.1526 -0.00951661 22.2445 0.00253741C22.3363 0.0145914 22.4248 0.0447444 22.5049 0.0912495C22.585 0.137755 22.655 0.199688 22.711 0.273461C22.767 0.347234 22.8077 0.431381 22.831 0.521027L23.982 4.82103C24.0106 4.9253 24.0146 5.03478 23.9938 5.14088C23.9729 5.24697 23.9278 5.3468 23.8619 5.43254C23.7961 5.51827 23.7112 5.58758 23.6141 5.63503C23.5169 5.68248 23.4101 5.70678 23.302 5.70603L23.3 5.70003Z" fill="#576AA9"></path>
<path d="M19.032 24C18.8463 24 18.6683 23.9262 18.537 23.7949C18.4058 23.6637 18.332 23.4857 18.332 23.3001V9.19094C18.3325 8.8801 18.4563 8.58228 18.6762 8.36257C18.8961 8.14287 19.1941 8.01933 19.505 8.01907H21.38C21.6907 8.0196 21.9884 8.14314 22.2081 8.36282C22.4278 8.5825 22.5515 8.88027 22.552 9.19094V23.3001C22.552 23.4857 22.4782 23.6637 22.347 23.7949C22.2157 23.9262 22.0376 24 21.852 24H19.032ZM19.732 22.594H21.138V9.42214H19.732V22.594ZM13.407 24C13.2213 24 13.0433 23.9262 12.912 23.7949C12.7808 23.6637 12.707 23.4857 12.707 23.3001V13.8789C12.7075 13.5681 12.8313 13.2703 13.0512 13.0506C13.2711 12.8309 13.5691 12.7073 13.88 12.7071H15.755C16.0657 12.7073 16.3637 12.8308 16.5834 13.0506C16.8032 13.2703 16.9267 13.5682 16.927 13.8789V23.3001C16.927 23.4857 16.8532 23.6637 16.722 23.7949C16.5907 23.9262 16.4126 24 16.227 24H13.407ZM14.107 22.594H15.513V14.1101H14.11L14.107 22.594ZM7.78196 24C7.59631 24 7.4183 23.9262 7.28703 23.7949C7.15575 23.6637 7.08195 23.4857 7.08195 23.3001V16.4561C7.08222 16.1453 7.20578 15.8472 7.42552 15.6275C7.64525 15.4077 7.94326 15.2842 8.25401 15.284H10.129C10.4398 15.2842 10.7377 15.4077 10.9574 15.6275C11.1772 15.8472 11.3007 16.1453 11.301 16.4561V23.3001C11.301 23.4857 11.2272 23.6637 11.0959 23.7949C10.9647 23.9262 10.7866 24 10.601 24H7.78196ZM8.48198 22.594H9.88798V16.688H8.48198V22.594ZM2.15696 24C1.97131 24 1.7933 23.9262 1.66203 23.7949C1.53075 23.6637 1.45695 23.4857 1.45695 23.3001V18.1441C1.45722 17.8333 1.58078 17.5354 1.80052 17.3157C2.02025 17.096 2.31826 16.9722 2.62901 16.9719H4.49998C4.81073 16.9722 5.10868 17.096 5.32841 17.3157C5.54815 17.5354 5.67171 17.8333 5.67198 18.1441V23.3001C5.67198 23.4857 5.59824 23.6637 5.46696 23.7949C5.33568 23.9262 5.15762 24 4.97197 24H2.15696ZM2.85698 22.594H4.26396V18.375H2.85997L2.85698 22.594ZM-1.95353e-05 14.406C-1.95353e-05 14.2204 0.0737221 14.0424 0.204998 13.9112C0.336273 13.7799 0.514341 13.7061 0.699993 13.7061C5.25043 13.5697 9.65977 12.0952 13.377 9.46707C16.3873 7.49001 18.9215 4.8696 20.797 1.79495L18.028 2.53713C17.9388 2.5611 17.8458 2.56718 17.7543 2.5552C17.6627 2.54322 17.5744 2.51341 17.4944 2.46731C17.4144 2.42121 17.3443 2.35961 17.288 2.2864C17.2317 2.21319 17.1905 2.12972 17.1665 2.04055C17.1425 1.95138 17.1363 1.85842 17.1483 1.76687C17.1603 1.67532 17.1902 1.58686 17.2363 1.50686C17.2824 1.42686 17.3438 1.35683 17.417 1.30056C17.4902 1.2443 17.5738 1.20295 17.663 1.17898L21.956 0.0290773L21.978 0.0239504H21.998H22.003H22.017H22.03H22.037C22.2071 -0.000908532 22.3805 0.0377911 22.524 0.132593C22.6675 0.227395 22.7711 0.371824 22.815 0.538111L23.966 4.83792C24.0143 5.018 23.989 5.20989 23.8958 5.37136C23.8026 5.53283 23.6491 5.65073 23.469 5.699C23.2889 5.74727 23.097 5.72214 22.9355 5.62893C22.7741 5.53573 22.6562 5.38201 22.608 5.20193L21.925 2.65505C19.9457 5.85111 17.2948 8.57814 14.156 10.647C10.2069 13.4327 5.52377 14.9914 0.692974 15.128C0.599758 15.1271 0.507679 15.1075 0.4221 15.0706C0.336521 15.0336 0.259173 14.9801 0.194622 14.9129C0.13007 14.8456 0.079608 14.766 0.0461841 14.679C0.0127602 14.592 -0.00295351 14.4992 -1.95353e-05 14.406Z" fill="#FD8983"></path>
</svg>
