<svg width="17" height="12" viewBox="0 0 17 12" fill="none" xmlns="http://www.w3.org/2000/svg">
<path d="M5.95098 11.9999C5.91767 12.0017 5.88429 12.0017 5.85098 11.9999C5.66925 11.9872 5.49229 11.936 5.33179 11.8499C5.1713 11.7637 5.03094 11.6444 4.91998 11.4999L0.250979 5.28489C0.152198 5.15401 0.0808144 5.00456 0.0410945 4.84547C0.0013745 4.68638 -0.00586707 4.52091 0.0198027 4.35896C0.0454725 4.197 0.103527 4.04189 0.190497 3.90288C0.277467 3.76387 0.391566 3.64381 0.525979 3.54989C0.800007 3.35596 1.13843 3.27555 1.47041 3.32551C1.80238 3.37546 2.10216 3.5519 2.30698 3.81789L6.10698 8.85789L14.831 0.362894C15.073 0.130653 15.3955 0.000976562 15.731 0.000976562C16.0664 0.000976562 16.3889 0.130653 16.631 0.362894C16.7491 0.476616 16.843 0.612985 16.9071 0.763845C16.9713 0.914706 17.0044 1.07696 17.0044 1.24089C17.0044 1.40483 16.9713 1.56708 16.9071 1.71794C16.843 1.8688 16.7491 2.00517 16.631 2.11889L6.85098 11.6369C6.60874 11.869 6.28647 11.999 5.95098 11.9999Z" fill="#5A77D0"></path>
<path d="M5.85199 12C5.67026 11.9873 5.49329 11.9363 5.3328 11.8501C5.1723 11.7639 5.03195 11.6445 4.92099 11.5L0.245989 5.29297C0.147282 5.16211 0.0759788 5.01257 0.0363485 4.85352C-0.00328184 4.69446 -0.0104287 4.52906 0.0153371 4.36719C0.0411029 4.20531 0.0992588 4.05051 0.186312 3.91162C0.273365 3.77273 0.387532 3.65283 0.52199 3.55908C0.796018 3.36515 1.13444 3.28452 1.46642 3.33447C1.79839 3.38443 2.09816 3.56116 2.30298 3.82715L6.10298 8.86719L14.827 0.373047C15.0691 0.140806 15.3915 0.0112305 15.727 0.0112305C16.0625 0.0112305 16.3849 0.140806 16.627 0.373047C16.7452 0.486609 16.8392 0.62265 16.9034 0.773438C16.9676 0.924225 17.0007 1.08659 17.0007 1.25049C17.0007 1.41438 16.9676 1.57675 16.9034 1.72754C16.8392 1.87833 16.7452 2.01437 16.627 2.12793L6.85298 11.646C6.61109 11.8786 6.2886 12.0085 5.95299 12.0088C5.91915 12.0082 5.88541 12.0054 5.85199 12Z" fill="#94A8F9"></path>
</svg>
