<svg width="39" height="39" viewBox="0 0 39 39" fill="none" xmlns="http://www.w3.org/2000/svg">
<path d="M13.592 29.3621C13.3798 29.3621 13.1764 29.2778 13.0263 29.1278C12.8763 28.9778 12.792 28.7743 12.792 28.5621V10.4381C12.7922 10.2977 12.8292 10.1599 12.8995 10.0384C12.9698 9.91688 13.0708 9.81601 13.1924 9.74589C13.314 9.67577 13.4519 9.63888 13.5922 9.63892C13.7326 9.63895 13.8705 9.67592 13.992 9.7461L29.692 18.8081C29.8133 18.8784 29.9139 18.9794 29.9838 19.1008C30.0538 19.2223 30.0906 19.3599 30.0906 19.5001C30.0906 19.6402 30.0538 19.7779 29.9838 19.8994C29.9139 20.0208 29.8133 20.1218 29.692 20.1921L13.992 29.2541C13.8705 29.3246 13.7325 29.3618 13.592 29.3621ZM14.392 11.8221V27.1791L27.692 19.5011L14.392 11.8221Z" fill="#FD8983"></path>
<path d="M19.5 39.0001C15.6432 39.0003 11.8729 37.8567 8.66596 35.714C5.45905 33.5714 2.95956 30.5258 1.48358 26.9625C0.00760305 23.3993 -0.378563 19.4784 0.373918 15.6956C1.1264 11.9129 2.98373 8.43823 5.71102 5.7111C7.52182 3.90031 9.67155 2.4639 12.0375 1.48391C14.4034 0.50391 16.9392 -0.000488254 19.5 -0.000488281C22.0609 -0.000488308 24.5967 0.503909 26.9626 1.48391C29.3285 2.4639 31.4782 3.90031 33.289 5.7111C35.0998 7.5219 36.5362 9.67163 37.5162 12.0375C38.4962 14.4035 39.0006 16.9392 39.0006 19.5001C39.0006 22.061 38.4962 24.5967 37.5162 26.9627C36.5362 29.3286 35.0998 31.4783 33.289 33.2891C31.4824 35.1055 29.3335 36.5455 26.9666 37.5258C24.5997 38.5061 22.0619 39.0072 19.5 39.0001ZM19.5 1.6001C15.9592 1.5994 12.4977 2.64883 9.55344 4.61566C6.60914 6.58249 4.3143 9.37835 2.9592 12.6496C1.6041 15.9208 1.24961 19.5205 1.94058 22.9932C2.63155 26.4659 4.33694 29.6557 6.84102 32.1591C10.1983 35.5165 14.7517 37.4027 19.4997 37.4028C24.2476 37.4029 28.8011 35.5168 32.1585 32.1596C35.5159 28.8024 37.4021 24.2489 37.4022 19.501C37.4023 14.753 35.5163 10.1995 32.159 6.8421C30.5004 5.17475 28.5275 3.85292 26.3546 2.95313C24.1817 2.05334 21.8519 1.59346 19.5 1.6001Z" fill="#FD8983"></path>
<path d="M5.71104 33.288C2.52114 30.0978 0.536063 25.9004 0.0940395 21.4107C-0.347984 16.921 0.780385 12.4169 3.28691 8.66593C5.79344 4.91492 9.52305 2.14897 13.8402 0.83951C18.1574 -0.469953 22.7951 -0.242014 26.963 1.48453C31.1309 3.21107 34.5713 6.32939 36.6979 10.3081C38.8244 14.2869 39.5057 18.8799 38.6255 23.3046C37.7453 27.7293 35.3581 31.7119 31.8707 34.5739C28.3833 37.4358 24.0114 39.0001 19.5 39C16.9381 39.007 14.4003 38.5058 12.0334 37.5253C9.66648 36.5448 7.51756 35.1046 5.71104 33.288ZM6.84105 6.84097C3.91235 9.76884 2.08946 13.6216 1.68294 17.7428C1.27641 21.864 2.31142 25.9988 4.61162 29.4424C6.91182 32.8861 10.3349 35.4257 14.2976 36.6284C18.2603 37.8312 22.5174 37.6227 26.3437 36.0386C30.1699 34.4545 33.3286 31.5927 35.2814 27.9408C37.2342 24.289 37.8603 20.0729 37.0531 16.0111C36.246 11.9493 34.0555 8.29309 30.8548 5.66532C27.6541 3.03754 23.6413 1.60084 19.5 1.60001C17.1482 1.59331 14.8184 2.05324 12.6455 2.95304C10.4725 3.85283 8.49966 5.17467 6.84105 6.84207V6.84097ZM13.192 29.2541C13.0705 29.1839 12.9696 29.083 12.8994 28.9616C12.8292 28.8401 12.7922 28.7023 12.792 28.562V10.437C12.7922 10.2967 12.8292 10.1588 12.8995 10.0373C12.9698 9.91576 13.0708 9.8149 13.1924 9.74478C13.314 9.67467 13.4519 9.63781 13.5922 9.63785C13.7326 9.63789 13.8705 9.67485 13.9921 9.74503L29.692 18.808C29.8133 18.8783 29.9139 18.9793 29.9839 19.1007C30.0538 19.2222 30.0906 19.3599 30.0906 19.5C30.0906 19.6402 30.0538 19.7779 29.9839 19.8993C29.9139 20.0208 29.8133 20.1217 29.692 20.192L13.9921 29.2541C13.8704 29.3243 13.7325 29.3612 13.5921 29.3612C13.4516 29.3612 13.3136 29.3243 13.192 29.2541ZM14.392 27.178L27.692 19.5L14.392 11.8211V27.178Z" fill="#FD8983"></path>
</svg>
