<svg width="17" height="12" viewBox="0 0 17 12" fill="none" xmlns="http://www.w3.org/2000/svg">
<path d="M5.95098 11.9999C5.91767 12.0017 5.88429 12.0017 5.85098 11.9999C5.66925 11.9872 5.49229 11.936 5.33179 11.8499C5.1713 11.7637 5.03094 11.6444 4.91998 11.4999L0.250979 5.28489C0.152198 5.15401 0.0808144 5.00456 0.0410945 4.84547C0.0013745 4.68638 -0.00586707 4.52091 0.0198027 4.35896C0.0454725 4.197 0.103527 4.04189 0.190497 3.90288C0.277467 3.76387 0.391566 3.64381 0.525979 3.54989C0.800007 3.35596 1.13843 3.27555 1.47041 3.32551C1.80238 3.37546 2.10216 3.5519 2.30698 3.81789L6.10698 8.85789L14.831 0.362894C15.073 0.130653 15.3955 0.000976562 15.731 0.000976562C16.0664 0.000976562 16.3889 0.130653 16.631 0.362894C16.7491 0.476616 16.843 0.612985 16.9071 0.763845C16.9713 0.914706 17.0044 1.07696 17.0044 1.24089C17.0044 1.40483 16.9713 1.56708 16.9071 1.71794C16.843 1.8688 16.7491 2.00517 16.631 2.11889L6.85098 11.6369C6.60874 11.869 6.28647 11.999 5.95098 11.9999Z" fill="#5A77D0"></path>
<path d="M5.85303 12C5.671 11.9874 5.49366 11.9363 5.33283 11.8501C5.172 11.7639 5.03129 11.6446 4.91998 11.5L0.245973 5.29297C0.147166 5.16223 0.0757363 5.01298 0.035951 4.854C-0.00383423 4.69503 -0.0111111 4.52954 0.0144667 4.36768C0.0400444 4.20581 0.0979521 4.05107 0.184816 3.91211C0.27168 3.77315 0.385717 3.65299 0.520021 3.55908C0.794049 3.36515 1.13244 3.28452 1.46442 3.33447C1.79639 3.38443 2.09621 3.56116 2.30103 3.82715L6.10101 8.86719L14.825 0.373047C15.0671 0.140806 15.3895 0.0112305 15.725 0.0112305C16.0604 0.0112305 16.3829 0.140806 16.625 0.373047C16.7428 0.486827 16.8365 0.623168 16.9005 0.773926C16.9644 0.924684 16.9974 1.08671 16.9974 1.25049C16.9974 1.41426 16.9644 1.57629 16.9005 1.72705C16.8365 1.87781 16.7428 2.01415 16.625 2.12793L6.85101 11.646C6.6086 11.8778 6.28642 12.0076 5.95099 12.0088C5.91815 12.0081 5.88544 12.0053 5.85303 12Z" fill="#94A8F9"></path>
</svg>
