<svg width="17" height="12" viewBox="0 0 17 12" fill="none" xmlns="http://www.w3.org/2000/svg">
<path d="M5.95104 11.9999C5.91773 12.0017 5.88435 12.0017 5.85104 11.9999C5.66931 11.9872 5.49235 11.936 5.33185 11.8499C5.17136 11.7637 5.031 11.6444 4.92004 11.4999L0.25104 5.28489C0.152259 5.15401 0.0808755 5.00456 0.0411555 4.84547C0.00143554 4.68638 -0.00580604 4.52091 0.0198638 4.35896C0.0455336 4.197 0.103588 4.04189 0.190558 3.90288C0.277528 3.76387 0.391627 3.64381 0.52604 3.54989C0.800068 3.35596 1.1385 3.27555 1.47047 3.32551C1.80244 3.37546 2.10222 3.5519 2.30704 3.81789L6.10704 8.85789L14.831 0.362894C15.0731 0.130653 15.3956 0.000976562 15.731 0.000976562C16.0665 0.000976562 16.389 0.130653 16.631 0.362894C16.7491 0.476616 16.843 0.612985 16.9072 0.763845C16.9714 0.914706 17.0044 1.07696 17.0044 1.24089C17.0044 1.40483 16.9714 1.56708 16.9072 1.71794C16.843 1.8688 16.7491 2.00517 16.631 2.11889L6.85104 11.6369C6.6088 11.869 6.28653 11.999 5.95104 11.9999Z" fill="#5A77D0"></path>
<path d="M5.85302 12C5.67114 11.9873 5.49404 11.9363 5.33338 11.8501C5.17272 11.7639 5.03218 11.6445 4.92103 11.5L0.248021 5.29199C0.149079 5.16131 0.0775262 5.01202 0.0376634 4.85303C-0.00219943 4.69403 -0.00955762 4.52861 0.0160264 4.3667C0.0416105 4.20479 0.0996143 4.0496 0.186559 3.91064C0.273503 3.77169 0.387606 3.65192 0.522023 3.55811C0.796201 3.36356 1.13508 3.28255 1.46753 3.33252C1.79998 3.38249 2.10014 3.55962 2.30501 3.82617L6.09902 8.86621L14.823 0.373047C15.0651 0.140806 15.3876 0.0112305 15.723 0.0112305C16.0585 0.0112305 16.381 0.140806 16.623 0.373047C16.7412 0.486696 16.8353 0.623055 16.8995 0.773926C16.9637 0.924796 16.9968 1.087 16.9968 1.25098C16.9968 1.41495 16.9637 1.57716 16.8995 1.72803C16.8353 1.8789 16.7412 2.01526 16.623 2.12891L6.84902 11.646C6.60712 11.8786 6.28463 12.0085 5.94903 12.0088C5.91803 11.9998 5.88502 12 5.85302 12Z" fill="#94A8F9"></path>
</svg>
